<?xml version="1.0" encoding="UTF-8" standalone="no"?>
<svg
   height="48"
   viewBox="0 -960 1152 1152"
   width="48"
   version="1.1"
   id="svg4"
   sodipodi:docname="sidemount.svg"
   xml:space="preserve"
   inkscape:version="1.2.1 (9c6d41e410, 2022-07-14)"
   xmlns:inkscape="http://www.inkscape.org/namespaces/inkscape"
   xmlns:sodipodi="http://sodipodi.sourceforge.net/DTD/sodipodi-0.dtd"
   xmlns="http://www.w3.org/2000/svg"
   xmlns:svg="http://www.w3.org/2000/svg"><defs
     id="defs8"><inkscape:path-effect
       effect="mirror_symmetry"
       start_point="248.52176,-121.10349"
       end_point="248.52176,-34.283661"
       center_point="248.52176,-77.693573"
       id="path-effect2888"
       is_visible="true"
       lpeversion="1.2"
       lpesatellites=""
       mode="vertical"
       discard_orig_path="false"
       fuse_paths="false"
       oposite_fuse="false"
       split_items="false"
       split_open="false"
       link_styles="false" /><inkscape:path-effect
       effect="mirror_symmetry"
       start_point="427.58762,-277.37912"
       end_point="427.58762,-14.749176"
       center_point="427.58762,-146.06415"
       id="path-effect313"
       is_visible="true"
       lpeversion="1.2"
       lpesatellites=""
       mode="vertical"
       discard_orig_path="false"
       fuse_paths="false"
       oposite_fuse="false"
       split_items="false"
       split_open="false"
       link_styles="false" /><filter
       id="mask-powermask-path-effect3078_inverse"
       inkscape:label="filtermask-powermask-path-effect3078"
       style="color-interpolation-filters:sRGB"
       height="100"
       width="100"
       x="-50"
       y="-50"><feColorMatrix
         id="mask-powermask-path-effect3078_primitive1"
         values="1"
         type="saturate"
         result="fbSourceGraphic" /><feColorMatrix
         id="mask-powermask-path-effect3078_primitive2"
         values="-1 0 0 0 1 0 -1 0 0 1 0 0 -1 0 1 0 0 0 1 0 "
         in="fbSourceGraphic" /></filter></defs><sodipodi:namedview
     id="namedview6"
     pagecolor="#ffffff"
     bordercolor="#000000"
     borderopacity="0.25"
     inkscape:showpageshadow="2"
     inkscape:pageopacity="0.0"
     inkscape:pagecheckerboard="0"
     inkscape:deskcolor="#d1d1d1"
     showgrid="false"
     inkscape:zoom="31.275002"
     inkscape:cx="21.694643"
     inkscape:cy="28.137488"
     inkscape:window-width="3840"
     inkscape:window-height="2066"
     inkscape:window-x="-11"
     inkscape:window-y="-11"
     inkscape:window-maximized="1"
     inkscape:current-layer="layer2" /><g
     id="g358"
     transform="matrix(0.0596542,0,0,0.0596542,-391.4511,-957.81632)"
     inkscape:label="g358"
     style="display:none"><g
       id="l6Emm8baxj19QWVXgHQhAUV"
       fill="#0f111c"
       style="display:inline"><g
         id="g313"><path
           id="psXuUparM"
           d="m 220,15275 c 0,-65 29,-220 65,-346 162,-564 594,-1222 1211,-1844 152,-154 315,-307 403,-381 13,-11 35,-29 49,-42 163,-140 400,-320 577,-439 311,-209 545,-331 1225,-643 350,-160 800,-362 1040,-465 425,-183 861,-369 1010,-430 58,-24 150,-63 205,-86 55,-23 120,-50 145,-59 25,-10 95,-38 155,-63 61,-25 151,-62 200,-82 50,-20 133,-54 185,-75 93,-38 545,-216 810,-319 298,-116 1071,-406 1150,-432 14,-4 63,-22 110,-39 47,-17 110,-40 140,-50 30,-9 120,-41 200,-70 317,-114 988,-332 1038,-337 l 52,-6 v 37 c 0,22 -6,39 -14,42 -17,7 -180,190 -244,275 -51,67 -149,209 -168,244 -6,11 -31,54 -54,95 -240,416 -416,965 -485,1510 -22,175 -30,479 -16,620 7,63 15,151 18,196 l 6,80 -59,13 c -33,8 -101,27 -153,43 -284,90 -548,238 -786,441 -318,271 -575,666 -691,1062 -10,33 -18,61 -19,62 0,1 -77,14 -170,28 -711,111 -1662,363 -2780,737 -416,139 -421,141 -740,308 -60,31 -200,104 -310,160 -110,57 -208,109 -218,115 -1607.2259,119.141 -1747.7408,99.526 -3087,140 z"
           inkscape:label="gras gauche"
           style="display:inline"
           sodipodi:nodetypes="cccccccccsccccccsccccsccccccccccccccccccc" /><path
           id="pHiyik2tv"
           d="m 31817,17246 c -51,-14 -100,-45 -130,-82 l -18,-23 -51,32 c -45,28 -61,32 -137,35 -47,2 -178,-6 -290,-17 -220,-22 -259,-33 -318,-91 -21,-21 -34,-27 -38,-19 -4,6 -28,21 -54,32 -59,26 -165,26 -422,-1 -200,-21 -239,-33 -297,-92 l -31,-31 -42,28 c -37,24 -53,28 -141,31 -130,6 -470,-25 -526,-47 -56,-22 -120,-84 -145,-140 -11,-25 -22,-72 -24,-105 -3,-35 26,-376 66,-795 77,-804 68,-751 143,-793 l 38,-22 -38,-21 c -20,-11 -136,-72 -257,-134 -121,-63 -296,-153 -390,-202 -177,-91 -295,-136 -785,-297 -286,-95 -690,-219 -945,-292 -99,-28 -209,-59 -245,-70 -36,-10 -103,-28 -150,-40 -47,-12 -155,-39 -240,-61 -537,-137 -1051,-232 -1405,-261 l -150,-12 -29,-90 c -93,-296 -298,-634 -523,-861 -65,-66 -186,-176 -228,-208 -155,-117 -274,-189 -437,-266 -169,-80 -445,-171 -519,-171 -24,0 -24,-8 2,-240 14,-132 6,-498 -16,-668 -73,-569 -265,-1138 -536,-1584 -67,-111 -209,-307 -268,-371 -131,-143 -259,-259 -360,-327 -43,-30 -51,-40 -51,-67 0,-30 3,-33 28,-33 27,0 178,39 307,79 33,11 116,36 185,56 275,81 991,316 1250,410 36,13 126,44 200,70 196,68 625,226 905,332 66,25 147,56 180,68 159,60 832,322 935,365 25,10 153,62 285,115 326,132 624,253 660,270 17,7 170,72 340,143 308,129 560,236 685,291 36,16 101,45 145,64 416,181 883,391 1164,524 62,29 115,53 116,53 5,0 333,158 439,211 233,118 507,291 736,465 226,172 240,183 390,313 166,144 515,486 640,627 47,53 90,102 95,108 93,99 313,388 424,554 311,466 498,915 527,1269 l 7,83 41,24 c 23,13 71,50 109,80 l 67,56 v 213 c 0,116 -7,282 -15,367 -8,85 -33,344 -55,575 -22,231 -45,434 -51,452 -15,45 -64,110 -102,133 -30,19 -51,20 -317,19 -200,0 -299,-4 -333,-13 z m 520,-188 c 14,-13 29,-31 34,-40 8,-16 33,-247 84,-793 9,-93 25,-262 36,-373 10,-112 17,-207 14,-212 -16,-26 -172,-130 -277,-185 -360,-186 -844,-299 -1438,-335 -484,-29 -996,56 -1268,211 -27,15 -42,31 -42,44 0,11 -29,317 -64,680 -61,631 -63,662 -47,695 27,58 56,67 267,86 182,17 193,17 218,0 52,-34 61,-63 80,-258 9,-101 23,-246 31,-323 8,-77 21,-225 30,-330 9,-104 21,-202 27,-217 14,-38 56,-52 136,-44 78,8 108,24 116,63 6,24 -40,553 -84,977 -9,88 -8,102 8,130 32,54 61,63 270,82 191,18 192,18 220,-2 54,-40 57,-58 106,-589 26,-275 49,-513 52,-528 9,-45 44,-60 125,-55 98,7 109,19 109,120 0,43 -5,120 -10,171 -6,51 -19,187 -30,302 -10,116 -26,285 -35,377 -17,181 -16,192 32,235 31,27 40,29 251,48 170,16 173,16 206,-4 35,-22 51,-50 61,-103 5,-31 24,-227 75,-783 11,-121 26,-232 32,-248 13,-34 37,-40 132,-35 100,5 116,19 116,103 0,52 -34,432 -81,910 -11,108 -10,124 5,153 28,55 52,63 238,82 199,21 232,19 265,-12 z"
           style="display:none"
           inkscape:label="bras droite" /><path
           id="pwlOXqVom"
           d="m 9396,16469 c -367,-47 -710,-188 -1011,-414 -184,-137 -402,-378 -525,-580 -348,-567 -406,-1334 -149,-1954 264,-634 826,-1107 1489,-1252 216,-47 507,-62 728,-38 496,53 962,282 1308,641 293,304 496,719 558,1140 86,584 -54,1164 -391,1621 -78,106 -287,321 -383,395 -311,239 -631,378 -1002,432 -144,22 -486,26 -622,9 z m 456,-1509 c 287,-104 478,-366 478,-654 0,-105 -19,-178 -77,-296 -81,-165 -238,-299 -417,-355 -172,-55 -325,-41 -495,44 -190,97 -334,291 -377,509 -37,185 33,402 179,559 198,211 462,283 709,193 z"
           inkscape:label="bouteille-gauche" /><path
           id="pyJkuBX6C"
           d="m 9475,14886 c -104,-26 -181,-72 -269,-161 -59,-59 -94,-115 -127,-207 -30,-85 -38,-263 -15,-362 46,-197 204,-365 394,-417 88,-25 284,-26 363,-3 117,35 224,107 299,201 87,111 115,203 114,378 0,115 -3,139 -27,205 -65,181 -213,318 -393,364 -75,19 -266,20 -339,2 z"
           inkscape:label="bouteille gauche - cercle" /><path
           id="pRuPNX4cM"
           d="m 22330,16465 c -439,-60 -872,-273 -1185,-582 -186,-184 -310,-357 -424,-594 -140,-292 -197,-533 -208,-874 -9,-283 30,-541 117,-790 36,-102 137,-320 177,-380 15,-22 38,-58 52,-80 58,-90 150,-205 231,-289 326,-340 720,-548 1195,-632 116,-21 467,-29 595,-15 364,41 702,166 990,365 25,17 47,33 50,36 3,3 32,27 65,52 296,225 554,595 680,972 81,241 109,427 108,711 -1,263 -25,421 -99,660 -70,225 -212,487 -368,681 -66,82 -266,275 -354,342 -310,236 -653,375 -1042,422 -115,14 -464,11 -580,-5 z m 390,-1479 c 218,-46 397,-186 500,-390 125,-248 79,-529 -123,-752 -49,-55 -159,-133 -231,-165 -73,-32 -194,-59 -266,-59 -134,0 -311,66 -422,156 -154,126 -268,353 -268,534 0,209 145,461 336,581 145,93 320,128 474,95 z"
           inkscape:label="bouteille droite" /><path
           id="pW2klB7SK"
           d="m 22419,14882 c -187,-49 -344,-213 -395,-413 -22,-84 -15,-291 12,-364 46,-129 137,-242 247,-307 98,-59 177,-78 317,-78 195,0 306,43 427,166 120,121 166,238 167,419 1,189 -45,306 -167,429 -79,79 -157,125 -253,150 -84,22 -268,20 -355,-2 z"
           inkscape:label="bouteille droite - cercle" /><path
           id="p196xO3Nv3"
           d="m 15952,15959 c -102,-12 -226,-43 -332,-82 l -90,-34 v 23 c 0,29 27,27 -311,14 -1364,-55 -2672,-217 -3172,-392 -97,-34 -172,-76 -253,-141 -50,-39 -53,-45 -53,-87 0,-26 10,-71 24,-105 90,-215 155,-551 155,-801 0,-641 -298,-1280 -790,-1694 -36,-30 -67,-57 -70,-60 -6,-7 -84,-63 -155,-112 -174,-119 -445,-240 -669,-298 -294,-76 -515,-90 -862,-54 -58,6 -61,5 -67,-17 -34,-137 -41,-605 -13,-844 47,-395 146,-783 288,-1120 255,-609 600,-1033 1005,-1238 394,-200 1375,-349 2903,-442 323,-20 340,-20 340,3 1,9 14,-8 29,-38 16,-30 28,-56 27,-57 -1,-2 -74,2 -162,7 -87,5 -271,17 -409,25 -978,60 -1826,168 -2327,295 -138,36 -291,91 -404,146 -129,63 -164,68 -164,26 0,-60 103,-386 192,-612 45,-114 151,-336 208,-435 182,-320 416,-564 655,-683 271,-134 829,-257 1560,-342 940,-109 2229,-168 3410,-157 703,7 1148,23 1775,62 1237,79 2136,219 2580,402 393,162 699,542 960,1193 74,186 150,431 150,486 0,33 -1,34 -38,34 -21,0 -132,-25 -247,-55 -115,-30 -279,-66 -364,-81 -86,-14 -197,-34 -248,-45 -504,-103 -1300,-190 -2208,-243 -143,-9 -298,-18 -343,-21 l -84,-6 28,51 c 17,32 30,46 35,39 8,-14 216,-4 784,36 1282,92 2084,228 2470,417 258,126 554,423 760,763 71,116 192,359 243,485 210,519 317,1092 299,1600 -6,160 -23,349 -33,359 -2,3 -77,-1 -167,-7 -429,-30 -843,65 -1237,283 -382,212 -723,571 -917,965 -272,556 -307,1148 -102,1724 21,60 39,122 39,137 0,21 -16,41 -82,96 -46,38 -103,81 -128,95 -158,92 -863,221 -1775,327 -530,62 -1002,98 -1742,136 l -103,5 v -26 c 0,-21 -3,-25 -17,-19 -240,105 -515,145 -781,114 z m 255,-670 c 360,-50 638,-357 637,-704 0,-63 -7,-124 -18,-164 -101,-370 -482,-615 -829,-532 -312,74 -535,328 -572,651 -15,124 41,310 131,436 119,168 260,261 464,304 104,23 93,22 187,9 z m -1725,-521 c -4,-224 -8,-245 -10,-60 -1,100 1,182 6,182 4,0 6,-55 4,-122 z m 3315,-150 c -1,-51 -3,-10 -3,92 0,102 2,143 3,93 2,-51 2,-135 0,-185 z m -2994,-434 c 64,-227 165,-399 339,-580 182,-188 392,-306 669,-375 85,-21 115,-24 324,-23 202,0 241,2 321,22 151,36 272,85 422,171 198,113 406,348 516,581 41,86 96,251 96,286 0,26 44,15 71,-19 195,-245 330,-459 479,-762 99,-202 173,-377 236,-560 38,-110 94,-301 94,-322 0,-20 -63,-16 -189,12 -318,72 -563,100 -866,100 -251,-1 -300,-6 -441,-47 -63,-18 -117,7 -216,100 -184,175 -295,222 -523,222 -215,0 -337,-50 -500,-202 -105,-97 -185,-144 -217,-127 -87,47 -440,72 -698,50 -185,-16 -390,-46 -562,-82 -78,-17 -169,-33 -201,-36 l -58,-5 7,28 c 59,260 181,578 351,918 122,245 218,401 372,605 47,63 90,120 96,127 5,8 19,14 30,14 18,0 25,-15 48,-96 z m 364,-1900 c 69,-15 72,-17 107,-67 40,-58 111,-229 211,-507 179,-494 295,-688 467,-777 46,-23 68,-28 160,-31 147,-6 210,15 304,101 139,127 213,273 404,797 134,366 185,460 259,480 207,56 734,-1 1171,-125 164,-47 201,-66 280,-144 186,-185 275,-564 274,-1176 0,-241 -3,-281 -22,-374 -25,-113 -65,-203 -108,-240 -15,-13 -52,-33 -83,-45 l -56,-21 h -2390 c -2282,0 -2393,1 -2449,18 -77,24 -103,42 -138,97 -79,124 -108,379 -89,760 29,558 128,875 319,1025 81,64 255,119 567,179 366,70 634,87 812,50 z m -2170,-1281 c -3,-10 -5,-2 -5,17 0,19 2,27 5,18 2,-10 2,-26 0,-35 z m 6290,-270 c -2,-16 -4,-3 -4,27 0,30 2,43 4,28 2,-16 2,-40 0,-55 z M 16168,7103 c -10,-2 -28,-2 -40,0 -13,2 -5,4 17,4 22,1 32,-1 23,-4 z"
           style="display:inline"
           inkscape:label="corps" /><path
           id="pjGFNKbgQ"
           d="m 15972,15205 c -194,-42 -376,-208 -444,-403 -20,-58 -23,-86 -23,-217 0,-129 3,-159 22,-217 65,-193 216,-339 413,-400 60,-18 98,-23 190,-23 126,0 192,13 286,55 116,52 204,132 277,253 62,102 72,149 72,337 0,155 -2,169 -27,232 -76,192 -230,329 -424,378 -92,24 -246,26 -342,5 z"
           inkscape:label="détendeur"
           style="display:inline" /><path
           id="p12Y2XJ14g"
           d="m 21815,8198 c -236.997,-582.7674 -662.57,-1159.702 -1318.428,-1281.4375 -344.397,-123.7846 -925.254,-6.7432 -761.713,-556.7617 C 19716.066,5848.9287 19669.406,5338.0462 19671,4827 c 231.473,-377.9785 704.626,-509.6055 1082.312,-697.2656 942.88,-394.2262 1961.385,-558.9699 2927.438,-876.6094 799.89,-344.1728 1566.334,-761.0745 2359.28,-1118.0398 1290.921,-445.6048 2629.277,-738.9337 3962.587,-1026.7864 336.835,56.151 -814.213,616.2651 -456.117,487.4512 -991.471,755.7311 -1955.461,1552.0329 -2987.75,2251.375 -830.744,388.2537 -1740.429,565.7688 -2617.375,815.875 -481.392,339.4982 -1027.078,625.9582 -1363.844,1127.2812 -343.065,409.4737 -514.905,923.8269 -551.99,1451.1817 -46.034,324.1704 -87.839,648.9168 -130.541,973.5371 -24.641,-4.0473 -71.454,21.6064 -80,-17 z"
           inkscape:label="palme droite"
           style="display:none" /><path
           id="prlLj5Elh"
           d="M 10916,7428 C 10840.173,6898.1433 10812.261,6335.3881 10477.906,5888.6875 10219.982,5472.9423 9868.1841,5127.5446 9449.5508,4875.2852 9146.8043,4619.1183 8799.5212,4448.9358 8406.5701,4391.1274 7684.7343,4187.903 6935.1391,4030.3123 6266.6719,3680.3438 5087.4833,2843.421 3955.8497,1940.0951 2818.25,1048 c 147.1017,-176.3254 1338.6559,151.9402 1040.9587,145.1871 1091.016,270.6217 2205.2342,491.3791 3246.9163,923.1879 776.3004,381.1663 1544.4509,792.3679 2353.4844,1097.8945 1175.6136,327.9019 2413.9036,544.8998 3471.3296,1185.877 251.308,113.1098 351.707,345.6581 292.155,600.4473 -28.128,564.4737 -47.674,1129.693 -88.094,1693.4062 -639.413,94.4299 -1330.661,127.9488 -1884.375,493 -124.098,45.8113 -195.39,275.7345 -334.625,241 z"
           inkscape:label="palme gauche"
           style="display:none" /><path
           id="path1036"
           d="m 29519.811,15165.998 c 0,0 -710.811,-327.998 -804.811,-376.998 -177,-91 -295,-136 -785,-297 -286,-95 -690,-219 -945,-292 -99,-28 -209,-59 -245,-70 -36,-10 -103,-28 -150,-40 -47,-12 -155,-39 -240,-61 -537,-137 -1051,-232 -1405,-261 l -150,-12 -29,-90 c -93,-296 -298,-634 -523,-861 -65,-66 -186,-176 -228,-208 -155,-117 -274,-189 -437,-266 -169,-80 -445,-171 -519,-171 -24,0 -24,-8 2,-240 14,-132 6,-498 -16,-668 -73,-569 -265,-1138 -536,-1584 -67,-111 -209,-307 -268,-371 -131,-143 -259,-259 -360,-327 -43,-30 -51,-40 -51,-67 0,-30 3,-33 28,-33 27,0 178,39 307,79 33,11 116,36 185,56 275,81 991,316 1250,410 36,13 126,44 200,70 196,68 625,226 905,332 66,25 147,56 180,68 159,60 832,322 935,365 25,10 153,62 285,115 326,132 624,253 660,270 17,7 170,72 340,143 308,129 560,236 685,291 36,16 101,45 145,64 416,181 883,391 1164,524 62,29 115,53 116,53 5,0 333,158 439,211 233,118 507,291 736,465 226,172 240,183 390,313 166,144 515,486 640,627 47,53 90,102 95,108 93,99 313,388 424,554 311,466 238.743,-180.359 503.3,1360.244 -1461.348,-27.224 -2922.489,-182.246 -2922.489,-182.246 z"
           style="display:inline"
           inkscape:label="bras droite"
           sodipodi:nodetypes="cccccscccccccscccccsscccccccccccccscccccccc" /></g></g><g
       id="l4Waif5Hz1dppWjDGkxQqWg"
       fill="#ffffff"
       style="display:inline"><g
         id="g326"
         style="display:inline"><path
           id="pmkBgJYkF"
           d="m 660,17239 c 91,-10 185,-26 209,-35 47,-18 126,-84 136,-113 4,-15 12,-12 47,21 45,42 116,68 182,68 23,0 130,-9 238,-20 222,-22 269,-37 329,-109 l 33,-39 38,32 c 69,59 130,67 343,46 214,-21 278,-31 314,-50 37,-18 104,-84 113,-111 4,-10 16,-4 44,23 55,52 100,68 190,68 116,0 393,-29 448,-47 64,-20 128,-80 156,-145 27,-62 28,-113 6,-328 -9,-85 -34,-346 -56,-580 -57,-606 -61,-643 -70,-667 -5,-12 -43,-42 -84,-66 l -75,-44 92,-48 c 51,-26 151,-78 222,-115 72,-37 200,-104 285,-148 337,-174 322,-169 745,-310 1118,-374 2069,-626 2780,-737 93,-14 170,-27 170,-28 1,-1 9,-29 19,-62 69,-237 186,-469 347,-690 274,-376 684,-671 1130,-813 52,-16 120,-35 153,-43 l 58,-13 -6,-50 c -32,-263 -32,-603 -1,-846 59,-466 184,-899 369,-1285 40,-82 92,-184 116,-225 23,-41 48,-84 54,-95 71,-126 254,-362 383,-492 41,-41 42,-43 15,-37 -43,11 -843,277 -1002,334 -80,29 -170,61 -200,70 -30,10 -93,33 -140,50 -47,17 -96,35 -110,39 -79,26 -852,316 -1150,432 -265,103 -717,281 -810,319 -52,21 -135,55 -185,75 -49,20 -139,57 -200,82 -60,25 -130,53 -155,63 -25,9 -90,36 -145,59 -55,23 -147,62 -205,86 -244,100 -1057,449 -1300,557 -1284,573 -1599,729 -1975,981 -177,119 -414,299 -577,439 -14,13 -36,31 -49,42 -88,74 -251,227 -403,381 -617,622 -1049,1280 -1211,1844 -36,126 -65,281 -65,346 0,50 -7,58 -90,120 -36,26 -86,69 -112,94 l -48,45 V 7782 0 h 16345 16345 l -1,7798 c -1,4288 -4,7787 -6,7775 -5,-27 -94,-109 -179,-165 l -61,-40 -7,-82 c -39,-470 -350,-1092 -850,-1701 -50,-60 -95,-115 -101,-121 -5,-6 -48,-55 -95,-108 -190,-215 -641,-642 -840,-795 -400,-308 -635,-463 -926,-610 -106,-53 -434,-211 -439,-211 -1,0 -54,-24 -116,-53 -281,-133 -748,-343 -1164,-524 -44,-19 -109,-48 -145,-64 -125,-55 -377,-162 -685,-291 -170,-71 -323,-136 -340,-143 -36,-17 -334,-138 -660,-270 -132,-53 -260,-105 -285,-115 -103,-43 -776,-305 -935,-365 -33,-12 -114,-43 -180,-68 -280,-106 -709,-264 -905,-332 -74,-26 -164,-57 -200,-70 -159,-58 -800,-272 -1020,-340 -218,-68 -603,-182 -645,-190 l -30,-6 30,23 c 221,172 341,292 487,489 363,490 620,1188 692,1879 24,232 19,611 -10,788 -6,39 -5,42 16,42 73,0 350,91 518,171 163,77 282,149 437,266 6,5 42,35 80,68 223,193 403,423 537,685 77,152 97,199 134,316 l 29,90 150,12 c 354,29 868,124 1405,261 85,22 193,49 240,61 47,12 114,30 150,40 36,11 146,42 245,70 398,114 963,293 1375,437 131,46 237,92 365,158 99,51 270,139 380,196 110,56 234,121 277,144 l 76,41 -64,34 c -113,60 -95,-20 -175,811 -38,404 -67,750 -64,769 17,95 89,184 172,213 50,17 340,47 453,47 89,0 130,-13 183,-60 l 45,-40 17,27 c 25,38 64,72 109,95 30,15 87,25 225,39 303,32 345,27 432,-42 21,-17 39,-27 39,-22 0,18 73,83 115,103 32,15 92,25 236,40 301,30 336,26 423,-51 37,-32 39,-33 52,-14 74,102 118,121 326,140 89,8 174,17 188,19 14,1 -7114,3 -15840,3 -15521,0 -15861,0 -15700,-18 z m 9328,-809 c 371,-54 691,-193 1002,-432 96,-74 305,-289 383,-395 234,-317 374,-691 408,-1093 49,-578 -169,-1187 -575,-1608 -641,-665 -1635,-841 -2451,-435 -859,429 -1318,1363 -1129,2303 82,408 290,788 590,1080 194,188 359,304 581,406 196,90 422,156 629,183 133,17 419,12 562,-9 z m 12892,10 c 485,-59 897,-258 1241,-600 131,-130 167,-173 260,-309 235,-342 360,-743 362,-1166 1,-255 -30,-449 -108,-681 -126,-377 -384,-747 -680,-972 -33,-25 -62,-49 -65,-52 -30,-32 -236,-155 -354,-210 -436,-204 -926,-253 -1391,-141 -217,53 -464,161 -660,289 -222,145 -453,377 -597,600 -16,23 -39,59 -53,80 -38,58 -140,278 -175,377 -133,378 -154,812 -59,1193 66,266 194,538 352,752 336,453 852,759 1407,835 117,16 406,19 520,5 z m -6600,-510 c 315,-38 586,-166 803,-382 171,-170 286,-360 349,-575 l 33,-113 h 148 147 v -178 -178 l 33,-40 c 174,-205 354,-487 502,-784 224,-448 371,-873 407,-1177 l 12,-103 83,-70 c 106,-90 171,-177 243,-325 121,-246 174,-490 201,-915 16,-253 7,-600 -20,-750 -50,-288 -152,-464 -332,-576 -52,-33 -58,-39 -64,-80 -23,-158 -118,-473 -210,-699 -162,-396 -280,-624 -426,-817 -75,-99 -298,-324 -389,-393 -36,-27 -67,-52 -70,-55 -6,-6 -26,-20 -145,-101 -299,-205 -743,-384 -1115,-449 -434,-76 -886,-1 -1394,233 -396,182 -781,478 -989,761 -20,28 -41,56 -47,63 -69,83 -236,400 -323,613 -150,367 -212,554 -258,782 -22,110 -25,118 -52,129 -38,16 -126,85 -164,129 -143,168 -206,389 -219,775 -7,197 8,528 32,719 44,344 142,623 288,819 57,76 63,87 43,87 -17,0 -1,21 79,103 l 102,102 12,80 c 79,530 471,1371 864,1855 l 61,75 5,180 5,180 146,3 146,3 24,82 c 60,213 159,392 311,560 278,308 727,476 1138,427 z m -840,-107 c -311,-175 -559,-484 -661,-821 l -24,-82 h -157 -158 v -200 -200 l -66,-82 c -149,-186 -306,-432 -429,-673 -223,-437 -376,-859 -430,-1185 -8,-52 -18,-105 -20,-117 -3,-13 -47,-65 -99,-115 -319,-318 -448,-811 -433,-1651 5,-298 13,-370 63,-541 57,-200 170,-354 338,-461 9,-6 23,-47 35,-107 57,-278 177,-610 367,-1017 19,-40 33,-75 30,-78 -2,-2 -123,3 -267,12 -1529,91 -2517,241 -2912,442 -301,152 -561,417 -793,808 -254,428 -434,987 -500,1550 -27,233 -20,650 13,783 4,18 10,22 27,18 11,-3 88,-11 169,-17 309,-22 652,28 944,137 145,54 350,158 458,232 71,49 149,105 155,112 3,3 34,30 70,60 431,363 717,903 779,1472 24,211 9,502 -35,717 -21,100 -78,292 -109,366 -13,33 -24,67 -24,75 0,18 82,85 161,133 241,145 1053,289 2183,386 369,32 1020,71 1340,79 l 50,2 z m 1765,12 c 1299,-71 2877,-294 3135,-443 25,-14 82,-56 127,-94 l 81,-69 -38,-108 c -90,-251 -130,-490 -130,-771 0,-213 19,-375 65,-556 138,-539 457,-995 920,-1316 404,-280 937,-426 1422,-388 80,6 147,10 148,8 2,-2 8,-43 14,-93 87,-703 -127,-1635 -524,-2290 -206,-340 -502,-637 -760,-763 -322,-158 -926,-277 -1865,-367 -426,-40 -1316,-102 -1327,-92 -2,3 17,48 41,100 120,254 178,395 256,624 48,143 102,344 116,429 5,37 13,45 69,83 56,36 185,164 185,182 0,4 15,33 33,66 115,204 157,513 137,1009 -16,375 -53,619 -129,851 -75,229 -171,385 -325,531 l -82,77 -12,95 c -36,296 -191,739 -412,1180 -37,74 -76,151 -87,170 -49,87 -145,243 -176,287 -18,26 -53,77 -77,113 -24,36 -47,67 -50,70 -3,3 -34,42 -68,87 l -62,82 v 195 195 l -156,3 -156,3 -34,104 c -71,217 -176,384 -349,556 -126,126 -163,155 -282,225 -40,24 -73,44 -73,44 0,2 166,-5 425,-19 z M 10773,8736 c 443,-146 1214,-258 2347,-341 71,-5 736,-45 752,-45 4,0 33,-39 64,-87 83,-128 179,-241 324,-384 311,-305 685,-525 1155,-680 245,-80 485,-121 720,-122 365,-1 775,107 1185,313 441,221 809,542 1038,907 l 33,51 92,6 c 51,4 209,13 352,22 898,52 1734,144 2190,240 39,8 149,28 245,45 96,16 271,54 388,85 118,31 215,54 218,51 10,-9 -83,-299 -146,-457 -222,-553 -494,-933 -796,-1112 -302,-178 -902,-310 -1874,-412 -986,-104 -2534,-158 -3620,-127 -929,26 -1747,78 -2375,151 -731,85 -1289,208 -1560,342 -239,119 -473,363 -655,683 -139,243 -295,631 -378,940 l -19,70 106,-52 c 58,-28 155,-68 214,-87 z m 11136,-886 c 79,-603 160,-1154 184,-1240 98,-351 347,-757 716,-1165 128,-141 82,-106 676,-522 99,-70 221,-155 270,-190 149,-104 170,-115 294,-143 270,-64 1000,-257 1231,-326 47,-14 130,-39 185,-55 227,-68 660,-213 798,-269 214,-86 319,-144 527,-293 163,-117 730,-540 895,-667 33,-25 98,-75 145,-111 125,-96 240,-184 371,-285 64,-49 134,-102 155,-119 108,-83 484,-373 514,-397 82,-64 278,-217 345,-268 40,-30 130,-100 200,-155 70,-55 146,-114 169,-132 218,-166 485,-383 473,-383 -23,0 -1053,230 -1347,301 -870,210 -1357,336 -1895,490 -77,23 -158,47 -180,54 -22,8 -101,33 -175,56 -321,100 -595,208 -770,303 -116,64 -827,416 -1030,511 -91,43 -212,100 -270,127 -58,27 -229,106 -380,175 -151,68 -309,140 -350,160 -49,23 -176,60 -370,109 -548,139 -1281,336 -1635,440 -313,92 -589,187 -820,282 -66,28 -149,62 -185,77 -136,56 -509,247 -610,312 -58,37 -141,97 -183,132 -79,65 -157,166 -158,205 -1,57 2,237 6,258 2,13 6,88 9,168 4,80 9,186 11,235 3,50 12,232 20,405 9,173 20,396 25,495 5,99 10,208 10,243 0,41 4,64 13,66 6,2 95,18 197,35 534,91 919,219 1130,376 170,126 353,337 496,571 62,102 212,400 229,453 4,12 10,19 15,15 4,-5 26,-155 49,-334 z M 11185,7182 c 154,-122 308,-196 577,-277 264,-79 678,-158 1118,-213 l 225,-28 7,-65 c 3,-35 14,-219 22,-409 20,-420 25,-533 31,-630 3,-41 7,-133 10,-205 4,-71 10,-204 16,-295 5,-91 9,-204 9,-252 0,-86 0,-87 -43,-150 -78,-114 -247,-238 -522,-384 -260,-137 -684,-314 -1030,-429 -204,-68 -807,-244 -1075,-313 -63,-17 -243,-64 -400,-105 -157,-42 -402,-105 -545,-141 -143,-37 -287,-78 -320,-93 -33,-14 -87,-38 -120,-54 -33,-15 -134,-61 -225,-102 -91,-41 -203,-93 -250,-115 -47,-22 -119,-56 -160,-75 -476,-221 -824,-391 -1230,-599 -135,-70 -292,-145 -350,-168 -560,-224 -1583,-506 -3175,-874 -353,-82 -919,-205 -923,-201 -2,1 52,46 120,99 145,113 183,143 304,239 50,40 144,113 209,162 65,50 154,119 199,155 45,36 115,90 154,120 40,30 103,79 140,109 37,30 121,95 186,145 66,50 145,111 175,134 73,57 127,98 291,224 74,57 185,142 245,189 248,191 599,458 635,484 16,11 94,70 174,130 410,310 621,458 742,518 357,179 1178,436 2224,697 157,39 301,76 321,81 21,5 171,103 345,226 170,119 338,236 374,261 242,169 293,208 360,279 80,84 178,195 220,249 199,258 221,288 324,462 130,217 229,461 259,642 8,47 36,240 62,430 26,190 49,352 52,360 2,9 35,-19 96,-82 51,-53 115,-114 142,-136 z"
           style="display:inline" /><path
           id="pFZbyvifI"
           d="m 9490,15016 c -166,-41 -264,-98 -377,-219 -235,-253 -256,-639 -48,-918 146,-196 369,-300 618,-286 190,10 334,75 473,212 66,66 89,97 127,175 62,126 80,200 79,330 -1,314 -182,571 -480,680 -77,29 -101,33 -212,36 -83,2 -144,-1 -180,-10 z m 294,-162 c 180,-46 328,-184 392,-364 47,-132 36,-308 -28,-435 -48,-95 -148,-194 -248,-245 -87,-44 -154,-60 -255,-60 -163,0 -285,50 -400,165 -179,178 -215,454 -87,682 45,82 169,191 260,230 101,44 256,55 366,27 z"
           style="display:inline" /><path
           id="pfz3El316"
           d="m 22445,15015 c -381,-83 -627,-464 -550,-853 19,-96 87,-237 152,-315 138,-165 335,-257 553,-257 253,0 472,119 611,333 73,112 109,242 109,390 0,123 -21,215 -70,313 -129,256 -371,405 -655,403 -49,0 -117,-6 -150,-14 z m 299,-161 c 96,-25 174,-71 253,-150 115,-116 167,-240 166,-399 0,-150 -54,-276 -166,-389 -114,-116 -234,-166 -397,-166 -244,0 -450,149 -534,385 -26,74 -32,225 -12,303 51,201 208,365 395,414 84,21 215,23 295,2 z" /><path
           id="phQNq5FXJ"
           d="m 15990,15310 c -158,-34 -266,-90 -368,-190 -202,-200 -276,-471 -201,-740 71,-258 280,-458 546,-521 123,-30 284,-23 398,16 242,82 425,274 491,516 28,101 26,302 -5,399 -90,289 -322,489 -614,529 -104,15 -146,13 -247,-9 z m 294,-140 c 194,-49 348,-187 424,-378 24,-61 26,-80 27,-202 0,-156 -12,-209 -72,-307 -94,-155 -225,-253 -393,-294 -243,-59 -527,64 -656,284 -61,104 -79,176 -79,312 0,141 20,214 87,317 147,227 409,333 662,268 z" /><path
           id="p1B2iUWB8F"
           d="m 14695,14296 c -6,-7 -49,-64 -96,-127 -84,-111 -177,-250 -252,-376 -108,-179 -319,-647 -396,-878 -31,-92 -91,-319 -91,-343 0,-22 165,-9 328,26 499,108 999,120 1211,29 29,-12 41,-13 72,-2 69,25 100,46 196,135 153,143 286,200 468,200 140,0 265,-38 366,-112 26,-18 83,-67 127,-109 62,-59 96,-83 144,-101 l 63,-25 69,24 c 38,12 119,30 180,39 237,35 674,-2 1067,-91 65,-14 143,-25 185,-25 89,0 86,-8 45,152 -122,468 -410,1064 -700,1448 -121,160 -110,150 -168,150 -39,0 -53,-4 -53,-14 0,-35 -55,-200 -96,-286 -110,-233 -318,-468 -516,-581 -150,-86 -271,-135 -422,-171 -78,-19 -121,-22 -291,-22 -177,0 -211,2 -294,23 -276,69 -487,187 -669,375 -174,181 -275,353 -339,580 l -27,96 h -51 c -31,0 -54,-5 -60,-14 z" /><path
           id="p15WLB0na1"
           d="m 14808,12330 c -290,-21 -664,-92 -903,-170 -296,-98 -431,-417 -466,-1105 -21,-415 9,-688 89,-815 35,-55 61,-73 138,-97 56,-17 168,-18 2479,-18 h 2420 l 56,21 c 31,12 68,32 83,45 43,37 83,126 108,240 20,95 22,131 22,404 1,643 -84,1017 -274,1206 -79,78 -116,97 -277,143 -456,130 -1010,186 -1234,126 -74,-20 -125,-114 -259,-480 -191,-524 -265,-670 -404,-797 -88,-81 -162,-108 -275,-101 -235,14 -380,211 -596,808 -100,278 -171,449 -211,507 -34,49 -39,53 -102,67 -89,20 -250,26 -394,16 z"
           inkscape:label="masque" /><path
           id="pznGl4b4Q"
           d="m 1,16473 c 1,-434 5,-765 9,-738 4,28 15,131 24,230 82,885 105,1097 125,1139 35,70 97,124 171,147 14,4 -54,8 -152,8 l -178,1 z"
           inkscape:label="main gauche extreme"
           style="display:none;opacity:0.514894"
           transform="matrix(1.0000024,0,0,1.0000024,1.9111333e-5,9.5556661e-6)" /><path
           id="p13gjqoLMR"
           d="m 345,17108 c -32,-18 -52,-42 -64,-79 -6,-19 -40,-344 -76,-724 l -65,-689 28,-24 c 55,-47 192,-133 291,-182 284,-143 669,-245 1101,-294 662,-75 1249,-13 1595,167 l 80,42 42,450 c 23,248 47,502 53,565 37,371 38,394 25,425 -13,32 -68,85 -88,85 -7,0 -102,9 -211,19 -199,19 -211,19 -254,-2 -57,-27 -59,-37 -113,-603 -49,-521 -50,-529 -75,-551 -20,-18 -33,-21 -67,-17 -107,13 -112,23 -97,179 5,61 28,296 50,524 35,373 38,417 25,448 -18,42 -50,71 -90,78 -95,18 -401,42 -431,34 -55,-16 -90,-66 -97,-140 -4,-35 -27,-274 -52,-530 -24,-256 -47,-473 -50,-481 -6,-16 -46,-38 -68,-38 -7,0 -29,5 -50,11 -55,15 -59,33 -41,211 68,712 84,896 80,914 -9,33 -47,75 -81,89 -17,8 -122,22 -234,31 -200,18 -203,18 -239,-1 -65,-35 -66,-41 -120,-613 -42,-437 -53,-527 -68,-543 -13,-14 -31,-19 -71,-19 -47,0 -59,4 -84,30 -25,24 -29,35 -25,62 3,18 27,257 52,531 61,646 79,596 -228,627 -219,23 -255,24 -283,8 z"
           inkscape:label="main gauche"
           style="display:none" /><path
           id="p1Bv5fQMiw"
           d="m 32365,17248 c 79,-29 151,-99 174,-171 9,-28 30,-232 112,-1097 11,-118 24,-251 28,-295 5,-46 9,276 10,748 l 1,827 -177,-1 c -140,0 -172,-3 -148,-11 z"
           style="display:none;opacity:0.514894"
           inkscape:label="main droite extreme"
           transform="matrix(1.0000024,0,0,1.0000024,1.9111333e-5,9.5556661e-6)" /><path
           id="p05TSBWUw"
           d="m 32042,17100 c -186,-19 -210,-27 -238,-82 -21,-40 -18,-86 31,-593 52,-540 52,-526 27,-549 -23,-20 -96,-32 -135,-22 -14,3 -29,18 -35,33 -6,16 -21,127 -32,248 -51,560 -70,753 -76,785 -9,53 -29,84 -68,105 -34,19 -39,19 -243,1 -114,-10 -218,-22 -232,-27 -32,-13 -69,-53 -77,-85 -7,-27 -2,-108 21,-344 46,-461 65,-674 65,-713 0,-53 -19,-73 -78,-83 -54,-8 -89,13 -97,58 -3,18 -25,249 -50,513 -25,264 -47,494 -50,512 -8,43 -49,90 -88,101 -21,6 -105,2 -237,-10 -224,-21 -250,-29 -284,-87 -22,-38 -25,10 40,-665 19,-197 35,-380 36,-407 3,-60 -12,-78 -78,-90 -60,-11 -98,2 -112,39 -6,15 -18,113 -27,217 -9,105 -22,253 -30,330 -8,77 -22,223 -31,324 -20,204 -29,231 -94,263 -33,16 -46,16 -245,-3 -233,-23 -258,-31 -289,-92 -18,-38 -18,-41 48,-735 36,-383 66,-701 66,-707 0,-13 66,-50 154,-87 432,-180 1092,-214 1798,-92 470,81 871,236 1099,425 l 45,38 -12,123 c -7,68 -19,200 -28,293 -78,823 -96,997 -105,1012 -5,10 -21,29 -35,43 -35,32 -98,34 -324,10 z"
           style="display:none"
           inkscape:label="main droite" /></g></g></g><g
     inkscape:groupmode="layer"
     id="layer2"
     inkscape:label="corps"
     style="display:inline"><path
       id="path3033"
       d="m 1336.0889,-59.348074 c 0,0 -42.9401,-19.814359 -48.6186,-22.774448 -10.6926,-5.49731 -17.8209,-8.21576 -47.4219,-17.941768 -17.2772,-5.73895 -41.6829,-13.22979 -57.0874,-17.63972 -5.9806,-1.69148 -12.6256,-3.5642 -14.8004,-4.2287 -2.1747,-0.60411 -6.2223,-1.69148 -9.0615,-2.4164 -2.8393,-0.72492 -9.3635,-2.35599 -14.4984,-3.68501 -32.4402,-8.27617 -63.4909,-14.01512 -84.876,-15.76701 l -9.0615,-0.72492 -1.752,-5.4369 c -5.6181,-17.88136 -18.0021,-38.29993 -31.5944,-52.01301 -3.9266,-3.98706 -11.2363,-10.63215 -13.7735,-12.56528 -9.36348,-7.06796 -16.55229,-11.41749 -26.39914,-16.06905 -10.20929,-4.8328 -26.88245,-10.33012 -31.35279,-10.33012 -1.44983,0 -1.44983,-0.48327 0.12082,-14.4984 0.84574,-7.97412 0.36246,-30.08417 -0.96656,-40.35387 -4.40992,-34.37329 -16.00865,-68.74658 -32.37976,-95.68944 -4.04747,-6.70551 -12.62568,-18.54587 -16.18987,-22.41211 -7.91372,-8.63863 -15.6462,-15.64619 -21.74761,-19.75406 -2.59762,-1.8123 -3.0809,-2.4164 -3.0809,-4.04747 0,-1.8123 0.18122,-1.99354 1.69147,-1.99354 1.63107,0 10.75298,2.356 18.54587,4.7724 1.99353,0.6645 7.00757,2.17476 11.17586,3.38295 16.61274,4.89321 59.8663,19.08956 75.51247,24.76811 2.17475,0.78533 7.61172,2.65804 12.08205,4.22869 11.84029,4.10788 37.75619,13.65267 54.67099,20.05612 3.9871,1.51025 8.8803,3.38297 10.8738,4.10788 9.6053,3.6246 50.2611,19.45202 56.4834,22.04965 1.5103,0.6041 9.2427,3.74542 17.2168,6.94715 19.6937,7.97412 37.6958,15.28373 39.8706,16.3107 1.0269,0.42287 10.2697,4.34952 20.5395,8.63863 18.6062,7.79289 33.8295,14.25676 41.3808,17.57931 2.1748,0.96656 6.1013,2.71844 8.7594,3.86624 25.1306,10.93421 53.3421,23.62031 70.3172,31.65484 3.7455,1.75189 6.9472,3.20172 7.0076,3.20172 0.3021,0 20.1166,9.54478 26.52,12.74652 14.0756,7.12838 30.6278,17.5793 44.4617,28.09064 13.6528,10.39053 14.4985,11.05503 23.56,18.90833 10.028,8.69905 31.1111,29.35926 38.6623,37.87708 2.8393,3.20172 5.437,6.16181 5.739,6.52427 5.6182,5.98059 18.9083,23.43908 25.6138,33.46714 18.7876,28.15106 14.4226,-10.89549 30.4044,82.172336 -88.28,-1.644602 -176.5476,-11.00948 -176.5476,-11.00948 z"
       style="display:inline;stroke:#ffffff;stroke-width:72.9122;stroke-dasharray:none;stroke-opacity:1"
       inkscape:label="bras droite"
       sodipodi:nodetypes="cccccscccccccscccccsscccccccccccccscccccccc" /><path
       id="path3036"
       d="m -349.08455,-50.793825 c 0,-3.969838 1.77116,-13.436375 3.96984,-21.131754 9.89406,-34.445981 36.27822,-74.632961 73.96115,-112.621251 9.28331,-9.40547 19.23845,-18.74985 24.61299,-23.26937 0.79397,-0.67181 2.13761,-1.77116 2.99265,-2.56513 9.95513,-8.55041 24.42978,-19.54382 35.23995,-26.81167 18.99415,-12.76455 33.28556,-20.21564 74.81618,-39.27086 21.37606,-9.77192 48.859547,-22.10895 63.517415,-28.39961 25.956634,-11.17663 52.585088,-22.53647 61.6851782,-26.26201 3.5423177,-1.46579 9.16116525,-3.84769 12.5202592,-5.2524 3.3590939,-1.40472 7.3289316,-3.05372 8.8557936,-3.6034 1.526861,-0.61073 5.802071,-2.32082 9.466537,-3.84768 3.725541,-1.52686 9.22224,-3.78662 12.214887,-5.00811 3.053722,-1.22148 8.1229,-3.29802 11.298771,-4.58058 5.679922,-2.32083 33.285566,-13.19208 49.470292,-19.48275 18.200177,-7.08463 65.410717,-24.79621 70.235597,-26.38415 0.85505,-0.2443 3.8477,-1.34364 6.71819,-2.3819 2.8705,-1.03827 6.71819,-2.44298 8.55042,-3.05373 1.83223,-0.54967 7.32894,-2.50405 12.21489,-4.2752 19.3606,-6.96249 60.34154,-20.27672 63.39526,-20.58209 l 3.17587,-0.36645 v 2.25975 c 0,1.34365 -0.36644,2.38191 -0.85504,2.56513 -1.03826,0.42752 -10.9934,11.60415 -14.90216,16.79547 -3.1148,4.09199 -9.10009,12.76456 -10.2605,14.90217 -0.36646,0.67182 -1.89332,3.29801 -3.29803,5.80207 -14.65786,25.40696 -25.40696,58.93682 -29.6211,92.2224 -1.34364,10.68802 -1.83223,29.25465 -0.97719,37.86614 0.42752,3.8477 0.91612,9.22224 1.09935,11.97059 l 0.36644,4.88596 -3.60339,0.79397 c -2.01546,0.48859 -6.16852,1.649 -9.34439,2.62619 -17.34514,5.49671 -33.46879,14.53572 -48.00451,26.93383 -19.42167,16.55117 -35.1178,40.67557 -42.202432,64.86105 -0.610744,2.01546 -1.09934,3.72554 -1.160414,3.78662 0,0.0611 -4.702732,0.85504 -10.382655,1.71008 -43.423922,6.77927 -101.50571,22.17002 -169.786929,45.01186 -25.40696,8.489346 -25.71234,8.611495 -45.19508,18.810925 -3.66447,1.893307 -12.21488,6.351742 -18.93307,9.77191 -6.71819,3.481242 -12.70349,6.657114 -13.31423,7.02356 -98.16042,7.276469 -106.74229,6.078494 -188.53679,8.55042 z"
       inkscape:label="gras gauche"
       style="display:inline;stroke:#ffffff;stroke-width:73.7142;stroke-dasharray:none;stroke-opacity:1"
       sodipodi:nodetypes="cccccccccsccccccsccccsccccccccccccccccccc" /><path
       id="path3030"
       d="m 274.22003,-448.85998 c -4.27669,-29.88427 -5.85095,-121.31268 -24.7088,-146.50689 -14.54709,-23.44831 -34.38872,-42.92897 -57.99993,-57.15658 -17.0751,-14.44798 -36.6621,-24.04639 -58.82481,-27.30682 -40.71203,-11.462 -82.989705,-20.35022 -120.691707,-40.08868 -66.507033,-47.20301 -130.331933,-98.1512 -194.493323,-148.46596 8.29664,-9.94488 75.5011,8.56953 58.71078,8.18865 61.534033,15.26324 124.37669105,27.71411 183.128265,52.06842 43.783865,21.49803 87.108075,44.69008 132.738115,61.92199 66.3054,18.49389 136.14579,30.73271 195.78533,66.88426 14.17394,6.37947 19.83651,19.49535 16.47774,33.86563 -1.58644,31.8367 -8.3864,147.82215 -10.66611,179.61596 -51.63765,5.40881 -64.90092,5.35117 -119.45555,16.98002 z"
       inkscape:label="palme gauche"
       style="display:inline;stroke-width:0.0564007"
       sodipodi:nodetypes="ccccccccccccc" /><path
       id="path3330"
       d="m 878.21427,-448.85998 c 4.27669,-29.88427 5.85095,-121.31268 24.7088,-146.50689 14.54709,-23.44831 34.38872,-42.92897 57.99993,-57.15658 17.07505,-14.44798 36.66205,-24.04639 58.8251,-27.30682 40.712,-11.462 82.9897,-20.35022 120.6917,-40.08868 66.507,-47.20301 130.3319,-98.1512 194.4933,-148.46596 -8.2967,-9.94488 -75.5011,8.56953 -58.7108,8.18865 -61.534,15.26324 -124.3767,27.71411 -183.1283,52.06842 -43.7838,21.49803 -87.1082,44.69008 -132.73832,61.92199 -66.3054,18.49389 -136.14579,30.73271 -195.78533,66.88426 -14.17394,6.37947 -19.83651,19.49535 -16.47774,33.86563 1.58644,31.8367 8.3864,147.82215 10.66611,179.61596 51.63765,5.40881 64.90092,5.35117 119.45555,16.98002 z"
       inkscape:label="palme droite"
       style="display:inline;stroke-width:0.0564007"
       sodipodi:nodetypes="ccccccccccccc" /><path
       id="pTe6ox0CN"
       d="m 524.04707,-12.909025 c -64.1043,-2.845662 -110.40398,-7.229519 -158.16495,-14.958955 -1.15365,-0.192273 -1.61511,-0.423002 -1.46129,-0.769093 0.46147,-1.230562 2.57649,-12.305569 3.26867,-17.266247 4.11468,-28.879589 1.46129,-58.02841 -7.80635,-85.716 -7.42179,-22.11157 -18.68907,-42.18501 -34.10948,-60.79718 -4.42231,-5.34523 -17.68924,-18.53526 -23.22675,-23.11138 -30.84082,-25.45714 -66.52695,-39.83927 -106.32775,-42.8772 -5.76824,-0.42301 -26.80306,-0.23074 -30.64856,0.26918 l -1.65355,0.23073 v -5.76823 c 0,-20.91947 3.65321,-43.68475 10.72891,-67.06533 10.80582,-35.60922 29.9179,-67.02688 51.18346,-84.2162 11.80564,-9.53682 23.41903,-14.8436 42.41573,-19.49663 32.80202,-8.03708 92.36864,-14.88205 157.93422,-18.11226 12.69012,-0.65373 293.33388,-0.3461 301.10177,0.30765 3.07638,0.26917 10.61354,0.80754 16.72787,1.23056 63.56592,4.42231 103.25137,9.42144 131.74642,16.5356 23.41903,5.88359 34.57097,11.65183 48.83774,25.26485 20.57332,19.6889 36.60899,48.7608 46.79959,84.71613 5.38364,18.95825 8.42159,38.22415 8.80616,56.02877 l 0.23066,9.72909 h -9.38291 c -15.30501,0 -28.61044,1.49973 -42.80032,4.84531 -42.33884,9.92136 -79.90923,34.49404 -106.40466,69.5649 -19.22743,25.41867 -31.80219,56.37485 -35.8784,88.061758 -1.03828,7.998608 -1.38438,14.228302 -1.38438,24.188117 0,13.305376 1.07673,24.76493 3.4994,36.685951 0.423,2.191928 0.73064,4.037759 0.65373,4.076216 -0.19228,0.153817 -11.4211,2.076567 -21.6501,3.691676 -35.26313,5.537498 -81.87045,10.498176 -122.67109,13.074661 -27.11069,1.692005 -26.49542,1.692005 -72.67972,1.730461 -24.72651,0.03847 -46.18433,0 -47.68407,-0.07686 z"
       style="display:none;opacity:1;fill:#000000;stroke-width:0.0384549"
       inkscape:label="corps" /><g
       id="g3103"
       style="opacity:1;fill:#000000"
       transform="matrix(0.03639798,0,0,0.03639798,186.44631,-448.10917)"
       inkscape:label="corps"><path
         id="plARKeQC3"
         d="m 8245,11383 c -22,-2 -170,-12 -330,-24 -872,-61 -1742,-157 -2478,-275 -176,-28 -227,-40 -223,-50 12,-32 67,-320 85,-449 107,-751 38,-1509 -203,-2229 C 4903,7781 4610,7259 4209,6775 4094,6636 3749,6293 3605,6174 2803,5512 1875,5138 840,5059 c -150,-11 -697,-6 -798,7 l -42,6 V 4922 C 0,4068 242,3065 639,2272 961,1628 1356,1146 1805,845 1945,751 2177,640 2358,581 2863,414 3682,273 4800,160 5357,104 6194,41 6206,53 c 4,4 -4,33 -18,64 -14,32 -29,73 -32,91 -4,17 -11,32 -15,32 -9,0 -60,123 -66,160 -4,24 -36,103 -58,145 -13,24 -67,193 -67,209 0,6 -6,23 -14,38 -15,28 -47,129 -52,163 -2,20 -27,120 -66,265 -11,41 -30,125 -44,185 -13,61 -28,119 -33,130 -7,18 -34,36 -122,82 -15,7 -32,20 -39,28 -7,8 -18,15 -26,15 -7,0 -16,9 -19,20 -3,11 -11,20 -17,20 -12,0 -168,158 -168,170 0,5 -6,15 -12,22 -7,7 -22,31 -33,53 -11,22 -26,46 -32,53 -67,70 -145,291 -184,517 -6,39 -15,75 -19,80 -4,6 -13,64 -19,130 -7,66 -18,138 -24,160 -17,57 -17,1123 0,1180 6,22 17,123 23,224 7,102 16,192 20,200 5,9 16,75 25,146 9,72 21,135 26,141 5,6 6,14 2,17 -12,13 59,331 99,441 16,45 35,95 41,111 5,17 16,39 23,50 7,11 16,38 19,60 7,37 130,303 147,315 4,3 18,26 31,51 35,65 50,90 67,110 33,38 40,48 40,55 0,4 18,26 40,50 40,43 49,64 30,64 -5,0 -10,12 -10,27 0,18 13,38 40,63 22,20 40,41 40,46 0,5 59,67 130,139 109,109 130,134 130,160 0,16 7,66 16,110 8,44 20,105 26,135 6,30 14,60 19,65 4,6 13,51 19,100 6,49 17,103 25,120 7,16 22,66 34,110 18,73 104,332 132,401 7,16 14,40 16,54 2,14 15,48 27,75 13,28 29,68 36,90 7,22 25,67 40,100 58,125 80,178 80,192 0,9 9,32 19,52 11,20 40,81 66,136 26,55 56,118 68,140 11,22 24,47 27,55 58,126 95,200 100,200 4,0 21,35 40,78 18,42 38,84 45,92 6,8 28,49 49,90 21,41 58,104 81,140 24,36 56,90 71,120 15,30 37,69 49,85 13,17 26,40 30,53 3,12 11,22 16,22 5,0 9,5 9,11 0,8 26,47 77,114 5,6 15,24 23,40 21,43 62,108 75,120 14,13 165,215 165,222 0,2 31,42 69,88 38,46 71,88 72,92 2,5 17,18 32,30 15,12 47,46 70,75 23,29 52,61 65,71 12,10 20,23 17,28 -4,5 -2,9 3,9 5,0 21,17 34,38 14,20 41,53 59,72 41,42 99,115 99,125 0,3 6,12 13,19 119,124 183,211 211,293 15,43 32,87 37,98 5,11 20,61 35,110 14,50 28,98 31,108 3,9 9,17 14,17 5,0 9,7 9,16 0,8 24,67 54,130 l 55,114 -82,-2 c -45,-1 -100,-3 -122,-5 z" /><path
         id="pcgBhfkaA"
         d="m 12780,11375 c 0,-3 18,-41 40,-84 22,-43 40,-81 40,-85 0,-5 11,-30 24,-57 14,-26 34,-82 46,-123 11,-42 27,-88 35,-103 8,-15 15,-38 15,-50 0,-12 4,-24 9,-27 5,-3 14,-27 20,-53 14,-55 32,-81 126,-188 39,-44 95,-111 125,-150 30,-38 65,-78 78,-89 13,-10 34,-35 46,-55 13,-20 54,-70 91,-111 37,-41 92,-108 123,-149 30,-40 70,-89 89,-109 18,-19 33,-37 33,-40 0,-3 17,-26 38,-51 21,-25 41,-54 45,-63 3,-10 11,-18 17,-18 5,0 10,-6 10,-13 0,-7 23,-41 51,-76 27,-34 59,-80 71,-102 11,-21 24,-39 30,-39 5,0 7,-4 4,-8 -3,-4 17,-36 43,-69 26,-34 56,-78 67,-99 10,-21 27,-47 36,-58 16,-20 50,-80 86,-151 8,-16 29,-50 45,-74 37,-54 92,-155 152,-280 25,-52 59,-114 75,-137 15,-23 31,-53 35,-66 4,-12 33,-77 65,-143 129,-269 160,-335 160,-344 0,-5 14,-39 30,-76 17,-37 30,-73 30,-80 0,-8 6,-20 13,-27 7,-7 26,-49 41,-93 15,-44 31,-84 35,-90 11,-15 41,-99 47,-132 3,-15 16,-50 28,-78 13,-27 31,-77 40,-110 10,-33 26,-82 36,-110 36,-95 81,-256 75,-265 -3,-6 -1,-10 5,-10 6,0 10,-8 9,-17 -3,-25 12,-116 21,-128 4,-5 11,-30 15,-55 4,-25 11,-50 15,-55 10,-12 33,-166 51,-332 6,-62 15,-113 20,-113 5,0 39,-29 76,-65 37,-36 77,-68 88,-71 11,-3 35,-24 52,-47 18,-23 69,-80 113,-127 44,-46 80,-90 80,-97 0,-7 5,-13 10,-13 6,0 10,-9 10,-20 0,-11 5,-20 10,-20 6,0 10,-5 10,-10 0,-6 14,-29 30,-52 17,-22 30,-47 30,-54 0,-7 4,-14 9,-16 11,-4 81,-143 81,-162 0,-8 7,-21 15,-29 8,-8 17,-30 20,-47 5,-29 24,-75 70,-175 27,-58 47,-110 56,-145 34,-134 71,-317 89,-440 11,-80 25,-161 30,-180 6,-19 17,-102 26,-185 8,-82 19,-186 24,-230 16,-144 24,-921 11,-1158 -7,-121 -16,-226 -21,-235 -4,-10 -13,-59 -19,-110 -7,-51 -16,-101 -20,-110 -5,-9 -17,-56 -26,-105 -10,-48 -22,-90 -26,-93 -5,-3 -7,-9 -5,-13 13,-20 -79,-268 -111,-300 -22,-21 -78,-114 -75,-123 1,-5 -2,-8 -7,-8 -5,0 -11,-10 -15,-23 -5,-23 -157,-177 -173,-177 -5,0 -13,-10 -18,-22 -6,-12 -34,-35 -63,-50 -29,-15 -66,-36 -81,-48 -16,-11 -33,-20 -38,-20 -19,0 -36,-50 -59,-172 -13,-71 -27,-134 -31,-140 -3,-7 -14,-43 -24,-82 -10,-39 -27,-102 -39,-141 -12,-38 -22,-81 -23,-95 -3,-30 -39,-143 -48,-150 -4,-3 -11,-25 -17,-50 -18,-78 -54,-194 -68,-220 -26,-50 -56,-123 -59,-149 -2,-14 -19,-60 -39,-102 -52,-114 -87,-202 -81,-207 12,-13 1070,71 1575,123 1310,138 2163,316 2630,550 391,195 827,629 1145,1138 94,150 243,432 321,607 329,740 524,1581 541,2328 l 6,252 h -244 c -398,0 -744,39 -1113,126 -1101,258 -2078,897 -2767,1809 -500,661 -827,1466 -933,2290 -27,208 -36,370 -36,629 0,346 28,644 91,954 11,57 19,105 17,106 -5,4 -297,54 -563,96 -693,109 -1607,216 -2435,284 -436,36 -470,38 -470,31 z" /></g><path
       id="pnZn6BmLb"
       d="M 565.88345,33.162707 C 550.24636,31.149159 533.92382,24.423074 521.28562,14.869457 517.68695,12.127611 511.26074,5.8299337 507.53355,1.3744303 499.22233,-8.5219168 493.95284,-18.58963 489.79724,-32.341702 l -1.62798,-5.355168 -4.84107,-0.257048 c -2.699,-0.171366 -7.06882,-0.29989 -9.68214,-0.34273 -2.65616,0 -4.84107,-0.08569 -4.84107,-0.128523 -0.0428,-0.08569 -0.21421,-5.440853 -0.42841,-11.995578 l -0.38557,-11.82421 -4.54118,-5.740739 c -11.3958,-14.309026 -21.50635,-30.545893 -31.83113,-51.323952 -13.02376,-26.09041 -21.80624,-50.80987 -24.97649,-70.51688 l -0.98535,-5.95495 -6.12632,-6.4262 c -3.38446,-3.51299 -6.12631,-6.64041 -6.12631,-6.89745 0,-0.29989 0.25705,-0.59978 0.5141,-0.68547 0.59978,-0.21421 -0.17137,-1.54228 -4.62687,-7.92565 -10.32477,-14.78026 -16.45107,-35.34411 -18.80735,-63.10529 -0.94251,-10.92454 -1.32808,-36.54367 -0.68546,-44.98341 1.54229,-20.39248 5.52654,-33.07351 13.3665,-42.79849 2.31343,-2.82752 7.54007,-7.19735 10.92454,-9.08236 2.61332,-1.49946 2.87037,-2.14207 4.4555,-9.81067 1.84218,-9.16805 4.32698,-17.73632 8.18269,-28.48949 10.32477,-28.78938 21.76341,-52.35212 31.95965,-65.88997 15.20867,-20.17828 37.40049,-38.00028 62.89108,-50.42427 23.5199,-11.48148 45.41182,-17.73631 67.47511,-19.32144 24.37673,-1.71365 54.06577,5.31232 83.3264,19.74986 12.50968,6.16915 23.5199,13.10945 34.05887,21.46351 5.09812,4.02709 21.24931,19.96407 25.10503,24.80513 6.42619,7.9685 11.65284,16.53677 17.9505,29.34632 12.2098,24.84798 22.40603,53.25178 25.70481,71.84492 0.34272,1.84219 0.814,3.68436 1.07104,4.15562 0.25704,0.51409 1.62799,1.67081 3.12742,2.65616 7.54009,5.05528 12.08127,10.02487 15.76562,17.17938 3.8557,7.58291 6.59757,17.82198 7.75428,29.26062 0.89969,8.86816 0.72828,39.41404 -0.25704,50.12437 -2.27059,24.7623 -5.69789,38.55721 -13.32366,53.85157 -4.92678,9.76782 -9.08236,15.16584 -16.62244,21.50635 l -4.54118,3.85572 -0.25704,2.35627 c -1.71368,14.95163 -5.14099,28.4895 -11.48147,45.66887 -12.38117,33.50196 -30.97431,67.218112 -49.0962,88.810167 l -2.61332,3.170259 v 11.952733 11.952733 l -9.89636,0.08569 -9.89634,0.128524 -0.85683,2.784687 c -5.61221,18.893032 -11.99558,30.1602979 -24.11967,42.1987191 -14.52321,14.5660539 -31.14565,22.7059049 -52.26644,25.7048029 -4.71254,0.685459 -17.05085,0.771146 -21.80624,0.171365 z m 18.67883,-40.6564351 c 18.72167,-3.1702529 33.50192,-16.0226609 39.32834,-34.1873849 2.74185,-8.396905 2.74185,-21.592037 0,-29.646225 -4.49834,-13.537866 -13.62354,-23.776944 -26.69015,-30.031782 -12.98092,-6.16915 -28.53233,-6.08347 -41.81315,0.29989 -5.82642,2.784687 -9.59645,5.398011 -13.96627,9.810668 -9.46793,9.467936 -14.35185,21.420687 -14.35185,35.129918 0,6.211993 0.77115,10.753174 2.78468,16.40823 4.45551,12.381146 14.60891,23.519892 25.91901,28.403812 3.08459,1.3280798 11.65285,3.7700351 15.42289,4.3698166 2.82752,0.4712555 8.95384,0.2142036 13.3665,-0.5569427 z M 488.7262,-76.768191 c 4.24129,-15.080152 8.05418,-23.262849 15.55141,-33.244879 4.02708,-5.31233 13.15229,-14.60894 17.99337,-18.25046 9.81066,-7.41155 19.87837,-12.16694 33.93033,-16.02266 l 4.92676,-1.32808 14.78025,-0.0428 c 16.8795,0 17.56496,0.0857 28.31813,3.64151 6.4262,2.14207 13.3665,5.26949 19.44997,8.78247 10.06771,5.78359 21.16362,16.8367 29.08927,29.04648 4.49834,6.897459 9.72498,19.064399 11.3958,26.561635 0.68546,2.998892 1.37092,3.470149 4.75539,3.213098 3.12741,-0.214206 3.34162,-0.428414 9.55361,-8.69679 14.56606,-19.407123 26.90437,-41.641833 37.31481,-67.260953 5.26949,-12.89525 11.39579,-32.13101 12.03841,-37.70038 0.25705,-2.05638 0.17137,-2.31343 -0.7283,-2.78468 -1.62797,-0.89967 -8.35406,-0.21422 -19.06439,1.88501 -24.59093,4.84107 -40.57075,6.55473 -57.10751,6.12631 -9.59646,-0.2142 -15.67993,-1.07103 -22.53454,-3.12741 -5.61222,-1.67081 -5.52653,-1.67081 -8.65396,-0.38557 -3.85571,1.54228 -6.34051,3.25594 -11.90988,8.39689 -10.75318,9.81067 -18.89304,13.23798 -31.44555,13.23798 -12.46683,0 -19.92122,-3.25594 -31.95964,-13.96627 -5.48368,-4.88392 -8.52542,-6.9403 -11.90989,-8.09702 l -2.39911,-0.81398 -4.02709,1.37092 c -15.8513,5.35516 -43.05554,4.62686 -77.2001,-2.05638 -13.02376,-2.52764 -20.90657,-3.42732 -23.00579,-2.61333 l -1.11388,0.42842 0.81399,3.77003 c 1.2424,5.74074 4.88391,18.29326 6.76893,23.3057 6.98314,18.80734 18.33609,43.31262 25.87617,55.86515 7.45439,12.46683 21.46351,32.002478 23.43421,32.730783 0.59978,0.214207 2.27059,0.428414 3.7272,0.428414 l 2.65616,0.04284 z m 16.70812,-129.509419 c 3.29879,-0.25704 7.54008,-0.81398 9.4251,-1.2424 3.08458,-0.7283 3.59867,-1.02819 5.05528,-2.699 2.9989,-3.4273 6.59757,-11.65284 14.52321,-33.07352 5.9121,-16.10834 8.01133,-21.16362 12.33831,-30.03178 4.75538,-9.76782 7.32586,-13.5807 12.16693,-18.42177 5.82642,-5.82642 9.9392,-7.54008 18.03621,-7.54008 7.06881,-0.0428 11.35295,1.92786 17.5221,7.96849 7.88281,7.75429 12.93809,17.73632 23.81979,47.12547 9.6393,26.04754 13.45218,33.8875 17.52211,35.94389 4.71254,2.44196 22.2775,2.82752 39.45688,0.89966 18.20756,-2.05637 43.61247,-7.62575 53.33746,-11.65284 7.9685,-3.34162 14.86595,-11.22443 19.23578,-22.06328 5.99777,-14.95164 8.39688,-33.93035 8.39688,-66.74681 0,-16.96518 -0.25704,-20.64953 -1.88503,-27.11857 -2.57047,-10.02487 -5.65506,-14.35185 -12.03839,-16.92233 l -3.42731,-1.37092 H 581.69191 c -86.45383,0.0428 -159.92673,0.2142 -163.22551,0.38557 -9.89634,0.59978 -13.5807,2.69901 -16.92233,9.6393 -3.77003,7.8828 -4.88391,16.45107 -4.92675,36.67218 0,37.31482 4.84108,62.89109 14.52322,76.4718 2.78468,3.85572 7.41155,7.96848 11.31011,9.98203 11.90989,6.16915 51.45245,13.75207 73.77278,14.13764 1.7565,0.0428 5.91211,-0.12853 9.21089,-0.34273 z"
       style="display:inline;fill:#000000;stroke:#ffffff;stroke-width:45.3821;stroke-dasharray:none;stroke-opacity:1;paint-order:markers stroke fill"
       inkscape:label="masque"
       clip-path="none" /></g><g
     inkscape:groupmode="layer"
     id="layer1"
     inkscape:label="bouteilles"
     style="display:inline"><path
       style="display:inline;fill:currentColor;fill-opacity:1;stroke:#ffffff;stroke-width:17.374;stroke-linecap:square;stroke-dasharray:none;stroke-opacity:1"
       id="path311"
       inkscape:path-effect="#path-effect313"
       sodipodi:type="arc"
       sodipodi:cx="296.27264"
       sodipodi:cy="-146.06415"
       sodipodi:rx="131.31497"
       sodipodi:ry="131.31497"
       d="m 427.58762,-146.06415 c 0,72.523258 -58.79172,131.314974 -131.31498,131.314974 -72.52325,0 -131.31497,-58.791716 -131.31497,-131.314974 0,-72.52325 58.79172,-131.31497 131.31497,-131.31497 72.52326,0 131.31498,58.79172 131.31498,131.31497 z m 328.17667,0 c 0,72.523258 58.79172,131.314974 131.31497,131.314974 72.52326,0 131.31494,-58.791716 131.31494,-131.314974 0,-72.52325 -58.79168,-131.31497 -131.31494,-131.31497 -72.52325,0 -131.31497,58.79172 -131.31497,131.31497 z"
       class="UnoptimicedTransforms"
       transform="matrix(1.2565487,0,0,1.2565487,-167.46965,94.651699)" /><path
       style="fill:#ffffff;fill-opacity:1;stroke:#ffffff;stroke-width:21.6;stroke-linecap:square;stroke-dasharray:none;stroke-opacity:1"
       id="path2678"
       inkscape:path-effect="#path-effect2888"
       sodipodi:type="arc"
       sodipodi:cx="205.11185"
       sodipodi:cy="-77.693573"
       sodipodi:rx="43.409912"
       sodipodi:ry="43.409912"
       d="m 248.52176,-77.693573 c 0,23.974632 -19.43528,43.409912 -43.40991,43.409912 -23.97464,0 -43.40992,-19.43528 -43.40992,-43.409912 0,-23.974637 19.43528,-43.409917 43.40992,-43.409917 23.97463,0 43.40991,19.43528 43.40991,43.409917 z m 644.80958,0 c 0,23.974632 19.43528,43.409912 43.40991,43.409912 23.97464,0 43.40992,-19.43528 43.40992,-43.409912 0,-23.974637 -19.43528,-43.409917 -43.40992,-43.409917 -23.97463,0 -43.40991,19.43528 -43.40991,43.409917 z"
       class="UnoptimicedTransforms"
       transform="matrix(1.0107072,0,0,1.0107072,-1.0395757,-14.105281)" /></g></svg>
