<?xml version="1.0" encoding="UTF-8" standalone="no"?>
<svg
   data-v-6805eed4=""
   version="1.0"
   width="250"
   height="250"
   viewBox="0 0 250 250"
   preserveAspectRatio="xMidYMid"
   color-interpolation-filters="sRGB"
   id="svg1987"
   sodipodi:docname="brand-white.svg"
   inkscape:version="1.2.1 (9c6d41e410, 2022-07-14)"
   xmlns:inkscape="http://www.inkscape.org/namespaces/inkscape"
   xmlns:sodipodi="http://sodipodi.sourceforge.net/DTD/sodipodi-0.dtd"
   xmlns="http://www.w3.org/2000/svg"
   xmlns:svg="http://www.w3.org/2000/svg">
  <sodipodi:namedview
     id="namedview1989"
     pagecolor="#ffffff"
     bordercolor="#000000"
     borderopacity="0.25"
     inkscape:showpageshadow="2"
     inkscape:pageopacity="0.0"
     inkscape:pagecheckerboard="0"
     inkscape:deskcolor="#d1d1d1"
     showgrid="false"
     inkscape:zoom="7"
     inkscape:cx="155.42857"
     inkscape:cy="126.14286"
     inkscape:window-width="3840"
     inkscape:window-height="2066"
     inkscape:window-x="-11"
     inkscape:window-y="-11"
     inkscape:window-maximized="1"
     inkscape:current-layer="layer1" />
  <defs
     v-gra="od"
     id="defs1985" />
  <rect
     style="opacity:1;mix-blend-mode:normal;fill:#145e79;fill-opacity:1;stroke:none;stroke-linecap:square;paint-order:markers stroke fill"
     id="rect3615"
     width="250"
     height="250"
     x="0"
     y="0" />
  <g
     inkscape:groupmode="layer"
     id="layer1"
     inkscape:label="logo"
     transform="translate(-45.000847)">
    <path
       d="M 189.83343,108.93691 166.25464,85.507804 154.31881,73.643565 a 9.4237075,9.4237075 0 0 0 -3.77469,-0.78097 c -5.74664,0 -10.41945,5.271549 -10.5431,11.818683 v 28.290642 a 12.150595,12.150595 0 0 0 11.9944,12.30679 h 33.04155 a 11.62344,11.62344 0 0 0 6.50809,-10.36087 11.324068,11.324068 0 0 0 -1.71163,-5.98093 z"
       fill="#145e79"
       opacity="0.8"
       id="path1947"
       style="overflow:visible;stroke-width:0.650809;fill:#ffffff;fill-opacity:1" />
    <path
       d="m 188.00466,85.527329 h -33.03504 a 11.62344,11.62344 0 0 0 -6.50809,10.360871 11.363117,11.363117 0 0 0 1.69861,5.98744 l 23.57879,23.42911 11.96837,11.85773 a 9.4497399,9.4497399 0 0 0 3.75517,0.78097 c 5.74013,0 10.41293,-5.26504 10.53659,-11.81218 V 97.82761 a 12.150595,12.150595 0 0 0 -11.9944,-12.300281 z"
       fill="#d9b504"
       opacity="0.8"
       id="path1949"
       style="overflow:visible;stroke-width:0.650809;fill:#ffffff;fill-opacity:1" />
    <path
       d="m 150.16014,101.87564 23.57879,23.42911 h 11.29804 a 11.62344,11.62344 0 0 0 6.50809,-10.36088 11.324068,11.324068 0 0 0 -1.70512,-5.98093 l -23.5788,-23.429103 h -11.29152 a 11.62344,11.62344 0 0 0 -6.50809,10.354363 11.363117,11.363117 0 0 0 1.69861,5.98744 z"
       fill="#145e79"
       opacity="0.5"
       id="path1951"
       style="overflow:visible;stroke-width:0.650809;fill:#ffffff;fill-opacity:1" />
  </g>
  <g
     inkscape:groupmode="layer"
     id="layer2"
     inkscape:label="name"
     transform="translate(-45.000847)">
    <path
       d="m 95.277447,162.87214 c 4.59,0 8.640003,-3.5604 8.640003,-9.18 0,-4.428 -3.2112,-7.8804 -7.369203,-8.532 -0.9468,-0.1044 -1.8612,-0.1332 -2.862,0 -4.2948,0.6768 -7.1568,4.2948 -7.1568,8.532 0,5.724 3.888,9.18 8.748,9.18 z m -1.3212,-15.9012 c 0.756,-0.108 1.5408,-0.108 2.3472,0 3.3228,0.54 5.616003,3.3192 5.616003,6.804 0,4.536 -2.995203,7.236 -6.642003,7.236 -3.8052,0 -6.7212,-2.808 -6.7212,-7.236 0,-3.672 2.1312,-6.2892 5.4,-6.804 z m 15.685203,0.162 h 4.9428 c 3.132,0 4.8888,2.2428 4.914,4.4568 0.054,2.052 -1.4292,4.158 -5.022,4.158 h -4.8348 z m 4.8348,10.368 c 4.7268,0 6.9372,-2.6712 6.9372,-5.9112 0,-3.1068 -2.1852,-6.21 -6.8544,-6.21 h -5.8608 c -0.54,0 -0.9972,0.3744 -0.9972,0.9432 v 15.552 c 0,1.188 1.9404,1.2168 1.9404,-0.0252 v -4.3488 z m 12.4452,-2.5632 h 10.1556 c 1.1304,0 1.08,-1.728 0,-1.728 h -10.1556 v -6.0768 h 10.6668 c 1.134,0 1.188,-1.728 0.0288,-1.728 h -11.394 c -0.7596,0 -1.242,0.54 -1.242,1.1592 v 14.8248 c 0,0.648 0.4824,1.188 1.242,1.188 h 11.3652 c 1.296,0 1.134,-1.782 0,-1.782 h -10.6668 z m 27.4896,0.6732 0.27,4.0752 -10.3968,-13.9032 c -0.6732,-0.9972 -2.1852,-0.7812 -2.1852,0.5688 v 15.4692 c 0,1.35 2.052,1.3212 2.052,0 v -9.5292 l -0.216,-3.726 10.098,13.5252 c 0.5652,0.9432 2.43,0.81 2.43,-0.54 v -15.498 c 0,-1.188 -2.052,-1.134 -2.052,0 z m 28.5912,3.888 c 0.702,-0.9972 -0.9432,-1.998 -1.566,-1.08 -0.5688,0.7272 -1.3788,1.3788 -2.214,1.8108 -1.026,0.5112 -2.1348,0.7812 -3.132,0.7812 -3.726,0 -6.8868,-3.132 -6.8868,-7.236 0,-3.9132 2.3508,-6.264 5.67,-6.7752 2.376,-0.27 4.5108,0.0252 6.3468,1.9692 0.756,0.81 2.214,-0.2988 1.404,-1.2132 -2.1348,-2.2428 -4.8852,-3.024 -8.046,-2.5956 -4.158,0.6516 -7.3152,4.1616 -7.3152,8.5896 0,5.346 4.1544,9.1224 8.7732,9.1224 1.296,0 2.754,-0.3744 4.05,-0.972 1.1628,-0.5652 2.1888,-1.3752 2.916,-2.4012 z m 14.5548,-3.1572 h -8.5068 l 4.266,-8.5068 z m 0.8352,1.6992 2.106,4.1868 c 0.5112,1.0512 2.5092,0.3744 1.8108,-0.7848 l -8.1288,-15.984 c -0.1908,-0.3492 -0.5112,-0.5148 -0.864,-0.5148 -0.3492,0 -0.7272,0.1656 -0.8892,0.5148 l -8.1576,16.0668 c -0.4824,1.0764 1.2996,1.7784 1.7856,0.7812 l 2.1852,-4.266 z m 11.07,4.104 c 0.4572,0.9468 1.4328,0.7812 1.8072,0.0828 l 7.7796,-15.7428 c 0.4032,-1.2132 -1.4328,-1.8108 -1.8648,-0.702 l -6.7752,13.77 -6.9408,-13.824 c -0.54,-1.1592 -2.4012,-0.4032 -1.89,0.756 z m 14.364,-7.2072 h 10.152 c 1.134,0 1.08,-1.728 0,-1.728 h -10.152 v -6.0768 h 10.6668 c 1.134,0 1.1844,-1.728 0.0252,-1.728 h -11.394 c -0.756,0 -1.242,0.54 -1.242,1.1592 v 14.8248 c 0,0.648 0.486,1.188 1.242,1.188 h 11.3688 c 1.296,0 1.134,-1.782 0,-1.782 h -10.6668 z m 13.8528,3.8592 c 0.8892,3.24 5.1012,4.1868 7.8552,4.1868 3.3228,0 7.938,-1.2708 7.938,-5.4036 0,-4.05 -3.9672,-4.2372 -7.668,-4.5612 -3.132,-0.2412 -5.832,-0.486 -5.832,-2.8332 0,-2.4588 3.51,-3.186 5.3208,-3.186 1.944,0 4.8312,0.3492 5.6412,2.4012 0.4068,0.918 2.2428,0.432 1.836,-0.648 -1.134,-3.078 -4.6692,-3.7512 -7.506,-3.7512 -3.294,0 -7.398,1.5912 -7.398,5.1552 0,4.0248 3.996,4.374 7.722,4.6728 2.97,0.2412 5.8068,0.432 5.8068,2.7792 0,2.7288 -3.564,3.4308 -5.8608,3.4308 -2.16,0 -5.1552,-0.4896 -5.8572,-2.7288 -0.216,-1.1052 -2.322,-0.702 -1.998,0.486 z"
       id="path1961-8"
       style="opacity:1;mix-blend-mode:normal;fill:#ffffff;fill-opacity:1;stroke-width:0.36" />
  </g>
  <g
     inkscape:groupmode="layer"
     id="layer3"
     inkscape:label="slogan"
     transform="translate(-45.016472,-0.00390625)"
     style="opacity:1;mix-blend-mode:normal">
    <path
       d="m 101.10525,177.14133 v 0 q -0.74,0 -1.359996,-0.28 -0.62,-0.29 -1.06,-0.83 -0.44,-0.53 -0.69,-1.29 -0.25,-0.76 -0.25,-1.71 v 0 q 0,-0.95 0.25,-1.7 0.25,-0.75 0.69,-1.27 0.44,-0.52 1.06,-0.8 0.619996,-0.28 1.359996,-0.28 v 0 q 0.75,0 1.37,0.29 0.61,0.28 1.06,0.8 0.45,0.52 0.7,1.27 0.25,0.75 0.25,1.69 v 0 q 0,0.95 -0.25,1.71 -0.25,0.76 -0.7,1.29 -0.45,0.54 -1.06,0.83 -0.62,0.28 -1.37,0.28 z m 0,-0.87 v 0 q 0.53,0 0.96,-0.23 0.42,-0.23 0.73,-0.65 0.31,-0.43 0.47,-1.02 0.17,-0.6 0.17,-1.34 v 0 q 0,-0.73 -0.17,-1.32 -0.16,-0.59 -0.47,-1 -0.31,-0.41 -0.73,-0.63 -0.43,-0.22 -0.96,-0.22 v 0 q -0.52,0 -0.95,0.22 -0.429996,0.22 -0.729996,0.63 -0.31,0.41 -0.48,1 -0.16,0.59 -0.16,1.32 v 0 q 0,0.74 0.16,1.34 0.17,0.59 0.48,1.02 0.3,0.42 0.729996,0.65 0.43,0.23 0.95,0.23 z m 5.07,0.73 v -7.87 h 2.41 q 0.65,0 1.19,0.12 0.54,0.12 0.92,0.39 0.37,0.27 0.58,0.71 0.21,0.45 0.21,1.09 v 0 q 0,0.63 -0.21,1.08 -0.21,0.46 -0.59,0.76 -0.38,0.3 -0.92,0.45 -0.53,0.15 -1.18,0.15 v 0 h -1.42 v 3.12 z m 0.99,-3.94 h 1.3 q 1.03,0 1.53,-0.39 0.5,-0.39 0.5,-1.23 v 0 q 0,-0.85 -0.51,-1.18 -0.5,-0.33 -1.52,-0.33 v 0 h -1.3 z m 5.92,3.94 v -7.87 h 4.54 v 0.84 h -3.54 v 2.47 h 2.98 v 0.85 h -2.98 v 2.86 h 3.66 v 0.85 z m 6.32,0 v -7.87 h 1.04 l 2.84,4.94 0.85,1.63 h 0.05 q -0.04,-0.6 -0.08,-1.24 -0.04,-0.64 -0.04,-1.26 v 0 -4.07 h 0.95 v 7.87 h -1.03 l -2.86,-4.96 -0.85,-1.62 h -0.05 q 0.05,0.6 0.09,1.22 0.04,0.62 0.04,1.24 v 0 4.12 z m 10.19,0 v -7.87 h 1.97 q 1.82,0 2.77,1.01 0.95,1 0.95,2.89 v 0 q 0,0.93 -0.24,1.67 -0.24,0.74 -0.71,1.25 -0.47,0.51 -1.15,0.78 -0.68,0.27 -1.57,0.27 v 0 z m 1,-0.82 h 0.9 q 1.38,0 2.07,-0.82 0.69,-0.83 0.69,-2.33 v 0 q 0,-1.5 -0.69,-2.29 -0.69,-0.8 -2.07,-0.8 v 0 h -0.9 z m 7.25,-2.38 h 2.36 l -0.37,-1.2 q -0.22,-0.66 -0.41,-1.32 -0.19,-0.65 -0.38,-1.34 v 0 h -0.05 q -0.18,0.69 -0.37,1.34 -0.2,0.66 -0.41,1.32 v 0 z m 3.36,3.2 -0.75,-2.4 h -2.87 l -0.75,2.4 h -1.02 l 2.66,-7.87 h 1.13 l 2.66,7.87 z m 3.33,0 v -7.03 h -2.37 v -0.84 h 5.76 v 0.84 h -2.38 v 7.03 z m 5.31,-3.2 h 2.36 l -0.37,-1.2 q -0.22,-0.66 -0.41,-1.32 -0.19,-0.65 -0.38,-1.34 v 0 h -0.05 q -0.18,0.69 -0.37,1.34 -0.2,0.66 -0.41,1.32 v 0 z m 3.36,3.2 -0.75,-2.4 h -2.87 l -0.75,2.4 h -1.02 l 2.66,-7.87 h 1.13 l 2.66,7.87 z m 4.6,0 v -7.87 h 4.54 v 0.84 h -3.54 v 2.66 h 3 v 0.84 h -3 v 3.53 z m 8.72,0.14 v 0 q -0.75,0 -1.37,-0.28 -0.61,-0.29 -1.06,-0.83 -0.44,-0.53 -0.69,-1.29 -0.24,-0.76 -0.24,-1.71 v 0 q 0,-0.95 0.24,-1.7 0.25,-0.75 0.69,-1.27 0.45,-0.52 1.06,-0.8 0.62,-0.28 1.37,-0.28 v 0 q 0.74,0 1.36,0.29 0.62,0.28 1.07,0.8 0.45,0.52 0.69,1.27 0.25,0.75 0.25,1.69 v 0 q 0,0.95 -0.25,1.71 -0.24,0.76 -0.69,1.29 -0.45,0.54 -1.07,0.83 -0.62,0.28 -1.36,0.28 z m 0,-0.87 v 0 q 0.52,0 0.95,-0.23 0.43,-0.23 0.73,-0.65 0.31,-0.43 0.48,-1.02 0.16,-0.6 0.16,-1.34 v 0 q 0,-0.73 -0.16,-1.32 -0.17,-0.59 -0.48,-1 -0.3,-0.41 -0.73,-0.63 -0.43,-0.22 -0.95,-0.22 v 0 q -0.53,0 -0.96,0.22 -0.42,0.22 -0.73,0.63 -0.31,0.41 -0.47,1 -0.17,0.59 -0.17,1.32 v 0 q 0,0.74 0.17,1.34 0.16,0.59 0.47,1.02 0.31,0.42 0.73,0.65 0.43,0.23 0.96,0.23 z m 6.06,-6.34 v 2.93 h 1.32 q 0.92,0 1.41,-0.38 0.49,-0.38 0.49,-1.14 v 0 q 0,-0.78 -0.49,-1.1 -0.49,-0.31 -1.41,-0.31 v 0 z m 4.45,7.07 h -1.13 l -1.9,-3.32 h -1.42 v 3.32 h -1 v -7.87 h 2.46 q 0.6,0 1.11,0.11 0.51,0.12 0.88,0.38 0.36,0.26 0.57,0.68 0.2,0.42 0.2,1.04 v 0 q 0,0.92 -0.48,1.47 -0.48,0.55 -1.28,0.76 v 0 z m 3.49,-3.94 v 0 q 0,-0.94 0.26,-1.7 0.27,-0.76 0.74,-1.28 0.46,-0.53 1.11,-0.81 0.64,-0.29 1.39,-0.29 v 0 q 0.72,0 1.26,0.3 0.54,0.29 0.89,0.68 v 0 l -0.56,0.63 q -0.31,-0.33 -0.69,-0.53 -0.38,-0.2 -0.88,-0.2 v 0 q -0.57,0 -1.02,0.22 -0.46,0.22 -0.78,0.64 -0.33,0.41 -0.51,1 -0.18,0.59 -0.18,1.32 v 0 q 0,0.74 0.18,1.34 0.17,0.59 0.48,1.01 0.31,0.42 0.76,0.65 0.45,0.23 1.02,0.23 v 0 q 0.57,0 1,-0.23 0.43,-0.23 0.81,-0.65 v 0 l 0.56,0.61 q -0.46,0.54 -1.05,0.84 -0.59,0.3 -1.35,0.3 v 0 q -0.74,0 -1.37,-0.27 -0.63,-0.28 -1.09,-0.8 -0.46,-0.52 -0.72,-1.28 -0.26,-0.77 -0.26,-1.73 z m 8.29,0.74 h 2.37 l -0.38,-1.2 q -0.21,-0.66 -0.4,-1.32 -0.2,-0.65 -0.39,-1.34 v 0 h -0.05 q -0.18,0.69 -0.37,1.34 -0.19,0.66 -0.41,1.32 v 0 z m 3.36,3.2 -0.74,-2.4 h -2.87 l -0.76,2.4 h -1.02 l 2.67,-7.87 h 1.13 l 2.66,7.87 z m 3.46,0 -2.52,-7.87 h 1.07 l 1.26,4.25 q 0.21,0.7 0.37,1.3 0.17,0.6 0.39,1.3 v 0 h 0.05 q 0.22,-0.7 0.39,-1.3 0.16,-0.6 0.37,-1.3 v 0 l 1.26,-4.25 h 1.02 l -2.5,7.87 z m 4.74,0 v -7.87 h 4.53 v 0.84 h -3.54 v 2.47 h 2.99 v 0.85 h -2.99 v 2.86 h 3.66 v 0.85 z m 8.75,0 v -7.87 h 1.96 q 1.83,0 2.78,1.01 0.94,1 0.94,2.89 v 0 q 0,0.93 -0.24,1.67 -0.24,0.74 -0.7,1.25 -0.47,0.51 -1.16,0.78 -0.68,0.27 -1.57,0.27 v 0 z m 0.99,-0.82 h 0.9 q 1.38,0 2.07,-0.82 0.69,-0.83 0.69,-2.33 v 0 q 0,-1.5 -0.69,-2.29 -0.69,-0.8 -2.07,-0.8 v 0 h -0.9 z m 6.39,0.82 v -7.87 h 0.99 v 7.87 z m 4.59,0 -2.52,-7.87 h 1.07 l 1.26,4.25 q 0.22,0.7 0.38,1.3 0.16,0.6 0.39,1.3 v 0 h 0.05 q 0.21,-0.7 0.38,-1.3 0.17,-0.6 0.37,-1.3 v 0 l 1.26,-4.25 h 1.02 l -2.49,7.87 z m 4.74,0 v -7.87 h 1 v 7.87 z m 3.16,0 v -7.87 h 1.03 l 2.84,4.94 0.86,1.63 h 0.04 q -0.03,-0.6 -0.07,-1.24 -0.05,-0.64 -0.05,-1.26 v 0 -4.07 h 0.95 v 7.87 h -1.03 l -2.86,-4.96 -0.85,-1.62 h -0.05 q 0.05,0.6 0.09,1.22 0.05,0.62 0.05,1.24 v 0 4.12 z m 7.31,-3.94 v 0 q 0,-0.94 0.27,-1.7 0.27,-0.76 0.75,-1.28 0.49,-0.53 1.15,-0.81 0.66,-0.29 1.45,-0.29 v 0 q 0.82,0 1.36,0.31 0.55,0.31 0.9,0.67 v 0 l -0.57,0.63 q -0.3,-0.31 -0.69,-0.52 -0.39,-0.21 -0.99,-0.21 v 0 q -0.6,0 -1.08,0.22 -0.48,0.22 -0.81,0.64 -0.34,0.41 -0.53,1 -0.18,0.59 -0.18,1.32 v 0 q 0,0.74 0.17,1.34 0.18,0.59 0.51,1.01 0.33,0.42 0.81,0.65 0.49,0.23 1.12,0.23 v 0 q 0.42,0 0.8,-0.13 0.38,-0.12 0.62,-0.34 v 0 -2.05 h -1.67 v -0.83 h 2.58 v 3.31 q -0.38,0.4 -1.01,0.66 -0.63,0.25 -1.42,0.25 v 0 q -0.78,0 -1.43,-0.27 -0.65,-0.28 -1.12,-0.8 -0.47,-0.52 -0.73,-1.28 -0.26,-0.77 -0.26,-1.73 z"
       id="path1973-5"
       style="opacity:1;mix-blend-mode:normal;fill:#ffffff;fill-opacity:1" />
    <rect
       x="91.542847"
       height="1"
       y="172.56532"
       width="3.2064056"
       id="rect1969-8"
       style="opacity:1;mix-blend-mode:normal;fill:#ffffff;fill-opacity:1" />
    <rect
       height="1"
       y="172.56532"
       width="3.2064056"
       x="245.27925"
       id="rect1971-3"
       style="opacity:1;mix-blend-mode:normal;fill:#ffffff;fill-opacity:1" />
  </g>
</svg>
