<svg xmlns="http://www.w3.org/2000/svg" color-interpolation-filters="sRGB" preserveAspectRatio="xMidYMid" version="1.0" viewBox="0 0 166.943 90.121"><g fill="#fff"><path d="M103.304 36.074 79.725 12.645 67.79.781A9.424 9.424 0 0 0 64.015 0c-5.747 0-10.42 5.272-10.543 11.819v28.29a12.15 12.15 0 0 0 11.994 12.307h33.042a11.623 11.623 0 0 0 6.508-10.36 11.324 11.324 0 0 0-1.712-5.982z" opacity=".4" overflow="visible"/><path d="M101.475 12.665H68.44a11.623 11.623 0 0 0-6.508 10.36 11.363 11.363 0 0 0 1.699 5.988l23.578 23.43L99.178 64.3a9.45 9.45 0 0 0 3.755.78c5.74 0 10.413-5.264 10.537-11.811V24.965a12.15 12.15 0 0 0-11.995-12.3z" opacity=".4" overflow="visible"/><path d="m63.63 29.013 23.58 23.43h11.298a11.623 11.623 0 0 0 6.508-10.362 11.324 11.324 0 0 0-1.706-5.98L79.732 12.67H68.44a11.623 11.623 0 0 0-6.508 10.355 11.363 11.363 0 0 0 1.699 5.987z" opacity=".5" overflow="visible"/></g><path fill="#fff" d="M95.277 162.872c4.59 0 8.64-3.56 8.64-9.18 0-4.428-3.21-7.88-7.369-8.532-.947-.104-1.861-.133-2.862 0-4.295.677-7.157 4.295-7.157 8.532 0 5.724 3.888 9.18 8.748 9.18zm-1.32-15.901a8.54 8.54 0 0 1 2.346 0c3.323.54 5.616 3.32 5.616 6.804 0 4.536-2.995 7.236-6.642 7.236-3.805 0-6.72-2.808-6.72-7.236 0-3.672 2.13-6.29 5.4-6.804zm15.684.162h4.943c3.132 0 4.889 2.243 4.914 4.457.054 2.052-1.429 4.158-5.022 4.158h-4.835zm4.835 10.368c4.727 0 6.937-2.671 6.937-5.911 0-3.107-2.185-6.21-6.854-6.21h-5.86c-.54 0-.998.374-.998.943v15.552c0 1.188 1.94 1.217 1.94-.025v-4.35zm12.445-2.563h10.156c1.13 0 1.08-1.728 0-1.728h-10.156v-6.077h10.667c1.134 0 1.188-1.728.029-1.728h-11.394c-.76 0-1.242.54-1.242 1.16v14.824c0 .648.482 1.188 1.242 1.188h11.365c1.296 0 1.134-1.782 0-1.782h-10.667zm27.49.673.27 4.075-10.397-13.903c-.673-.997-2.185-.781-2.185.569v15.469c0 1.35 2.052 1.321 2.052 0v-9.53l-.216-3.725 10.098 13.525c.565.943 2.43.81 2.43-.54v-15.498c0-1.188-2.052-1.134-2.052 0zm28.591 3.888c.702-.997-.943-1.998-1.566-1.08-.569.727-1.379 1.379-2.214 1.81-1.026.512-2.135.782-3.132.782-3.726 0-6.887-3.132-6.887-7.236 0-3.913 2.351-6.264 5.67-6.775 2.376-.27 4.511.025 6.347 1.969.756.81 2.214-.299 1.404-1.213-2.135-2.243-4.885-3.024-8.046-2.596-4.158.652-7.315 4.162-7.315 8.59 0 5.346 4.154 9.122 8.773 9.122 1.296 0 2.754-.374 4.05-.972 1.163-.565 2.189-1.375 2.916-2.401zm14.555-3.157h-8.507l4.266-8.507zm.835 1.699 2.106 4.187c.511 1.05 2.51.374 1.811-.785l-8.129-15.984a.952.952 0 0 0-.864-.515c-.349 0-.727.166-.889.515l-8.158 16.067c-.482 1.076 1.3 1.778 1.786.78l2.185-4.265zm11.07 4.104c.457.947 1.433.781 1.807.083l7.78-15.743c.403-1.213-1.433-1.81-1.865-.702l-6.775 13.77-6.94-13.824c-.54-1.16-2.402-.403-1.89.756zm14.364-7.207h10.152c1.134 0 1.08-1.728 0-1.728h-10.152v-6.077h10.667c1.134 0 1.184-1.728.025-1.728h-11.394c-.756 0-1.242.54-1.242 1.16v14.824c0 .648.486 1.188 1.242 1.188h11.369c1.296 0 1.134-1.782 0-1.782h-10.667zm13.853 3.859c.89 3.24 5.101 4.187 7.855 4.187 3.323 0 7.938-1.271 7.938-5.404 0-4.05-3.967-4.237-7.668-4.561-3.132-.241-5.832-.486-5.832-2.833 0-2.46 3.51-3.186 5.321-3.186 1.944 0 4.831.349 5.641 2.4.407.919 2.243.433 1.836-.647-1.134-3.078-4.669-3.751-7.506-3.751-3.294 0-7.398 1.59-7.398 5.155 0 4.025 3.996 4.374 7.722 4.673 2.97.24 5.807.432 5.807 2.779 0 2.729-3.564 3.43-5.86 3.43-2.16 0-5.156-.489-5.858-2.728-.216-1.105-2.322-.702-1.998.486z" style="mix-blend-mode:normal" transform="translate(-86.53 -72.863)"/></svg>