<?xml version="1.0" encoding="UTF-8" standalone="no"?>
<svg
   data-v-6805eed4=""
   version="1.0"
   width="166.94281"
   height="90.121162"
   viewBox="0 0 166.94281 90.121163"
   preserveAspectRatio="xMidYMid"
   color-interpolation-filters="sRGB"
   id="svg1987"
   sodipodi:docname="brand-short_dark.svg"
   inkscape:version="1.2.1 (9c6d41e410, 2022-07-14)"
   xmlns:inkscape="http://www.inkscape.org/namespaces/inkscape"
   xmlns:sodipodi="http://sodipodi.sourceforge.net/DTD/sodipodi-0.dtd"
   xmlns="http://www.w3.org/2000/svg"
   xmlns:svg="http://www.w3.org/2000/svg">
  <sodipodi:namedview
     id="namedview1989"
     pagecolor="#121212"
     bordercolor="#000000"
     borderopacity="0.25"
     inkscape:showpageshadow="2"
     inkscape:pageopacity="0"
     inkscape:pagecheckerboard="0"
     inkscape:deskcolor="#d1d1d1"
     showgrid="false"
     inkscape:zoom="7"
     inkscape:cx="40.857143"
     inkscape:cy="53.571429"
     inkscape:window-width="3840"
     inkscape:window-height="2066"
     inkscape:window-x="-11"
     inkscape:window-y="-11"
     inkscape:window-maximized="1"
     inkscape:current-layer="layer2" />
  <defs
     v-gra="od"
     id="defs1985" />
  <g
     inkscape:groupmode="layer"
     id="layer1"
     inkscape:label="logo"
     transform="translate(-86.529447,-72.862577)">
    <path
       d="M 189.83343,108.93691 166.25464,85.507804 154.31881,73.643565 a 9.4237075,9.4237075 0 0 0 -3.77469,-0.78097 c -5.74664,0 -10.41945,5.271549 -10.5431,11.818683 v 28.290642 a 12.150595,12.150595 0 0 0 11.9944,12.30679 h 33.04155 a 11.62344,11.62344 0 0 0 6.50809,-10.36087 11.324068,11.324068 0 0 0 -1.71163,-5.98093 z"
       fill="#145e79"
       opacity="0.8"
       id="path1947"
       style="overflow:visible;opacity:1;fill:#087e91;fill-opacity:0.8;stroke-width:0.650809" />
    <path
       d="m 188.00466,85.527329 h -33.03504 a 11.62344,11.62344 0 0 0 -6.50809,10.360871 11.363117,11.363117 0 0 0 1.69861,5.98744 l 23.57879,23.42911 11.96837,11.85773 a 9.4497399,9.4497399 0 0 0 3.75517,0.78097 c 5.74013,0 10.41293,-5.26504 10.53659,-11.81218 V 97.82761 a 12.150595,12.150595 0 0 0 -11.9944,-12.300281 z"
       fill="#d9b504"
       opacity="0.8"
       id="path1949"
       style="overflow:visible;opacity:1;stroke-width:0.650809" />
    <path
       d="m 150.16014,101.87564 23.57879,23.42911 h 11.29804 a 11.62344,11.62344 0 0 0 6.50809,-10.36088 11.324068,11.324068 0 0 0 -1.70512,-5.98093 l -23.5788,-23.429103 h -11.29152 a 11.62344,11.62344 0 0 0 -6.50809,10.354363 11.363117,11.363117 0 0 0 1.69861,5.98744 z"
       fill="#145e79"
       opacity="0.5"
       id="path1951"
       style="overflow:visible;opacity:0.8;fill:#ffffff;fill-opacity:1;stroke-width:0.650809" />
  </g>
  <g
     inkscape:groupmode="layer"
     id="layer2"
     inkscape:label="name"
     transform="translate(-86.529447,-72.862577)">
    <path
       d="m 95.277447,162.87214 c 4.59,0 8.640003,-3.5604 8.640003,-9.18 0,-4.428 -3.2112,-7.8804 -7.369203,-8.532 -0.9468,-0.1044 -1.8612,-0.1332 -2.862,0 -4.2948,0.6768 -7.1568,4.2948 -7.1568,8.532 0,5.724 3.888,9.18 8.748,9.18 z m -1.3212,-15.9012 c 0.756,-0.108 1.5408,-0.108 2.3472,0 3.3228,0.54 5.616003,3.3192 5.616003,6.804 0,4.536 -2.995203,7.236 -6.642003,7.236 -3.8052,0 -6.7212,-2.808 -6.7212,-7.236 0,-3.672 2.1312,-6.2892 5.4,-6.804 z m 15.685203,0.162 h 4.9428 c 3.132,0 4.8888,2.2428 4.914,4.4568 0.054,2.052 -1.4292,4.158 -5.022,4.158 h -4.8348 z m 4.8348,10.368 c 4.7268,0 6.9372,-2.6712 6.9372,-5.9112 0,-3.1068 -2.1852,-6.21 -6.8544,-6.21 h -5.8608 c -0.54,0 -0.9972,0.3744 -0.9972,0.9432 v 15.552 c 0,1.188 1.9404,1.2168 1.9404,-0.0252 v -4.3488 z m 12.4452,-2.5632 h 10.1556 c 1.1304,0 1.08,-1.728 0,-1.728 h -10.1556 v -6.0768 h 10.6668 c 1.134,0 1.188,-1.728 0.0288,-1.728 h -11.394 c -0.7596,0 -1.242,0.54 -1.242,1.1592 v 14.8248 c 0,0.648 0.4824,1.188 1.242,1.188 h 11.3652 c 1.296,0 1.134,-1.782 0,-1.782 h -10.6668 z m 27.4896,0.6732 0.27,4.0752 -10.3968,-13.9032 c -0.6732,-0.9972 -2.1852,-0.7812 -2.1852,0.5688 v 15.4692 c 0,1.35 2.052,1.3212 2.052,0 v -9.5292 l -0.216,-3.726 10.098,13.5252 c 0.5652,0.9432 2.43,0.81 2.43,-0.54 v -15.498 c 0,-1.188 -2.052,-1.134 -2.052,0 z m 28.5912,3.888 c 0.702,-0.9972 -0.9432,-1.998 -1.566,-1.08 -0.5688,0.7272 -1.3788,1.3788 -2.214,1.8108 -1.026,0.5112 -2.1348,0.7812 -3.132,0.7812 -3.726,0 -6.8868,-3.132 -6.8868,-7.236 0,-3.9132 2.3508,-6.264 5.67,-6.7752 2.376,-0.27 4.5108,0.0252 6.3468,1.9692 0.756,0.81 2.214,-0.2988 1.404,-1.2132 -2.1348,-2.2428 -4.8852,-3.024 -8.046,-2.5956 -4.158,0.6516 -7.3152,4.1616 -7.3152,8.5896 0,5.346 4.1544,9.1224 8.7732,9.1224 1.296,0 2.754,-0.3744 4.05,-0.972 1.1628,-0.5652 2.1888,-1.3752 2.916,-2.4012 z m 14.5548,-3.1572 h -8.5068 l 4.266,-8.5068 z m 0.8352,1.6992 2.106,4.1868 c 0.5112,1.0512 2.5092,0.3744 1.8108,-0.7848 l -8.1288,-15.984 c -0.1908,-0.3492 -0.5112,-0.5148 -0.864,-0.5148 -0.3492,0 -0.7272,0.1656 -0.8892,0.5148 l -8.1576,16.0668 c -0.4824,1.0764 1.2996,1.7784 1.7856,0.7812 l 2.1852,-4.266 z m 11.07,4.104 c 0.4572,0.9468 1.4328,0.7812 1.8072,0.0828 l 7.7796,-15.7428 c 0.4032,-1.2132 -1.4328,-1.8108 -1.8648,-0.702 l -6.7752,13.77 -6.9408,-13.824 c -0.54,-1.1592 -2.4012,-0.4032 -1.89,0.756 z m 14.364,-7.2072 h 10.152 c 1.134,0 1.08,-1.728 0,-1.728 h -10.152 v -6.0768 h 10.6668 c 1.134,0 1.1844,-1.728 0.0252,-1.728 h -11.394 c -0.756,0 -1.242,0.54 -1.242,1.1592 v 14.8248 c 0,0.648 0.486,1.188 1.242,1.188 h 11.3688 c 1.296,0 1.134,-1.782 0,-1.782 h -10.6668 z m 13.8528,3.8592 c 0.8892,3.24 5.1012,4.1868 7.8552,4.1868 3.3228,0 7.938,-1.2708 7.938,-5.4036 0,-4.05 -3.9672,-4.2372 -7.668,-4.5612 -3.132,-0.2412 -5.832,-0.486 -5.832,-2.8332 0,-2.4588 3.51,-3.186 5.3208,-3.186 1.944,0 4.8312,0.3492 5.6412,2.4012 0.4068,0.918 2.2428,0.432 1.836,-0.648 -1.134,-3.078 -4.6692,-3.7512 -7.506,-3.7512 -3.294,0 -7.398,1.5912 -7.398,5.1552 0,4.0248 3.996,4.374 7.722,4.6728 2.97,0.2412 5.8068,0.432 5.8068,2.7792 0,2.7288 -3.564,3.4308 -5.8608,3.4308 -2.16,0 -5.1552,-0.4896 -5.8572,-2.7288 -0.216,-1.1052 -2.322,-0.702 -1.998,0.486 z"
       id="path1961-8"
       style="opacity:1;mix-blend-mode:normal;fill:#ffffff;fill-opacity:1;stroke-width:0.36" />
  </g>
</svg>
