<svg data-v-6805eed4="" version="1.0" xmlns="http://www.w3.org/2000/svg" xmlns:xlink="http://www.w3.org/1999/xlink" width="100%" height="100%" viewBox="0 0 340.000000 250.000000" preserveAspectRatio="xMidYMid meet" color-interpolation-filters="sRGB" style="margin: auto;">
  <rect data-v-6805eed4="" x="0" y="0" width="100%" height="100%" fill="#ffffff" fill-opacity="1" class="background"></rect>
  <rect data-v-6805eed4="" x="0" y="0" width="100%" height="100%" fill="url(#watermark)" fill-opacity="1" class="watermarklayer"></rect>
  <g data-v-6805eed4="" class="iconmbgsvg" transform="translate(58.33249652385712,82.00329971313477)">
    <g fill="#333333" hollow-target="text">
      <g transform="translate(148.33499908447266,0)" mask="url(#a70bacf5-9d3e-4403-b748-28296939aac4)">
        <g>
          <rect fill="#333333" fill-opacity="0" stroke-width="2" x="0" y="0" width="75" height="85.99339570720969" class="image-rect"></rect> <svg filter="url(#colors7859187869)" x="0" y="0" width="75" height="85.99339570720969" filtersec="colorsf9892086107" class="image-svg-svg primary" style="overflow: visible;"><svg xmlns="http://www.w3.org/2000/svg" viewBox="12.22599983215332 -0.000054836273193359375 166.8040008544922 191.25405883789062">
              <path d="M162.929 66.612a6 6 0 1 0-6.35 10.183c6.544 4.081 10.45 11.121 10.45 18.833s-3.906 14.752-10.45 18.833l-98.417 61.365c-6.943 4.329-15.359 4.542-22.512.573-7.154-3.97-11.425-11.225-11.425-19.406V34.262c0-8.181 4.271-15.436 11.425-19.406 7.153-3.969 15.569-3.756 22.512.573l57.292 35.723a6 6 0 1 0 6.35-10.183L64.512 5.247c-10.696-6.669-23.661-7-34.685-.883-11.021 6.116-17.601 17.293-17.601 29.898v122.73c0 12.605 6.58 23.782 17.602 29.898 5.25 2.913 10.939 4.364 16.616 4.364 6.241 0 12.467-1.754 18.068-5.247l98.417-61.365c10.082-6.287 16.101-17.133 16.101-29.015s-6.019-22.728-16.101-29.015z" fill="#000000"></path>
            </svg></svg>
          <defs>
            <filter id="colors7859187869">
              <feColorMatrix type="matrix" values="0 0 0 0 0.98046875  0 0 0 0 0.73046875  0 0 0 0 0.06640625  0 0 0 1 0" class="icon-fecolormatrix"></feColorMatrix>
            </filter>
            <filter id="colorsf9892086107">
              <feColorMatrix type="matrix" values="0 0 0 0 0.99609375  0 0 0 0 0.99609375  0 0 0 0 0.99609375  0 0 0 1 0" class="icon-fecolormatrix"></feColorMatrix>
            </filter>
            <filter id="colorsb1050931433">
              <feColorMatrix type="matrix" values="0 0 0 0 0  0 0 0 0 0  0 0 0 0 0  0 0 0 1 0" class="icon-fecolormatrix"></feColorMatrix>
            </filter>
          </defs>
        </g>
        <rect v-gra="id" width="87" height="97.99340057373047" transform="translate(-6, -6)" style="pointer-events:none;" fill="url(#kk5_7wC_ZvROWqWKXZEw4)"></rect>
      </g>
      <g transform="translate(0,25.183698654174805)">
        <g data-gra="path-name" fill-rule="" class="tp-name" transform="translate(0,0)">
          <g transform="scale(1)">
            <g>
              <path d="M13.65 0.32Q10.05 0.32 7.4-1.23 4.76-2.77 3.33-5.64 1.89-8.51 1.89-12.36L1.89-12.36Q1.89-16.21 3.31-19.06 4.73-21.91 7.39-23.45 10.05-24.99 13.65-24.99L13.65-24.99Q17.26-24.99 19.9-23.45 22.54-21.91 23.96-19.06 25.38-16.21 25.38-12.36L25.38-12.36Q25.38-8.51 23.94-5.64 22.51-2.77 19.86-1.23 17.22 0.32 13.65 0.32L13.65 0.32ZM13.65-3.29Q17.05-3.29 18.95-5.64 20.86-7.98 20.86-12.36L20.86-12.36Q20.86-16.73 18.95-19.06 17.05-21.39 13.65-21.39L13.65-21.39Q10.22-21.39 8.31-19.06 6.41-16.73 6.41-12.36L6.41-12.36Q6.41-7.98 8.31-5.64 10.22-3.29 13.65-3.29L13.65-3.29ZM39.38-17.54Q41.58-17.54 43.31-16.42 45.05-15.3 46.01-13.25 46.97-11.2 46.97-8.54L46.97-8.54Q46.97-5.88 46.01-3.89 45.05-1.89 43.33-0.81 41.62 0.28 39.38 0.28L39.38 0.28Q37.56 0.28 36.12-0.49 34.69-1.26 33.92-2.63L33.92-2.63 33.92 4.52Q33.92 5.43 33.32 5.95 32.73 6.48 31.75 6.48L31.75 6.48Q30.77 6.48 30.15 5.92 29.54 5.36 29.54 4.45L29.54 4.45 29.54-15.4Q29.54-16.35 30.12-16.91 30.7-17.47 31.68-17.47L31.68-17.47Q32.66-17.47 33.25-16.91 33.85-16.35 33.85-15.4L33.85-15.4 33.85-14.53Q34.62-15.96 36.07-16.75 37.52-17.54 39.38-17.54L39.38-17.54ZM38.22-3.12Q40.29-3.12 41.44-4.53 42.6-5.95 42.6-8.54L42.6-8.54Q42.6-11.2 41.44-12.67 40.29-14.14 38.22-14.14L38.22-14.14Q36.12-14.14 34.98-12.71 33.85-11.27 33.85-8.61L33.85-8.61Q33.85-5.99 34.98-4.55 36.12-3.12 38.22-3.12L38.22-3.12ZM64.12-4.69Q64.72-4.69 65.08-4.24 65.45-3.78 65.45-3.01L65.45-3.01Q65.45-1.93 64.16-1.19L64.16-1.19Q62.97-0.53 61.46-0.12 59.96 0.28 58.59 0.28L58.59 0.28Q54.46 0.28 52.05-2.1 49.63-4.48 49.63-8.61L49.63-8.61Q49.63-11.24 50.68-13.27 51.73-15.3 53.64-16.42 55.55-17.54 57.96-17.54L57.96-17.54Q60.27-17.54 61.99-16.52 63.7-15.51 64.65-13.65 65.59-11.8 65.59-9.28L65.59-9.28Q65.59-7.77 64.26-7.77L64.26-7.77 53.94-7.77Q54.15-5.36 55.3-4.22 56.46-3.08 58.66-3.08L58.66-3.08Q59.78-3.08 60.64-3.36 61.5-3.64 62.58-4.13L62.58-4.13Q63.63-4.69 64.12-4.69L64.12-4.69ZM58.07-14.46Q56.28-14.46 55.21-13.34 54.15-12.22 53.94-10.12L53.94-10.12 61.85-10.12Q61.78-12.25 60.8-13.35 59.82-14.46 58.07-14.46L58.07-14.46ZM79.1-17.54Q82.18-17.54 83.69-15.79 85.19-14.04 85.19-10.5L85.19-10.5 85.19-1.89Q85.19-0.91 84.61-0.35 84.04 0.21 83.02 0.21L83.02 0.21Q82.01 0.21 81.41-0.35 80.82-0.91 80.82-1.89L80.82-1.89 80.82-10.26Q80.82-12.25 80.06-13.16 79.31-14.07 77.7-14.07L77.7-14.07Q75.81-14.07 74.67-12.88 73.54-11.69 73.54-9.7L73.54-9.7 73.54-1.89Q73.54-0.91 72.94-0.35 72.35 0.21 71.33 0.21L71.33 0.21Q70.32 0.21 69.74-0.35 69.16-0.91 69.16-1.89L69.16-1.89 69.16-15.44Q69.16-16.35 69.76-16.91 70.35-17.47 71.37-17.47L71.37-17.47Q72.28-17.47 72.85-16.92 73.43-16.38 73.43-15.51L73.43-15.51 73.43-14.56Q74.31-16 75.78-16.77 77.25-17.54 79.1-17.54L79.1-17.54ZM110.53 0.32Q106.96 0.32 104.28-1.23 101.61-2.77 100.17-5.64 98.74-8.51 98.74-12.36L98.74-12.36Q98.74-16.21 100.17-19.06 101.61-21.91 104.28-23.45 106.96-24.99 110.53-24.99L110.53-24.99Q112.84-24.99 114.87-24.31 116.9-23.63 118.48-22.33L118.48-22.33Q118.93-21.98 119.11-21.6 119.28-21.21 119.28-20.65L119.28-20.65Q119.28-19.88 118.86-19.36 118.44-18.83 117.85-18.83L117.85-18.83Q117.15-18.83 116.41-19.32L116.41-19.32Q114.91-20.44 113.61-20.88 112.32-21.32 110.74-21.32L110.74-21.32Q107.1-21.32 105.23-19.04 103.36-16.77 103.36-12.36L103.36-12.36Q103.36-7.91 105.23-5.64 107.1-3.36 110.74-3.36L110.74-3.36Q112.25-3.36 113.52-3.82 114.8-4.27 116.41-5.36L116.41-5.36Q116.76-5.57 117.11-5.71 117.46-5.85 117.85-5.85L117.85-5.85Q118.44-5.85 118.86-5.32 119.28-4.8 119.28-4.03L119.28-4.03Q119.28-3.5 119.11-3.1 118.93-2.7 118.48-2.35L118.48-2.35Q116.9-1.05 114.87-0.37 112.84 0.32 110.53 0.32L110.53 0.32ZM129.92-17.54Q133.49-17.54 135.22-15.77 136.96-14 136.96-10.4L136.96-10.4 136.96-1.86Q136.96-0.91 136.4-0.37 135.84 0.18 134.86 0.18L134.86 0.18Q133.95 0.18 133.37-0.39 132.79-0.95 132.79-1.86L132.79-1.86 132.79-2.63Q132.2-1.26 130.92-0.49 129.64 0.28 127.96 0.28L127.96 0.28Q126.25 0.28 124.85-0.42 123.45-1.12 122.64-2.35 121.84-3.57 121.84-5.08L121.84-5.08Q121.84-6.97 122.8-8.05 123.76-9.14 125.93-9.63 128.1-10.12 131.92-10.12L131.92-10.12 132.79-10.12 132.79-10.92Q132.79-12.64 132.06-13.42 131.32-14.21 129.68-14.21L129.68-14.21Q128.66-14.21 127.61-13.91 126.56-13.62 125.13-13.06L125.13-13.06Q124.22-12.6 123.8-12.6L123.8-12.6Q123.17-12.6 122.76-13.06 122.36-13.51 122.36-14.25L122.36-14.25Q122.36-14.84 122.66-15.28 122.96-15.72 123.66-16.1L123.66-16.1Q124.88-16.77 126.58-17.15 128.28-17.54 129.92-17.54L129.92-17.54ZM128.84-2.87Q130.59-2.87 131.69-4.04 132.79-5.22 132.79-7.07L132.79-7.07 132.79-7.81 132.16-7.81Q129.82-7.81 128.52-7.6 127.23-7.39 126.67-6.86 126.11-6.34 126.11-5.43L126.11-5.43Q126.11-4.31 126.89-3.59 127.68-2.87 128.84-2.87L128.84-2.87ZM153.34-16.21Q153.62-16.84 154.09-17.15 154.56-17.47 155.12-17.47L155.12-17.47Q155.93-17.47 156.57-16.92 157.22-16.38 157.22-15.58L157.22-15.58Q157.22-15.16 157.01-14.74L157.01-14.74 150.54-1.19Q150.22-0.53 149.64-0.18 149.07 0.18 148.37 0.18L148.37 0.18Q147.7 0.18 147.09-0.18 146.48-0.53 146.16-1.19L146.16-1.19 139.65-14.74Q139.48-15.09 139.48-15.54L139.48-15.54Q139.48-16.35 140.16-16.91 140.84-17.47 141.72-17.47L141.72-17.47Q142.98-17.47 143.57-16.24L143.57-16.24 148.47-5.43 153.34-16.21ZM173.08-4.69Q173.67-4.69 174.04-4.24 174.41-3.78 174.41-3.01L174.41-3.01Q174.41-1.93 173.11-1.19L173.11-1.19Q171.92-0.53 170.42-0.12 168.91 0.28 167.55 0.28L167.55 0.28Q163.42 0.28 161-2.1 158.59-4.48 158.59-8.61L158.59-8.61Q158.59-11.24 159.64-13.27 160.69-15.3 162.59-16.42 164.5-17.54 166.92-17.54L166.92-17.54Q169.23-17.54 170.94-16.52 172.66-15.51 173.6-13.65 174.55-11.8 174.55-9.28L174.55-9.28Q174.55-7.77 173.22-7.77L173.22-7.77 162.89-7.77Q163.1-5.36 164.26-4.22 165.41-3.08 167.62-3.08L167.62-3.08Q168.74-3.08 169.59-3.36 170.45-3.64 171.54-4.13L171.54-4.13Q172.59-4.69 173.08-4.69L173.08-4.69ZM167.02-14.46Q165.24-14.46 164.17-13.34 163.1-12.22 162.89-10.12L162.89-10.12 170.8-10.12Q170.73-12.25 169.75-13.35 168.77-14.46 167.02-14.46L167.02-14.46ZM184.31 0.28Q180.5 0.28 178.15-1.23L178.15-1.23Q177.03-1.89 177.03-3.12L177.03-3.12Q177.03-3.82 177.42-4.25 177.8-4.69 178.36-4.69L178.36-4.69Q178.96-4.69 180.01-4.13L180.01-4.13Q181.13-3.61 182.05-3.33 182.98-3.05 184.42-3.05L184.42-3.05Q185.89-3.05 186.71-3.54 187.53-4.03 187.53-4.9L187.53-4.9Q187.53-5.5 187.2-5.85 186.87-6.2 186.01-6.49 185.15-6.79 183.4-7.18L183.4-7.18Q180.29-7.81 178.94-8.96 177.59-10.12 177.59-12.15L177.59-12.15Q177.59-13.69 178.5-14.93 179.41-16.17 181-16.85 182.6-17.54 184.63-17.54L184.63-17.54Q186.1-17.54 187.46-17.17 188.83-16.8 189.91-16.1L189.91-16.1Q191.03-15.4 191.03-14.25L191.03-14.25Q191.03-13.55 190.65-13.07 190.26-12.6 189.7-12.6L189.7-12.6Q189.32-12.6 188.95-12.76 188.58-12.92 188.02-13.23L188.02-13.23Q187.01-13.76 186.27-14.02 185.54-14.28 184.45-14.28L184.45-14.28Q183.16-14.28 182.4-13.76 181.65-13.23 181.65-12.32L181.65-12.32Q181.65-11.45 182.42-10.99 183.19-10.54 185.4-10.08L185.4-10.08Q187.74-9.59 189.07-8.96 190.4-8.33 190.98-7.39 191.56-6.44 191.56-4.97L191.56-4.97Q191.56-2.59 189.58-1.16 187.6 0.28 184.31 0.28L184.31 0.28Z" transform="translate(-1.8899999856948853, 24.989999771118164)"></path>
            </g>
            <!---->
            <!---->
            <!---->
            <!---->
            <!---->
            <!---->
            <!---->
          </g>
        </g>
        <g data-gra="path-slogan" fill-rule="" class="tp-slogan" fill="#333333" transform="translate(22.56999969482422,38.46999931335449)">
          <!---->
          <!---->
          <g transform="scale(1, 1)">
            <g transform="scale(1)">
              <path d="M3.98 0.14L3.98 0.14Q3.24 0.14 2.62-0.14Q2.00-0.43 1.56-0.97Q1.12-1.50 0.87-2.26Q0.62-3.02 0.62-3.97L0.62-3.97Q0.62-4.92 0.87-5.67Q1.12-6.42 1.56-6.94Q2.00-7.46 2.62-7.74Q3.24-8.02 3.98-8.02L3.98-8.02Q4.73-8.02 5.35-7.73Q5.96-7.45 6.41-6.93Q6.86-6.41 7.11-5.66Q7.36-4.91 7.36-3.97L7.36-3.97Q7.36-3.02 7.11-2.26Q6.86-1.50 6.41-0.97Q5.96-0.43 5.35-0.14Q4.73 0.14 3.98 0.14ZM3.98-0.73L3.98-0.73Q4.51-0.73 4.94-0.96Q5.36-1.19 5.67-1.61Q5.98-2.04 6.14-2.63Q6.31-3.23 6.31-3.97L6.31-3.97Q6.31-4.70 6.14-5.29Q5.98-5.88 5.67-6.29Q5.36-6.70 4.94-6.92Q4.51-7.14 3.98-7.14L3.98-7.14Q3.46-7.14 3.03-6.92Q2.60-6.70 2.30-6.29Q1.99-5.88 1.82-5.29Q1.66-4.70 1.66-3.97L1.66-3.97Q1.66-3.23 1.82-2.63Q1.99-2.04 2.30-1.61Q2.60-1.19 3.03-0.96Q3.46-0.73 3.98-0.73ZM9.05 0L9.05-7.87L11.46-7.87Q12.11-7.87 12.65-7.75Q13.19-7.63 13.57-7.36Q13.94-7.09 14.15-6.65Q14.36-6.20 14.36-5.56L14.36-5.56Q14.36-4.93 14.15-4.48Q13.94-4.02 13.56-3.72Q13.18-3.42 12.64-3.27Q12.11-3.12 11.46-3.12L11.46-3.12L10.04-3.12L10.04 0L9.05 0ZM10.04-3.94L11.34-3.94Q12.37-3.94 12.87-4.33Q13.37-4.72 13.37-5.56L13.37-5.56Q13.37-6.41 12.86-6.74Q12.36-7.07 11.34-7.07L11.34-7.07L10.04-7.07L10.04-3.94ZM15.96 0L15.96-7.87L20.50-7.87L20.50-7.03L16.96-7.03L16.96-4.56L19.94-4.56L19.94-3.71L16.96-3.71L16.96-0.85L20.62-0.85L20.62 0L15.96 0ZM22.28 0L22.28-7.87L23.32-7.87L26.16-2.93L27.01-1.30L27.06-1.30Q27.02-1.90 26.98-2.54Q26.94-3.18 26.94-3.80L26.94-3.80L26.94-7.87L27.89-7.87L27.89 0L26.86 0L24-4.96L23.15-6.58L23.10-6.58Q23.15-5.98 23.19-5.36Q23.23-4.74 23.23-4.12L23.23-4.12L23.23 0L22.28 0ZM32.47 0L32.47-7.87L34.44-7.87Q36.26-7.87 37.21-6.86Q38.16-5.86 38.16-3.97L38.16-3.97Q38.16-3.04 37.92-2.30Q37.68-1.56 37.21-1.05Q36.74-0.54 36.06-0.27Q35.38 0 34.49 0L34.49 0L32.47 0ZM33.47-0.82L34.37-0.82Q35.75-0.82 36.44-1.64Q37.13-2.47 37.13-3.97L37.13-3.97Q37.13-5.47 36.44-6.26Q35.75-7.06 34.37-7.06L34.37-7.06L33.47-7.06L33.47-0.82ZM40.72-3.20L43.08-3.20L42.71-4.40Q42.49-5.06 42.30-5.72Q42.11-6.37 41.92-7.06L41.92-7.06L41.87-7.06Q41.69-6.37 41.50-5.72Q41.30-5.06 41.09-4.40L41.09-4.40L40.72-3.20ZM44.08 0L43.33-2.40L40.46-2.40L39.71 0L38.69 0L41.35-7.87L42.48-7.87L45.14 0L44.08 0ZM47.41 0L47.41-7.03L45.04-7.03L45.04-7.87L50.80-7.87L50.80-7.03L48.42-7.03L48.42 0L47.41 0ZM52.72-3.20L55.08-3.20L54.71-4.40Q54.49-5.06 54.30-5.72Q54.11-6.37 53.92-7.06L53.92-7.06L53.87-7.06Q53.69-6.37 53.50-5.72Q53.30-5.06 53.09-4.40L53.09-4.40L52.72-3.20ZM56.08 0L55.33-2.40L52.46-2.40L51.71 0L50.69 0L53.35-7.87L54.48-7.87L57.14 0L56.08 0ZM60.68 0L60.68-7.87L65.22-7.87L65.22-7.03L61.68-7.03L61.68-4.37L64.68-4.37L64.68-3.53L61.68-3.53L61.68 0L60.68 0ZM69.40 0.14L69.40 0.14Q68.65 0.14 68.03-0.14Q67.42-0.43 66.97-0.97Q66.53-1.50 66.28-2.26Q66.04-3.02 66.04-3.97L66.04-3.97Q66.04-4.92 66.28-5.67Q66.53-6.42 66.97-6.94Q67.42-7.46 68.03-7.74Q68.65-8.02 69.40-8.02L69.40-8.02Q70.14-8.02 70.76-7.73Q71.38-7.45 71.83-6.93Q72.28-6.41 72.52-5.66Q72.77-4.91 72.77-3.97L72.77-3.97Q72.77-3.02 72.52-2.26Q72.28-1.50 71.83-0.97Q71.38-0.43 70.76-0.14Q70.14 0.14 69.40 0.14ZM69.40-0.73L69.40-0.73Q69.92-0.73 70.35-0.96Q70.78-1.19 71.08-1.61Q71.39-2.04 71.56-2.63Q71.72-3.23 71.72-3.97L71.72-3.97Q71.72-4.70 71.56-5.29Q71.39-5.88 71.08-6.29Q70.78-6.70 70.35-6.92Q69.92-7.14 69.40-7.14L69.40-7.14Q68.87-7.14 68.44-6.92Q68.02-6.70 67.71-6.29Q67.40-5.88 67.24-5.29Q67.07-4.70 67.07-3.97L67.07-3.97Q67.07-3.23 67.24-2.63Q67.40-2.04 67.71-1.61Q68.02-1.19 68.44-0.96Q68.87-0.73 69.40-0.73ZM75.46-7.07L75.46-4.14L76.78-4.14Q77.70-4.14 78.19-4.52Q78.68-4.90 78.68-5.66L78.68-5.66Q78.68-6.44 78.19-6.76Q77.70-7.07 76.78-7.07L76.78-7.07L75.46-7.07ZM79.91 0L78.78 0L76.88-3.32L75.46-3.32L75.46 0L74.46 0L74.46-7.87L76.92-7.87Q77.52-7.87 78.03-7.76Q78.54-7.64 78.91-7.38Q79.27-7.12 79.48-6.70Q79.68-6.28 79.68-5.66L79.68-5.66Q79.68-4.74 79.20-4.19Q78.72-3.64 77.92-3.43L77.92-3.43L79.91 0ZM83.40-3.94L83.40-3.94Q83.40-4.88 83.66-5.64Q83.93-6.40 84.40-6.92Q84.86-7.45 85.51-7.73Q86.15-8.02 86.90-8.02L86.90-8.02Q87.62-8.02 88.16-7.72Q88.70-7.43 89.05-7.04L89.05-7.04L88.49-6.41Q88.18-6.74 87.80-6.94Q87.42-7.14 86.92-7.14L86.92-7.14Q86.35-7.14 85.90-6.92Q85.44-6.70 85.12-6.28Q84.79-5.87 84.61-5.28Q84.43-4.69 84.43-3.96L84.43-3.96Q84.43-3.22 84.61-2.62Q84.78-2.03 85.09-1.61Q85.40-1.19 85.85-0.96Q86.30-0.73 86.87-0.73L86.87-0.73Q87.44-0.73 87.87-0.96Q88.30-1.19 88.68-1.61L88.68-1.61L89.24-1.00Q88.78-0.46 88.19-0.16Q87.60 0.14 86.84 0.14L86.84 0.14Q86.10 0.14 85.47-0.13Q84.84-0.41 84.38-0.93Q83.92-1.45 83.66-2.21Q83.40-2.98 83.40-3.94ZM91.69-3.20L94.06-3.20L93.68-4.40Q93.47-5.06 93.28-5.72Q93.08-6.37 92.89-7.06L92.89-7.06L92.84-7.06Q92.66-6.37 92.47-5.72Q92.28-5.06 92.06-4.40L92.06-4.40L91.69-3.20ZM95.05 0L94.31-2.40L91.44-2.40L90.68 0L89.66 0L92.33-7.87L93.46-7.87L96.12 0L95.05 0ZM98.51 0L95.99-7.87L97.06-7.87L98.32-3.62Q98.53-2.92 98.69-2.32Q98.86-1.72 99.08-1.02L99.08-1.02L99.13-1.02Q99.35-1.72 99.52-2.32Q99.68-2.92 99.89-3.62L99.89-3.62L101.15-7.87L102.17-7.87L99.67 0L98.51 0ZM103.25 0L103.25-7.87L107.78-7.87L107.78-7.03L104.24-7.03L104.24-4.56L107.23-4.56L107.23-3.71L104.24-3.71L104.24-0.85L107.90-0.85L107.90 0L103.25 0ZM112.00 0L112.00-7.87L113.96-7.87Q115.79-7.87 116.74-6.86Q117.68-5.86 117.68-3.97L117.68-3.97Q117.68-3.04 117.44-2.30Q117.20-1.56 116.74-1.05Q116.27-0.54 115.58-0.27Q114.90 0 114.01 0L114.01 0L112.00 0ZM112.99-0.82L113.89-0.82Q115.27-0.82 115.96-1.64Q116.65-2.47 116.65-3.97L116.65-3.97Q116.65-5.47 115.96-6.26Q115.27-7.06 113.89-7.06L113.89-7.06L112.99-7.06L112.99-0.82ZM119.38 0L119.38-7.87L120.37-7.87L120.37 0L119.38 0ZM123.97 0L121.45-7.87L122.52-7.87L123.78-3.62Q124.00-2.92 124.16-2.32Q124.32-1.72 124.55-1.02L124.55-1.02L124.60-1.02Q124.81-1.72 124.98-2.32Q125.15-2.92 125.35-3.62L125.35-3.62L126.61-7.87L127.63-7.87L125.14 0L123.97 0ZM128.71 0L128.71-7.87L129.71-7.87L129.71 0L128.71 0ZM131.87 0L131.87-7.87L132.90-7.87L135.74-2.93L136.60-1.30L136.64-1.30Q136.61-1.90 136.57-2.54Q136.52-3.18 136.52-3.80L136.52-3.80L136.52-7.87L137.47-7.87L137.47 0L136.44 0L133.58-4.96L132.73-6.58L132.68-6.58Q132.73-5.98 132.77-5.36Q132.82-4.74 132.82-4.12L132.82-4.12L132.82 0L131.87 0ZM139.18-3.94L139.18-3.94Q139.18-4.88 139.45-5.64Q139.72-6.40 140.20-6.92Q140.69-7.45 141.35-7.73Q142.01-8.02 142.80-8.02L142.80-8.02Q143.62-8.02 144.16-7.71Q144.71-7.40 145.06-7.04L145.06-7.04L144.49-6.41Q144.19-6.72 143.80-6.93Q143.41-7.14 142.81-7.14L142.81-7.14Q142.21-7.14 141.73-6.92Q141.25-6.70 140.92-6.28Q140.58-5.87 140.39-5.28Q140.21-4.69 140.21-3.96L140.21-3.96Q140.21-3.22 140.38-2.62Q140.56-2.03 140.89-1.61Q141.22-1.19 141.70-0.96Q142.19-0.73 142.82-0.73L142.82-0.73Q143.24-0.73 143.62-0.86Q144.00-0.98 144.24-1.20L144.24-1.20L144.24-3.25L142.57-3.25L142.57-4.08L145.15-4.08L145.15-0.77Q144.77-0.37 144.14-0.11Q143.51 0.14 142.72 0.14L142.72 0.14Q141.94 0.14 141.29-0.13Q140.64-0.41 140.17-0.93Q139.70-1.45 139.44-2.21Q139.18-2.98 139.18-3.94Z" transform="translate(-0.624, 8.016)"></path>
            </g>
          </g>
        </g>
      </g>
    </g>
  </g>
  <mask id="ada90a26-f82a-4cd5-97ed-90487c791773">
    <g fill="white">
      <g>
        <rect fill-opacity="1" stroke-width="2" x="0" y="0" width="75" height="85.99339570720969" class="image-rect"></rect> <svg x="0" y="0" width="75" height="85.99339570720969" class="image-svg-svg primary" style="overflow: visible;" filter="url(#colorsf9892086107)"><svg xmlns="http://www.w3.org/2000/svg" viewBox="12.22599983215332 -0.000054836273193359375 166.8040008544922 191.25405883789062">
            <path d="M162.929 66.612a6 6 0 1 0-6.35 10.183c6.544 4.081 10.45 11.121 10.45 18.833s-3.906 14.752-10.45 18.833l-98.417 61.365c-6.943 4.329-15.359 4.542-22.512.573-7.154-3.97-11.425-11.225-11.425-19.406V34.262c0-8.181 4.271-15.436 11.425-19.406 7.153-3.969 15.569-3.756 22.512.573l57.292 35.723a6 6 0 1 0 6.35-10.183L64.512 5.247c-10.696-6.669-23.661-7-34.685-.883-11.021 6.116-17.601 17.293-17.601 29.898v122.73c0 12.605 6.58 23.782 17.602 29.898 5.25 2.913 10.939 4.364 16.616 4.364 6.241 0 12.467-1.754 18.068-5.247l98.417-61.365c10.082-6.287 16.101-17.133 16.101-29.015s-6.019-22.728-16.101-29.015z"></path>
          </svg></svg>
        <defs> </defs>
      </g>
    </g>
    <g transform="translate(-148.33499908447266,25.183698654174805)" fill="black" stroke="black" stroke-width="6" stroke-linejoin="round">
      <g data-gra="path-name" fill-rule="" class="tp-name" transform="translate(0,0)">
        <g transform="scale(1)">
          <g>
            <path d="M13.65 0.32Q10.05 0.32 7.4-1.23 4.76-2.77 3.33-5.64 1.89-8.51 1.89-12.36L1.89-12.36Q1.89-16.21 3.31-19.06 4.73-21.91 7.39-23.45 10.05-24.99 13.65-24.99L13.65-24.99Q17.26-24.99 19.9-23.45 22.54-21.91 23.96-19.06 25.38-16.21 25.38-12.36L25.38-12.36Q25.38-8.51 23.94-5.64 22.51-2.77 19.86-1.23 17.22 0.32 13.65 0.32L13.65 0.32ZM13.65-3.29Q17.05-3.29 18.95-5.64 20.86-7.98 20.86-12.36L20.86-12.36Q20.86-16.73 18.95-19.06 17.05-21.39 13.65-21.39L13.65-21.39Q10.22-21.39 8.31-19.06 6.41-16.73 6.41-12.36L6.41-12.36Q6.41-7.98 8.31-5.64 10.22-3.29 13.65-3.29L13.65-3.29ZM39.38-17.54Q41.58-17.54 43.31-16.42 45.05-15.3 46.01-13.25 46.97-11.2 46.97-8.54L46.97-8.54Q46.97-5.88 46.01-3.89 45.05-1.89 43.33-0.81 41.62 0.28 39.38 0.28L39.38 0.28Q37.56 0.28 36.12-0.49 34.69-1.26 33.92-2.63L33.92-2.63 33.92 4.52Q33.92 5.43 33.32 5.95 32.73 6.48 31.75 6.48L31.75 6.48Q30.77 6.48 30.15 5.92 29.54 5.36 29.54 4.45L29.54 4.45 29.54-15.4Q29.54-16.35 30.12-16.91 30.7-17.47 31.68-17.47L31.68-17.47Q32.66-17.47 33.25-16.91 33.85-16.35 33.85-15.4L33.85-15.4 33.85-14.53Q34.62-15.96 36.07-16.75 37.52-17.54 39.38-17.54L39.38-17.54ZM38.22-3.12Q40.29-3.12 41.44-4.53 42.6-5.95 42.6-8.54L42.6-8.54Q42.6-11.2 41.44-12.67 40.29-14.14 38.22-14.14L38.22-14.14Q36.12-14.14 34.98-12.71 33.85-11.27 33.85-8.61L33.85-8.61Q33.85-5.99 34.98-4.55 36.12-3.12 38.22-3.12L38.22-3.12ZM64.12-4.69Q64.72-4.69 65.08-4.24 65.45-3.78 65.45-3.01L65.45-3.01Q65.45-1.93 64.16-1.19L64.16-1.19Q62.97-0.53 61.46-0.12 59.96 0.28 58.59 0.28L58.59 0.28Q54.46 0.28 52.05-2.1 49.63-4.48 49.63-8.61L49.63-8.61Q49.63-11.24 50.68-13.27 51.73-15.3 53.64-16.42 55.55-17.54 57.96-17.54L57.96-17.54Q60.27-17.54 61.99-16.52 63.7-15.51 64.65-13.65 65.59-11.8 65.59-9.28L65.59-9.28Q65.59-7.77 64.26-7.77L64.26-7.77 53.94-7.77Q54.15-5.36 55.3-4.22 56.46-3.08 58.66-3.08L58.66-3.08Q59.78-3.08 60.64-3.36 61.5-3.64 62.58-4.13L62.58-4.13Q63.63-4.69 64.12-4.69L64.12-4.69ZM58.07-14.46Q56.28-14.46 55.21-13.34 54.15-12.22 53.94-10.12L53.94-10.12 61.85-10.12Q61.78-12.25 60.8-13.35 59.82-14.46 58.07-14.46L58.07-14.46ZM79.1-17.54Q82.18-17.54 83.69-15.79 85.19-14.04 85.19-10.5L85.19-10.5 85.19-1.89Q85.19-0.91 84.61-0.35 84.04 0.21 83.02 0.21L83.02 0.21Q82.01 0.21 81.41-0.35 80.82-0.91 80.82-1.89L80.82-1.89 80.82-10.26Q80.82-12.25 80.06-13.16 79.31-14.07 77.7-14.07L77.7-14.07Q75.81-14.07 74.67-12.88 73.54-11.69 73.54-9.7L73.54-9.7 73.54-1.89Q73.54-0.91 72.94-0.35 72.35 0.21 71.33 0.21L71.33 0.21Q70.32 0.21 69.74-0.35 69.16-0.91 69.16-1.89L69.16-1.89 69.16-15.44Q69.16-16.35 69.76-16.91 70.35-17.47 71.37-17.47L71.37-17.47Q72.28-17.47 72.85-16.92 73.43-16.38 73.43-15.51L73.43-15.51 73.43-14.56Q74.31-16 75.78-16.77 77.25-17.54 79.1-17.54L79.1-17.54ZM110.53 0.32Q106.96 0.32 104.28-1.23 101.61-2.77 100.17-5.64 98.74-8.51 98.74-12.36L98.74-12.36Q98.74-16.21 100.17-19.06 101.61-21.91 104.28-23.45 106.96-24.99 110.53-24.99L110.53-24.99Q112.84-24.99 114.87-24.31 116.9-23.63 118.48-22.33L118.48-22.33Q118.93-21.98 119.11-21.6 119.28-21.21 119.28-20.65L119.28-20.65Q119.28-19.88 118.86-19.36 118.44-18.83 117.85-18.83L117.85-18.83Q117.15-18.83 116.41-19.32L116.41-19.32Q114.91-20.44 113.61-20.88 112.32-21.32 110.74-21.32L110.74-21.32Q107.1-21.32 105.23-19.04 103.36-16.77 103.36-12.36L103.36-12.36Q103.36-7.91 105.23-5.64 107.1-3.36 110.74-3.36L110.74-3.36Q112.25-3.36 113.52-3.82 114.8-4.27 116.41-5.36L116.41-5.36Q116.76-5.57 117.11-5.71 117.46-5.85 117.85-5.85L117.85-5.85Q118.44-5.85 118.86-5.32 119.28-4.8 119.28-4.03L119.28-4.03Q119.28-3.5 119.11-3.1 118.93-2.7 118.48-2.35L118.48-2.35Q116.9-1.05 114.87-0.37 112.84 0.32 110.53 0.32L110.53 0.32ZM129.92-17.54Q133.49-17.54 135.22-15.77 136.96-14 136.96-10.4L136.96-10.4 136.96-1.86Q136.96-0.91 136.4-0.37 135.84 0.18 134.86 0.18L134.86 0.18Q133.95 0.18 133.37-0.39 132.79-0.95 132.79-1.86L132.79-1.86 132.79-2.63Q132.2-1.26 130.92-0.49 129.64 0.28 127.96 0.28L127.96 0.28Q126.25 0.28 124.85-0.42 123.45-1.12 122.64-2.35 121.84-3.57 121.84-5.08L121.84-5.08Q121.84-6.97 122.8-8.05 123.76-9.14 125.93-9.63 128.1-10.12 131.92-10.12L131.92-10.12 132.79-10.12 132.79-10.92Q132.79-12.64 132.06-13.42 131.32-14.21 129.68-14.21L129.68-14.21Q128.66-14.21 127.61-13.91 126.56-13.62 125.13-13.06L125.13-13.06Q124.22-12.6 123.8-12.6L123.8-12.6Q123.17-12.6 122.76-13.06 122.36-13.51 122.36-14.25L122.36-14.25Q122.36-14.84 122.66-15.28 122.96-15.72 123.66-16.1L123.66-16.1Q124.88-16.77 126.58-17.15 128.28-17.54 129.92-17.54L129.92-17.54ZM128.84-2.87Q130.59-2.87 131.69-4.04 132.79-5.22 132.79-7.07L132.79-7.07 132.79-7.81 132.16-7.81Q129.82-7.81 128.52-7.6 127.23-7.39 126.67-6.86 126.11-6.34 126.11-5.43L126.11-5.43Q126.11-4.31 126.89-3.59 127.68-2.87 128.84-2.87L128.84-2.87ZM153.34-16.21Q153.62-16.84 154.09-17.15 154.56-17.47 155.12-17.47L155.12-17.47Q155.93-17.47 156.57-16.92 157.22-16.38 157.22-15.58L157.22-15.58Q157.22-15.16 157.01-14.74L157.01-14.74 150.54-1.19Q150.22-0.53 149.64-0.18 149.07 0.18 148.37 0.18L148.37 0.18Q147.7 0.18 147.09-0.18 146.48-0.53 146.16-1.19L146.16-1.19 139.65-14.74Q139.48-15.09 139.48-15.54L139.48-15.54Q139.48-16.35 140.16-16.91 140.84-17.47 141.72-17.47L141.72-17.47Q142.98-17.47 143.57-16.24L143.57-16.24 148.47-5.43 153.34-16.21ZM173.08-4.69Q173.67-4.69 174.04-4.24 174.41-3.78 174.41-3.01L174.41-3.01Q174.41-1.93 173.11-1.19L173.11-1.19Q171.92-0.53 170.42-0.12 168.91 0.28 167.55 0.28L167.55 0.28Q163.42 0.28 161-2.1 158.59-4.48 158.59-8.61L158.59-8.61Q158.59-11.24 159.64-13.27 160.69-15.3 162.59-16.42 164.5-17.54 166.92-17.54L166.92-17.54Q169.23-17.54 170.94-16.52 172.66-15.51 173.6-13.65 174.55-11.8 174.55-9.28L174.55-9.28Q174.55-7.77 173.22-7.77L173.22-7.77 162.89-7.77Q163.1-5.36 164.26-4.22 165.41-3.08 167.62-3.08L167.62-3.08Q168.74-3.08 169.59-3.36 170.45-3.64 171.54-4.13L171.54-4.13Q172.59-4.69 173.08-4.69L173.08-4.69ZM167.02-14.46Q165.24-14.46 164.17-13.34 163.1-12.22 162.89-10.12L162.89-10.12 170.8-10.12Q170.73-12.25 169.75-13.35 168.77-14.46 167.02-14.46L167.02-14.46ZM184.31 0.28Q180.5 0.28 178.15-1.23L178.15-1.23Q177.03-1.89 177.03-3.12L177.03-3.12Q177.03-3.82 177.42-4.25 177.8-4.69 178.36-4.69L178.36-4.69Q178.96-4.69 180.01-4.13L180.01-4.13Q181.13-3.61 182.05-3.33 182.98-3.05 184.42-3.05L184.42-3.05Q185.89-3.05 186.71-3.54 187.53-4.03 187.53-4.9L187.53-4.9Q187.53-5.5 187.2-5.85 186.87-6.2 186.01-6.49 185.15-6.79 183.4-7.18L183.4-7.18Q180.29-7.81 178.94-8.96 177.59-10.12 177.59-12.15L177.59-12.15Q177.59-13.69 178.5-14.93 179.41-16.17 181-16.85 182.6-17.54 184.63-17.54L184.63-17.54Q186.1-17.54 187.46-17.17 188.83-16.8 189.91-16.1L189.91-16.1Q191.03-15.4 191.03-14.25L191.03-14.25Q191.03-13.55 190.65-13.07 190.26-12.6 189.7-12.6L189.7-12.6Q189.32-12.6 188.95-12.76 188.58-12.92 188.02-13.23L188.02-13.23Q187.01-13.76 186.27-14.02 185.54-14.28 184.45-14.28L184.45-14.28Q183.16-14.28 182.4-13.76 181.65-13.23 181.65-12.32L181.65-12.32Q181.65-11.45 182.42-10.99 183.19-10.54 185.4-10.08L185.4-10.08Q187.74-9.59 189.07-8.96 190.4-8.33 190.98-7.39 191.56-6.44 191.56-4.97L191.56-4.97Q191.56-2.59 189.58-1.16 187.6 0.28 184.31 0.28L184.31 0.28Z" transform="translate(-1.8899999856948853, 24.989999771118164)"></path>
          </g>
        </g>
      </g>
      <g data-gra="path-slogan" fill-rule="" class="tp-slogan" transform="translate(22.56999969482422,38.46999931335449)" fill="white">
        <g transform="scale(1, 1)">
          <g transform="scale(1)">
            <path d="M3.98 0.14L3.98 0.14Q3.24 0.14 2.62-0.14Q2.00-0.43 1.56-0.97Q1.12-1.50 0.87-2.26Q0.62-3.02 0.62-3.97L0.62-3.97Q0.62-4.92 0.87-5.67Q1.12-6.42 1.56-6.94Q2.00-7.46 2.62-7.74Q3.24-8.02 3.98-8.02L3.98-8.02Q4.73-8.02 5.35-7.73Q5.96-7.45 6.41-6.93Q6.86-6.41 7.11-5.66Q7.36-4.91 7.36-3.97L7.36-3.97Q7.36-3.02 7.11-2.26Q6.86-1.50 6.41-0.97Q5.96-0.43 5.35-0.14Q4.73 0.14 3.98 0.14ZM3.98-0.73L3.98-0.73Q4.51-0.73 4.94-0.96Q5.36-1.19 5.67-1.61Q5.98-2.04 6.14-2.63Q6.31-3.23 6.31-3.97L6.31-3.97Q6.31-4.70 6.14-5.29Q5.98-5.88 5.67-6.29Q5.36-6.70 4.94-6.92Q4.51-7.14 3.98-7.14L3.98-7.14Q3.46-7.14 3.03-6.92Q2.60-6.70 2.30-6.29Q1.99-5.88 1.82-5.29Q1.66-4.70 1.66-3.97L1.66-3.97Q1.66-3.23 1.82-2.63Q1.99-2.04 2.30-1.61Q2.60-1.19 3.03-0.96Q3.46-0.73 3.98-0.73ZM9.05 0L9.05-7.87L11.46-7.87Q12.11-7.87 12.65-7.75Q13.19-7.63 13.57-7.36Q13.94-7.09 14.15-6.65Q14.36-6.20 14.36-5.56L14.36-5.56Q14.36-4.93 14.15-4.48Q13.94-4.02 13.56-3.72Q13.18-3.42 12.64-3.27Q12.11-3.12 11.46-3.12L11.46-3.12L10.04-3.12L10.04 0L9.05 0ZM10.04-3.94L11.34-3.94Q12.37-3.94 12.87-4.33Q13.37-4.72 13.37-5.56L13.37-5.56Q13.37-6.41 12.86-6.74Q12.36-7.07 11.34-7.07L11.34-7.07L10.04-7.07L10.04-3.94ZM15.96 0L15.96-7.87L20.50-7.87L20.50-7.03L16.96-7.03L16.96-4.56L19.94-4.56L19.94-3.71L16.96-3.71L16.96-0.85L20.62-0.85L20.62 0L15.96 0ZM22.28 0L22.28-7.87L23.32-7.87L26.16-2.93L27.01-1.30L27.06-1.30Q27.02-1.90 26.98-2.54Q26.94-3.18 26.94-3.80L26.94-3.80L26.94-7.87L27.89-7.87L27.89 0L26.86 0L24-4.96L23.15-6.58L23.10-6.58Q23.15-5.98 23.19-5.36Q23.23-4.74 23.23-4.12L23.23-4.12L23.23 0L22.28 0ZM32.47 0L32.47-7.87L34.44-7.87Q36.26-7.87 37.21-6.86Q38.16-5.86 38.16-3.97L38.16-3.97Q38.16-3.04 37.92-2.30Q37.68-1.56 37.21-1.05Q36.74-0.54 36.06-0.27Q35.38 0 34.49 0L34.49 0L32.47 0ZM33.47-0.82L34.37-0.82Q35.75-0.82 36.44-1.64Q37.13-2.47 37.13-3.97L37.13-3.97Q37.13-5.47 36.44-6.26Q35.75-7.06 34.37-7.06L34.37-7.06L33.47-7.06L33.47-0.82ZM40.72-3.20L43.08-3.20L42.71-4.40Q42.49-5.06 42.30-5.72Q42.11-6.37 41.92-7.06L41.92-7.06L41.87-7.06Q41.69-6.37 41.50-5.72Q41.30-5.06 41.09-4.40L41.09-4.40L40.72-3.20ZM44.08 0L43.33-2.40L40.46-2.40L39.71 0L38.69 0L41.35-7.87L42.48-7.87L45.14 0L44.08 0ZM47.41 0L47.41-7.03L45.04-7.03L45.04-7.87L50.80-7.87L50.80-7.03L48.42-7.03L48.42 0L47.41 0ZM52.72-3.20L55.08-3.20L54.71-4.40Q54.49-5.06 54.30-5.72Q54.11-6.37 53.92-7.06L53.92-7.06L53.87-7.06Q53.69-6.37 53.50-5.72Q53.30-5.06 53.09-4.40L53.09-4.40L52.72-3.20ZM56.08 0L55.33-2.40L52.46-2.40L51.71 0L50.69 0L53.35-7.87L54.48-7.87L57.14 0L56.08 0ZM60.68 0L60.68-7.87L65.22-7.87L65.22-7.03L61.68-7.03L61.68-4.37L64.68-4.37L64.68-3.53L61.68-3.53L61.68 0L60.68 0ZM69.40 0.14L69.40 0.14Q68.65 0.14 68.03-0.14Q67.42-0.43 66.97-0.97Q66.53-1.50 66.28-2.26Q66.04-3.02 66.04-3.97L66.04-3.97Q66.04-4.92 66.28-5.67Q66.53-6.42 66.97-6.94Q67.42-7.46 68.03-7.74Q68.65-8.02 69.40-8.02L69.40-8.02Q70.14-8.02 70.76-7.73Q71.38-7.45 71.83-6.93Q72.28-6.41 72.52-5.66Q72.77-4.91 72.77-3.97L72.77-3.97Q72.77-3.02 72.52-2.26Q72.28-1.50 71.83-0.97Q71.38-0.43 70.76-0.14Q70.14 0.14 69.40 0.14ZM69.40-0.73L69.40-0.73Q69.92-0.73 70.35-0.96Q70.78-1.19 71.08-1.61Q71.39-2.04 71.56-2.63Q71.72-3.23 71.72-3.97L71.72-3.97Q71.72-4.70 71.56-5.29Q71.39-5.88 71.08-6.29Q70.78-6.70 70.35-6.92Q69.92-7.14 69.40-7.14L69.40-7.14Q68.87-7.14 68.44-6.92Q68.02-6.70 67.71-6.29Q67.40-5.88 67.24-5.29Q67.07-4.70 67.07-3.97L67.07-3.97Q67.07-3.23 67.24-2.63Q67.40-2.04 67.71-1.61Q68.02-1.19 68.44-0.96Q68.87-0.73 69.40-0.73ZM75.46-7.07L75.46-4.14L76.78-4.14Q77.70-4.14 78.19-4.52Q78.68-4.90 78.68-5.66L78.68-5.66Q78.68-6.44 78.19-6.76Q77.70-7.07 76.78-7.07L76.78-7.07L75.46-7.07ZM79.91 0L78.78 0L76.88-3.32L75.46-3.32L75.46 0L74.46 0L74.46-7.87L76.92-7.87Q77.52-7.87 78.03-7.76Q78.54-7.64 78.91-7.38Q79.27-7.12 79.48-6.70Q79.68-6.28 79.68-5.66L79.68-5.66Q79.68-4.74 79.20-4.19Q78.72-3.64 77.92-3.43L77.92-3.43L79.91 0ZM83.40-3.94L83.40-3.94Q83.40-4.88 83.66-5.64Q83.93-6.40 84.40-6.92Q84.86-7.45 85.51-7.73Q86.15-8.02 86.90-8.02L86.90-8.02Q87.62-8.02 88.16-7.72Q88.70-7.43 89.05-7.04L89.05-7.04L88.49-6.41Q88.18-6.74 87.80-6.94Q87.42-7.14 86.92-7.14L86.92-7.14Q86.35-7.14 85.90-6.92Q85.44-6.70 85.12-6.28Q84.79-5.87 84.61-5.28Q84.43-4.69 84.43-3.96L84.43-3.96Q84.43-3.22 84.61-2.62Q84.78-2.03 85.09-1.61Q85.40-1.19 85.85-0.96Q86.30-0.73 86.87-0.73L86.87-0.73Q87.44-0.73 87.87-0.96Q88.30-1.19 88.68-1.61L88.68-1.61L89.24-1.00Q88.78-0.46 88.19-0.16Q87.60 0.14 86.84 0.14L86.84 0.14Q86.10 0.14 85.47-0.13Q84.84-0.41 84.38-0.93Q83.92-1.45 83.66-2.21Q83.40-2.98 83.40-3.94ZM91.69-3.20L94.06-3.20L93.68-4.40Q93.47-5.06 93.28-5.72Q93.08-6.37 92.89-7.06L92.89-7.06L92.84-7.06Q92.66-6.37 92.47-5.72Q92.28-5.06 92.06-4.40L92.06-4.40L91.69-3.20ZM95.05 0L94.31-2.40L91.44-2.40L90.68 0L89.66 0L92.33-7.87L93.46-7.87L96.12 0L95.05 0ZM98.51 0L95.99-7.87L97.06-7.87L98.32-3.62Q98.53-2.92 98.69-2.32Q98.86-1.72 99.08-1.02L99.08-1.02L99.13-1.02Q99.35-1.72 99.52-2.32Q99.68-2.92 99.89-3.62L99.89-3.62L101.15-7.87L102.17-7.87L99.67 0L98.51 0ZM103.25 0L103.25-7.87L107.78-7.87L107.78-7.03L104.24-7.03L104.24-4.56L107.23-4.56L107.23-3.71L104.24-3.71L104.24-0.85L107.90-0.85L107.90 0L103.25 0ZM112.00 0L112.00-7.87L113.96-7.87Q115.79-7.87 116.74-6.86Q117.68-5.86 117.68-3.97L117.68-3.97Q117.68-3.04 117.44-2.30Q117.20-1.56 116.74-1.05Q116.27-0.54 115.58-0.27Q114.90 0 114.01 0L114.01 0L112.00 0ZM112.99-0.82L113.89-0.82Q115.27-0.82 115.96-1.64Q116.65-2.47 116.65-3.97L116.65-3.97Q116.65-5.47 115.96-6.26Q115.27-7.06 113.89-7.06L113.89-7.06L112.99-7.06L112.99-0.82ZM119.38 0L119.38-7.87L120.37-7.87L120.37 0L119.38 0ZM123.97 0L121.45-7.87L122.52-7.87L123.78-3.62Q124.00-2.92 124.16-2.32Q124.32-1.72 124.55-1.02L124.55-1.02L124.60-1.02Q124.81-1.72 124.98-2.32Q125.15-2.92 125.35-3.62L125.35-3.62L126.61-7.87L127.63-7.87L125.14 0L123.97 0ZM128.71 0L128.71-7.87L129.71-7.87L129.71 0L128.71 0ZM131.87 0L131.87-7.87L132.90-7.87L135.74-2.93L136.60-1.30L136.64-1.30Q136.61-1.90 136.57-2.54Q136.52-3.18 136.52-3.80L136.52-3.80L136.52-7.87L137.47-7.87L137.47 0L136.44 0L133.58-4.96L132.73-6.58L132.68-6.58Q132.73-5.98 132.77-5.36Q132.82-4.74 132.82-4.12L132.82-4.12L132.82 0L131.87 0ZM139.18-3.94L139.18-3.94Q139.18-4.88 139.45-5.64Q139.72-6.40 140.20-6.92Q140.69-7.45 141.35-7.73Q142.01-8.02 142.80-8.02L142.80-8.02Q143.62-8.02 144.16-7.71Q144.71-7.40 145.06-7.04L145.06-7.04L144.49-6.41Q144.19-6.72 143.80-6.93Q143.41-7.14 142.81-7.14L142.81-7.14Q142.21-7.14 141.73-6.92Q141.25-6.70 140.92-6.28Q140.58-5.87 140.39-5.28Q140.21-4.69 140.21-3.96L140.21-3.96Q140.21-3.22 140.38-2.62Q140.56-2.03 140.89-1.61Q141.22-1.19 141.70-0.96Q142.19-0.73 142.82-0.73L142.82-0.73Q143.24-0.73 143.62-0.86Q144.00-0.98 144.24-1.20L144.24-1.20L144.24-3.25L142.57-3.25L142.57-4.08L145.15-4.08L145.15-0.77Q144.77-0.37 144.14-0.11Q143.51 0.14 142.72 0.14L142.72 0.14Q141.94 0.14 141.29-0.13Q140.64-0.41 140.17-0.93Q139.70-1.45 139.44-2.21Q139.18-2.98 139.18-3.94Z" transform="translate(-0.624, 8.016)"></path>
          </g>
        </g>
      </g>
    </g>
  </mask>
  <defs v-gra="od"></defs>
  <defs v-gra="id">
    <filter id="04b63f6d-6e48-443e-b6d0-70bdde83889d" filterUnits="userSpaceOnUse">
      <feColorMatrix type="matrix" values="0 0 0 0 0.99609375  0 0 0 0 0.99609375  0 0 0 0 0.99609375  0 0 0 1 0"></feColorMatrix>
    </filter>
    <linearGradient x1="0" y1="1" x2="0" y2="0" id="kk5_7wC_ZvROWqWKXZEw4">
      <stop offset="0%" stop-color="#ff0844"></stop>
      <stop offset="100%" stop-color="#ffb199"></stop>
    </linearGradient>
    <filter id="42443b3f1de60f6b6fd3b6a9844b4764" filterUnits="objectBoundingBox">
      <feColorMatrix type="matrix" values="0 0 0 0 0.99609375  0 0 0 0 0.99609375  0 0 0 0 0.99609375  0 0 0 1 0"></feColorMatrix>
    </filter>
  </defs>
  <mask v-gra="im" id="a70bacf5-9d3e-4403-b748-28296939aac4">
    <g mask="url(#ada90a26-f82a-4cd5-97ed-90487c791773)" filter="url(#04b63f6d-6e48-443e-b6d0-70bdde83889d)">
      <g>
        <rect fill="#333333" fill-opacity="0" stroke-width="2" x="0" y="0" width="75" height="85.99339570720969" class="image-rect"></rect> <svg x="0" y="0" width="75" height="85.99339570720969" filtersec="colorsf9892086107" class="image-svg-svg primary" style="overflow: visible;"><svg xmlns="http://www.w3.org/2000/svg" viewBox="12.22599983215332 -0.000054836273193359375 166.8040008544922 191.25405883789062">
            <path d="M162.929 66.612a6 6 0 1 0-6.35 10.183c6.544 4.081 10.45 11.121 10.45 18.833s-3.906 14.752-10.45 18.833l-98.417 61.365c-6.943 4.329-15.359 4.542-22.512.573-7.154-3.97-11.425-11.225-11.425-19.406V34.262c0-8.181 4.271-15.436 11.425-19.406 7.153-3.969 15.569-3.756 22.512.573l57.292 35.723a6 6 0 1 0 6.35-10.183L64.512 5.247c-10.696-6.669-23.661-7-34.685-.883-11.021 6.116-17.601 17.293-17.601 29.898v122.73c0 12.605 6.58 23.782 17.602 29.898 5.25 2.913 10.939 4.364 16.616 4.364 6.241 0 12.467-1.754 18.068-5.247l98.417-61.365c10.082-6.287 16.101-17.133 16.101-29.015s-6.019-22.728-16.101-29.015z" fill="#000000"></path>
          </svg></svg>
        <defs>
          <filter id="colors7859187869">
            <feColorMatrix type="matrix" values="0 0 0 0 0.98046875  0 0 0 0 0.73046875  0 0 0 0 0.06640625  0 0 0 1 0" class="icon-fecolormatrix"></feColorMatrix>
          </filter>
          <filter id="colorsf9892086107">
            <feColorMatrix type="matrix" values="0 0 0 0 0.99609375  0 0 0 0 0.99609375  0 0 0 0 0.99609375  0 0 0 1 0" class="icon-fecolormatrix"></feColorMatrix>
          </filter>
          <filter id="colorsb1050931433">
            <feColorMatrix type="matrix" values="0 0 0 0 0  0 0 0 0 0  0 0 0 0 0  0 0 0 1 0" class="icon-fecolormatrix"></feColorMatrix>
          </filter>
        </defs>
      </g>
    </g>
  </mask>
</svg>