<?xml version="1.0" encoding="UTF-8" standalone="no"?>
<svg
   viewBox="-0.0015622725 -2.7662112e-05 24 24"
   version="1.1"
   id="svg8"
   sodipodi:docname="logo-dark.svg"
   width="24"
   height="24"
   inkscape:version="1.2.1 (9c6d41e410, 2022-07-14)"
   xmlns:inkscape="http://www.inkscape.org/namespaces/inkscape"
   xmlns:sodipodi="http://sodipodi.sourceforge.net/DTD/sodipodi-0.dtd"
   xmlns="http://www.w3.org/2000/svg"
   xmlns:svg="http://www.w3.org/2000/svg">
  <defs
     id="defs12" />
  <sodipodi:namedview
     id="namedview10"
     pagecolor="#ffffff"
     bordercolor="#000000"
     borderopacity="0.25"
     inkscape:showpageshadow="2"
     inkscape:pageopacity="0.0"
     inkscape:pagecheckerboard="0"
     inkscape:deskcolor="#d1d1d1"
     showgrid="false"
     inkscape:zoom="70.767225"
     inkscape:cx="5.193082"
     inkscape:cy="12.18078"
     inkscape:window-width="3840"
     inkscape:window-height="2066"
     inkscape:window-x="-11"
     inkscape:window-y="-11"
     inkscape:window-maximized="1"
     inkscape:current-layer="svg8" />
  <path
     d="M 17.948468,13.060143 10.874829,6.0314091 7.2940799,2.4721366 A 2.8271128,2.8271128 0 0 0 6.1616728,2.2378455 c -1.723992,0 -3.1258339,1.5814649 -3.16293,3.5456054 v 8.4871951 a 3.6451793,3.6451793 0 0 0 3.598321,3.692038 H 16.50953 a 3.4870327,3.4870327 0 0 0 1.952426,-3.108262 3.3972211,3.3972211 0 0 0 -0.513488,-1.794279 z"
     fill="#ffffff"
     opacity="0.8"
     id="path2"
     style="opacity:1;fill:#087e91;fill-opacity:0.8;stroke-width:0.195243" />
  <path
     d="M 17.399836,6.0372664 H 7.4893225 A 3.4870327,3.4870327 0 0 0 5.5368966,9.1455284 3.4089356,3.4089356 0 0 0 6.0464798,10.94176 l 7.0736382,7.028734 3.590512,3.55732 a 2.8349225,2.8349225 0 0 0 1.12655,0.234291 c 1.72204,0 3.123881,-1.579512 3.160977,-3.543653 V 9.7273516 A 3.6451793,3.6451793 0 0 0 17.399836,6.0372664 Z"
     fill="#d9b504"
     opacity="0.8"
     id="path4"
     style="opacity:1;stroke-width:0.195243" />
  <path
     d="m 6.0464798,10.94176 7.0736382,7.028734 H 16.50953 A 3.4870327,3.4870327 0 0 0 18.461956,14.862232 3.3972211,3.3972211 0 0 0 17.95042,13.067953 L 10.876782,6.0392188 H 7.4893225 A 3.4870327,3.4870327 0 0 0 5.5368966,9.1455284 3.4089356,3.4089356 0 0 0 6.0464798,10.94176 Z"
     fill="#ffffff"
     opacity="0.5"
     id="path6"
     style="opacity:0.8;stroke-width:0.195243" />
</svg>
