<?xml version="1.0" encoding="UTF-8" standalone="no"?>
<svg
   viewBox="-0.0015622725 -2.7662112e-05 24 24"
   version="1.1"
   id="svg313"
   sodipodi:docname="logo-light.svg"
   inkscape:version="1.2.1 (9c6d41e410, 2022-07-14)"
   width="24"
   height="24"
   xml:space="preserve"
   xmlns:inkscape="http://www.inkscape.org/namespaces/inkscape"
   xmlns:sodipodi="http://sodipodi.sourceforge.net/DTD/sodipodi-0.dtd"
   xmlns="http://www.w3.org/2000/svg"
   xmlns:svg="http://www.w3.org/2000/svg"><defs
     id="defs317" /><sodipodi:namedview
     id="namedview315"
     pagecolor="#ffffff"
     bordercolor="#000000"
     borderopacity="0.25"
     inkscape:showpageshadow="2"
     inkscape:pageopacity="0.0"
     inkscape:pagecheckerboard="0"
     inkscape:deskcolor="#d1d1d1"
     showgrid="false"
     inkscape:zoom="70.767225"
     inkscape:cx="9.5736409"
     inkscape:cy="11.516631"
     inkscape:window-width="3840"
     inkscape:window-height="2066"
     inkscape:window-x="-11"
     inkscape:window-y="-11"
     inkscape:window-maximized="1"
     inkscape:current-layer="svg313" /><path
     d="M 17.948469,13.060143 10.874829,6.0314095 7.2940795,2.4721371 A 2.8271127,2.8271127 0 0 0 6.1616725,2.237846 c -1.723992,0 -3.1258339,1.581465 -3.16293,3.5456054 v 8.4871956 a 3.6451793,3.6451793 0 0 0 3.5983209,3.692037 H 16.50953 a 3.4870327,3.4870327 0 0 0 1.952426,-3.108261 3.397221,3.397221 0 0 0 -0.513487,-1.79428 z"
     fill="#145e79"
     opacity="0.8"
     id="path307"
     style="opacity:1;stroke-width:0.195243" /><path
     d="M 17.399837,6.0372667 H 7.4893221 A 3.4870327,3.4870327 0 0 0 5.5368962,9.1455288 3.4089355,3.4089355 0 0 0 6.0464794,10.94176 l 7.0736386,7.028734 3.590512,3.557319 a 2.8349224,2.8349224 0 0 0 1.12655,0.234291 c 1.722039,0 3.123881,-1.579512 3.160978,-3.543652 V 9.7273521 A 3.6451793,3.6451793 0 0 0 17.399837,6.0372667 Z"
     fill="#d9b504"
     opacity="0.8"
     id="path309"
     style="opacity:1;stroke-width:0.195243" /><path
     d="m 6.0464794,10.94176 7.0736386,7.028734 h 3.389412 a 3.4870327,3.4870327 0 0 0 1.952426,-3.108262 3.397221,3.397221 0 0 0 -0.511535,-1.794279 L 10.876781,6.0392192 H 7.4893221 A 3.4870327,3.4870327 0 0 0 5.5368962,9.1455288 3.4089355,3.4089355 0 0 0 6.0464794,10.94176 Z"
     fill="#ffffff"
     opacity="0.5"
     id="path311"
     style="stroke-width:0.195243" /></svg>
