<?xml version="1.0" encoding="UTF-8" standalone="no"?>
<svg
   viewBox="-0.0015622725477442145 -0.000027662112188409083 92.19300079345703 100.00003051757812"
   version="1.1"
   sodipodi:docname="logo-white.svg"
   inkscape:version="1.2.1 (9c6d41e410, 2022-07-14)"
   id="svg1723"
   xmlns:inkscape="http://www.inkscape.org/namespaces/inkscape"
   xmlns:sodipodi="http://sodipodi.sourceforge.net/DTD/sodipodi-0.dtd"
   xmlns="http://www.w3.org/2000/svg"
   xmlns:svg="http://www.w3.org/2000/svg">
  <defs
     id="defs12" />
  <sodipodi:namedview
     id="namedview10"
     pagecolor="#a1a1a1"
     bordercolor="#000000"
     borderopacity="0.25"
     inkscape:showpageshadow="2"
     inkscape:pageopacity="0"
     inkscape:pagecheckerboard="0"
     inkscape:deskcolor="#d1d1d1"
     showgrid="false"
     inkscape:zoom="12.509996"
     inkscape:cx="5.6754614"
     inkscape:cy="49.960048"
     inkscape:window-width="3840"
     inkscape:window-height="2066"
     inkscape:window-x="-11"
     inkscape:window-y="-11"
     inkscape:window-maximized="1" />
  <path
     d="M76.57 55.43l-36.23-36L22 1.2A14.48 14.48 0 0 0 16.2 0C7.37 0 .19 8.1 0 18.16v43.47a18.67 18.67 0 0 0 18.43 18.91H69.2a17.86 17.86 0 0 0 10-15.92 17.4 17.4 0 0 0-2.63-9.19z"
     fill="#ffffff"
     opacity=".8"
     id="path1"
     class="path-1" />
  <path
     d="M73.76 19.46H23a17.86 17.86 0 0 0-10 15.92 17.46 17.46 0 0 0 2.61 9.2l36.23 36L70.23 98.8A14.52 14.52 0 0 0 76 100c8.82 0 16-8.09 16.19-18.15V38.36a18.67 18.67 0 0 0-18.43-18.9z"
     fill="#ffffff"
     opacity=".8"
     id="path2"
     class="path-2" />
  <path
     d="M15.61 44.58l36.23 36H69.2a17.86 17.86 0 0 0 10-15.92 17.4 17.4 0 0 0-2.62-9.19l-36.23-36H23a17.86 17.86 0 0 0-10 15.91 17.46 17.46 0 0 0 2.61 9.2z"
     fill="#ffffff"
     opacity=".5"
     id="path3"
     class="path-3" />
</svg>
