<svg xmlns="http://www.w3.org/2000/svg" width="48" height="48" viewBox="0 96 960 960"><path fill="currentColor" d="M177.42 858.17h286.35v-11.368q0-20.11-10.086-36.21-10.086-16.102-26.448-22.381-36.057-12.923-59.275-17.344-23.219-4.421-45.178-4.421-23.515 0-49.94 5.442t-57.623 16.324q-17.625 6.279-27.711 22.38-10.086 16.1-10.086 36.21zm436.57-83.174h160.33q10.948 0 18.105-7.331 7.158-7.33 7.158-18.542 0-11.001-7.158-18.07-7.157-7.069-18.105-7.069H613.99q-10.801 0-18.274 7.26-7.474 7.26-7.474 18.365 0 11.103 7.474 18.245 7.473 7.141 18.274 7.141zM322.9 723.984q25.849 0 44.058-18.323 18.208-18.322 18.208-44.185 0-25.863-18.095-44.3-18.094-18.437-43.943-18.437t-44.286 18.302q-18.437 18.303-18.437 44.449 0 25.621 18.323 44.058 18.322 18.437 44.171 18.437zm291.09-78.608h160.33q10.948 0 18.105-7.33 7.158-7.332 7.158-18.542 0-11.002-7.158-18.071-7.157-7.069-18.105-7.069H613.99q-10.801 0-18.274 7.26-7.474 7.261-7.474 18.365t7.474 18.245q7.473 7.142 18.274 7.142zm-541.12 410.62q-29.721 0-51.298-21.577T-.005 983.121v-561.62q0-29.721 21.577-51.298t51.298-21.577h308.5v-195.3q0-22.7 17.327-40.013 17.327-17.314 40.564-17.314h81.599q23.238 0 40.497 17.314 17.259 17.313 17.259 40.013v195.3h308.5q29.721 0 51.298 21.577t21.577 51.298v561.62q0 29.721-21.577 51.298t-51.298 21.577zm0-57.327h814.25q6.802 0 11.175-4.373 4.373-4.373 4.373-11.175V421.5q0-6.802-4.373-11.175-4.373-4.373-11.175-4.373h-308.5v47.126q0 26.624-17.15 41.975-17.149 15.352-40.695 15.352H439.22q-23.547 0-40.695-15.352-17.15-15.351-17.15-41.975v-47.126h-308.5q-6.802 0-11.175 4.373-4.373 4.373-4.373 11.175v561.62q0 6.802 4.373 11.175 4.373 4.373 11.175 4.373zm365.83-545.59h82.593v-299.76H438.7z"/></svg>