<svg xmlns="http://www.w3.org/2000/svg" width="48" height="48" viewBox="0 96 960 960"><g fill="currentColor"><path d="M601.91 983.86 220.42 873.23v65.803H0v-423.33h338.98l302.91 113.06c18.703 6.835 34.672 18.33 47.908 34.485 13.235 16.155 19.852 39.954 19.852 71.394h151.64c29.887 0 53.809 10.877 71.766 32.632 17.957 21.756 26.935 51.204 26.935 88.345v18.454zM54.99 884.039h109.24v-313.35H54.99zm542.54 42.874 305.52-93.111c-3.293-15.348-8.42-26.548-15.378-33.6s-15.751-10.579-26.377-10.579h-243.36c-22.68 0-44.629-1.538-65.849-4.613-21.219-3.076-40.342-7.285-57.367-12.629l-99.542-30.758 21.995-53.965 87.986 30.013c19.572 6.462 38.912 10.905 58.019 13.328s48.451 3.635 88.032 3.635c0-12.49-2.128-23.535-6.384-33.135-4.256-9.6-11.293-16.419-21.111-20.458l-293.13-110.35h-110.17v244.38zM502.79 380.46c-34.157 0-63.033-11.771-86.627-35.313-23.594-23.543-35.39-52.498-35.39-86.866s11.797-63.34 35.39-86.916c23.594-23.576 52.469-35.364 86.627-35.364 29.189 0 54.772 9.574 76.749 28.722 21.976 19.148 36.67 42.949 44.08 71.404h310.82c7.092 0 13.037 2.487 17.834 7.462 4.798 4.976 7.197 10.972 7.197 17.99 0 7.016-2.4 12.871-7.197 17.567-4.797 4.695-10.742 7.042-17.834 7.042h-19.093v69.241c0 7.093-2.42 13.037-7.258 17.835-4.84 4.797-10.835 7.196-17.988 7.196s-13.077-2.399-17.773-7.196c-4.695-4.797-7.042-10.743-7.042-17.835v-69.24h-241.66c-6.958 27.831-21.68 50.501-44.166 68.01-22.486 17.506-48.041 26.26-76.663 26.26zm.059-50.061c20.227 0 37.337-7.015 51.33-21.045 13.994-14.03 20.991-31.156 20.991-51.378 0-20.223-7.014-37.264-21.045-51.124-14.029-13.859-31.155-20.789-51.378-20.789s-37.264 6.976-51.124 20.927c-13.859 13.951-20.789 30.98-20.789 51.087 0 20.227 6.976 37.337 20.927 51.331s30.98 20.991 51.087 20.991z"/></g></svg>