<svg xmlns="http://www.w3.org/2000/svg" width="48" height="48" viewBox="0 96 960 960"><path fill="currentColor" d="M268.66 601.85h422.67q12.195 0 20.429-8.303 8.235-8.304 8.235-20.6 0-12.296-8.235-20.36t-20.429-8.064H268.66q-12.195 0-20.429 8.303t-8.235 20.598 8.235 20.361q8.235 8.064 20.429 8.064zM480.42 1056q-99.733 0-186.82-37.794-87.085-37.794-152.53-103.21-65.449-65.42-103.26-152.56Q0 675.296 0 575.456q0-99.354 37.794-186.78 37.794-87.422 103.21-152.24 65.42-64.818 152.56-102.63 87.14-37.81 186.98-37.81 99.354 0 186.78 37.794 87.422 37.794 152.24 102.58 64.818 64.789 102.63 152.37 37.81 87.584 37.81 186.83 0 99.733-37.794 186.82-37.794 87.085-102.58 152.3-64.789 65.216-152.37 103.26-87.584 38.044-186.83 38.044zm.211-57.327q175.82 0 298.93-123.5 123.11-123.5 123.11-299.81 0-175.82-122.87-298.93-122.87-123.11-299.8-123.11-175.68 0-299.17 122.87-123.5 122.87-123.5 299.8 0 175.68 123.5 299.17 123.5 123.5 299.81 123.5z"/></svg>