<svg xmlns="http://www.w3.org/2000/svg" width="48" height="48" viewBox="0 96 960 960"><path fill="currentColor" d="M36.71 994.6q-10.67 0-18.78-5.015-8.11-5.013-12.616-13.218-4.798-7.56-5.277-17.022-.48-9.461 5.2-18.976l443.94-765.36q5.587-8.879 13.456-13.245Q470.5 157.4 480 157.4t17.368 4.365q7.868 4.366 13.456 13.245l443.94 765.36q5.68 9.514 5.2 18.976-.48 9.462-5.278 17.022-4.505 8.205-12.616 13.218-8.11 5.015-18.78 5.015zm35.674-56.613h815.23l-407.62-703.35zm411.39-74.941q13.351 0 22.154-9.031 8.804-9.032 8.804-22.381 0-13.35-9.031-22.154-9.031-8.803-22.381-8.803t-22.154 9.03q-8.804 9.031-8.804 22.38 0 13.352 9.031 22.155 9.031 8.804 22.381 8.804zm.018-122.15q12.134 0 20.097-8.138 7.964-8.138 7.964-20.168V497.46q0-12.03-8.208-20.168t-20.343-8.138q-12.134 0-20.097 8.138-7.965 8.138-7.965 20.168v215.13q0 12.03 8.208 20.168 8.21 8.138 20.343 8.138z"/></svg>