<svg xmlns="http://www.w3.org/2000/svg" width="48" height="48" viewBox="0 96 960 960"><path fill="currentColor" d="M485.12 853.31q16.746 0 28.455-12.014 11.708-12.014 11.708-28.761 0-16.261-11.771-28.211-11.771-11.952-28.518-11.952-16.746 0-28.698 12.015-11.951 12.014-11.951 28.275 0 16.747 12.014 28.698t28.761 11.951zM480.425 1056q-99.733 0-186.82-37.794-87.085-37.794-152.53-103.21-65.45-65.42-103.26-152.56T.005 575.456q0-99.354 37.794-186.78 37.794-87.422 103.21-152.24 65.42-64.818 152.56-102.63 87.14-37.81 186.98-37.81 99.354 0 186.78 37.794 87.422 37.794 152.24 102.58 64.818 64.789 102.63 152.37 37.81 87.584 37.81 186.83 0 99.733-37.794 186.82-37.794 87.085-102.58 152.3-64.79 65.216-152.37 103.26-87.584 38.044-186.83 38.044zm.21-57.327q175.82 0 298.93-123.5 123.11-123.5 123.11-299.81 0-175.82-122.87-298.93-122.87-123.11-299.8-123.11-175.68 0-299.17 122.87-123.5 122.87-123.5 299.8 0 175.68 123.5 299.17 123.5 123.5 299.81 123.5zm2.39-646.15q39.635 0 69.417 24.202 29.782 24.201 29.782 61.698 0 31.769-18.308 55.824-18.307 24.056-41.74 45.224-27.512 23.629-48.056 52.138-20.543 28.51-22 63.975-.487 10.979 7.792 17.49 8.278 6.51 19.316 6.51 11.756 0 19.517-7.676t9.632-19.432q4.275-25.555 19.724-46.542 15.45-20.989 36.219-38.294 29.368-25.642 49.337-58.209t19.968-71.206q0-59.27-43.482-98.916-43.482-39.643-103.61-39.643-42.474 0-81.244 18.947t-63.838 53.635q-6.898 9.716-5.984 20.912.916 11.194 9.216 17.931 12.023 7.7 24.071 4.64 12.05-3.06 19.92-14.041 17.076-22.614 41.477-35.89 24.4-13.276 52.88-13.276z"/></svg>