<svg xmlns="http://www.w3.org/2000/svg" width="48" height="48" viewBox="0 96 960 960"><g fill="currentColor"><circle cx="480" cy="576" r="450.34" fill="none" stroke="currentColor" stroke-linecap="square" stroke-width="59.32"/><path d="M409.2 685.2 291.6 567.6c-7.2-7.2-16-10.8-26.4-10.8s-19.6 4-27.6 12c-7.2 7.2-10.8 16-10.8 26.4s3.6 19.2 10.8 26.4L384 769.2c7.2 7.2 15.6 10.8 25.2 10.8s18-3.6 25.2-10.8l286.8-286.8c8-8 12-17.2 12-27.6s-4-19.6-12-27.6c-8-7.2-17.4-10.6-28.2-10.2s-19.8 4.2-27 11.4z"/></g></svg>