<?xml version="1.0" standalone="no"?>
<!DOCTYPE svg PUBLIC "-//W3C//DTD SVG 20010904//EN"
 "http://www.w3.org/TR/2001/REC-SVG-20010904/DTD/svg10.dtd">
<svg version="1.0" xmlns="http://www.w3.org/2000/svg"
 width="700.000000pt" height="700.000000pt" viewBox="0 0 700.000000 700.000000"
 preserveAspectRatio="xMidYMid meet">
<metadata>
Created by potrace 1.14, written by Peter Selinger 2001-2017
</metadata>
<g transform="translate(0.000000,700.000000) scale(0.100000,-0.100000)"
fill="#000000" stroke="none">
<path d="M1275 6993 c-44 -6 -187 -42 -210 -53 -11 -5 -49 -22 -85 -38 -220
-97 -434 -312 -555 -557 -48 -97 -95 -225 -111 -296 -39 -185 -38 -115 -38
-1834 0 -902 3 -1669 7 -1704 40 -327 209 -635 470 -853 149 -124 354 -223
543 -263 44 -9 88 -19 99 -22 11 -4 569 -7 1240 -9 671 -1 1231 -3 1244 -3 18
-1 104 -81 335 -310 875 -871 977 -969 1036 -990 117 -42 199 -55 350 -55 126
0 158 3 243 27 322 88 584 313 737 632 42 87 93 223 104 281 3 11 9 40 15 65
6 26 14 78 18 115 10 91 10 3280 0 3364 -51 429 -326 817 -716 1010 -86 42
-230 94 -291 105 -19 3 -55 11 -80 17 -32 8 -403 12 -1289 14 l-1244 2 -27 29
c-173 181 -1256 1245 -1280 1258 -73 38 -220 67 -355 69 -71 2 -143 1 -160 -1z
m1917 -2454 c73 -18 151 -55 208 -97 47 -36 998 -987 1036 -1037 105 -139 145
-322 108 -494 -47 -222 -238 -410 -464 -457 -147 -31 -321 1 -449 83 -31 20
-265 246 -565 546 -462 463 -515 519 -549 584 -54 103 -68 155 -72 268 -9 246
118 459 340 566 122 58 273 73 407 38z"/>
</g>
</svg>
