<?xml version="1.0" standalone="no"?>
<!DOCTYPE svg PUBLIC "-//W3C//DTD SVG 20010904//EN"
 "http://www.w3.org/TR/2001/REC-SVG-20010904/DTD/svg10.dtd">
<svg version="1.0" xmlns="http://www.w3.org/2000/svg"
 width="700.000000pt" height="700.000000pt" viewBox="0 0 700.000000 700.000000"
 preserveAspectRatio="xMidYMid meet">
<metadata>
Created by potrace 1.14, written by Peter Selinger 2001-2017
</metadata>
<g transform="translate(0.000000,700.000000) scale(0.100000,-0.100000)"
fill="#000000" stroke="none">
<path d="M1073 5815 c-558 -102 -991 -650 -1062 -1345 -15 -138 -15 -1852 0
-1990 57 -561 349 -1034 769 -1245 84 -42 123 -57 230 -88 l75 -22 2355 -3
c1758 -2 2378 0 2445 8 573 75 1032 635 1104 1349 15 139 15 1853 0 1991 -54
530 -318 983 -705 1211 -89 52 -178 90 -292 122 l-77 22 -2385 2 c-1926 1
-2399 -1 -2457 -12z m2637 -1381 c582 -118 1271 -707 1564 -1336 78 -166 136
-383 136 -504 l0 -54 -135 0 -135 0 0 39 c0 64 -29 210 -60 303 -145 431 -583
899 -1080 1152 -270 138 -474 175 -682 122 -497 -126 -1077 -606 -1322 -1094
-78 -155 -136 -362 -136 -483 l0 -39 -135 0 -135 0 0 53 c0 140 67 370 163
559 332 654 1036 1216 1623 1297 86 12 234 5 334 -15z m-55 -821 c281 -71 619
-378 826 -751 57 -103 109 -240 109 -289 l0 -33 -1090 0 -1090 0 0 31 c0 67
69 234 153 369 144 231 329 428 515 551 206 136 380 173 577 122z"/>
</g>
</svg>
