<svg xmlns="http://www.w3.org/2000/svg" width="48" height="48" viewBox="0 96 960 960"><path fill="currentColor" d="M480.08 1056q-99.583 0-187.21-37.794-87.624-37.794-152.44-102.58-64.818-64.789-102.63-152.37Q-.01 675.672-.01 576.086q0-99.583 37.794-187.21 37.794-87.624 102.58-152.44 64.789-64.818 152.37-102.63 87.584-37.81 187.17-37.81t187.21 37.794q87.624 37.794 152.44 102.58 64.818 64.789 102.63 152.37 37.81 87.584 37.81 187.17T922.2 763.12q-37.794 87.624-102.58 152.44-64.789 64.818-152.37 102.63Q579.666 1056 480.08 1056zm-.085-57.327q176.93 0 299.8-122.87t122.87-299.8q0-77.58-27.498-148.78-27.499-71.203-77.442-129.79l-596.31 596.31q57.33 51.206 128.94 78.073 71.614 26.866 149.64 26.866zm-316.95-144.1 595.53-595.53q-57.62-51.207-129.22-78.463-71.602-27.255-149.35-27.255-176.93 0-299.8 122.87t-122.87 299.8q0 78.022 28.276 149.64 28.275 71.612 77.442 128.94z"/></svg>