<svg xmlns="http://www.w3.org/2000/svg" width="48" height="48" viewBox="0 96 960 960"><path d="M292.34 817.32H34.17q-19.818 0-29.728-17.74-9.909-17.74 2.3-34.107l173.94-252.69h-40.344q-19.819 0-29.95-17.519-10.13-17.519 2.08-34.329l201.64-287.1q10.352-14.068 27.871-14.068t27.871 14.068L480 330.885l110.15-157.05q10.352-14.068 27.871-14.068t27.871 14.068l201.64 287.1q12.209 16.81 2.08 34.329-10.131 17.519-29.95 17.519h-39.194l172.79 252.69q12.209 16.367 2.3 34.107t-29.728 17.74H668.36v125.29q0 20.968-14.112 35.301-14.112 14.334-35.523 14.334-20.525 0-35.434-14.909-14.908-14.908-14.908-35.434v-124.58h-176.07v125.29q0 20.968-14.112 35.301-14.112 14.334-35.523 14.334-20.525 0-35.434-14.909-14.908-14.908-14.908-35.434zm384.96-52.2h211.02L679.34 460.58h99.714L618.024 231.6l-103.08 147.76 57.419 81.573q11.768 16.81 1.859 34.329-9.91 17.519-29.728 17.519h-40.08zm-604.91 0h539.88L403.29 460.58h99.714L341.974 231.6l-161.03 228.98h100.42zm0 0h208.98-100.42 322.06-99.714 208.98zm604.91 0H504.42h69.808-59.278 264.1-99.714 208.98zm-108.91 52.2h99.977z"/></svg>