<svg xmlns="http://www.w3.org/2000/svg" width="48" height="48" viewBox="0 96 960 960"><path fill="currentColor" d="M314.39 1056q-16.398 0-32.091-6.788-15.692-6.788-26.444-18.082L24.865 800.14q-11.294-10.752-18.082-26.444-6.788-15.693-6.788-32.09v-331.22q0-16.399 6.788-32.092 6.788-15.692 18.082-26.986l230.99-230.99q10.752-10.75 26.444-17.538 15.693-6.788 32.091-6.788h331.22q16.398 0 32.091 6.788 15.692 6.788 26.986 17.538l230.99 230.99q10.751 11.294 17.538 26.986 6.788 15.693 6.788 32.091v331.22q0 16.398-6.788 32.091-6.788 15.692-17.538 26.444l-230.99 230.99q-11.294 11.294-26.986 18.082Q662.008 1056 645.61 1056zm-7.602-64.072h346.43l242.72-242.72v-346.43l-242.72-242.72h-346.43l-242.72 242.72v346.43zm173.21-370.75 147.8 147.8q9.447 9.448 22.316 9.448t22.859-9.448q9.447-9.991 9.447-22.588t-9.447-22.587l-147.8-147.8 147.8-147.8q9.447-9.448 9.447-22.316t-9.447-22.859q-9.991-9.448-22.588-9.448t-22.587 9.448l-147.8 147.8-147.8-147.8q-9.448-9.448-22.316-9.448t-22.86 9.448q-9.447 9.991-9.447 22.588t9.448 22.587l147.8 147.8-147.8 147.8q-9.448 9.448-9.448 22.316t9.448 22.859q9.99 9.448 22.588 9.448t22.587-9.448z"/></svg>