<svg xmlns="http://www.w3.org/2000/svg" width="48" height="48" viewBox="0 96 960 960"><path fill="currentColor" d="M.01 599.86q0-11.171 7.573-21.349 7.574-10.177 21.017-15.384 27.361-10.13 52.165-28.023 24.803-17.894 68.353-17.894 54.91 0 84.732 30.863 29.822 30.863 79.714 30.863 49.893 0 80.71-30.863 30.816-30.863 85.725-30.863 55.384 0 85.347 30.863 29.964 30.863 80.33 30.863 49.893 0 80.093-30.863 30.201-30.863 85.111-30.863 44.023 0 68.591 17.894 24.567 17.893 51.928 28.497 13.443 4.733 21.017 14.91 7.573 10.177 7.573 21.349 0 11.265-7.762 18.27-7.764 7.005-17.987 4.26-34.556-10.32-59.644-29.821-25.088-19.502-63.715-19.502-48.19 0-79.242 30.863-31.052 30.863-86.435 30.863-54.911 0-85.49-30.863T480 573.067q-48.663 0-80.093 30.863-31.431 30.863-86.342 30.863-54.91 0-85.584-30.863-30.674-30.863-78.863-30.863-39.1 0-63.952 19.502-24.851 19.502-59.407 29.822-10.224 2.744-17.987-4.261-7.763-7.005-7.763-18.27zm0 191.24q0-11.172 7.573-21.349 7.574-10.177 21.017-15.384 27.361-10.129 52.165-28.023 24.803-17.893 68.353-17.893 54.91 0 84.732 30.863 29.822 30.862 79.714 30.862 49.893 0 80.71-30.862 30.816-30.863 85.725-30.863 55.384 0 85.347 30.863 29.964 30.862 79.857 30.862 49.892 0 80.33-30.862 30.438-30.863 85.347-30.863 43.55 0 68.353 17.893 24.804 17.894 52.165 28.023 13.443 5.207 21.017 15.384 7.573 10.177 7.573 21.349 0 11.265-7.762 18.272-7.764 7.005-17.987 4.26-34.556-10.32-59.644-29.822t-63.715-19.502q-48.19 0-79.242 30.863-31.052 30.863-86.435 30.863-54.911 0-85.49-30.863-30.58-30.863-79.714-30.863-48.663 0-79.857 30.863-31.195 30.863-86.578 30.863-54.91 0-85.584-30.863-30.674-30.863-78.863-30.863-39.1 0-63.952 19.502-24.851 19.502-59.407 29.822-10.224 2.745-17.987-4.26Q.008 802.365.008 791.1zm0-383.9q0-11.17 7.1-20.637 7.1-9.468 20.07-14.202 28.782-10.129 53.113-28.259 24.33-18.13 68.827-18.13 54.91 0 84.732 30.863 29.822 30.863 79.714 30.863 49.893 0 80.709-30.863 30.817-30.863 85.726-30.863 55.384 0 85.347 30.863 29.964 30.863 80.33 30.863 49.893 0 80.093-30.863 30.2-30.863 85.11-30.863 44.024 0 68.592 17.894 24.567 17.893 51.928 28.495 13.443 4.734 21.017 14.911 7.572 10.178 7.572 21.349 0 11.266-7.762 18.272-7.764 7.005-17.987 4.26-34.556-10.32-59.644-29.821-25.088-19.502-63.715-19.502-48.189 0-79.242 30.862-31.052 30.863-86.435 30.863-54.91 0-85.49-30.863-30.579-30.862-79.714-30.862-48.663 0-80.093 30.862-31.43 30.863-86.342 30.863-54.91 0-85.584-30.863-30.674-30.862-78.863-30.862-38.627 0-63.242 19.265-24.615 19.266-58.223 29.586-10.698 3.218-19.17-4.024Q.01 419.414.01 407.201z"/></svg>