<svg xmlns="http://www.w3.org/2000/svg" width="128" height="48" viewBox="0 96 2560 960"><path fill="currentColor" d="M1829.213 626.679c-60.558-11.992-115.118-56.959-144.497-118.715-22.184-47.967-22.184-115.117 0-163.085 21.585-46.166 53.362-79.744 95.932-100.728 47.367-23.384 88.736-28.18 137.9-16.189 94.134 23.983 156.49 103.128 156.49 198.459 0 94.133-62.356 173.877-154.09 197.858-38.974 9.593-52.762 10.193-91.735 2.398zm109.723-64.155c28.18-14.39 56.958-43.77 72.548-73.148 16.188-30.58 14.99-97.132-1.799-128.91-61.155-115.117-218.845-115.117-275.214.6-13.79 28.78-15.59 37.772-13.19 74.346 4.796 65.353 38.972 112.12 98.33 134.905 31.176 11.991 88.735 8.394 119.314-7.795zm208.65-29.378c-7.194-1.2-20.385-10.792-28.78-20.385-14.39-17.388-14.99-21.585-14.99-99.529V332.29l17.388-17.387c25.182-25.182 59.357-24.583 80.942 1.199 14.99 17.987 15.589 20.985 15.589 100.729s-.6 83.34-14.99 98.93c-7.794 8.394-16.788 15.59-20.385 15.59-2.998 0-8.994 1.198-13.79 2.397-4.197 1.2-13.79.6-20.985-.599zm14.39-152.89c-1.199-20.985-1.798-5.396-1.798 34.175s.599 56.361 1.798 37.773c1.2-19.187 1.2-51.564 0-71.948zM702.02 815.556c-88.736-23.383-106.724-46.766-235.033-300.374l-85.74-169.68h-57.559c-101.329 0-190.064-33.576-251.82-95.332C43.687 221.39-.681 153.638-.681 138.649c0-2.998 91.134-2.998 202.655-1.2 224.24 4.197 248.822 7.195 322.573 43.77 68.352 33.576 100.129 69.55 158.288 180.47 26.98 52.165 58.16 108.523 68.952 125.31 17.987 28.181 22.184 31.178 47.967 34.177 15.589 2.398 216.447 4.197 446.08 4.197h417.29l14.39 33.575c16.788 38.372 53.362 78.543 87.538 95.331 18.587 9.593 36.574 11.992 81.542 11.992 55.761 0 59.358-.6 101.927-23.983l44.368-23.983 160.686-1.8c181.07-2.397 229.636 2.4 283.006 28.782 43.17 20.985 64.754 42.57 100.728 100.728 29.379 47.367 30.58 64.155 5.996 73.747-8.394 2.998-195.46 5.396-441.89 5.396H1673.93v-34.176c0-58.159-38.372-112.719-89.936-127.708-15.589-4.797-130.107-5.996-368.731-4.797l-345.36 1.799-26.38 18.587c-35.374 25.781-58.757 71.35-58.757 113.92v32.377l-25.182-.6c-14.39 0-40.171-4.197-57.56-8.993zm34.776-61.756c0-24.582 37.772-85.739 66.553-108.522 55.16-43.17 45.568-42.57 437.702-40.771l350.161 1.799 29.979 16.188c16.788 8.394 40.17 26.381 52.164 38.973 22.184 23.384 52.762 80.342 52.762 99.528 0 9.593 22.184 10.193 380.737 10.193 228.438 0 380.738-2.398 380.738-5.396 0-16.189-42.57-59.358-74.947-75.548l-35.373-17.987-362.755-3.597-52.164 25.782c-52.164 25.182-53.963 25.781-116.319 25.781-57.559 0-65.952-1.799-98.93-17.387-40.171-19.786-83.341-60.558-104.326-97.133l-13.79-24.582-424.494-3.597c-352.536-2.998-428.684-5.397-446.08-12.592-26.381-10.792-44.968-36.574-97.132-134.304l-41.372-77.946-86.937-2.398c-47.967-1.199-88.138-1.799-88.736-1.199-1.199.6 37.175 79.744 85.74 176.273 97.73 193.064 117.516 220.644 169.68 236.231 31.177 8.994 37.175 7.795 37.175-7.794zm-155.89-461.66c0-9.594-50.963-52.165-78.543-65.353-59.957-28.781-83.941-32.378-253.021-35.374-159.486-2.998-161.284-2.998-154.691 8.994 8.394 16.188 58.757 52.164 93.533 67.75 53.362 23.384 94.733 28.181 247.623 28.781 79.745.6 145.097-1.798 145.097-4.796zm315.37 679.911c-33.575-11.991-64.154-38.973-80.942-71.35-41.97-80.942 8.394-182.272 99.528-201.458 19.186-4.197 137.303-5.996 335.167-4.797 300.988 1.8 305.79 1.8 329.777 14.99 28.78 14.99 60.558 49.765 71.948 77.345 11.991 28.18 10.193 78.544-2.998 107.922-5.996 13.19-20.985 34.176-33.575 46.166-41.372 40.171-41.372 40.171-386.128 40.171-247.623-.599-314.169-2.398-332.765-8.993zm672.708-58.16c43.768-26.979 53.962-91.734 20.985-131.307-30.579-36.574-20.385-35.374-358.539-35.374-339.356 0-336.954 0-362.755 35.974-29.979 41.97-19.186 101.927 23.384 130.107l20.385 13.79h317.77c314.783 0 317.771 0 338.77-13.19z"/></svg>