<svg xmlns="http://www.w3.org/2000/svg" width="48" height="48" viewBox="0 -960 1152 1152"><path stroke="#fff" stroke-width="72.912" d="M1336.1-59.348s-42.94-19.814-48.619-22.774c-10.693-5.497-17.821-8.216-47.422-17.942-17.277-5.739-41.683-13.23-57.087-17.64-5.98-1.692-12.626-3.564-14.8-4.229a536.318 536.318 0 0 0-9.062-2.416c-2.839-.725-9.363-2.356-14.497-3.685-32.44-8.276-63.492-14.015-84.877-15.767l-9.061-.725-1.752-5.437c-5.618-17.88-18.002-38.3-31.594-52.013-3.927-3.987-11.236-10.632-13.774-12.565-9.364-7.068-16.552-11.417-26.399-16.069-10.209-4.833-26.882-10.33-31.353-10.33-1.45 0-1.45-.483.12-14.498.847-7.974.363-30.084-.966-40.354-4.41-34.373-16.009-68.747-32.38-95.689-4.047-6.705-12.626-18.546-16.19-22.412-7.913-8.639-15.646-15.646-21.748-19.754-2.597-1.812-3.08-2.416-3.08-4.047 0-1.813.18-1.994 1.69-1.994 1.632 0 10.754 2.356 18.547 4.772 1.993.665 7.007 2.175 11.176 3.383 16.613 4.894 59.866 19.09 75.512 24.768 2.175.786 7.612 2.658 12.082 4.23 11.84 4.107 37.756 13.652 54.67 20.055 3.988 1.51 8.881 3.383 10.875 4.108 9.605 3.625 50.26 19.452 56.483 22.05 1.51.604 9.243 3.745 17.217 6.947 19.694 7.974 37.696 15.284 39.87 16.311 1.028.423 10.27 4.35 20.54 8.639 18.607 7.793 33.83 14.257 41.382 17.579 2.175.966 6.101 2.718 8.76 3.866 25.13 10.934 53.341 23.62 70.316 31.655 3.746 1.752 6.947 3.202 7.008 3.202.302 0 20.117 9.545 26.52 12.747 14.076 7.128 30.628 17.579 44.462 28.09 13.653 10.392 14.498 11.056 23.56 18.909 10.028 8.699 31.11 29.359 38.662 37.877 2.84 3.201 5.437 6.162 5.739 6.524 5.618 5.98 18.908 23.44 25.614 33.467 18.788 28.151 14.423-10.895 30.404 82.172-88.28-1.645-176.55-11.009-176.55-11.009z"/><path stroke="#fff" stroke-width="73.714" d="M-349.08-50.794c0-3.97 1.771-13.436 3.97-21.132 9.894-34.446 36.278-74.633 73.96-112.62 9.284-9.405 19.239-18.75 24.614-23.269.794-.672 2.137-1.771 2.992-2.565 9.956-8.55 24.43-19.544 35.24-26.812 18.994-12.765 33.286-20.216 74.816-39.271 21.376-9.772 48.86-22.11 63.517-28.4 25.957-11.177 52.585-22.536 61.685-26.262 3.543-1.466 9.162-3.848 12.52-5.252 3.36-1.405 7.33-3.054 8.856-3.604 1.527-.61 5.802-2.32 9.467-3.848 3.725-1.526 9.222-3.786 12.215-5.008 3.053-1.221 8.123-3.298 11.299-4.58 5.68-2.321 33.286-13.192 49.47-19.483 18.2-7.085 65.41-24.796 70.236-26.384.855-.245 3.847-1.344 6.718-2.382 2.87-1.039 6.718-2.443 8.55-3.054 1.833-.55 7.33-2.504 12.215-4.275 19.361-6.963 60.342-20.277 63.395-20.582l3.176-.367v2.26c0 1.344-.366 2.382-.855 2.565-1.038.428-10.993 11.604-14.902 16.795-3.115 4.092-9.1 12.765-10.26 14.902-.366.672-1.893 3.298-3.298 5.802-14.658 25.407-25.407 58.937-29.62 92.222-1.344 10.688-1.833 29.255-.978 37.866.427 3.848.916 9.223 1.1 11.971l.366 4.886-3.604.794c-2.015.489-6.168 1.65-9.344 2.627-17.345 5.496-33.469 14.536-48.005 26.934-19.422 16.55-35.118 40.676-42.202 64.86-.61 2.016-1.1 3.726-1.16 3.787 0 .061-4.703.855-10.383 1.71-43.424 6.78-101.51 22.17-169.79 45.012-25.407 8.49-25.712 8.612-45.195 18.811-3.665 1.894-12.215 6.352-18.933 9.772-6.719 3.481-12.703 6.657-13.314 7.024-98.16 7.276-106.74 6.078-188.54 8.55z"/><path d="M274.22-448.86c-4.277-29.884-5.851-121.31-24.709-146.51-14.547-23.448-34.389-42.929-58-57.157-17.075-14.448-36.662-24.046-58.825-27.307-40.712-11.462-82.99-20.35-120.69-40.089-66.507-47.203-130.33-98.151-194.49-148.47 8.297-9.945 75.501 8.57 58.711 8.189 61.534 15.263 124.38 27.714 183.13 52.068 43.784 21.498 87.108 44.69 132.74 61.922 66.305 18.494 136.15 30.733 195.79 66.884 14.174 6.38 19.837 19.495 16.478 33.866-1.586 31.837-8.386 147.82-10.666 179.62-51.638 5.408-64.901 5.35-119.46 16.98zM878.21-448.86c4.277-29.884 5.851-121.31 24.709-146.51 14.547-23.448 34.389-42.929 58-57.157 17.075-14.448 36.662-24.046 58.825-27.307 40.712-11.462 82.99-20.35 120.69-40.089 66.507-47.203 130.33-98.151 194.49-148.47-8.297-9.945-75.501 8.57-58.711 8.189-61.534 15.263-124.38 27.714-183.13 52.068-43.784 21.498-87.108 44.69-132.74 61.922-66.305 18.494-136.15 30.733-195.79 66.884-14.174 6.38-19.837 19.495-16.478 33.866 1.586 31.837 8.386 147.82 10.666 179.62 51.638 5.408 64.901 5.35 119.46 16.98zM486.552-33.792c-.801-.072-6.188-.436-12.012-.873-31.739-2.22-63.405-5.715-90.194-10.01-6.406-1.019-8.262-1.455-8.117-1.82.437-1.164 2.439-11.647 3.094-16.342 3.895-27.335 1.383-54.925-7.389-81.131-7.025-20.93-17.69-39.929-32.285-57.546-4.186-5.059-16.743-17.543-21.984-21.875-29.191-24.095-62.969-37.708-100.64-40.584-5.46-.4-25.37-.218-29.046.255l-1.529.219v-5.46c0-31.084 8.808-67.591 23.258-96.455 11.72-23.44 26.098-40.984 42.44-51.94 5.096-3.421 13.54-7.461 20.128-9.609 18.381-6.078 48.191-11.21 88.884-15.323 20.274-2.039 50.74-4.332 51.176-3.895.146.146-.146 1.201-.655 2.33-.51 1.164-1.056 2.657-1.165 3.312-.146.619-.4 1.165-.546 1.165-.327 0-2.184 4.476-2.402 5.823-.146.874-1.31 3.75-2.111 5.278-.473.873-2.439 7.025-2.439 7.607 0 .218-.218.837-.51 1.383-.545 1.02-1.71 4.696-1.892 5.933-.073.728-.983 4.368-2.402 9.646-.4 1.492-1.092 4.55-1.602 6.733-.473 2.22-1.02 4.332-1.201 4.732-.255.655-1.238 1.31-4.44 2.985-.547.254-1.165.728-1.42 1.019s-.655.546-.947.546c-.254 0-.582.327-.691.728s-.4.728-.619.728c-.437 0-6.115 5.75-6.115 6.187 0 .182-.218.546-.436.801-.255.255-.801 1.128-1.202 1.93s-.946 1.673-1.164 1.928c-2.439 2.548-5.278 10.592-6.698 18.818-.218 1.42-.546 2.73-.691 2.912-.146.218-.473 2.33-.692 4.732-.254 2.402-.655 5.022-.873 5.823-.619 2.075-.619 40.875 0 42.95.218.8.619 4.477.837 8.153.255 3.713.582 6.988.728 7.28.182.327.582 2.73.91 5.314.327 2.62.764 4.913.946 5.132s.219.51.073.619c-.437.473 2.147 12.047 3.603 16.051.583 1.638 1.274 3.458 1.493 4.04.182.62.582 1.42.837 1.82s.582 1.383.691 2.184c.255 1.347 4.732 11.029 5.35 11.465.146.11.656.947 1.13 1.857 1.273 2.366 1.82 3.276 2.438 4.004 1.201 1.383 1.456 1.747 1.456 2.001 0 .146.655.947 1.456 1.82 1.456 1.565 1.783 2.33 1.092 2.33-.182 0-.364.437-.364.983 0 .655.473 1.383 1.456 2.293.8.728 1.456 1.492 1.456 1.674s2.147 2.439 4.731 5.06c3.968 3.967 4.732 4.877 4.732 5.823 0 .582.255 2.402.582 4.004.292 1.601.728 3.822.947 4.913s.51 2.184.691 2.366c.146.219.473 1.857.692 3.64s.619 3.75.91 4.368c.255.582.8 2.402 1.237 4.004.656 2.657 3.786 12.084 4.805 14.595.255.583.51 1.456.582 1.966s.546 1.747.983 2.73c.473 1.019 1.056 2.475 1.31 3.275s.91 2.44 1.456 3.64c2.111 4.55 2.912 6.48 2.912 6.989 0 .327.328 1.164.692 1.892.4.728 1.456 2.949 2.402 4.95s2.038 4.295 2.475 5.096c.4.8.874 1.71.983 2.002 2.11 4.586 3.458 7.28 3.64 7.28.145 0 .764 1.274 1.455 2.839.656 1.528 1.384 3.057 1.638 3.348.219.292 1.02 1.784 1.784 3.276s2.11 3.786 2.948 5.096c.874 1.31 2.038 3.276 2.584 4.368s1.347 2.511 1.784 3.093c.473.62.946 1.456 1.092 1.93.109.436.4.8.582.8s.328.182.328.4c0 .292.946 1.711 2.802 4.15.182.218.546.874.838 1.456.764 1.565 2.256 3.931 2.73 4.368.509.473 6.005 7.825 6.005 8.08 0 .073 1.128 1.529 2.512 3.203s2.584 3.203 2.62 3.349c.073.182.619.655 1.165 1.092s1.71 1.674 2.548 2.73 1.892 2.22 2.366 2.584c.436.364.728.837.618 1.019-.145.182-.072.328.11.328s.764.618 1.237 1.383c.51.728 1.492 1.929 2.148 2.62 1.492 1.529 3.603 4.186 3.603 4.55 0 .11.218.437.473.692 4.332 4.513 6.661 7.68 7.68 10.664.546 1.565 1.165 3.167 1.347 3.567s.728 2.22 1.274 4.004c.51 1.82 1.019 3.567 1.128 3.931.11.328.328.619.51.619s.327.255.327.582c0 .291.874 2.439 1.966 4.732l2.002 4.15-2.985-.074c-1.638-.036-3.64-.109-4.44-.182zM651.616-34.083c0-.109.656-1.492 1.456-3.057s1.456-2.948 1.456-3.094c0-.182.4-1.092.874-2.075.51-.946 1.237-2.984 1.674-4.477.4-1.528.983-3.203 1.274-3.749s.546-1.383.546-1.82.146-.873.328-.982.51-.983.728-1.93c.51-2.001 1.164-2.948 4.586-6.842 1.42-1.602 3.458-4.04 4.55-5.46 1.091-1.383 2.365-2.839 2.839-3.24.473-.363 1.237-1.273 1.674-2.001.473-.728 1.965-2.548 3.312-4.04s3.349-3.931 4.477-5.424c1.092-1.456 2.548-3.24 3.24-3.967.655-.692 1.2-1.347 1.2-1.456s.62-.946 1.384-1.856 1.492-1.966 1.638-2.293c.109-.364.4-.656.618-.656.182 0 .364-.218.364-.473s.837-1.492 1.857-2.766c.982-1.237 2.147-2.912 2.584-3.713.4-.764.873-1.42 1.092-1.42.182 0 .255-.145.145-.29s.62-1.31 1.566-2.512c.946-1.237 2.038-2.839 2.438-3.603.364-.764.983-1.71 1.31-2.111.583-.728 1.82-2.912 3.13-5.496.292-.583 1.056-1.82 1.639-2.694 1.346-1.965 3.348-5.641 5.532-10.191.91-1.893 2.148-4.15 2.73-4.987.546-.837 1.128-1.929 1.274-2.402.146-.437 1.201-2.803 2.366-5.205 4.695-9.791 5.824-12.193 5.824-12.52 0-.183.51-1.42 1.091-2.767.62-1.347 1.092-2.657 1.092-2.912 0-.291.219-.728.474-.983s.946-1.783 1.492-3.385 1.128-3.057 1.274-3.275c.4-.546 1.492-3.604 1.71-4.805.11-.546.583-1.82 1.02-2.84.473-.982 1.128-2.802 1.456-4.003.364-1.201.946-2.984 1.31-4.004 1.31-3.457 2.948-9.318 2.73-9.645-.11-.218-.037-.364.182-.364s.364-.291.327-.619c-.109-.91.437-4.222.765-4.659.145-.182.4-1.092.546-2.002s.4-1.82.546-2.002c.364-.436 1.2-6.042 1.856-12.084.218-2.256.546-4.113.728-4.113s1.42-1.055 2.766-2.366 2.803-2.475 3.203-2.584 1.274-.873 1.893-1.71c.655-.838 2.511-2.912 4.113-4.623 1.601-1.674 2.912-3.276 2.912-3.53s.182-.474.364-.474c.218 0 .364-.327.364-.728s.182-.728.364-.728a.365.365 0 0 0 .364-.364c0-.218.51-1.055 1.092-1.892.618-.801 1.091-1.711 1.091-1.966s.146-.51.328-.582c.4-.146 2.948-5.205 2.948-5.897 0-.291.255-.764.546-1.055s.619-1.092.728-1.711c.182-1.056.874-2.73 2.548-6.37.983-2.11 1.71-4.003 2.038-5.277 1.238-4.878 2.585-11.539 3.24-16.016.4-2.911.91-5.86 1.092-6.551.218-.692.618-3.713.946-6.734.291-2.984.692-6.77.874-8.371.582-5.242.873-33.523.4-42.15-.255-4.403-.582-8.225-.764-8.553-.146-.364-.474-2.147-.692-4.004-.255-1.856-.582-3.676-.728-4.003-.182-.328-.619-2.039-.946-3.822-.364-1.747-.801-3.276-.947-3.385-.182-.11-.254-.328-.182-.473.474-.728-2.875-9.755-4.04-10.92-.8-.764-2.839-4.149-2.73-4.477.037-.182-.072-.29-.254-.29s-.4-.365-.546-.838c-.182-.837-5.715-6.442-6.297-6.442-.182 0-.473-.364-.655-.801-.219-.437-1.238-1.274-2.293-1.82s-2.403-1.31-2.949-1.747c-.582-.4-1.2-.728-1.383-.728-.691 0-1.31-1.82-2.147-6.26-.473-2.585-.983-4.878-1.129-5.096-.109-.255-.51-1.565-.873-2.985s-.983-3.713-1.42-5.132c-.436-1.383-.8-2.948-.837-3.458-.109-1.092-1.42-5.205-1.747-5.46-.146-.109-.4-.91-.619-1.82-.655-2.839-1.965-7.06-2.475-8.007-.946-1.82-2.038-4.477-2.147-5.423-.073-.51-.692-2.184-1.42-3.713-1.892-4.15-3.166-7.352-2.948-7.534.437-.473 38.946 2.584 57.327 4.477 47.681 5.023 78.729 11.501 95.727 20.019 14.231 7.097 30.1 22.894 41.675 41.42 3.422 5.46 8.845 15.724 11.684 22.094 11.975 26.935 19.073 57.545 19.691 84.735l.219 9.172h-8.881c-14.487 0-27.08 1.42-40.511 4.586-40.075 9.39-75.635 32.65-100.714 65.844-18.199 24.06-30.1 53.36-33.959 83.351-.983 7.571-1.31 13.468-1.31 22.895 0 12.593 1.019 23.44 3.312 34.723.4 2.075.692 3.822.619 3.859-.182.145-10.81 1.965-20.492 3.494-25.224 3.967-58.492 7.862-88.63 10.337-15.869 1.31-17.107 1.383-17.107 1.128z"/><path stroke="#fff" stroke-width="45.382" d="M565.88 33.163c-15.637-2.014-31.96-8.74-44.598-18.293-3.599-2.742-10.025-9.04-13.752-13.495-8.311-9.896-13.581-19.964-17.736-33.716l-1.628-5.355-4.841-.257c-2.7-.172-7.069-.3-9.682-.343-2.656 0-4.841-.086-4.841-.129-.043-.085-.215-5.44-.429-11.996l-.385-11.824-4.541-5.74c-11.396-14.31-21.506-30.546-31.831-51.324-13.024-26.09-21.806-50.81-24.976-70.517l-.986-5.955-6.126-6.426c-3.385-3.513-6.126-6.64-6.126-6.898 0-.3.257-.6.514-.685.6-.214-.172-1.543-4.627-7.926-10.325-14.78-16.451-35.344-18.807-63.105-.943-10.925-1.328-36.544-.686-44.983 1.543-20.392 5.527-33.074 13.366-42.798 2.314-2.827 7.54-7.197 10.925-9.082 2.614-1.5 2.87-2.142 4.456-9.811 1.842-9.168 4.327-17.736 8.183-28.489 10.325-28.789 21.763-52.352 31.96-65.89 15.209-20.178 37.4-38 62.89-50.424 23.52-11.481 45.413-17.736 67.476-19.321 24.377-1.714 54.066 5.312 83.326 19.75 12.51 6.17 23.52 13.109 34.059 21.464 5.098 4.027 21.249 19.964 25.105 24.805 6.426 7.969 11.653 16.537 17.95 29.346 12.21 24.848 22.406 53.252 25.705 71.845.342 1.842.814 3.684 1.07 4.156.258.514 1.629 1.67 3.128 2.656 7.54 5.055 12.08 10.025 15.766 17.179 3.856 7.583 6.598 17.822 7.754 29.26.9 8.869.728 39.415-.257 50.125-2.27 24.762-5.698 38.557-13.324 53.852-4.927 9.768-9.082 15.166-16.622 21.506l-4.541 3.856-.257 2.356c-1.714 14.952-5.141 28.49-11.481 45.669-12.381 33.502-30.974 67.218-49.096 88.81l-2.613 3.17v23.905l-9.897.086-9.896.128-.857 2.785c-5.612 18.893-11.996 30.16-24.12 42.199-14.523 14.566-31.146 22.706-52.266 25.705-4.712.686-17.05.771-21.806.171zm18.679-40.656c18.722-3.17 33.502-16.023 39.328-34.187 2.742-8.397 2.742-21.592 0-29.646-4.498-13.538-13.624-23.777-26.69-30.032-12.981-6.17-28.532-6.083-41.813.3-5.826 2.785-9.596 5.398-13.966 9.81-9.468 9.468-14.352 21.422-14.352 35.13 0 6.213.771 10.754 2.785 16.409 4.455 12.38 14.609 23.52 25.919 28.404 3.084 1.328 11.653 3.77 15.423 4.37 2.827.47 8.953.214 13.366-.558zm-95.836-69.274c4.241-15.08 8.054-23.263 15.551-33.245 4.027-5.312 13.152-14.609 17.993-18.25 9.81-7.412 19.878-12.167 33.93-16.023l4.927-1.328 14.78-.043c16.88 0 17.565.086 28.318 3.642 6.426 2.142 13.366 5.27 19.45 8.782 10.068 5.784 21.164 16.837 29.089 29.046 4.498 6.898 9.725 19.064 11.396 26.562.685 2.999 1.37 3.47 4.755 3.213 3.128-.214 3.342-.428 9.554-8.697 14.566-19.407 26.904-41.642 37.315-67.26 5.27-12.896 11.396-32.132 12.038-37.7.257-2.057.171-2.314-.729-2.785-1.628-.9-8.354-.215-19.064 1.885-24.59 4.84-40.57 6.554-57.108 6.126-9.596-.214-15.68-1.071-22.535-3.127-5.612-1.671-5.526-1.671-8.654-.386-3.855 1.542-6.34 3.256-11.91 8.397-10.753 9.81-18.893 13.238-31.446 13.238-12.467 0-19.92-3.256-31.96-13.966-5.483-4.884-8.525-6.94-11.91-8.097l-2.399-.814-4.027 1.37c-15.85 5.356-43.056 4.628-77.2-2.056-13.024-2.527-20.907-3.427-23.006-2.613l-1.114.429.814 3.77c1.243 5.74 4.884 18.293 6.77 23.306 6.982 18.807 18.335 43.313 25.875 55.865 7.455 12.467 21.464 32.002 23.434 32.73.6.215 2.27.429 3.727.429l2.657.043zm16.708-129.51c3.299-.257 7.54-.814 9.425-1.242 3.085-.729 3.599-1.029 5.055-2.7 3-3.427 6.598-11.652 14.523-33.073 5.913-16.108 8.012-21.164 12.338-30.032 4.756-9.768 7.326-13.581 12.167-18.422 5.827-5.827 9.94-7.54 18.036-7.54 7.07-.043 11.353 1.927 17.522 7.968 7.883 7.754 12.938 17.736 23.82 47.125 9.64 26.048 13.452 33.888 17.522 35.944 4.713 2.442 22.278 2.828 39.457.9 18.208-2.057 43.612-7.626 53.337-11.653 7.969-3.342 14.866-11.224 19.236-22.063 5.998-14.952 8.397-33.93 8.397-66.747 0-16.965-.257-20.65-1.885-27.12-2.57-10.024-5.655-14.351-12.038-16.921l-3.427-1.371h-157.23c-86.454.043-159.93.214-163.23.385-9.896.6-13.581 2.7-16.922 9.64-3.77 7.882-4.884 16.45-4.927 36.672 0 37.315 4.841 62.89 14.523 76.472 2.785 3.855 7.412 7.968 11.31 9.982 11.91 6.169 51.452 13.752 73.773 14.138 1.757.042 5.912-.129 9.211-.343z" style="paint-order:markers stroke fill"/><path fill="currentColor" stroke="#fff" stroke-linecap="square" stroke-width="21.830430999999997" d="M369.797-88.872c0 91.125-73.872 164.99-164.991 164.99-91.125 0-164.991-73.872-164.991-164.99 0-91.126 73.872-164.991 164.99-164.991 91.126 0 164.992 73.872 164.992 164.99zm412.358 0c0 91.125 73.872 164.99 164.991 164.99 91.125 0 164.991-73.872 164.991-164.99 0-91.126-73.872-164.991-164.991-164.991-91.125 0-164.991 73.872-164.991 164.99z" class="UnoptimicedTransforms"/><path fill="#fff" stroke="#fff" stroke-linecap="square" stroke-width="21.83112" d="M250.14-92.63c0 24.231-19.643 43.874-43.875 43.874-24.231 0-43.874-19.643-43.874-43.874 0-24.232 19.643-43.875 43.874-43.875 24.232 0 43.875 19.643 43.875 43.875zm651.709 0c0 24.231 19.643 43.874 43.875 43.874 24.231 0 43.874-19.643 43.874-43.874 0-24.232-19.643-43.875-43.874-43.875-24.232 0-43.875 19.643-43.875 43.875z" class="UnoptimicedTransforms"/></svg>