<svg xmlns="http://www.w3.org/2000/svg" width="48" height="48" viewBox="0 96 960 960"><g fill="currentColor"><path d="M480 841.19q16.777 0 28.751-11.972 11.973-11.973 11.973-28.751 0-16.235-11.973-28.209-11.973-11.972-28.751-11.972t-28.48 11.972q-11.701 11.973-11.701 28.209 0 16.777 11.701 28.751Q463.222 841.19 480 841.19zm.018-180.49q13.991 0 23.003-9.027 9.014-9.027 9.014-23.008v-300.16q0-13.982-9.032-23.009t-23.022-9.027q-13.991 0-23.003 9.027-9.014 9.027-9.014 23.01v300.16q0 13.98 9.032 23.007t23.022 9.027zm-165.63 395.29q-16.639 0-32.21-6.788t-26.325-18.082L24.863 800.13Q13.57 789.378 6.781 773.806q-6.788-15.572-6.788-32.21v-331.22q0-16.64 6.788-32.212 6.788-15.572 18.082-26.866l230.99-230.99q10.752-10.75 26.324-17.538 15.572-6.788 32.211-6.788h331.22q16.64 0 32.211 6.788 15.572 6.788 26.866 17.538l230.99 230.99q10.751 11.294 17.538 26.866 6.788 15.572 6.788 32.211v331.22q0 16.64-6.788 32.211-6.787 15.572-17.538 26.324l-230.99 230.99q-11.294 11.294-26.866 18.082t-32.21 6.788zm-7.602-64.072h346.43l242.72-242.72v-346.43l-242.72-242.72h-346.43l-242.72 242.72v346.43z"/></g></svg>