<svg xmlns="http://www.w3.org/2000/svg" color-interpolation-filters="sRGB" preserveAspectRatio="xMidYMid" version="1.0" viewBox="0 0 166.94 90.121"><g stroke-width=".651"><path fill="#145e79" d="M103.301 36.077 79.722 12.648 67.786.784a9.424 9.424 0 0 0-3.775-.781c-5.746 0-10.419 5.272-10.543 11.819v28.291A12.151 12.151 0 0 0 65.462 52.42h33.042a11.623 11.623 0 0 0 6.508-10.361 11.324 11.324 0 0 0-1.711-5.98z" opacity=".8"/><path fill="#d9b504" d="M101.471 12.664H68.436a11.623 11.623 0 0 0-6.508 10.361 11.363 11.363 0 0 0 1.699 5.987l23.579 23.43 11.967 11.857a9.45 9.45 0 0 0 3.756.781c5.74 0 10.413-5.265 10.537-11.812V24.964a12.151 12.151 0 0 0-11.994-12.3z" opacity=".8"/><path fill="#145e79" d="M63.631 29.017 87.21 52.446h11.298a11.623 11.623 0 0 0 6.508-10.361 11.324 11.324 0 0 0-1.705-5.98l-23.579-23.43H68.44a11.623 11.623 0 0 0-6.508 10.354 11.363 11.363 0 0 0 1.698 5.987z" opacity=".5"/></g><path fill="#145e79" d="M95.277 162.87c4.59 0 8.64-3.56 8.64-9.18 0-4.428-3.211-7.88-7.37-8.532-.946-.104-1.86-.133-2.861 0-4.295.677-7.157 4.295-7.157 8.532 0 5.724 3.888 9.18 8.748 9.18zm-1.321-15.901a8.54 8.54 0 0 1 2.347 0c3.323.54 5.616 3.32 5.616 6.804 0 4.536-2.995 7.236-6.642 7.236-3.805 0-6.721-2.808-6.721-7.236 0-3.672 2.131-6.29 5.4-6.804zm15.685.162h4.943c3.132 0 4.888 2.243 4.914 4.457.054 2.052-1.43 4.158-5.022 4.158h-4.835zm4.835 10.368c4.726 0 6.937-2.671 6.937-5.911 0-3.107-2.185-6.21-6.855-6.21h-5.86c-.54 0-.998.374-.998.943v15.552c0 1.188 1.94 1.217 1.94-.025v-4.349zm12.445-2.563h10.156c1.13 0 1.08-1.728 0-1.728H126.92v-6.077h10.667c1.134 0 1.188-1.728.028-1.728h-11.394c-.76 0-1.242.54-1.242 1.16v14.824c0 .648.483 1.188 1.242 1.188h11.365c1.296 0 1.134-1.782 0-1.782H126.92zm27.49.673.27 4.075-10.397-13.903c-.674-.997-2.186-.781-2.186.569v15.469c0 1.35 2.052 1.321 2.052 0v-9.53l-.216-3.725 10.098 13.525c.566.943 2.43.81 2.43-.54V146.05c0-1.188-2.052-1.134-2.052 0zm28.59 3.888c.703-.997-.943-1.998-1.565-1.08-.57.727-1.38 1.379-2.214 1.81-1.026.512-2.135.782-3.132.782-3.726 0-6.887-3.132-6.887-7.236 0-3.913 2.35-6.264 5.67-6.775 2.376-.27 4.51.025 6.347 1.969.756.81 2.214-.299 1.404-1.213-2.135-2.243-4.886-3.024-8.046-2.596-4.158.652-7.316 4.162-7.316 8.59 0 5.346 4.155 9.122 8.774 9.122 1.296 0 2.754-.374 4.05-.972 1.162-.565 2.188-1.375 2.916-2.401zm14.556-3.157h-8.507l4.266-8.507zm.835 1.699 2.106 4.187c.511 1.051 2.509.374 1.81-.785l-8.128-15.984a.952.952 0 0 0-.864-.515c-.35 0-.727.166-.89.515l-8.157 16.067c-.482 1.076 1.3 1.778 1.786.781l2.185-4.266zm11.07 4.104c.457.947 1.433.781 1.807.083l7.78-15.743c.403-1.213-1.433-1.811-1.865-.702l-6.775 13.77-6.941-13.824c-.54-1.16-2.401-.403-1.89.756zm14.364-7.207h10.152c1.134 0 1.08-1.728 0-1.728h-10.152v-6.077h10.667c1.134 0 1.184-1.728.025-1.728h-11.394c-.756 0-1.242.54-1.242 1.16v14.824c0 .648.486 1.188 1.242 1.188h11.369c1.296 0 1.134-1.782 0-1.782h-10.667zm13.853 3.859c.889 3.24 5.101 4.187 7.855 4.187 3.323 0 7.938-1.271 7.938-5.404 0-4.05-3.967-4.237-7.668-4.561-3.132-.241-5.832-.486-5.832-2.833 0-2.459 3.51-3.186 5.32-3.186 1.945 0 4.832.349 5.642 2.401.407.918 2.243.432 1.836-.648-1.134-3.078-4.67-3.751-7.506-3.751-3.294 0-7.398 1.591-7.398 5.155 0 4.025 3.996 4.374 7.722 4.673 2.97.241 5.807.432 5.807 2.779 0 2.729-3.564 3.43-5.861 3.43-2.16 0-5.155-.489-5.857-2.728-.216-1.105-2.322-.702-1.998.486z" style="mix-blend-mode:normal" transform="translate(-86.529 -72.863)"/></svg>