<svg xmlns="http://www.w3.org/2000/svg" color-interpolation-filters="sRGB" preserveAspectRatio="xMidYMid" version="1.0" viewBox="0 0 166.94 104.27"><g stroke-width=".651"><path fill="#145e79" d="M103.301 36.077 79.722 12.648 67.786.784a9.424 9.424 0 0 0-3.775-.781c-5.746 0-10.419 5.272-10.543 11.819v28.291A12.151 12.151 0 0 0 65.462 52.42h33.042a11.623 11.623 0 0 0 6.508-10.361 11.324 11.324 0 0 0-1.711-5.98z" opacity=".8"/><path fill="#d9b504" d="M101.471 12.664H68.436a11.623 11.623 0 0 0-6.508 10.361 11.363 11.363 0 0 0 1.699 5.987l23.579 23.43 11.967 11.857a9.45 9.45 0 0 0 3.756.781c5.74 0 10.413-5.265 10.537-11.812V24.964a12.151 12.151 0 0 0-11.994-12.3z" opacity=".8"/><path fill="#145e79" d="M63.631 29.017 87.21 52.446h11.298a11.623 11.623 0 0 0 6.508-10.361 11.324 11.324 0 0 0-1.705-5.98l-23.579-23.43H68.44a11.623 11.623 0 0 0-6.508 10.354 11.363 11.363 0 0 0 1.698 5.987z" opacity=".5"/></g><path fill="#145e79" d="M95.277 162.87c4.59 0 8.64-3.56 8.64-9.18 0-4.428-3.211-7.88-7.37-8.532-.946-.104-1.86-.133-2.861 0-4.295.677-7.157 4.295-7.157 8.532 0 5.724 3.888 9.18 8.748 9.18zm-1.321-15.901a8.54 8.54 0 0 1 2.347 0c3.323.54 5.616 3.32 5.616 6.804 0 4.536-2.995 7.236-6.642 7.236-3.805 0-6.721-2.808-6.721-7.236 0-3.672 2.131-6.29 5.4-6.804zm15.685.162h4.943c3.132 0 4.888 2.243 4.914 4.457.054 2.052-1.43 4.158-5.022 4.158h-4.835zm4.835 10.368c4.726 0 6.937-2.671 6.937-5.911 0-3.107-2.185-6.21-6.855-6.21h-5.86c-.54 0-.998.374-.998.943v15.552c0 1.188 1.94 1.217 1.94-.025v-4.349zm12.445-2.563h10.156c1.13 0 1.08-1.728 0-1.728H126.92v-6.077h10.667c1.134 0 1.188-1.728.028-1.728h-11.394c-.76 0-1.242.54-1.242 1.16v14.824c0 .648.483 1.188 1.242 1.188h11.365c1.296 0 1.134-1.782 0-1.782H126.92zm27.49.673.27 4.075-10.397-13.903c-.674-.997-2.186-.781-2.186.569v15.469c0 1.35 2.052 1.321 2.052 0v-9.53l-.216-3.725 10.098 13.525c.566.943 2.43.81 2.43-.54V146.05c0-1.188-2.052-1.134-2.052 0zm28.59 3.888c.703-.997-.943-1.998-1.565-1.08-.57.727-1.38 1.379-2.214 1.81-1.026.512-2.135.782-3.132.782-3.726 0-6.887-3.132-6.887-7.236 0-3.913 2.35-6.264 5.67-6.775 2.376-.27 4.51.025 6.347 1.969.756.81 2.214-.299 1.404-1.213-2.135-2.243-4.886-3.024-8.046-2.596-4.158.652-7.316 4.162-7.316 8.59 0 5.346 4.155 9.122 8.774 9.122 1.296 0 2.754-.374 4.05-.972 1.162-.565 2.188-1.375 2.916-2.401zm14.556-3.157h-8.507l4.266-8.507zm.835 1.699 2.106 4.187c.511 1.051 2.509.374 1.81-.785l-8.128-15.984a.952.952 0 0 0-.864-.515c-.35 0-.727.166-.89.515l-8.157 16.067c-.482 1.076 1.3 1.778 1.786.781l2.185-4.266zm11.07 4.104c.457.947 1.433.781 1.807.083l7.78-15.743c.403-1.213-1.433-1.811-1.865-.702l-6.775 13.77-6.941-13.824c-.54-1.16-2.401-.403-1.89.756zm14.364-7.207h10.152c1.134 0 1.08-1.728 0-1.728h-10.152v-6.077h10.667c1.134 0 1.184-1.728.025-1.728h-11.394c-.756 0-1.242.54-1.242 1.16v14.824c0 .648.486 1.188 1.242 1.188h11.369c1.296 0 1.134-1.782 0-1.782h-10.667zm13.853 3.859c.889 3.24 5.101 4.187 7.855 4.187 3.323 0 7.938-1.271 7.938-5.404 0-4.05-3.967-4.237-7.668-4.561-3.132-.241-5.832-.486-5.832-2.833 0-2.459 3.51-3.186 5.32-3.186 1.945 0 4.832.349 5.642 2.401.407.918 2.243.432 1.836-.648-1.134-3.078-4.67-3.751-7.506-3.751-3.294 0-7.398 1.591-7.398 5.155 0 4.025 3.996 4.374 7.722 4.673 2.97.241 5.807.432 5.807 2.779 0 2.729-3.564 3.43-5.861 3.43-2.16 0-5.155-.489-5.857-2.728-.216-1.105-2.322-.702-1.998.486z" style="mix-blend-mode:normal" transform="translate(-86.529 -72.863)"/><path fill="#145e79" d="M101.11 177.14q-.74 0-1.36-.28-.62-.29-1.06-.83-.44-.53-.69-1.29t-.25-1.71.25-1.7.69-1.27 1.06-.8q.62-.28 1.36-.28.75 0 1.37.29.61.28 1.06.8t.7 1.27.25 1.69q0 .95-.25 1.71t-.7 1.29q-.45.54-1.06.83-.62.28-1.37.28zm0-.87q.53 0 .96-.23.42-.23.73-.65.31-.43.47-1.02.17-.6.17-1.34 0-.73-.17-1.32-.16-.59-.47-1t-.73-.63q-.43-.22-.96-.22-.52 0-.95.22-.43.22-.73.63-.31.41-.48 1-.16.59-.16 1.32 0 .74.16 1.34.17.59.48 1.02.3.42.73.65.43.23.95.23zm5.07.73v-7.87h2.41q.65 0 1.19.12t.92.39q.37.27.58.71.21.45.21 1.09 0 .63-.21 1.08-.21.46-.59.76t-.92.45q-.53.15-1.18.15h-1.42V177zm.99-3.94h1.3q1.03 0 1.53-.39t.5-1.23q0-.85-.51-1.18-.5-.33-1.52-.33h-1.3zm5.92 3.94v-7.87h4.54v.84h-3.54v2.47h2.98v.85h-2.98v2.86h3.66v.85zm6.32 0v-7.87h1.04l2.84 4.94.85 1.63h.05q-.04-.6-.08-1.24t-.04-1.26v-4.07h.95V177h-1.03l-2.86-4.96-.85-1.62h-.05q.05.6.09 1.22t.04 1.24V177zm10.19 0v-7.87h1.97q1.82 0 2.77 1.01.95 1 .95 2.89 0 .93-.24 1.67t-.71 1.25-1.15.78-1.57.27zm1-.82h.9q1.38 0 2.07-.82.69-.83.69-2.33t-.69-2.29q-.69-.8-2.07-.8h-.9zm7.25-2.38h2.36l-.37-1.2q-.22-.66-.41-1.32-.19-.65-.38-1.34H139q-.18.69-.37 1.34-.2.66-.41 1.32zm3.36 3.2-.75-2.4h-2.87l-.75 2.4h-1.02l2.66-7.87h1.13l2.66 7.87zm3.33 0v-7.03h-2.37v-.84h5.76v.84h-2.38V177zm5.31-3.2h2.36l-.37-1.2q-.22-.66-.41-1.32-.19-.65-.38-1.34H151q-.18.69-.37 1.34-.2.66-.41 1.32zm3.36 3.2-.75-2.4h-2.87l-.75 2.4h-1.02l2.66-7.87h1.13l2.66 7.87zm4.6 0v-7.87h4.54v.84h-3.54v2.66h3v.84h-3V177zm8.72.14q-.75 0-1.37-.28-.61-.29-1.06-.83-.44-.53-.69-1.29-.24-.76-.24-1.71t.24-1.7q.25-.75.69-1.27.45-.52 1.06-.8.62-.28 1.37-.28.74 0 1.36.29.62.28 1.07.8t.69 1.27q.25.75.25 1.69 0 .95-.25 1.71-.24.76-.69 1.29-.45.54-1.07.83-.62.28-1.36.28zm0-.87q.52 0 .95-.23t.73-.65q.31-.43.48-1.02.16-.6.16-1.34 0-.73-.16-1.32-.17-.59-.48-1-.3-.41-.73-.63t-.95-.22q-.53 0-.96.22-.42.22-.73.63t-.47 1q-.17.59-.17 1.32 0 .74.17 1.34.16.59.47 1.02.31.42.73.65.43.23.96.23zm6.06-6.34v2.93h1.32q.92 0 1.41-.38t.49-1.14q0-.78-.49-1.1-.49-.31-1.41-.31zm4.45 7.07h-1.13l-1.9-3.32h-1.42V177h-1v-7.87h2.46q.6 0 1.11.11.51.12.88.38.36.26.57.68.2.42.2 1.04 0 .92-.48 1.47t-1.28.76zm3.49-3.94q0-.94.26-1.7.27-.76.74-1.28.46-.53 1.11-.81.64-.29 1.39-.29.72 0 1.26.3.54.29.89.68l-.56.63q-.31-.33-.69-.53t-.88-.2q-.57 0-1.02.22-.46.22-.78.64-.33.41-.51 1t-.18 1.32q0 .74.18 1.34.17.59.48 1.01t.76.65 1.02.23 1-.23.81-.65l.56.61q-.46.54-1.05.84t-1.35.3q-.74 0-1.37-.27-.63-.28-1.09-.8t-.72-1.28q-.26-.77-.26-1.73zm8.29.74h2.37l-.38-1.2q-.21-.66-.4-1.32-.2-.65-.39-1.34h-.05q-.18.69-.37 1.34-.19.66-.41 1.32zm3.36 3.2-.74-2.4h-2.87l-.76 2.4h-1.02l2.67-7.87h1.13l2.66 7.87zm3.46 0-2.52-7.87h1.07l1.26 4.25q.21.7.37 1.3.17.6.39 1.3h.05q.22-.7.39-1.3.16-.6.37-1.3l1.26-4.25h1.02l-2.5 7.87zm4.74 0v-7.87h4.53v.84h-3.54v2.47h2.99v.85h-2.99v2.86h3.66v.85zm8.75 0v-7.87h1.96q1.83 0 2.78 1.01.94 1 .94 2.89 0 .93-.24 1.67t-.7 1.25q-.47.51-1.16.78-.68.27-1.57.27zm.99-.82h.9q1.38 0 2.07-.82.69-.83.69-2.33t-.69-2.29q-.69-.8-2.07-.8h-.9zm6.39.82v-7.87h.99V177zm4.59 0-2.52-7.87h1.07l1.26 4.25q.22.7.38 1.3t.39 1.3h.05q.21-.7.38-1.3t.37-1.3l1.26-4.25h1.02l-2.49 7.87zm4.74 0v-7.87h1V177zm3.16 0v-7.87h1.03l2.84 4.94.86 1.63h.04q-.03-.6-.07-1.24-.05-.64-.05-1.26v-4.07h.95V177h-1.03l-2.86-4.96-.85-1.62h-.05q.05.6.09 1.22.05.62.05 1.24V177zm7.31-3.94q0-.94.27-1.7t.75-1.28q.49-.53 1.15-.81.66-.29 1.45-.29.82 0 1.36.31.55.31.9.67l-.57.63q-.3-.31-.69-.52t-.99-.21-1.08.22-.81.64q-.34.41-.53 1-.18.59-.18 1.32 0 .74.17 1.34.18.59.51 1.01t.81.65q.49.23 1.12.23.42 0 .8-.13.38-.12.62-.34v-2.05h-1.67v-.83h2.58v3.31q-.38.4-1.01.66-.63.25-1.42.25-.78 0-1.43-.27-.65-.28-1.12-.8t-.73-1.28q-.26-.77-.26-1.73zm-144.767-.49h3.206v1h-3.206zm153.737 0h3.206v1h-3.206z" style="mix-blend-mode:normal" transform="translate(-86.545 -72.866)"/></svg>