<svg xmlns="http://www.w3.org/2000/svg" viewBox="-0.002 0 24 24"><g stroke-width=".195"><path fill="#145e79" d="m17.948 13.06-7.074-7.029-3.58-3.559a2.827 2.827 0 0 0-1.133-.234c-1.724 0-3.125 1.581-3.163 3.545v8.488a3.645 3.645 0 0 0 3.599 3.692h9.912a3.487 3.487 0 0 0 1.953-3.109 3.397 3.397 0 0 0-.514-1.794z"/><path fill="#d9b504" d="M17.4 6.037H7.49a3.487 3.487 0 0 0-1.953 3.109 3.409 3.409 0 0 0 .51 1.796l7.073 7.029 3.59 3.557a2.835 2.835 0 0 0 1.127.234c1.722 0 3.124-1.58 3.161-3.544v-8.49a3.645 3.645 0 0 0-3.598-3.69z"/><path fill="#fff" d="m6.046 10.942 7.074 7.029h3.39a3.487 3.487 0 0 0 1.952-3.109 3.397 3.397 0 0 0-.512-1.794L10.877 6.04H7.489a3.487 3.487 0 0 0-1.952 3.107 3.409 3.409 0 0 0 .51 1.796z" opacity=".5"/></g></svg>