<svg version="1.1" viewBox="-.0015623 -2.7662e-5 92.193 100" xmlns="http://www.w3.org/2000/svg"><g fill="#fff"><path class="path-1" d="M76.57 55.43l-36.23-36L22 1.2A14.48 14.48 0 0 0 16.2 0C7.37 0 .19 8.1 0 18.16v43.47a18.67 18.67 0 0 0 18.43 18.91H69.2a17.86 17.86 0 0 0 10-15.92 17.4 17.4 0 0 0-2.63-9.19z" opacity=".8"/><path class="path-2" d="M73.76 19.46H23a17.86 17.86 0 0 0-10 15.92 17.46 17.46 0 0 0 2.61 9.2l36.23 36L70.23 98.8A14.52 14.52 0 0 0 76 100c8.82 0 16-8.09 16.19-18.15V38.36a18.67 18.67 0 0 0-18.43-18.9z" opacity=".8"/><path class="path-3" d="M15.61 44.58l36.23 36H69.2a17.86 17.86 0 0 0 10-15.92 17.4 17.4 0 0 0-2.62-9.19l-36.23-36H23a17.86 17.86 0 0 0-10 15.91 17.46 17.46 0 0 0 2.61 9.2z" opacity=".5"/></g></svg>
