<svg xmlns="http://www.w3.org/2000/svg" height="48" viewBox="0 -960 960 960" width="48"><path d="M257-212q-69 0-117-47.959T92-378.747Q92-445.5 142-495t114-49q7.148-86.786 71.909-145.393Q392.67-748 481-748q94.929 0 158.964 66.443Q704-615.114 704-521.5v60.5h32q55.5-2.5 93.75 33.375Q868-391.749 868-337.019q0 51.706-35.5 88.362Q797-212 745.5-212h-222q-22.775 0-38.388-15.878Q469.5-243.756 469.5-266v-256.5l-96.5 97-15.5-14.5L480-563l123 123-15.5 14.5-96-97V-266q0 12 9.75 22t22.25 10h219.92q41.95 0 72.265-29.952Q846-293.904 846-336.412q0-42.088-30-72.179-30-30.09-73.353-30.09H682V-521q0-84.02-58.949-144.51Q564.101-726 479.673-726q-84.428 0-143.905 60.49-59.476 60.49-59.476 144.51h-22.164q-55.628 0-97.878 42.25T114-376.515q0 57.985 42.129 100.25Q198.257-234 257-234h112.5v22H257Zm223-257.5Z"/></svg>