<svg xmlns="http://www.w3.org/2000/svg" width="48" height="48" viewBox="0 96 960 960">
  <defs>
    <clipPath id="a">
      <path d="M52.164 135.42h847.79v841.8H52.164zm-118.92-77.033v1087.4h1110.4V58.387zm186.76 117.62v800h720v-800z" class="powerclip" />
    </clipPath>
  </defs>
  <path fill="none" stroke="currentColor" stroke-linecap="square" stroke-width="60" d="M101.25 765.38c32.573-22.006 77.301-77.878 117.54-40.835 25.339 47.382 9.945 119.18 42.001 148.33 30.381 41.087 80.998 52.183 127.75 63.305 56.168 11.072 134.38 7.143 170.33-14.354 23.346-20.924 70.066-48.669 106.28-16.273 33.343 21.655 87.817 38.895 117.7 2.963 32.169-49.178 7.258-128.36-53.724-140.02-38.617-7.884-78.425-35.443-85.843-64.912-14.296-46.325-14.013-71.4 13.646-109.59 32.519-25.365 82.045-13.84 109.28-56.4 10.947-27.864-49.287-156.99-26.272-179.25 18.135-10.748 73.88-17.688 103.19-23.371m-542.42-127.47c100.33-9.488 293.07 4.518 391.3 26.369 36.967 17.657 84.253 25.595 117.52-4.288 17.114-13.143 31.15-29.832 43.599-47.34m-548.77 141.25c99.747-12.495 258.17 11.15 299.41 36.903 18.28 11.415-12.428 90.46-28.352 110.71-14.914 14.111-50.554 2.264-96.869 25.272-23.197 23.801-54.814 51.445-35.068 82.699 19.746 31.254 68.6 76.093 68.215 87.471-.659 29.489.34 52.68-4.086 94.075-21.172 43.088-103.03 47.615-128.19 36.036-19.588-26.411-17.622-102.51-25.49-141.51-16.513-46.272-50.237-109.05-82.163-134.02-38.668-12.572-74.09 6.712-107.04 35.697-22.264 17.472-39.69 53.578-73.329 58.757" clip-path="url(#a)" />
</svg>