<svg width="48" height="48" aria-hidden="true" focusable="false" version="1.1" viewBox="0 96 960 960" xmlns="http://www.w3.org/2000/svg"><defs><clipPath id="clipPath2152"><path d="m-66.758 58.383v1087.4h1110.4v-1087.4zm186.76 117.62h720v800h-720z" display="none" fill="#0008ff"/><path class="powerclip" d="m40.713 121.47h873.19v865.75h-873.19zm-107.47-63.088v1087.4h1110.4v-1087.4zm186.76 117.62v800h720v-800z" fill="#0008ff"/></clipPath></defs><path d="m101.25 765.38c32.573-22.006 77.301-77.878 117.54-40.835 25.339 47.382 9.9448 119.18 42.001 148.33 30.381 41.087 80.998 52.183 127.75 63.305 56.168 11.072 134.38 7.1425 170.33-14.354 23.346-20.924 70.066-48.669 106.28-16.273 33.343 21.655 87.817 38.895 117.7 2.963 32.169-49.178 7.2582-128.36-53.724-140.02-38.617-7.884-78.425-35.443-85.843-64.912-14.296-46.325-14.013-71.4 13.646-109.59 32.519-25.365 82.045-13.84 109.28-56.4 10.947-27.864-49.287-156.99-26.272-179.25 18.135-10.748 73.88-17.688 103.19-23.371m-542.42-127.47c100.33-9.4875 293.07 4.5185 391.3 26.369 36.967 17.657 84.253 25.595 117.52-4.288 17.114-13.143 31.15-29.832 43.599-47.34m-548.77 141.25c99.747-12.495 258.17 11.15 299.41 36.903 18.28 11.415-12.428 90.46-28.352 110.71-14.914 14.111-50.554 2.2636-96.869 25.272-23.197 23.801-54.814 51.445-35.068 82.699 19.746 31.254 68.6 76.093 68.215 87.471-0.65879 29.489 0.34077 52.68-4.0856 94.075-21.172 43.088-103.03 47.615-128.19 36.036-19.588-26.411-17.622-102.51-25.491-141.51-16.512-46.272-50.236-109.05-82.162-134.02-38.668-12.572-74.091 6.7121-107.04 35.697-22.264 17.472-39.69 53.578-73.329 58.757" clip-path="url(#clipPath2152)" fill="none" stroke="currentColor" stroke-linecap="square" stroke-width="76"/><path d="m120 176h720v800h-720z" display="none" fill="none" stroke="#f00" stroke-linecap="square" stroke-width="2"/></svg>
