<svg aria-hidden="true" focusable="false" version="1.1" viewBox="0 0 24 24" xmlns="http://www.w3.org/2000/svg"><path d="m12 2c-3.87 0-7 3.13-7 7 0 5.25 7 13 7 13s7-7.75 7-13c0-3.87-3.13-7-7-7zm-5 7c0.47716-2.9862 2.24-5 5-5s5 2.24 5 5c0 2.88-2.88 7.19-5 9.88-2.08-2.67-5.4772-6.8938-5-9.88z"/><path d="m9.9945 8.1653c-0.41679-0.17714-0.59393-0.69292-0.34385-1.068 0.50536-0.75022 1.3494-1.2973 2.4643-1.2973 1.2243 0 2.0631 0.55746 2.4903 1.2556 0.36469 0.59914 0.5783 1.7193 0.01563 2.5528-0.62519 0.92215-1.2243 1.2035-1.5473 1.7974-0.07815 0.14067-0.12504 0.25528-0.1563 0.48973-0.04689 0.38032-0.35948 0.67729-0.74502 0.67729-0.45326 0-0.82316-0.39074-0.77106-0.844 0.03126-0.2657 0.09377-0.54183 0.23966-0.80232 0.40116-0.72418 1.1722-1.1514 1.6203-1.7922 0.4741-0.67208 0.2084-1.9277-1.1358-1.9277-0.60956 0-1.0055 0.3178-1.2504 0.69813-0.18235 0.29696-0.56267 0.39074-0.88047 0.26049zm3.1676 6.4915c0 0.57309-0.46889 1.042-1.042 1.042-0.57309 0-1.042-0.46889-1.042-1.042s0.46889-1.042 1.042-1.042c0.57309 0 1.042 0.46889 1.042 1.042z" stroke-width=".52099"/><path d="m11.985 4c2.76 0 5 2.24 5 5 0 1.06-0.39 2.32-1 3.62l1.49 1.49c0.88-1.75 1.51-3.54 1.51-5.11 0-3.87-3.13-7-7-7-1.84 0-3.5 0.71-4.75 1.86l1.43 1.43c0.88-0.79 2.04-1.29 3.32-1.29zm0 2.5c-0.59 0-1.13 0.21-1.56 0.56l3.5 3.5c0.35-0.43 0.56-0.97 0.56-1.56 0-1.38-1.12-2.5-2.5-2.5zm-8.59-3.64-1.41 1.41 3.18 3.18c-0.11 0.5-0.18 1.02-0.18 1.55 0 5.25 7 13 7 13s1.67-1.85 3.38-4.35l3.35 3.35 1.41-1.41zm8.59 16.02c-2.01-2.58-4.8-6.74-4.98-9.59l6.92 6.92c-0.65 0.98-1.33 1.89-1.94 2.67z" display="none" fill="#f20a0a" fill-opacity=".49486"/></svg>
