<svg aria-hidden="true" focusable="false" version="1.1" viewBox="0 0 24 24" xmlns="http://www.w3.org/2000/svg"><path d="M12 2C8.13 2 5 5.13 5 9c0 5.25 7 13 7 13s7-7.75 7-13c0-3.87-3.13-7-7-7zM7 9c0-2.76 2.24-5 5-5s5 2.24 5 5c0 2.88-2.88 7.19-5 9.88C9.92 16.21 7 11.85 7 9z"/><path d="m9.6418 7.7613c-0.48195-0.20483-0.68678-0.80124-0.39761-1.235 0.58436-0.86751 1.5603-1.5001 2.8495-1.5001 1.4157 0 2.3856 0.64461 2.8796 1.4519 0.4217 0.6928 0.6687 1.988 0.01807 2.9519-0.72292 1.0663-1.4157 1.3916-1.7892 2.0784-0.09037 0.16266-0.14458 0.29519-0.18073 0.56629-0.05422 0.43978-0.41568 0.78317-0.86148 0.78317-0.52412 0-0.95185-0.45183-0.8916-0.97595 0.03615-0.30724 0.10844-0.62653 0.27712-0.92775 0.46388-0.83739 1.3555-1.3314 1.8736-2.0724 0.54822-0.77714 0.24098-2.229-1.3133-2.229-0.70485 0-1.1627 0.36749-1.4458 0.80726-0.21085 0.34339-0.65063 0.45183-1.0181 0.30122zm3.6628 7.5064c0 0.66268-0.54219 1.2049-1.2049 1.2049s-1.2049-0.54219-1.2049-1.2049c0-0.66268 0.54219-1.2049 1.2049-1.2049s1.2049 0.54219 1.2049 1.2049z" stroke-width=".60244"/></svg>
