<?xml version="1.0" encoding="UTF-8" standalone="no"?>
<svg
   height="48"
   viewBox="0 96 960 960"
   width="48"
   version="1.1"
   id="svg5272"
   sodipodi:docname="accessibilities.svg"
   inkscape:version="1.2.1 (9c6d41e410, 2022-07-14)"
   xml:space="preserve"
   xmlns:inkscape="http://www.inkscape.org/namespaces/inkscape"
   xmlns:sodipodi="http://sodipodi.sourceforge.net/DTD/sodipodi-0.dtd"
   xmlns="http://www.w3.org/2000/svg"
   xmlns:svg="http://www.w3.org/2000/svg"><defs
     id="defs5276"><inkscape:perspective
       sodipodi:type="inkscape:persp3d"
       inkscape:vp_x="0 : 0.5 : 1"
       inkscape:vp_y="0 : 1000 : 0"
       inkscape:vp_z="1 : 0.5 : 1"
       inkscape:persp3d-origin="0.5 : 0.33333 : 1"
       id="perspective17632" /><clipPath
       clipPathUnits="userSpaceOnUse"
       id="clipPath17642"><path
         d="M -2,710 H 499 V -1 H -2 Z"
         id="path17644"
         inkscape:connector-curvature="0" /></clipPath><clipPath
       clipPathUnits="userSpaceOnUse"
       id="clipPath17648"><path
         d="M 0,708.06 H 498 V 0.06 H 0 Z"
         id="path17650"
         inkscape:connector-curvature="0" /></clipPath><clipPath
       clipPathUnits="userSpaceOnUse"
       id="clipPath17798"><path
         d="M -2,710 H 499 V -1 H -2 Z"
         id="path17800"
         inkscape:connector-curvature="0" /></clipPath><clipPath
       clipPathUnits="userSpaceOnUse"
       id="clipPath17804"><path
         d="M 0,708.06 H 498 V 0.06 H 0 Z"
         id="path17806"
         inkscape:connector-curvature="0" /></clipPath><clipPath
       id="Clip0"><path
         inkscape:connector-curvature="0"
         d="M 0,0 H 212.597 V 269.292 H 0 Z"
         transform="translate(0.923828,0.879883)"
         id="path7" /></clipPath><inkscape:perspective
       sodipodi:type="inkscape:persp3d"
       inkscape:vp_x="0 : -479.5 : 1"
       inkscape:vp_y="0 : 1000 : 0"
       inkscape:vp_z="1 : -479.5 : 1"
       inkscape:persp3d-origin="0.5 : -479.66667 : 1"
       id="perspective17632-3" /><clipPath
       clipPathUnits="userSpaceOnUse"
       id="clipPath17642-0"><path
         d="M -2,710 H 499 V -1 H -2 Z"
         id="path17644-1"
         inkscape:connector-curvature="0" /></clipPath><clipPath
       clipPathUnits="userSpaceOnUse"
       id="clipPath17648-7"><path
         d="M 0,708.06 H 498 V 0.06 H 0 Z"
         id="path17650-8"
         inkscape:connector-curvature="0" /></clipPath><clipPath
       clipPathUnits="userSpaceOnUse"
       id="clipPath17798-5"><path
         d="M -2,710 H 499 V -1 H -2 Z"
         id="path17800-5"
         inkscape:connector-curvature="0" /></clipPath><clipPath
       clipPathUnits="userSpaceOnUse"
       id="clipPath17804-4"><path
         d="M 0,708.06 H 498 V 0.06 H 0 Z"
         id="path17806-0"
         inkscape:connector-curvature="0" /></clipPath><clipPath
       id="Clip0-1"><path
         inkscape:connector-curvature="0"
         d="M 0,0 H 212.597 V 269.292 H 0 Z"
         transform="translate(0.923828,0.879883)"
         id="path7-4" /></clipPath></defs><sodipodi:namedview
     id="namedview5274"
     pagecolor="#ffffff"
     bordercolor="#000000"
     borderopacity="0.25"
     inkscape:showpageshadow="2"
     inkscape:pageopacity="0.0"
     inkscape:pagecheckerboard="0"
     inkscape:deskcolor="#d1d1d1"
     showgrid="false"
     inkscape:zoom="26.0625"
     inkscape:cx="14.503597"
     inkscape:cy="23.980815"
     inkscape:window-width="3840"
     inkscape:window-height="2066"
     inkscape:window-x="-11"
     inkscape:window-y="-11"
     inkscape:window-maximized="1"
     inkscape:current-layer="g1049" /><g
     id="g3210"
     inkscape:label="OLD"
     style="display:none"><path
       d="M 409.20003,685.20004 291.60002,567.60003 q -10.8,-10.8 -26.4,-10.8 -15.6,0 -27.60001,12 -10.8,10.8 -10.8,26.4 0,15.6 10.8,26.4 l 146.40001,147.60001 q 10.8,10.8 25.20001,10.8 14.4,0 25.2,-10.8 L 721.20005,482.40002 q 12,-12 12,-27.6 0,-15.6 -12,-27.6 -12.00001,-10.8 -28.20001,-10.2 -16.2,0.6 -27,11.4 z m 70.8,370.80006 q -98.40001,0 -186.00001,-37.8 Q 206.40001,980.40007 141.00001,915.00005 75.600005,849.60005 37.800002,762.00004 0,674.40004 0,576.00003 0,476.40002 37.800002,388.80002 75.600005,301.20001 141.00001,236.40001 206.40001,171.6 294.00002,133.8 381.60002,96 480.00003,96 q 99.60001,0 187.20001,37.8 87.60001,37.8 152.40001,102.60001 64.80001,64.8 102.60001,152.40001 Q 960,476.40002 960,576.00003 q 0,98.40001 -37.79994,186.00001 -37.8,87.60001 -102.60001,153.00001 -64.8,65.40002 -152.40001,103.20005 -87.6,37.8 -187.20001,37.8 z m 0,-72.00003 q 170.40001,0 289.20002,-119.40002 118.80001,-119.40001 118.80001,-288.60002 0,-170.40001 -118.80001,-289.20002 Q 650.40004,168 480.00003,168 310.80002,168 191.40001,286.80001 72.000005,405.60002 72.000005,576.00003 q 0,169.20001 119.400005,288.60002 119.40001,119.40002 288.60002,119.40002 z m 0,-408.00004 z"
       id="path3207"
       style="display:inline;opacity:0.344523;stroke-width:1.2"
       inkscape:label="yes" /><path
       d="M 601.91077,983.85918 220.42448,873.22529 v 65.80262 H 0 V 515.69708 h 338.98139 l 302.91282,113.0572 c 18.70312,6.83455 34.67234,18.32954 47.90767,34.48495 13.23451,16.15541 19.85177,39.95355 19.85177,71.39441 h 151.64482 c 29.88671,0 53.80884,10.87744 71.76639,32.63232 C 951.02162,789.02165 960,818.47015 960,855.61144 v 18.45353 z M 54.988589,884.03811 H 164.22423 V 570.68688 H 54.988589 Z m 542.540831,42.87445 305.52393,-93.11093 c -3.29328,-15.34764 -8.41939,-26.54778 -15.37834,-33.60043 -6.95895,-7.05265 -15.75113,-10.57897 -26.37654,-10.57897 H 617.94219 c -22.67978,0 -44.62933,-1.53759 -65.84866,-4.61278 -21.21933,-3.07599 -40.34169,-7.28568 -57.36707,-12.62909 l -99.5424,-30.75789 21.99519,-53.96474 87.98562,30.01272 c 19.57229,6.46217 38.91193,10.90491 58.01894,13.32822 19.10701,2.42331 48.4509,3.63497 88.03167,3.63497 0,-12.48975 -2.12807,-23.53481 -6.38422,-33.13516 -4.25615,-9.59955 -11.29304,-16.41875 -21.11068,-20.4576 L 330.5931,570.68688 H 220.42448 v 244.38013 z"
       id="path3731"
       style="display:inline;stroke-width:1.21166"
       sodipodi:nodetypes="cccccccccscscccccccccssscccccsccccccc"
       inkscape:label="hand" /><path
       d="m 305.97338,611.97442 q -14.74135,0 -25.42546,-10.54896 -10.68412,-10.54813 -10.68412,-25.29031 0,-14.74135 10.54896,-25.42546 10.54812,-10.6841 25.29031,-10.6841 14.74135,0 25.42545,10.54894 10.68413,10.54815 10.68413,25.29031 0,14.74137 -10.54896,25.42548 -10.54813,10.6841 -25.29031,10.6841 z m -0.13526,129.86365 q -69.09893,0 -117.46894,-48.3252 -48.36916,-48.32605 -48.36916,-117.36279 0,-69.03672 48.36916,-117.51286 48.37001,-48.4753 117.46894,-48.4753 52.68593,0 93.95391,28.19248 41.26797,28.19247 59.31861,77.75235 h 297.99864 q 4.0597,0 8.0257,1.65837 3.9652,1.6584 7.432,5.12523 l 40.6503,40.6494 q 3.466,3.46685 5.1244,7.47434 1.6583,4.0083 1.6583,8.81263 0,4.80516 -1.7537,8.71727 -1.7546,3.9121 -5.3201,7.65096 l -69.7855,64.51018 q -2.4776,3.37482 -6.4055,5.00415 -3.9279,1.62938 -8.0738,1.62938 -4.1459,0 -7.5581,-0.82922 -3.4129,-0.82917 -6.9204,-3.31675 l -45.0955,-33.16763 -50.3891,35.91059 q -3.4295,2.48758 -6.78608,2.99753 -3.35572,0.51076 -6.86405,0.51076 -3.50829,0 -6.9204,-0.92537 -3.41295,-0.92456 -6.09126,-2.77446 l -41.52334,-29.85086 h -91.40251 q -16.26457,45.9247 -57.11796,75.93476 -40.85419,30.01006 -96.15456,30.01006 z m 0,-25.51333 q 49.36834,0 86.49118,-31.2862 37.12201,-31.2862 47.33102,-74.65865 h 120.16544 l 46.05159,33.48603 h -0.31926 0.41461 -0.0954 l 64.03918,-45.22237 57.7879,43.75554 h -0.095 0.095 v -0.31923 0.31923 l 65.3784,-63.59228 0.096,0.41459 -0.096,-0.41459 h 0.096 -0.096 l -37.1857,-37.18669 H 439.78481 Q 430.4722,499.65063 393.6661,467.66296 356.85997,435.6753 306.00488,435.6753 q -58.52925,0 -99.5103,40.8799 -40.98106,40.87909 -40.98106,99.34282 0,58.46457 40.90974,99.44564 40.90895,40.98108 99.41497,40.98108 z"
       id="path5270"
       style="display:inline;stroke-width:0.829191"
       inkscape:label="key" /></g><g
     id="g17634"
     inkscape:label="diamond background OLD"
     transform="matrix(4.9163502,0,0,-4.9163502,2092.9424,1829.492)"
     style="display:none"><path
       inkscape:connector-curvature="0"
       style="display:none;fill:#ffd520;fill-opacity:1;fill-rule:evenodd;stroke:none"
       d="m -333.2615,159.49361 -90.28804,90.288 c -1.43946,1.439 -2.16016,3.3111 -2.16016,5.1832 0,1.8721 0.7207,3.7441 2.16016,5.1836 l 90.28804,90.28804 c 1.4404,1.44043 3.3115,2.16016 5.1836,2.16016 1.8723,0 3.7442,-0.71973 5.1842,-2.16016 l 90.287,-90.28804 c 1.441,-1.4395 2.161,-3.3115 2.161,-5.1836 0,-1.8721 -0.72,-3.7442 -2.161,-5.1832 l -90.287,-90.288 c -1.44,-1.441 -3.3119,-2.16 -5.1842,-2.16 -1.8721,0 -3.7432,0.719 -5.1836,2.16 z"
       id="path11" /><path
       inkscape:connector-curvature="0"
       style="display:inline;fill:#000000;fill-rule:evenodd;stroke:none"
       d="m -332.38353,160.41285 c 2.3828,-2.382 6.229,-2.382 8.6114,0 l 90.26,90.26 c 2.376,2.3759 2.383,6.2362 0,8.6181 l -90.252,90.25293 c -2.3764,2.37597 -6.2502,2.37597 -8.6262,0 l -90.25296,-90.25293 c -2.38184,-2.3819 -2.37598,-6.2422 0,-8.6181 z"
       id="path13" /><path
       inkscape:connector-curvature="0"
       style="display:inline;fill:#ffd520;fill-opacity:1;fill-rule:evenodd;stroke:none"
       d="m -330.39238,162.41236 -90.25189,90.2578 c -1.26758,1.2682 -1.27441,3.3424 0,4.6188 l 90.25779,90.25882 c 1.2734,1.26758 3.3496,1.26758 4.6169,0 l 90.2579,-90.25882 c 1.275,-1.2764 1.275,-3.3506 0,-4.6188 l -90.2579,-90.2578 c -1.2731,-1.277 -3.3435,-1.277 -4.6169,0 h -0.006 z"
       id="path15" /></g><g
     id="g7430"
     inkscape:label="diamond background"
     transform="matrix(4.9163502,0,0,-4.9163502,2092.9424,1829.492)"
     style="display:none"><path
       inkscape:connector-curvature="0"
       style="display:none;fill:#ffd520;fill-opacity:1;fill-rule:evenodd;stroke:none"
       d="m -333.2615,159.49361 -90.28804,90.288 c -1.43946,1.439 -2.16016,3.3111 -2.16016,5.1832 0,1.8721 0.7207,3.7441 2.16016,5.1836 l 90.28804,90.28804 c 1.4404,1.44043 3.3115,2.16016 5.1836,2.16016 1.8723,0 3.7442,-0.71973 5.1842,-2.16016 l 90.287,-90.28804 c 1.441,-1.4395 2.161,-3.3115 2.161,-5.1836 0,-1.8721 -0.72,-3.7442 -2.161,-5.1832 l -90.287,-90.288 c -1.44,-1.441 -3.3119,-2.16 -5.1842,-2.16 -1.8721,0 -3.7432,0.719 -5.1836,2.16 z"
       id="path7424" /><path
       inkscape:connector-curvature="0"
       style="display:none;fill:#000000;fill-rule:evenodd;stroke:none"
       d="m -332.38353,160.41285 c 2.3828,-2.382 6.229,-2.382 8.6114,0 l 90.26,90.26 c 2.376,2.3759 2.383,6.2362 0,8.6181 l -90.252,90.25293 c -2.3764,2.37597 -6.2502,2.37597 -8.6262,0 l -90.25296,-90.25293 c -2.38184,-2.3819 -2.37598,-6.2422 0,-8.6181 z"
       id="path7426" /><path
       inkscape:connector-curvature="0"
       style="display:inline;fill:none;fill-opacity:1;fill-rule:evenodd;stroke:#000000;stroke-width:3.92973;stroke-dasharray:none;stroke-opacity:1"
       d="m -330.44587,160.26144 -92.33344,92.33949 c -1.29681,1.29745 -1.3038,3.41949 0,4.72532 l 92.33948,92.34054 c 1.30277,1.29682 3.42685,1.29682 4.72338,0 l 92.33959,-92.34054 c 1.30442,-1.30583 1.30442,-3.42787 0,-4.72532 l -92.33959,-92.33949 c -1.30245,-1.30645 -3.42061,-1.30645 -4.72338,0 h -0.006 z"
       id="path7428" /></g><g
     id="g3344"
     inkscape:label="accessibilities"
     style="display:none"><path
       d="m 480,841.19372 q 16.77746,0 28.75067,-11.9718 11.97321,-11.97321 11.97321,-28.75067 0,-16.23534 -11.97321,-28.20856 -11.97321,-11.9718 -28.75067,-11.9718 -16.77746,0 -28.47961,11.9718 -11.70074,11.97322 -11.70074,28.20856 0,16.77746 11.70074,28.75067 11.70215,11.9718 28.47961,11.9718 z m 0.0183,-180.48759 q 13.99063,0 23.00336,-9.02685 9.01415,-9.02685 9.01415,-23.0076 V 328.50704 q 0,-13.98216 -9.0325,-23.00901 -9.0325,-9.02685 -23.02171,-9.02685 -13.99063,0 -23.00336,9.02685 -9.01415,9.02685 -9.01415,23.00901 v 300.16464 q 0,13.98075 9.0325,23.0076 9.0325,9.02685 23.02171,9.02685 z M 314.38963,1056 q -16.63911,0 -32.21092,-6.7878 -15.57181,-6.7878 -26.32384,-18.0819 L 24.869723,800.14513 Q 13.575572,789.3931 6.7877875,773.82129 0,758.24948 0,741.61037 V 410.38963 Q 0,393.75052 6.7877875,378.17871 13.575572,362.6069 24.869723,351.31275 L 255.85487,120.32619 Q 266.6069,109.57557 282.17871,102.78778 297.75052,96 314.38963,96 h 331.22074 q 16.63911,0 32.21092,6.78778 15.57181,6.78779 26.86596,17.53841 l 230.98656,230.98656 q 10.75062,11.29415 17.53841,26.86596 Q 960,393.75052 960,410.38963 v 331.22074 q 0,16.63911 -6.78778,32.21092 -6.78779,15.57181 -17.53841,26.32384 L 704.68725,1031.1303 q -11.29415,11.2941 -26.86596,18.0819 Q 662.24948,1056 645.61037,1056 Z m -7.60237,-64.07172 H 653.21274 L 895.92828,749.21274 V 402.78726 L 653.21274,160.07172 H 306.78726 L 64.071721,402.78726 V 749.21274 Z M 480,576 Z"
       id="path2146"
       inkscape:label="variable"
       style="display:inline;stroke-width:1.41177"
       fill="currentColor" /><path
       d="M 292.34132,817.31784 H 34.167286 q -19.817957,0 -29.7280857,-17.73954 -9.9089784,-17.73954 2.3004013,-34.1069 L 180.68444,512.78153 H 140.34 q -19.8191,0 -29.95007,-17.51871 -10.12982,-17.51871 2.07956,-34.32889 L 314.10541,173.83005 q 10.35181,-14.0681 27.87051,-14.0681 17.51871,0 27.87052,14.0681 L 480,330.8773 590.15356,173.83005 q 10.35181,-14.0681 27.87051,-14.0681 17.51871,0 27.87051,14.0681 l 201.63593,287.10388 q 12.20937,16.81018 2.07956,34.32889 -10.13097,17.51871 -29.95008,17.51871 H 780.46576 L 953.2604,765.4714 q 12.20938,16.36736 2.3004,34.1069 -9.90898,17.73954 -29.72809,17.73954 H 668.36605 v 125.28561 q 0,20.96815 -14.11181,35.3008 -14.11181,14.3338 -35.52279,14.3338 -20.52533,0 -35.43423,-14.9089 -14.90775,-14.90775 -14.90775,-35.43423 V 817.31784 H 392.3179 v 125.28561 q 0,20.96815 -14.11181,35.3008 -14.11181,14.3338 -35.52279,14.3338 -20.52533,0 -35.43423,-14.9089 -14.90775,-14.90775 -14.90775,-35.43423 z M 677.30081,765.11829 H 888.32007 L 679.33782,460.58082 h 99.71434 L 618.02407,231.60348 514.94769,379.36055 l 57.41917,81.57338 q 11.7677,16.81018 1.85872,34.32889 -9.91012,17.51871 -29.72808,17.51871 h -40.07989 z m -604.913508,0 H 612.27192 L 403.28967,460.58082 h 99.71434 L 341.97592,231.60348 180.94784,460.58082 h 100.42171 z m 0,0 H 281.36955 180.94784 503.00401 403.28967 612.27192 Z m 604.913508,0 h -172.8832 69.80797 -59.27789 264.10447 -99.71434 208.98225 z m -108.91134,52.19955 h 99.97658 z m 81.66079,0 z"
       id="path1574"
       inkscape:label="jungle"
       style="display:none;stroke-width:1.1502" /><path
       d="m 0.009175,599.85803 q 0,-11.17148 7.5740188,-21.34854 7.5740182,-10.17704 21.0174712,-15.38433 27.360743,-10.13029 52.165223,-28.02289 24.803242,-17.89384 68.353242,-17.89384 54.90979,0 84.73202,30.86345 29.82224,30.86345 79.71428,30.86345 49.89326,0 80.70871,-30.86345 30.81668,-30.86345 85.72647,-30.86345 55.38362,0 85.3474,30.86345 29.96377,30.86345 80.32965,30.86345 49.89326,0 80.09334,-30.86345 30.2013,-30.86345 85.11109,-30.86345 44.02261,0 68.59078,17.89384 24.56695,17.8926 51.92768,28.49673 13.44346,4.73345 21.01748,14.91049 7.57279,10.17706 7.57279,21.34854 0,11.26504 -7.76232,18.27045 -7.76356,7.00541 -17.98738,4.26085 -34.55569,-10.31982 -59.64447,-29.82224 -25.08755,-19.50242 -63.71456,-19.50242 -48.18868,0 -79.24166,30.86345 -31.05175,30.86345 -86.43538,30.86345 -54.91102,0 -85.49017,-30.86345 -30.57915,-30.86345 -79.71427,-30.86345 -48.66252,0 -80.09335,30.86345 -31.43081,30.86345 -86.34183,30.86345 -54.90979,0 -85.58371,-30.86345 -30.67391,-30.86345 -78.86259,-30.86345 -39.09961,0 -63.952089,19.50242 -24.851249,19.50242 -59.40694,29.82224 -10.223818,2.74456 -17.9873721,-4.26085 -7.76232315,-7.00541 -7.76232315,-18.27045 z m 0,191.23845 q 0,-11.1715 7.5740188,-21.34854 7.5740182,-10.17706 21.0174712,-15.38435 27.360743,-10.12905 52.165223,-28.02288 24.803242,-17.89261 68.353242,-17.89261 54.90979,0 84.73202,30.86345 29.82224,30.86222 79.71428,30.86222 49.89326,0 80.70871,-30.86222 30.81668,-30.86345 85.72647,-30.86345 55.38362,0 85.3474,30.86345 29.96377,30.86222 79.85704,30.86222 49.89203,0 80.32964,-30.86222 30.43761,-30.86345 85.3474,-30.86345 43.55,0 68.35324,17.89261 24.80449,17.89383 52.16522,28.02288 13.44346,5.20729 21.01748,15.38435 7.57279,10.17704 7.57279,21.34854 0,11.26502 -7.76232,18.27167 -7.76356,7.00541 -17.98738,4.25962 -34.55569,-10.31983 -59.64447,-29.82224 -25.08755,-19.50242 -63.71456,-19.50242 -48.18868,0 -79.24166,30.86344 -31.05175,30.86345 -86.43538,30.86345 -54.91102,0 -85.49017,-30.86345 -30.57915,-30.86344 -79.71427,-30.86344 -48.66252,0 -79.85704,30.86344 -31.19452,30.86345 -86.57814,30.86345 -54.90979,0 -85.58371,-30.86345 -30.67391,-30.86344 -78.86259,-30.86344 -39.09961,0 -63.952089,19.50242 -24.851249,19.50241 -59.40694,29.82224 -10.223818,2.74579 -17.9873721,-4.25962 -7.76232315,-7.00665 -7.76232315,-18.27167 z m 0,-383.89839 q 0,-11.17026 7.1014118,-20.63717 7.1001802,-9.46814 20.0697962,-14.2016 Q 55.961408,362.23028 80.292051,344.10013 104.62269,325.97 149.11913,325.97 q 54.90979,0 84.73202,30.86345 29.82224,30.86345 79.71428,30.86345 49.89326,0 80.70871,-30.86345 30.81668,-30.86345 85.72647,-30.86345 55.38362,0 85.3474,30.86345 29.96377,30.86345 80.32965,30.86345 49.89326,0 80.09334,-30.86345 30.2013,-30.86345 85.11109,-30.86345 44.02261,0 68.59078,17.89384 24.56695,17.8926 51.92768,28.49548 13.44346,4.73346 21.01748,14.91051 7.57279,10.17828 7.57279,21.34854 0,11.26626 -7.76232,18.27168 -7.76356,7.00541 -17.98738,4.25961 -34.55569,-10.31858 -59.64447,-29.821 -25.08755,-19.50243 -63.71456,-19.50243 -48.18868,0 -79.24166,30.86222 -31.05175,30.86345 -86.43538,30.86345 -54.91102,0 -85.49017,-30.86345 -30.57915,-30.86222 -79.71427,-30.86222 -48.66252,0 -80.09335,30.86222 -31.43081,30.86345 -86.34183,30.86345 -54.90979,0 -85.58371,-30.86345 -30.67391,-30.86222 -78.86259,-30.86222 -38.62701,0 -63.241948,19.26489 -24.614946,19.26612 -58.222962,29.58594 -10.697655,3.2184 -19.17135,-4.02331 -8.47246425,-7.24296 -8.47246425,-19.45566 z"
       id="path5114"
       style="display:none;stroke-width:1.23075"
       inkscape:label="sea"
       fill="currentColor" /><path
       d="m 314.38962,1056 q -16.3977,0 -32.09092,-6.7878 -15.69181,-6.7878 -26.44384,-18.082 L 24.869719,800.1451 Q 13.575569,789.39307 6.7877844,773.70126 0,758.00804 0,741.61034 V 410.38962 Q 0,393.99192 6.7877844,378.2987 13.575569,362.60689 24.869719,351.31274 L 255.85486,120.32619 Q 266.60689,109.57557 282.2987,102.78778 297.99192,96 314.38962,96 h 331.22072 q 16.3977,0 32.09092,6.78778 15.69181,6.78779 26.98596,17.53841 l 230.98655,230.98655 q 10.75062,11.29415 17.53845,26.98596 Q 960,393.99192 960,410.38962 v 331.22072 q 0,16.3977 -6.78778,32.09092 -6.78783,15.69181 -17.53845,26.44384 l -230.98655,230.9851 q -11.29415,11.2942 -26.98596,18.082 Q 662.00804,1056 645.61034,1056 Z m -7.60238,-64.07176 H 653.21272 L 895.92824,749.21272 V 402.78724 L 653.21272,160.07172 H 306.78724 L 64.071715,402.78724 V 749.21272 Z M 479.99998,621.17517 627.80229,768.97748 q 9.44756,9.44756 22.31583,9.44756 12.86827,0 22.85936,-9.44756 9.44756,-9.99109 9.44756,-22.5883 0,-12.59721 -9.44756,-22.58689 L 525.17517,575.99998 672.97748,428.19767 q 9.44756,-9.44756 9.44756,-22.31583 0,-12.86827 -9.44756,-22.85936 -9.99109,-9.44756 -22.5883,-9.44756 -12.59721,0 -22.58689,9.44756 L 479.99998,530.82479 332.19767,383.02248 q -9.44756,-9.44756 -22.31583,-9.44756 -12.86827,0 -22.85936,9.44756 -9.44756,9.99109 -9.44756,22.5883 0,12.59721 9.44756,22.58689 L 434.82479,575.99998 287.02248,723.80229 q -9.44756,9.44756 -9.44756,22.31583 0,12.86827 9.44756,22.85936 9.99109,9.44756 22.5883,9.44756 12.59721,0 22.58689,-9.44756 z m 0,-45.17519 z"
       id="path5312"
       style="display:none;stroke-width:1.41177"
       inkscape:label="not safe"
       fill="currentColor" /><path
       d="m 480.08461,1056 q -99.58257,0 -187.20554,-37.7938 Q 205.25485,980.4124 140.43826,915.62486 75.620407,850.83606 37.810203,763.25099 0,675.66719 0,576.08461 0,476.50204 37.793782,388.87907 75.587564,301.25485 140.3751,236.43826 205.1639,171.62041 292.74897,133.8102 380.33278,96 479.91535,96 q 99.58257,0 187.20554,37.79378 87.62422,37.79378 152.44081,102.58132 64.81786,64.7888 102.6281,152.37387 Q 960,476.33278 960,575.91535 960,675.49792 922.20622,763.12089 884.4124,850.74511 819.62486,915.5617 754.83606,980.37956 667.25099,1018.1898 579.66719,1056 480.08461,1056 Z m -0.0846,-57.32734 q 176.9272,0 299.79994,-122.87274 122.87274,-122.87274 122.87274,-299.79994 0,-77.57957 -27.49776,-148.78144 -27.49902,-71.20313 -77.44188,-129.79486 L 201.42368,893.73302 q 57.32857,51.20602 128.94097,78.07346 71.61366,26.86618 149.63533,26.86618 z M 163.04505,854.57628 758.57628,259.04505 q -57.62036,-51.20729 -129.22391,-78.46251 -71.60229,-27.25523 -149.35239,-27.25523 -176.92719,0 -299.79993,122.87274 -122.872744,122.87274 -122.872744,299.79993 0,78.02168 28.275863,149.63534 28.274601,71.61239 77.441881,128.94096 z"
       id="path5630"
       style="display:none;stroke-width:1.26316"
       inkscape:label="inaccessible"
       fill="currentColor" /></g><g
     id="g3340"
     inkscape:label="access"
     style="display:inline"><g
       id="g1049"
       inkscape:label="yes"
       fill="currentColor"
       style="display:inline"><circle
         style="display:inline;stroke-width:59.3202;stroke-linecap:square;stroke-dasharray:none;stroke-opacity:1;fill:none;stroke:currentColor"
         id="path540"
         cx="480"
         cy="576"
         r="450.3399"
         inkscape:label="round background" /><path
         d="M 409.20003,685.20004 291.60002,567.60003 c -7.2,-7.2 -16,-10.8 -26.4,-10.8 -10.4,0 -19.6,4 -27.60001,12 -7.2,7.2 -10.8,16 -10.8,26.4 0,10.4 3.6,19.2 10.8,26.4 l 146.40001,147.60001 c 7.2,7.2 15.6,10.8 25.20001,10.8 9.6,0 18,-3.6 25.2,-10.8 L 721.20005,482.40002 c 8,-8 12,-17.2 12,-27.6 0,-10.4 -4,-19.6 -12,-27.6 -8.00001,-7.2 -17.40001,-10.6 -28.20001,-10.2 -10.8,0.4 -19.8,4.2 -27,11.4 z"
         id="path2835"
         style="display:inline;opacity:1;stroke-width:1.2"
         inkscape:label="check"
         sodipodi:nodetypes="cssssccsssscssc" /></g><g
       id="g5476"
       inkscape:label="key"
       style="display:none"
       fill="currentColor"><path
         id="path3502"
         style="display:inline;stroke-width:1.20697"
         d="M 601.91077,983.85918 220.42448,873.22529 v 65.80262 H 0 V 515.69708 h 338.98139 l 302.91282,113.0572 c 18.70312,6.83455 34.67234,18.32954 47.90767,34.48495 13.23451,16.15541 19.85177,39.95355 19.85177,71.39441 h 151.64482 c 29.88671,0 53.80884,10.87744 71.76639,32.63232 C 951.02162,789.02165 960,818.47015 960,855.61144 v 18.45353 z M 54.988589,884.03811 H 164.22423 V 570.68688 H 54.988589 Z m 542.540831,42.87445 305.52393,-93.11093 c -3.29328,-15.34764 -8.41939,-26.54778 -15.37834,-33.60043 -6.95895,-7.05265 -15.75113,-10.57897 -26.37654,-10.57897 H 617.94219 c -22.67978,0 -44.62933,-1.53759 -65.84866,-4.61278 -21.21933,-3.07599 -40.34169,-7.28568 -57.36707,-12.62909 l -99.5424,-30.75789 21.99519,-53.96474 87.98562,30.01272 c 19.57229,6.46217 38.91193,10.90491 58.01894,13.32822 19.10701,2.42331 48.4509,3.63497 88.03167,3.63497 0,-12.48975 -2.12807,-23.53481 -6.38422,-33.13516 -4.25615,-9.59955 -11.29304,-16.41875 -21.11068,-20.4576 L 330.5931,570.68688 H 220.42448 v 244.38013 z"
         inkscape:label="hand"
         sodipodi:nodetypes="cccccccccscscccccccccssscccccsccccccc" /><path
         id="path5478"
         style="display:inline;stroke-width:1.10309"
         d="m 502.79368,380.45838 c -34.15746,0 -63.03296,-11.77104 -86.62651,-35.31312 -23.59356,-23.54281 -35.39034,-52.4981 -35.39034,-86.86588 0,-34.36777 11.79678,-63.33961 35.39034,-86.91552 C 439.76072,147.78795 468.63622,136 502.79368,136 c 29.18914,0 54.7723,9.57405 76.74946,28.72217 21.97644,19.14812 36.66993,42.94942 44.08046,71.40391 h 310.81566 c 7.09212,0 13.03665,2.48747 17.83362,7.46239 4.79769,4.97565 7.19653,10.97203 7.19653,17.98914 0,7.01637 -2.39884,12.87228 -7.19653,17.56776 -4.79697,4.69474 -10.7415,7.04211 -17.83362,7.04211 h -19.09332 v 69.24075 c 0,7.09212 -2.41944,13.03703 -7.25831,17.83472 -4.83888,4.79695 -10.83489,7.19543 -17.98804,7.19543 -7.15315,0 -13.07746,-2.39848 -17.77293,-7.19543 -4.69474,-4.79769 -7.04211,-10.7426 -7.04211,-17.83472 V 286.18748 H 623.6236 c -6.95753,27.83162 -21.6797,50.50152 -44.16649,68.00971 -22.48606,17.50746 -48.04053,26.26119 -76.66343,26.26119 z m 0.0585,-50.06139 c 20.22693,0 37.33727,-7.0149 51.33104,-21.04469 13.99376,-14.02979 20.99064,-31.15596 20.99064,-51.37847 0,-20.22253 -7.0149,-37.26374 -21.04469,-51.12366 -14.02906,-13.85919 -31.15522,-20.78878 -51.37848,-20.78878 -20.22251,0 -37.26374,6.97555 -51.12366,20.92666 -13.85918,13.9511 -20.78878,30.98019 -20.78878,51.08726 0,20.22693 6.97556,37.33728 20.92667,51.33104 13.9511,13.99376 30.9802,20.99064 51.08726,20.99064 z"
         inkscape:label="key"
         sodipodi:nodetypes="scsssccssssscscscscccsssssscsss" /></g><path
       d="m 268.6643,601.84557 h 422.67145 q 12.19456,0 20.42911,-8.30276 8.23455,-8.30402 8.23455,-20.59964 0,-12.29561 -8.23455,-20.35963 -8.23455,-8.06402 -20.42911,-8.06402 H 268.6643 q -12.19456,0 -20.42911,8.30276 -8.23455,8.30276 -8.23455,20.59837 0,12.29561 8.23455,20.3609 8.23455,8.06402 20.42911,8.06402 z m 211.75636,454.15453 q -99.7329,0 -186.81777,-37.7938 Q 206.51803,980.41248 141.06985,914.99336 75.620414,849.57297 37.810207,762.43253 0,675.29208 0,575.45308 0,476.09913 37.793786,388.677 75.587571,301.25487 141.00669,236.43827 206.42708,171.62041 293.56752,133.81021 380.70797,96 480.54697,96 q 99.35395,0 186.77608,37.79379 87.42213,37.79378 152.23873,102.58132 Q 884.37959,301.16392 922.18979,388.749 960,476.33281 960,575.57939 q 0,99.7329 -37.79379,186.81777 -37.79378,87.08486 -102.58127,152.30062 -64.78881,65.21575 -152.37389,103.25842 -87.58381,38.0439 -186.83039,38.0439 z m 0.21095,-57.32736 q 175.82194,0 298.93217,-123.49802 123.10891,-123.49801 123.10891,-299.80628 0,-175.82194 -122.8727,-298.93217 -122.87275,-123.10896 -299.79996,-123.10896 -175.67669,0 -299.1747,122.87275 -123.498018,122.87275 -123.498018,299.79997 0,175.67668 123.498018,299.17469 123.49801,123.49802 299.80628,123.49802 z m -0.63158,-422.67271 z"
       id="path3737"
       style="display:none;stroke-width:1.26316"
       inkscape:label="no"
       fill="currentColor" /><path
       d="m 177.42489,858.17001 h 286.34854 v -11.36846 q 0,-20.10952 -10.08634,-36.20977 -10.08634,-16.10152 -26.44807,-22.3807 -36.05694,-12.9234 -59.2751,-17.34446 -23.21943,-4.42107 -45.17823,-4.42107 -23.51501,0 -49.94034,5.4417 -26.42533,5.4417 -57.62289,16.32383 -17.62489,6.27918 -27.71123,22.3807 -10.08634,16.10025 -10.08634,36.20977 z m 436.5662,-83.17412 h 160.32547 q 10.94782,0 18.10489,-7.33139 7.15834,-7.33012 7.15834,-18.54194 0,-11.00087 -7.15834,-18.06952 -7.15707,-7.06865 -18.10489,-7.06865 H 613.99109 q -10.80129,0 -18.27415,7.26065 -7.47413,7.25939 -7.47413,18.36384 0,11.10319 7.47413,18.2451 7.47286,7.14191 18.27415,7.14191 z m -291.09171,-51.0115 q 25.84933,0 44.0578,-18.32342 18.20847,-18.32215 18.20847,-44.18538 0,-25.86322 -18.09479,-44.30032 -18.09352,-18.4371 -43.94285,-18.4371 -25.84933,0 -44.28643,18.30194 -18.43711,18.3032 -18.43711,44.44938 0,25.6207 18.32342,44.0578 18.32215,18.4371 44.17149,18.4371 z M 613.99109,645.3766 h 160.32547 q 10.94782,0 18.10489,-7.33012 7.15834,-7.33139 7.15834,-18.54194 0,-11.00214 -7.15834,-18.07079 -7.15707,-7.06865 -18.10489,-7.06865 H 613.99109 q -10.80129,0 -18.27415,7.26065 -7.47413,7.26065 -7.47413,18.36384 0,11.10445 7.47413,18.2451 7.47286,7.14191 18.27415,7.14191 z M 72.87556,1056 Q 43.15464,1056 21.57732,1034.4227 0,1012.8454 0,983.12444 V 421.5078 Q 0,391.78688 21.57732,370.20956 43.15464,348.63224 72.87556,348.63224 H 381.37742 V 153.32731 q 0,-22.70027 17.32679,-40.01316 Q 416.03099,96 439.2681,96 h 81.59895 q 23.23838,0 40.49695,17.31415 17.25858,17.31289 17.25858,40.01316 v 195.30493 h 308.50186 q 29.72092,0 51.29824,21.57732 Q 960,391.78688 960,421.5078 v 561.61664 q 0,29.72096 -21.57732,51.29826 Q 916.84536,1056 887.12444,1056 Z m 0,-57.32731 h 814.24888 q 6.80212,0 11.17519,-4.37306 4.37306,-4.37307 4.37306,-11.17519 V 421.5078 q 0,-6.80212 -4.37306,-11.17518 -4.37307,-4.37307 -11.17519,-4.37307 H 578.62258 v 47.12602 q 0,26.62365 -17.14994,41.97485 -17.14868,15.35246 -40.69527,15.35246 h -81.55474 q -23.54659,0 -40.69527,-15.35246 -17.14994,-15.3512 -17.14994,-41.97485 V 405.95955 H 72.87556 q -6.802123,0 -11.175187,4.37307 -4.373064,4.37306 -4.373064,11.17518 v 561.61664 q 0,6.80212 4.373064,11.17519 4.373064,4.37306 11.175187,4.37306 z M 438.70347,453.08557 h 82.59306 V 153.32731 H 438.70347 Z M 480,702.31612 Z"
       id="path3878"
       inkscape:label="customers"
       style="display:none;stroke-width:1.26316"
       fill="currentColor" /><path
       d="m 36.710131,994.60053 q -10.670368,0 -18.779799,-5.0146 Q 9.8196547,984.57258 5.3139998,976.36835 0.51645035,968.80778 0.03744385,959.34615 -0.44281006,949.88453 5.2366602,940.37051 L 449.17591,175.01043 q 5.58716,-8.87908 13.45584,-13.24503 7.86868,-4.36594 17.36773,-4.36594 9.49905,0 17.36773,4.36594 7.86868,4.36595 13.45584,13.24503 l 443.93923,765.36008 q 5.67947,9.51402 5.20046,18.97564 -0.48025,9.46163 -5.2778,17.0222 -4.50566,8.20423 -12.61633,13.21758 -8.10943,5.0146 -18.7798,5.0146 z m 35.67351,-56.61258 H 887.6153 L 479.99948,234.64051 Z M 483.77664,863.04714 q 13.35106,0 22.15405,-9.03126 8.80424,-9.03127 8.80424,-22.38108 0,-13.34982 -9.03127,-22.15405 -9.03126,-8.80299 -22.38107,-8.80299 -13.34982,0 -22.15406,9.03002 -8.80423,9.03127 -8.80423,22.38108 0,13.35106 9.03126,22.15405 9.03127,8.80424 22.38108,8.80423 z m 0.0175,-122.14915 q 12.13358,0 20.09706,-8.13812 7.96473,-8.13812 7.96473,-20.16817 V 497.4604 q 0,-12.03004 -8.20797,-20.16817 -8.20798,-8.13812 -20.34281,-8.13812 -12.13358,0 -20.09707,8.13812 -7.96473,8.13813 -7.96473,20.16817 v 215.1313 q 0,12.03005 8.20798,20.16817 8.20922,8.13812 20.34281,8.13812 z m -3.79463,-154.58313 z"
       id="path4067"
       inkscape:label="permission"
       style="display:none;stroke-width:1.24741"
       fill="currentColor" /><path
       d="m 485.1158,853.31062 q 16.74573,0 28.45524,-12.01392 11.70824,-12.01393 11.70824,-28.76092 0,-16.26067 -11.7714,-28.21144 -11.7714,-11.95203 -28.51839,-11.95203 -16.74573,0 -28.69776,12.01519 -11.95077,12.01392 -11.95077,28.2746 0,16.74699 12.01393,28.69776 12.01392,11.95076 28.76091,11.95076 z M 480.42063,1056 q -99.73289,0 -186.81775,-37.7938 Q 206.51802,980.41243 141.06984,914.99331 75.62041,849.57293 37.810205,762.43249 0,675.29205 0,575.45305 0,476.09911 37.793784,388.67698 75.587567,301.25486 141.00669,236.43826 206.42707,171.62041 293.56751,133.8102 380.70795,96 480.54695,96 q 99.35394,0 186.77607,37.79378 87.42212,37.79379 152.23872,102.58133 64.81785,64.7888 102.62806,152.37387 Q 960,476.33279 960,575.57937 960,675.31226 922.20622,762.39712 884.41243,849.48198 819.62489,914.69773 754.83609,979.91348 667.25102,1017.9561 579.66721,1056 480.42063,1056 Z m 0.21095,-57.32731 q 175.82194,0 298.93216,-123.49801 123.10895,-123.49801 123.10895,-299.80626 0,-175.82194 -122.87274,-298.93216 Q 656.9272,153.32731 480,153.32731 q -175.67667,0 -299.17468,122.87274 Q 57.327309,399.0728 57.327309,576 q 0,175.67667 123.498011,299.17468 123.49801,123.49801 299.80626,123.49801 z M 480,576 Z m 3.02148,-223.48227 q 39.63421,0 69.41576,24.20217 29.78156,24.2009 29.78156,61.69784 0,31.76851 -18.30826,55.82415 -18.307,24.05564 -41.7399,45.2237 -27.51165,23.62869 -48.05571,52.13824 -20.54279,28.50955 -22.00048,63.97533 -0.48631,10.97939 7.79244,17.48973 8.2775,6.51033 19.31627,6.51033 11.75624,0 19.5171,-7.67623 7.76086,-7.67623 9.6316,-19.43247 4.2758,-25.55502 19.72427,-46.54244 15.44972,-20.98869 36.21862,-38.294 29.3685,-25.64217 49.33655,-58.20899 19.96805,-32.56682 19.96805,-71.20566 0,-59.27132 -43.4818,-98.91563 -43.4818,-39.64305 -103.61459,-39.64305 -42.47379,0 -81.244,18.94741 -38.76894,18.94742 -63.83764,53.63509 -6.89812,9.71624 -5.9836,20.91164 0.9158,11.19413 9.21603,17.93057 12.02277,7.70023 24.0708,4.63959 12.04929,-3.06064 19.91879,-14.0413 17.07668,-22.61437 41.47842,-35.8902 24.40049,-13.27582 52.87972,-13.27582 z"
       id="path4260"
       style="display:none;stroke-width:1.26316"
       inkscape:label="unknown"
       fill="currentColor" /></g></svg>
