<?xml version="1.0" encoding="UTF-8" standalone="no"?>
<svg
   height="48"
   viewBox="0 96 2560 960"
   width="128"
   version="1.1"
   id="svg5272"
   sodipodi:docname="accessibilities.sidemount.svg"
   inkscape:version="1.2.1 (9c6d41e410, 2022-07-14)"
   xml:space="preserve"
   xmlns:inkscape="http://www.inkscape.org/namespaces/inkscape"
   xmlns:sodipodi="http://sodipodi.sourceforge.net/DTD/sodipodi-0.dtd"
   xmlns="http://www.w3.org/2000/svg"
   xmlns:svg="http://www.w3.org/2000/svg"><defs
     id="defs5276"><inkscape:perspective
       sodipodi:type="inkscape:persp3d"
       inkscape:vp_x="0 : 0.5 : 1"
       inkscape:vp_y="0 : 1000 : 0"
       inkscape:vp_z="1 : 0.5 : 1"
       inkscape:persp3d-origin="0.5 : 0.33333 : 1"
       id="perspective17632" /><clipPath
       clipPathUnits="userSpaceOnUse"
       id="clipPath17642"><path
         d="M -2,710 H 499 V -1 H -2 Z"
         id="path17644"
         inkscape:connector-curvature="0" /></clipPath><clipPath
       clipPathUnits="userSpaceOnUse"
       id="clipPath17648"><path
         d="M 0,708.06 H 498 V 0.06 H 0 Z"
         id="path17650"
         inkscape:connector-curvature="0" /></clipPath><clipPath
       clipPathUnits="userSpaceOnUse"
       id="clipPath17798"><path
         d="M -2,710 H 499 V -1 H -2 Z"
         id="path17800"
         inkscape:connector-curvature="0" /></clipPath><clipPath
       clipPathUnits="userSpaceOnUse"
       id="clipPath17804"><path
         d="M 0,708.06 H 498 V 0.06 H 0 Z"
         id="path17806"
         inkscape:connector-curvature="0" /></clipPath><clipPath
       id="Clip0"><path
         inkscape:connector-curvature="0"
         d="M 0,0 H 212.597 V 269.292 H 0 Z"
         transform="translate(0.923828,0.879883)"
         id="path7" /></clipPath><inkscape:perspective
       sodipodi:type="inkscape:persp3d"
       inkscape:vp_x="0 : -479.5 : 1"
       inkscape:vp_y="0 : 1000 : 0"
       inkscape:vp_z="1 : -479.5 : 1"
       inkscape:persp3d-origin="0.5 : -479.66667 : 1"
       id="perspective17632-3" /><clipPath
       clipPathUnits="userSpaceOnUse"
       id="clipPath17642-0"><path
         d="M -2,710 H 499 V -1 H -2 Z"
         id="path17644-1"
         inkscape:connector-curvature="0" /></clipPath><clipPath
       clipPathUnits="userSpaceOnUse"
       id="clipPath17648-7"><path
         d="M 0,708.06 H 498 V 0.06 H 0 Z"
         id="path17650-8"
         inkscape:connector-curvature="0" /></clipPath><clipPath
       clipPathUnits="userSpaceOnUse"
       id="clipPath17798-5"><path
         d="M -2,710 H 499 V -1 H -2 Z"
         id="path17800-5"
         inkscape:connector-curvature="0" /></clipPath><clipPath
       clipPathUnits="userSpaceOnUse"
       id="clipPath17804-4"><path
         d="M 0,708.06 H 498 V 0.06 H 0 Z"
         id="path17806-0"
         inkscape:connector-curvature="0" /></clipPath><clipPath
       id="Clip0-1"><path
         inkscape:connector-curvature="0"
         d="M 0,0 H 212.597 V 269.292 H 0 Z"
         transform="translate(0.923828,0.879883)"
         id="path7-4" /></clipPath></defs><sodipodi:namedview
     id="namedview5274"
     pagecolor="#ffffff"
     bordercolor="#000000"
     borderopacity="0.25"
     inkscape:showpageshadow="2"
     inkscape:pageopacity="0.0"
     inkscape:pagecheckerboard="0"
     inkscape:deskcolor="#d1d1d1"
     showgrid="false"
     inkscape:zoom="13.03125"
     inkscape:cx="19.491607"
     inkscape:cy="27.242206"
     inkscape:window-width="3840"
     inkscape:window-height="2066"
     inkscape:window-x="-11"
     inkscape:window-y="-11"
     inkscape:window-maximized="1"
     inkscape:current-layer="svg5272" /><g
     id="g3340"
     inkscape:label="access"
     style="display:none"
     transform="translate(800)"><path
       id="path3502"
       style="display:inline;stroke-width:1.20697"
       d="m 459.78677,403.47996 c -37.37419,0 -68.96901,-12.87956 -94.78446,-38.63869 -25.81545,-25.75993 -38.72318,-57.44205 -38.72318,-95.04637 0,-37.60432 12.90773,-69.30455 38.72318,-95.10069 C 390.81776,148.89807 422.41258,136 459.78677,136 c 31.938,0 59.93042,10.47568 83.97726,31.42705 24.04604,20.95137 40.12327,46.99413 48.23168,78.12829 h 340.08637 c 7.76001,0 14.26436,2.72172 19.51307,8.16515 5.24951,5.44423 7.87426,12.00531 7.87426,19.68324 0,7.67713 -2.62475,14.08452 -7.87426,19.22219 -5.24871,5.13686 -11.75306,7.70529 -19.51307,7.70529 h -20.89142 v 75.76142 c 0,7.76001 -2.64728,14.26477 -7.94185,19.51428 -5.29457,5.2487 -11.85525,7.87305 -19.68204,7.87305 -7.82679,0 -14.30902,-2.62435 -19.44668,-7.87305 -5.13686,-5.24951 -7.70529,-11.75427 -7.70529,-19.51428 V 300.33121 H 591.99571 c -7.61275,30.45263 -23.72136,55.25744 -48.32582,74.41445 -24.60365,19.1562 -52.56469,28.7343 -83.88312,28.7343 z m 0.064,-54.77586 c 22.13178,0 40.85347,-7.67552 56.16508,-23.02655 15.31161,-15.35103 22.96741,-34.09003 22.96741,-56.21698 0,-22.12696 -7.67552,-40.77301 -23.02655,-55.93817 -15.35023,-15.16436 -34.08922,-22.74654 -56.21698,-22.74654 -22.12695,0 -40.77301,7.63247 -55.93817,22.89741 -15.16436,15.26493 -22.74654,33.89771 -22.74654,55.89834 0,22.13178 7.63247,40.85347 22.89741,56.16508 15.26493,15.31161 33.89772,22.96741 55.89834,22.96741 z m 142.06,635.15508 -381.48629,-110.63389 v 65.80262 H 0 V 515.69708 h 338.98139 l 302.91282,113.0572 c 18.70312,6.83455 34.67234,18.32954 47.90767,34.48495 13.23451,16.15541 19.85177,39.95355 19.85177,71.39441 h 151.64482 c 29.88671,0 53.80884,10.87744 71.76639,32.63232 C 951.02162,789.02165 960,818.47015 960,855.61144 v 18.45353 z M 54.988589,884.03811 H 164.22423 V 570.68688 H 54.988589 Z m 542.540831,42.87445 305.52393,-93.11093 c -3.29328,-15.34764 -8.41939,-26.54778 -15.37834,-33.60043 -6.95895,-7.05265 -15.75113,-10.57897 -26.37654,-10.57897 H 617.94219 c -22.67978,0 -44.62933,-1.53759 -65.84866,-4.61278 -21.21933,-3.07599 -40.34169,-7.28568 -57.36707,-12.62909 l -99.5424,-30.75789 21.99519,-53.96474 87.98562,30.01272 c 19.57229,6.46217 38.91193,10.90491 58.01894,13.32822 19.10701,2.42331 48.4509,3.63497 88.03167,3.63497 0,-12.48975 -2.12807,-23.53481 -6.38422,-33.13516 -4.25615,-9.59955 -11.29304,-16.41875 -21.11068,-20.4576 L 330.5931,570.68688 H 220.42448 v 244.38013 z"
       inkscape:label="key" /></g><path
     id="path319"
     style="display:inline;stroke-width:0.224719"
     d="m 685.85399,601.51096 c -22.69663,-4.49438 -43.14606,-21.34831 -54.15731,-44.49439 -8.31461,-17.97755 -8.31461,-43.14609 0,-61.12364 8.08988,-17.30336 20.00001,-29.88765 35.95506,-37.75283 17.75282,-8.76403 33.25845,-10.56179 51.68543,-6.06742 35.28091,8.98877 58.65171,38.65172 58.65171,74.38206 0,35.28093 -23.3708,65.16859 -57.75283,74.15734 -14.60675,3.5955 -19.77531,3.82022 -34.38206,0.89888 z M 726.97762,577.466 c 10.56179,-5.39326 21.34831,-16.40451 27.19103,-27.41573 6.06742,-11.46068 5.61796,-36.40452 -0.67415,-48.31462 -22.92138,-43.1461 -82.02253,-43.1461 -103.14612,0.22464 -5.16856,10.78652 -5.84272,14.15732 -4.94383,27.86518 1.79776,24.49439 14.60675,42.02249 36.85395,50.56182 11.6854,4.49441 33.25845,3.14607 44.71912,-2.92135 z m 78.20227,-11.01125 c -2.69662,-0.44943 -7.64045,-4.04492 -10.78652,-7.64045 -5.39326,-6.51684 -5.61796,-8.08988 -5.61796,-37.30337 v -30.3371 l 6.51684,-6.51685 c 9.43821,-9.43822 22.2472,-9.21348 30.3371,0.44943 5.61799,6.74157 5.84269,7.86518 5.84269,37.75282 0,29.88766 -0.22464,31.236 -5.61796,37.07868 -2.92136,3.14607 -6.29214,5.84269 -7.64048,5.84269 -1.12358,0 -3.37077,0.44945 -5.16853,0.89888 -1.57303,0.44946 -5.16853,0.22464 -7.86518,-0.22465 z m 5.39326,-57.30338 c -0.44942,-7.86517 -0.67416,-2.02246 -0.67416,12.80898 0,14.83148 0.22465,21.12362 0.67416,14.15733 0.44946,-7.19103 0.44946,-19.32586 0,-26.96631 z M 263.38188,672.29751 c -33.25842,-8.76406 -40.00002,-17.52809 -88.08991,-112.58432 l -32.13484,-63.59554 h -21.57304 c -37.977558,0 -71.235998,-12.58428 -94.382078,-35.73036 -10.5618,-10.78652 -27.19102976,-36.17979 -27.19102976,-41.79775 0,-1.12362 34.15732976,-1.12362 75.95509976,-0.44946 84.044988,1.57304 93.258478,2.69665 120.898928,16.40451 25.61801,12.58429 37.5281,26.06743 59.32587,67.64048 10.11237,19.55059 21.79775,40.67417 25.8427,46.96632 6.74158,10.5618 8.31461,11.6854 17.97755,12.80899 5.84269,0.89888 81.12362,1.57303 167.1911,1.57303 h 156.40454 l 5.39327,12.58428 c 6.29214,14.38202 20.00001,29.43823 32.80901,35.73034 6.96631,3.59553 13.70787,4.49441 30.56182,4.49441 20.89889,0 22.24719,-0.22464 38.20225,-8.98878 l 16.62924,-8.98877 60.22472,-0.67415 c 67.86523,-0.89888 86.06743,0.89888 106.06753,10.78652 16.1797,7.86518 24.2696,15.95506 37.7528,37.75283 11.0112,17.75282 11.4607,24.04497 2.2472,27.64046 -3.1461,1.12358 -73.2585,2.02246 -165.61808,2.02246 h -160.2248 v -12.80898 c 0,-21.79777 -14.38202,-42.24721 -33.70788,-47.8652 -5.84272,-1.79776 -48.76407,-2.24719 -138.20233,-1.79776 l -129.43823,0.67418 -9.88765,6.96629 c -13.25844,9.66292 -22.0225,26.74158 -22.0225,42.69664 v 12.13483 l -9.43822,-0.22464 c -5.39325,0 -15.05617,-1.57303 -21.57304,-3.3708 z m 13.03372,-23.14608 c 0,-9.21348 14.15732,-32.13483 24.94384,-40.67417 20.67417,-16.17978 17.07867,-15.95505 164.04502,-15.2809 l 131.23601,0.67416 11.23598,6.06741 c 6.29214,3.14607 15.05618,9.88764 19.55055,14.60674 8.31463,8.76407 19.77531,30.11238 19.77531,37.30341 0,3.5955 8.31461,3.82022 142.69668,3.82022 85.61812,0 142.69662,-0.89888 142.69662,-2.02248 0,-6.06742 -15.955,-22.2472 -28.0898,-28.31463 l -13.2584,-6.74156 -67.86525,-0.67416 -68.08993,-0.67418 -19.55055,9.66295 c -19.55058,9.43821 -20.22473,9.66291 -43.59555,9.66291 -21.57304,0 -24.71911,-0.67416 -37.07867,-6.51684 -15.05618,-7.41575 -31.23596,-22.69665 -39.10114,-36.40452 l -5.16853,-9.21349 -159.10119,-1.34831 c -132.13492,-1.12361 -160.67425,-2.02246 -167.19109,-4.71911 -9.88765,-4.04495 -16.85395,-13.70787 -36.40453,-50.33711 l -15.50563,-29.2135 -32.58426,-0.89885 c -17.97755,-0.44946 -33.03372,-0.67418 -33.25845,-0.44946 -0.44943,0.22465 13.93259,29.88766 32.13484,66.06745 36.62925,72.35958 44.04497,82.69668 63.59555,88.53936 11.68537,3.37081 13.93257,2.92136 13.93257,-2.92134 z M 217.98861,476.11765 c 0,-3.5955 -19.10113,-19.55058 -29.4382,-24.49439 -22.47192,-10.78652 -31.46069,-12.13486 -94.831518,-13.25844 -59.77531,-1.12361 -60.44946,-1.12361 -57.97755,3.3708 3.14607,6.06741 22.02248,19.55055 35.0562,25.39327 20.00001,8.76403 35.505648,10.5618 92.809018,10.78652 29.88766,0.22465 54.38205,-0.67418 54.38205,-1.79776 z m 118.20231,254.83159 c -12.58428,-4.49439 -24.04496,-14.60676 -30.3371,-26.74161 -15.73033,-30.33708 3.14607,-68.31464 37.3034,-75.50563 7.191,-1.57304 51.46069,-2.24719 125.61805,-1.79776 112.80902,0.67415 114.60679,0.67415 123.59555,5.61798 10.78652,5.61796 22.69663,18.65167 26.9663,28.98877 4.49438,10.56179 3.82023,29.43822 -1.12361,40.44945 -2.24719,4.94383 -7.86515,12.80901 -12.58426,17.30338 C 590.12363,734.32 590.12363,734.32 460.91009,734.32 368.10104,734.09536 343.15722,733.42115 336.19092,730.94924 Z m 252.13495,-21.79777 c 16.4045,-10.11237 20.22473,-34.38204 7.86517,-49.21352 -11.46067,-13.70786 -7.64045,-13.25843 -134.38208,-13.25843 -127.19107,0 -126.29219,0 -135.95513,13.48317 -11.23595,15.73032 -7.191,38.20225 8.76406,48.76404 l 7.64045,5.16856 h 119.10118 c 117.97758,0 119.10117,0 126.96635,-4.94382 z"
     inkscape:label="sidemount"
     inkscape:export-filename="..\src\images\accessibilities\sidemount.svg"
     inkscape:export-xdpi="96"
     inkscape:export-ydpi="96"
     transform="matrix(2.6681324,0,0,2.6681324,-0.703597,-978.2083)"
     fill="currentColor" /></svg>
