<?xml version="1.0" encoding="UTF-8" standalone="no"?>
<svg
   width="48"
   height="48"
   viewBox="0 96 960 960"
   version="1.1"
   id="svg13"
   focusable="false"
   aria-hidden="true"
   sodipodi:docname="cave-system.svg"
   inkscape:version="1.2.1 (9c6d41e410, 2022-07-14)"
   xmlns:inkscape="http://www.inkscape.org/namespaces/inkscape"
   xmlns:sodipodi="http://sodipodi.sourceforge.net/DTD/sodipodi-0.dtd"
   xmlns="http://www.w3.org/2000/svg"
   xmlns:svg="http://www.w3.org/2000/svg">
  <sodipodi:namedview
     id="namedview15"
     pagecolor="#ffffff"
     bordercolor="#000000"
     borderopacity="0.25"
     inkscape:showpageshadow="2"
     inkscape:pageopacity="0.0"
     inkscape:pagecheckerboard="0"
     inkscape:deskcolor="#d1d1d1"
     showgrid="false"
     inkscape:zoom="26.0625"
     inkscape:cx="22.273381"
     inkscape:cy="24.095923"
     inkscape:window-width="3840"
     inkscape:window-height="2066"
     inkscape:window-x="-11"
     inkscape:window-y="-11"
     inkscape:window-maximized="1"
     inkscape:current-layer="svg13" />
  <defs
     id="defs5">
    <inkscape:path-effect
       effect="powerclip"
       id="path-effect2156"
       is_visible="true"
       lpeversion="1"
       inverse="true"
       flatten="false"
       hide_clip="false"
       message="Use fill-rule evenodd on &lt;b&gt;fill and stroke&lt;/b&gt; dialog if no flatten result after convert clip to paths." />
    <filter
       id="mask-powermask-path-effect2146_inverse"
       inkscape:label="filtermask-powermask-path-effect2146"
       style="color-interpolation-filters:sRGB"
       height="100"
       width="100"
       x="-50"
       y="-50">
      <feColorMatrix
         id="mask-powermask-path-effect2146_primitive1"
         values="1"
         type="saturate"
         result="fbSourceGraphic" />
      <feColorMatrix
         id="mask-powermask-path-effect2146_primitive2"
         values="-1 0 0 0 1 0 -1 0 0 1 0 0 -1 0 1 0 0 0 1 0 "
         in="fbSourceGraphic" />
    </filter>
    <clipPath
       clipPathUnits="userSpaceOnUse"
       id="clipPath2152">
      <path
         id="path2154"
         style="display:none;fill:#0008ff;fill-opacity:1;stroke:none;stroke-width:60;stroke-linecap:square;stroke-opacity:1"
         d="M -66.757812,58.382812 V 1145.7656 H 1043.6328 V 58.382812 Z M 120,176 H 840 V 976 H 120 Z"
         inkscape:label="cutout"
         sodipodi:nodetypes="cccccccccc" />
      <path
         id="lpe_path-effect2156"
         style="fill:#0008ff;fill-opacity:1;stroke:none;stroke-width:60;stroke-linecap:square;stroke-opacity:1"
         class="powerclip"
         d="M 40.712832,121.47105 H 913.89895 V 987.21937 H 40.712832 Z M -66.757812,58.382812 V 1145.7656 H 1043.6328 V 58.382812 Z M 120,176 V 976 H 840 V 176 Z"
         sodipodi:nodetypes="ccccccccccccccc" />
    </clipPath>
  </defs>
  <path
     id="path9"
     d="m 101.25,765.38 c 32.57316,-22.00586 77.30108,-77.87778 117.53579,-40.8351 25.3392,47.38235 9.94476,119.18262 42.00131,148.33357 30.38077,41.08738 80.99844,52.18343 127.75192,63.30536 56.16763,11.0715 134.37761,7.1425 170.33202,-14.35378 23.3465,-20.92415 70.06636,-48.66913 106.28093,-16.27319 33.34287,21.65491 87.81663,38.89546 117.6955,2.96295 32.16901,-49.1776 7.2582,-128.36345 -53.72432,-140.01814 -38.61722,-7.88405 -78.42462,-35.44327 -85.84287,-64.91161 -14.29583,-46.32541 -14.01253,-71.39997 13.64614,-109.58822 32.51935,-25.36532 82.04504,-13.84036 109.27567,-56.39985 C 777.14957,509.7377 716.9155,380.61522 739.93031,358.34958 758.06552,347.60154 813.81002,340.66168 843.117,334.97832 M 300.69844,207.5083 c 100.33139,-9.48748 293.06644,4.51846 391.29836,26.36929 36.96741,17.65697 84.25289,25.59504 117.52375,-4.28802 C 826.63436,216.44627 840.6705,199.75795 853.12,182.25 M 304.3464,323.49671 c 99.74656,-12.49544 258.16648,11.1498 299.40679,36.90261 18.28049,11.41538 -12.42804,90.46003 -28.35207,110.70766 -14.91412,14.11087 -50.55432,2.26359 -96.86912,25.27185 -23.19731,23.8008 -54.81414,51.44549 -35.06836,82.69925 19.74577,31.25376 68.59996,76.0926 68.21517,87.47116 -0.65879,29.48883 0.34077,52.68021 -4.08563,94.07507 -21.1718,43.0878 -103.02574,47.61504 -128.18866,36.03581 C 359.81637,770.2488 361.78268,694.15178 353.91323,655.14604 337.40135,608.87429 303.67739,546.10072 271.7516,521.1285 233.08318,508.55654 197.66074,527.84059 164.70845,556.82523 142.44441,574.2968 125.01829,610.40311 91.379,615.582"
     stroke="currentColor"
     style="display:inline;fill:none;stroke-width:76;stroke-linecap:square;stroke-dasharray:none"
     clip-path="url(#clipPath2152)"
     inkscape:path-effect="#path-effect2156"
     inkscape:original-d="m 101.25,765.38 c 32.57316,-22.00586 77.30108,-77.87778 117.53579,-40.8351 25.3392,47.38235 9.94476,119.18262 42.00131,148.33357 30.38077,41.08738 80.99844,52.18343 127.75192,63.30536 56.16763,11.0715 134.37761,7.1425 170.33202,-14.35378 23.3465,-20.92415 70.06636,-48.66913 106.28093,-16.27319 33.34287,21.65491 87.81663,38.89546 117.6955,2.96295 32.16901,-49.1776 7.2582,-128.36345 -53.72432,-140.01814 -38.61722,-7.88405 -78.42462,-35.44327 -85.84287,-64.91161 -14.29583,-46.32541 -14.01253,-71.39997 13.64614,-109.58822 32.51935,-25.36532 82.04504,-13.84036 109.27567,-56.39985 C 777.14957,509.7377 716.9155,380.61522 739.93031,358.34958 758.06552,347.60154 813.81002,340.66168 843.117,334.97832 M 300.69844,207.5083 c 100.33139,-9.48748 293.06644,4.51846 391.29836,26.36929 36.96741,17.65697 84.25289,25.59504 117.52375,-4.28802 C 826.63436,216.44627 840.6705,199.75795 853.12,182.25 M 304.3464,323.49671 c 99.74656,-12.49544 258.16648,11.1498 299.40679,36.90261 18.28049,11.41538 -12.42804,90.46003 -28.35207,110.70766 -14.91412,14.11087 -50.55432,2.26359 -96.86912,25.27185 -23.19731,23.8008 -54.81414,51.44549 -35.06836,82.69925 19.74577,31.25376 68.59996,76.0926 68.21517,87.47116 -0.65879,29.48883 0.34077,52.68021 -4.08563,94.07507 -21.1718,43.0878 -103.02574,47.61504 -128.18866,36.03581 C 359.81637,770.2488 361.78268,694.15178 353.91323,655.14604 337.40135,608.87429 303.67739,546.10072 271.7516,521.1285 233.08318,508.55654 197.66074,527.84059 164.70845,556.82523 142.44441,574.2968 125.01829,610.40311 91.379,615.582"
     sodipodi:nodetypes="ccccccccccccccscccsccsccccccc"
     inkscape:label="cave-map" />
  <path
     fill="none"
     stroke="#ff0000"
     stroke-linecap="square"
     stroke-width="2"
     d="M 120,176 H 840 V 976 H 120 Z"
     id="path2"
     style="display:none" />
</svg>
