<svg xmlns="http://www.w3.org/2000/svg" width="48" height="48" aria-hidden="true" viewBox="0 96 960 960"><defs><clipPath id="a" clipPathUnits="userSpaceOnUse"><path d="M43.04 124.26h868.07v860.958H43.04ZM-66.759 58.383v1087.383h1110.39V58.383ZM120 176v800h720V176Z" class="powerclip" style="fill:#0008ff;fill-opacity:1;stroke:none;stroke-width:60;stroke-linecap:square;stroke-opacity:1"/></clipPath></defs><path stroke="currentColor" d="M101.25 765.38c32.573-22.006 77.301-77.878 117.536-40.835 25.339 47.382 9.945 119.183 42.001 148.333 30.38 41.088 80.999 52.184 127.752 63.306 56.168 11.071 134.378 7.142 170.332-14.354 23.347-20.924 70.066-48.67 106.281-16.273 33.343 21.655 87.817 38.895 117.695 2.963 32.17-49.178 7.259-128.364-53.724-140.018-38.617-7.884-78.424-35.444-85.843-64.912-14.296-46.325-14.012-71.4 13.646-109.588 32.52-25.365 82.045-13.84 109.276-56.4 10.948-27.864-49.287-156.987-26.272-179.252 18.136-10.748 73.88-17.688 103.187-23.372m-542.419-127.47c100.332-9.487 293.067 4.519 391.299 26.37 36.967 17.657 84.253 25.595 117.524-4.288 17.113-13.144 31.15-29.832 43.599-47.34M304.346 323.497c99.747-12.496 258.167 11.15 299.407 36.902 18.28 11.416-12.428 90.46-28.352 110.708-14.914 14.11-50.554 2.264-96.869 25.272-23.197 23.8-54.814 51.445-35.068 82.7 19.745 31.253 68.6 76.092 68.215 87.47-.659 29.49.34 52.68-4.086 94.075-21.172 43.088-103.026 47.615-128.188 36.036-19.589-26.411-17.622-102.508-25.492-141.514-16.512-46.272-50.236-109.045-82.161-134.017-38.669-12.572-74.091 6.712-107.044 35.696-22.264 17.472-39.69 53.578-73.329 58.757" clip-path="url(#a)" style="display:inline;fill:none;stroke-width:76;stroke-linecap:square;stroke-dasharray:none" transform="translate(45.283 52.655) scale(.90508)"/></svg>