<svg width="700pt" height="700pt" version="1.1" viewBox="0 0 700 700" xmlns="http://www.w3.org/2000/svg"><g transform="translate(-.001047 70.003)"><path d="m328.46 21.535v65.911c-24.682 2.7289-47.978 10.153-69.006 21.322l32.21 32.21c17.953-7.5608 37.663-11.748 58.334-11.748 83.137 0 150.77 67.632 150.77 150.77 0 20.671-4.1883 40.381-11.75 58.334l32.21 32.21c11.171-21.029 18.599-44.328 21.33-69.015l65.906 0.00293v-43.072h-65.916c-9.9062-89.598-81.414-161.11-171.01-171.02v-65.906h-43.078zm-101.65 109.08c-37.846 31.27-63.7 76.58-69.369 127.84h-65.906v43.078h65.909c9.9062 89.602 81.415 161.11 171.02 171.02l-0.00439 65.906h43.078v-65.911c51.258-5.6673 96.571-31.518 127.84-69.363l-30.554-30.554c-27.617 35.348-70.596 58.138-118.83 58.138-83.137 0-150.77-67.63-150.77-150.77 0-48.232 22.789-91.212 58.137-118.83l-30.555-30.555z"/><path d="m350 172.31c-8.3362 0-16.439 0.97881-24.231 2.7715l129.15 129.15c1.7925-7.7917 2.7715-15.895 2.7715-24.231 0-59.475-48.215-107.69-107.69-107.69zm-61.901 19.594c-27.684 19.488-45.79 51.668-45.79 88.096 0 59.475 48.216 107.69 107.69 107.69 36.428 0 68.607-18.105 88.096-45.79l-150-150z"/></g><rect transform="rotate(-45)" x="-19.343" y="240.59" width="38.531" height="508.91"/></svg>
