<?xml version="1.0" encoding="UTF-8" standalone="no"?>
<svg
   width="700pt"
   height="700pt"
   version="1.1"
   viewBox="0 0 700 700"
   id="svg8"
   sodipodi:docname="noun-crosshair-2577540.svg"
   xml:space="preserve"
   inkscape:version="1.2.1 (9c6d41e410, 2022-07-14)"
   xmlns:inkscape="http://www.inkscape.org/namespaces/inkscape"
   xmlns:sodipodi="http://sodipodi.sourceforge.net/DTD/sodipodi-0.dtd"
   xmlns="http://www.w3.org/2000/svg"
   xmlns:svg="http://www.w3.org/2000/svg"><defs
     id="defs12" /><sodipodi:namedview
     id="namedview10"
     pagecolor="#ffffff"
     bordercolor="#000000"
     borderopacity="0.25"
     inkscape:showpageshadow="2"
     inkscape:pageopacity="0.0"
     inkscape:pagecheckerboard="0"
     inkscape:deskcolor="#d1d1d1"
     inkscape:document-units="pt"
     showgrid="false"
     inkscape:zoom="1.3403571"
     inkscape:cx="595.73674"
     inkscape:cy="501.35891"
     inkscape:window-width="3840"
     inkscape:window-height="2066"
     inkscape:window-x="-11"
     inkscape:window-y="-11"
     inkscape:window-maximized="1"
     inkscape:current-layer="svg8" /><g
     id="g6"
     transform="translate(-0.001047,70.003)"><path
       d="M 608.466,258.461 H 542.55 C 532.6438,168.863 461.136,97.351 371.54,87.441 V 21.535 h -43.078 v 65.91 c -89.598,9.9062 -161.11,81.414 -171.02,171.01 H 91.536047 v 43.078 H 157.446 c 9.9062,89.602 81.414,161.11 171.02,171.02 l -0.004,65.906 h 43.078 v -65.91 c 89.598,-9.9062 161.11,-81.414 171.02,-171.02 l 65.90605,0.004 z M 350,430.77 c -83.137,0 -150.77,-67.629 -150.77,-150.77 0,-83.137 67.629,-150.77 150.77,-150.77 83.137,0 150.77,67.633 150.77,150.77 0,83.137 -67.633,150.77 -150.77,150.77 z"
       id="path2"
       sodipodi:nodetypes="cccccccccccccccccsssss" /><path
       d="m 457.69,280 c 0,59.477 -48.215,107.69 -107.69,107.69 -59.475,0 -107.69,-48.215 -107.69,-107.69 0,-59.475 48.215,-107.69 107.69,-107.69 59.475,0 107.69,48.215 107.69,107.69"
       id="path4" /></g></svg>
