<svg width="700pt" height="700pt" version="1.1" viewBox="0 0 700 700" xmlns="http://www.w3.org/2000/svg">
 <g transform="translate(-.001047 70.003)">
  <path d="m608.47 258.46h-65.916c-9.9062-89.598-81.414-161.11-171.01-171.02v-65.906h-43.078v65.91c-89.598 9.9062-161.11 81.414-171.02 171.01h-65.906v43.078h65.91c9.9062 89.602 81.414 161.11 171.02 171.02l-4e-3 65.906h43.078v-65.91c89.598-9.9062 161.11-81.414 171.02-171.02l65.906 4e-3zm-258.47 172.31c-83.137 0-150.77-67.629-150.77-150.77 0-83.137 67.629-150.77 150.77-150.77 83.137 0 150.77 67.633 150.77 150.77s-67.633 150.77-150.77 150.77z"/>
  <path d="m457.69 280c0 59.477-48.215 107.69-107.69 107.69s-107.69-48.215-107.69-107.69 48.215-107.69 107.69-107.69 107.69 48.215 107.69 107.69"/>
 </g>
</svg>
