<?xml version="1.0" encoding="UTF-8" standalone="no"?>
<svg
   width="700pt"
   height="700pt"
   version="1.1"
   viewBox="0 0 700 700"
   id="svg8"
   sodipodi:docname="crosshair-off.svg"
   xml:space="preserve"
   inkscape:version="1.2.1 (9c6d41e410, 2022-07-14)"
   xmlns:inkscape="http://www.inkscape.org/namespaces/inkscape"
   xmlns:sodipodi="http://sodipodi.sourceforge.net/DTD/sodipodi-0.dtd"
   xmlns="http://www.w3.org/2000/svg"
   xmlns:svg="http://www.w3.org/2000/svg"><defs
     id="defs12"><inkscape:path-effect
       effect="powermask"
       id="path-effect3720"
       is_visible="true"
       lpeversion="1"
       uri="#mask-powermask-path-effect3720"
       invert="false"
       hide_mask="false"
       background="true"
       background_color="#ffffffff" /><inkscape:path-effect
       effect="powerclip"
       id="path-effect3704"
       is_visible="true"
       lpeversion="1"
       inverse="true"
       flatten="false"
       hide_clip="false"
       message="Use fill-rule evenodd on &lt;b&gt;fill and stroke&lt;/b&gt; dialog if no flatten result after convert clip to paths." /></defs><sodipodi:namedview
     id="namedview10"
     pagecolor="#ffffff"
     bordercolor="#000000"
     borderopacity="0.25"
     inkscape:showpageshadow="2"
     inkscape:pageopacity="0.0"
     inkscape:pagecheckerboard="0"
     inkscape:deskcolor="#d1d1d1"
     inkscape:document-units="pt"
     showgrid="false"
     inkscape:zoom="1.3403571"
     inkscape:cx="740.47431"
     inkscape:cy="492.40609"
     inkscape:window-width="3840"
     inkscape:window-height="2066"
     inkscape:window-x="-11"
     inkscape:window-y="-11"
     inkscape:window-maximized="1"
     inkscape:current-layer="svg8" /><g
     id="g6"
     transform="translate(-0.001047,70.003)"
     clip-path="none"
     style="display:inline"
     inkscape:label="crosshair"
     mask="none"><path
       id="path2"
       style="display:inline"
       d="M 328.4615 21.535086 L 328.4615 87.44573 C 303.77927 90.174665 280.48313 97.599096 259.45564 108.768 L 291.66609 140.97845 C 309.61886 133.41767 329.32885 129.2304 350.00056 129.2304 C 433.13748 129.2304 500.7696 196.86252 500.7696 279.99944 C 500.7696 300.67083 496.58133 320.38086 489.02009 338.33391 L 521.23054 370.54436 C 532.40193 349.51499 539.82994 326.21604 542.56013 301.52971 L 608.46638 301.53264 L 608.46638 258.46038 L 542.54988 258.46038 C 532.64369 168.86247 461.13553 97.351326 371.53962 87.441336 L 371.53962 21.535086 L 328.4615 21.535086 z M 226.81159 130.61614 C 188.96583 161.88573 163.11197 207.19663 157.44245 258.45452 L 91.536203 258.45452 L 91.536203 301.53264 L 157.44538 301.53264 C 167.35157 391.13455 238.85998 462.64316 328.46589 472.55315 L 328.4615 538.4594 L 371.53962 538.4594 L 371.53962 472.54876 C 422.79793 466.8815 468.11075 441.0303 499.38239 403.18548 L 468.82868 372.63177 C 441.21215 407.97976 398.23236 430.76995 350.00056 430.76995 C 266.86364 430.76995 199.23005 363.14036 199.23005 279.99944 C 199.23005 231.76764 222.01912 188.78785 257.36677 161.17132 L 226.81159 130.61614 z " /><path
       id="path4"
       style="display:inline"
       d="M 350.00056 172.30999 C 341.66437 172.30999 333.56112 173.2888 325.76911 175.08147 L 454.91853 304.23089 C 456.71099 296.43916 457.69001 288.33541 457.69001 279.99944 C 457.69001 220.5245 409.4755 172.30999 350.00056 172.30999 z M 288.09919 191.90374 C 260.41536 211.3921 242.30964 243.57168 242.30964 279.99944 C 242.30964 339.47438 290.52562 387.69036 350.00056 387.69036 C 386.42875 387.69036 418.60797 369.58507 438.09626 341.90081 L 288.09919 191.90374 z " /></g><rect
     style="display:inline;fill:#000000;fill-opacity:1;fill-rule:nonzero;stroke:none;stroke-width:2.4;stroke-linecap:round;stroke-linejoin:round"
     id="rect1695"
     width="38.530956"
     height="508.90872"
     x="-19.342972"
     y="240.59373"
     transform="rotate(-45)"
     inkscape:label="barre" /></svg>
