<svg xmlns="http://www.w3.org/2000/svg" xml:space="preserve" aria-hidden="true" viewBox="0 0 24 24"><path d="M12 2C8.13 2 5 5.13 5 9c0 5.25 7 13 7 13s7-7.75 7-13c0-3.87-3.13-7-7-7ZM7 9c.477-2.986 2.24-5 5-5s5 2.24 5 5c0 2.88-2.88 7.19-5 9.88C9.92 16.21 6.523 11.986 7 9Z"/><path d="M9.995 8.165c-.417-.177-.594-.693-.344-1.068A2.899 2.899 0 0 1 12.115 5.8c1.224 0 2.063.557 2.49 1.256.365.599.579 1.719.016 2.552-.625.923-1.224 1.204-1.547 1.798-.079.14-.125.255-.157.49a.76.76 0 0 1-.745.677c-.453 0-.823-.39-.77-.844a2.12 2.12 0 0 1 .239-.802c.401-.725 1.172-1.152 1.62-1.793.474-.672.209-1.927-1.136-1.927-.61 0-1.005.317-1.25.698-.182.297-.563.39-.88.26zm3.167 6.492c0 .573-.469 1.042-1.042 1.042a1.045 1.045 0 0 1-1.042-1.042c0-.573.47-1.042 1.042-1.042.573 0 1.042.469 1.042 1.042z" style="stroke-width:.520989"/></svg>