<?xml version="1.0" encoding="UTF-8" standalone="no"?>
<svg
   focusable="false"
   aria-hidden="true"
   viewBox="0 0 24 24"
   version="1.1"
   id="svg8"
   sodipodi:docname="location-validity-unknown.svg"
   inkscape:version="1.2.1 (9c6d41e410, 2022-07-14)"
   xmlns:inkscape="http://www.inkscape.org/namespaces/inkscape"
   xmlns:sodipodi="http://sodipodi.sourceforge.net/DTD/sodipodi-0.dtd"
   xmlns="http://www.w3.org/2000/svg"
   xmlns:svg="http://www.w3.org/2000/svg">
  <defs
     id="defs12" />
  <sodipodi:namedview
     id="namedview10"
     pagecolor="#ffffff"
     bordercolor="#000000"
     borderopacity="0.25"
     inkscape:showpageshadow="2"
     inkscape:pageopacity="0.0"
     inkscape:pagecheckerboard="0"
     inkscape:deskcolor="#d1d1d1"
     showgrid="false"
     inkscape:zoom="52.125"
     inkscape:cx="8.82494"
     inkscape:cy="11.990408"
     inkscape:window-width="3840"
     inkscape:window-height="2066"
     inkscape:window-x="-11"
     inkscape:window-y="-11"
     inkscape:window-maximized="1"
     inkscape:current-layer="svg8" />
  <path
     d="M12 2C8.13 2 5 5.13 5 9c0 5.25 7 13 7 13s7-7.75 7-13c0-3.87-3.13-7-7-7zM7 9c0-2.76 2.24-5 5-5s5 2.24 5 5c0 2.88-2.88 7.19-5 9.88C9.92 16.21 7 11.85 7 9z"
     id="path2" />
  <path
     d="M 9.6417842,7.7613186 C 9.1598354,7.5564904 8.9550072,6.9600788 9.2441764,6.5263249 9.8285393,5.6588171 10.804485,5.0262593 12.093699,5.0262593 c 1.415725,0 2.385646,0.6446065 2.879644,1.4518707 0.421705,0.6928014 0.668704,1.9880387 0.01807,2.9519364 -0.722923,1.0663156 -1.415724,1.3916306 -1.789235,2.0784076 -0.09037,0.162658 -0.144584,0.295194 -0.18073,0.56629 -0.05422,0.439778 -0.415681,0.783167 -0.861484,0.783167 -0.524119,0 -0.951849,-0.451827 -0.891605,-0.975947 0.03615,-0.307242 0.108438,-0.626533 0.277121,-0.927751 0.463875,-0.837389 1.355481,-1.3313873 1.873575,-2.0723832 0.548218,-0.7771426 0.240975,-2.2290133 -1.31331,-2.2290133 -0.70485,0 -1.162701,0.3674859 -1.445846,0.8072642 -0.210853,0.3433885 -0.650631,0.451827 -1.018117,0.3012179 z m 3.6628108,7.5063564 c 0,0.662679 -0.542192,1.204872 -1.204872,1.204872 -0.66268,0 -1.204872,-0.542193 -1.204872,-1.204872 0,-0.66268 0.542192,-1.204872 1.204872,-1.204872 0.66268,0 1.204872,0.542192 1.204872,1.204872 z"
     id="path4"
     style="stroke-width:0.602436" />
</svg>
