<?xml version="1.0" encoding="UTF-8" standalone="no"?>
<svg
   width="512"
   height="512"
   viewBox="0 0 5120 5120"
   version="1.1"
   sodipodi:docname="logo.1.svg"
   inkscape:version="1.2.1 (9c6d41e410, 2022-07-14)"
   id="svg1271"
   xmlns:inkscape="http://www.inkscape.org/namespaces/inkscape"
   xmlns:sodipodi="http://sodipodi.sourceforge.net/DTD/sodipodi-0.dtd"
   xmlns="http://www.w3.org/2000/svg"
   xmlns:svg="http://www.w3.org/2000/svg">
  <defs
     id="defs40" />
  <sodipodi:namedview
     id="namedview38"
     pagecolor="#ffffff"
     bordercolor="#000000"
     borderopacity="0.25"
     inkscape:showpageshadow="2"
     inkscape:pageopacity="0"
     inkscape:pagecheckerboard="false"
     inkscape:deskcolor="#d1d1d1"
     showgrid="false"
     inkscape:zoom="2.9486353"
     inkscape:cx="423.41622"
     inkscape:cy="317.09585"
     inkscape:window-width="3840"
     inkscape:window-height="2066"
     inkscape:window-x="-11"
     inkscape:window-y="-11"
     inkscape:window-maximized="1" />
  <g
     id="g1235"
     fill="#030303"
     style="display:inline;fill:#ffffff;fill-opacity:1"
     inkscape:label="fond blanc"
     transform="matrix(0.4336443,0,0,0.4336443,-43.407121,4.908558)">
    <g
       id="g1233"
       style="display:inline;fill:#ffffff;fill-opacity:1">
      <path
         id="path1227"
         d="m 5631,11443 c -102,-2 -189,-7 -195,-12 -6,-5 -64,-12 -129,-16 -64,-4 -120,-11 -123,-16 -3,-5 -37,-9 -75,-9 -39,0 -85,-7 -106,-15 -19,-8 -58,-15 -85,-15 -27,0 -58,-5 -68,-10 -11,-6 -46,-13 -80,-17 -33,-3 -60,-10 -60,-14 0,-5 -21,-9 -47,-9 -27,-1 -59,-7 -73,-15 -14,-8 -44,-14 -67,-15 -24,0 -43,-4 -43,-10 0,-5 -23,-12 -50,-16 -28,-4 -53,-11 -56,-15 -3,-5 -20,-9 -38,-9 -18,0 -41,-7 -52,-15 -10,-8 -35,-15 -54,-15 -19,0 -44,-7 -54,-15 -11,-8 -32,-15 -47,-15 -15,0 -31,-4 -34,-10 -3,-5 -16,-10 -29,-10 -12,0 -31,-7 -42,-15 -10,-8 -30,-15 -44,-15 -14,0 -34,-7 -44,-15 -11,-8 -30,-15 -42,-15 -13,0 -25,-4 -28,-9 -3,-5 -22,-12 -41,-15 -19,-4 -35,-11 -35,-16 0,-6 -12,-10 -27,-10 -16,0 -37,-7 -47,-15 -11,-8 -28,-15 -38,-15 -10,0 -18,-4 -18,-10 0,-5 -10,-10 -22,-10 -13,0 -32,-7 -42,-15 -11,-8 -28,-15 -39,-15 -10,0 -25,-7 -33,-15 -9,-8 -24,-15 -35,-15 -10,0 -19,-4 -19,-10 0,-5 -7,-10 -16,-10 -14,0 -48,-15 -94,-41 -8,-5 -22,-12 -30,-15 -72,-30 -90,-39 -90,-46 0,-4 -8,-8 -19,-8 -10,0 -24,-7 -31,-15 -7,-8 -21,-15 -30,-15 -10,0 -20,-3 -22,-7 -1,-5 -34,-24 -73,-43 -38,-19 -72,-38 -75,-41 -3,-4 -15,-9 -27,-13 -13,-4 -23,-12 -23,-17 0,-5 -9,-9 -20,-9 -11,0 -23,-6 -26,-14 -3,-8 -13,-16 -22,-19 -9,-3 -39,-20 -67,-36 -27,-17 -57,-34 -65,-38 -8,-4 -21,-13 -28,-20 -7,-7 -20,-13 -28,-13 -8,0 -14,-4 -14,-10 0,-5 -6,-10 -14,-10 -8,0 -16,-7 -20,-15 -3,-8 -11,-15 -18,-15 -7,0 -25,-11 -40,-25 -15,-14 -34,-25 -43,-25 -9,0 -18,-7 -21,-15 -4,-8 -12,-15 -19,-15 -7,0 -15,-4 -17,-8 -1,-4 -20,-18 -40,-31 -21,-12 -38,-27 -38,-32 0,-5 -7,-9 -15,-9 -8,0 -15,-3 -15,-8 0,-4 -16,-16 -35,-26 -19,-11 -35,-22 -35,-26 0,-4 -25,-24 -55,-45 -30,-20 -55,-41 -55,-46 0,-5 -4,-9 -10,-9 -5,0 -23,-12 -39,-27 -42,-39 -59,-53 -66,-53 -3,0 -23,-18 -45,-40 -22,-22 -42,-40 -44,-40 -18,0 -496,-477 -496,-495 0,-2 -19,-22 -42,-47 -24,-24 -52,-56 -63,-72 -11,-16 -37,-47 -57,-70 -68,-76 -78,-89 -78,-98 0,-5 -11,-19 -25,-32 -14,-13 -25,-28 -25,-35 0,-6 -3,-11 -7,-11 -5,0 -19,-18 -33,-40 -13,-22 -28,-40 -32,-40 -4,0 -8,-5 -8,-10 0,-6 -18,-35 -40,-65 -22,-30 -40,-59 -40,-64 0,-6 -6,-14 -13,-18 -14,-9 -35,-41 -43,-65 -4,-10 -10,-18 -14,-18 -4,0 -10,-8 -14,-17 -6,-21 -25,-51 -43,-71 -7,-7 -13,-20 -13,-28 0,-8 -4,-14 -9,-14 -5,0 -11,-8 -15,-17 -5,-18 -26,-53 -36,-63 -3,-3 -13,-21 -24,-40 -43,-83 -79,-146 -87,-154 -5,-6 -9,-18 -9,-27 0,-9 -7,-22 -15,-29 -8,-7 -15,-21 -15,-31 0,-11 -4,-19 -8,-19 -5,0 -16,-19 -26,-42 -9,-24 -21,-50 -27,-58 -5,-8 -12,-22 -15,-30 -9,-26 -30,-73 -58,-130 -14,-30 -26,-63 -26,-71 0,-9 -7,-22 -15,-29 -8,-7 -15,-21 -15,-31 0,-19 -2,-26 -33,-87 -9,-19 -17,-44 -17,-57 0,-12 -7,-28 -15,-35 -8,-7 -15,-25 -15,-41 0,-16 -4,-29 -10,-29 -5,0 -10,-10 -10,-22 0,-13 -7,-36 -15,-52 -8,-15 -15,-38 -15,-50 -1,-11 -7,-32 -15,-46 -8,-14 -14,-37 -15,-52 0,-15 -4,-29 -9,-32 -5,-3 -12,-26 -15,-51 -4,-24 -11,-47 -17,-50 -5,-4 -9,-23 -9,-43 -1,-20 -7,-48 -15,-62 -8,-14 -14,-42 -15,-62 0,-20 -4,-39 -9,-42 -5,-3 -12,-33 -16,-66 -4,-33 -11,-63 -16,-66 -5,-3 -9,-28 -9,-55 0,-27 -7,-66 -15,-86 -8,-19 -15,-63 -15,-98 0,-34 -3,-65 -8,-69 -4,-4 -13,-60 -21,-124 -15,-127 -27,-1044 -14,-1072 4,-8 13,-67 20,-130 7,-63 17,-149 22,-190 4,-41 13,-88 20,-103 6,-16 11,-48 11,-71 0,-23 3,-46 7,-50 7,-7 21,-70 41,-186 5,-25 14,-55 20,-67 7,-12 12,-37 12,-57 0,-19 4,-37 9,-41 6,-3 13,-26 17,-50 3,-25 10,-48 15,-51 5,-3 9,-18 9,-33 0,-15 7,-36 15,-47 8,-10 15,-31 15,-45 0,-15 7,-40 15,-55 8,-16 15,-37 15,-46 0,-9 5,-20 10,-23 6,-3 10,-16 10,-29 0,-12 7,-31 15,-42 8,-10 15,-29 15,-41 0,-12 8,-36 17,-55 31,-61 33,-68 33,-87 0,-10 7,-24 15,-31 8,-7 15,-20 15,-29 0,-8 12,-41 26,-71 14,-30 33,-71 41,-90 8,-19 19,-42 24,-50 5,-8 12,-22 15,-30 10,-24 34,-74 44,-90 5,-8 23,-44 40,-80 17,-36 45,-87 61,-115 16,-27 34,-59 39,-70 6,-11 19,-33 30,-50 10,-16 26,-44 35,-62 9,-18 23,-37 31,-44 8,-6 14,-16 14,-21 0,-5 11,-24 25,-42 14,-18 25,-35 25,-39 0,-6 97,-151 134,-200 14,-19 26,-38 26,-44 0,-5 10,-18 21,-29 12,-10 36,-40 53,-66 71,-106 201,-255 390,-447 426,-431 756,-701 1193,-975 197,-123 555,-311 748,-393 77,-33 260,-107 315,-128 110,-42 172,-63 225,-80 33,-10 69,-21 80,-26 37,-14 124,-39 135,-39 7,0 26,-6 43,-14 18,-8 46,-16 62,-19 41,-7 202,-46 245,-60 19,-6 58,-14 85,-18 58,-9 240,-44 336,-65 37,-8 91,-14 121,-14 30,0 68,-4 84,-10 41,-13 271,-31 524,-41 118,-4 244,-12 280,-18 70,-11 508,-4 525,9 6,4 62,10 125,14 63,4 119,11 124,16 6,6 40,10 77,10 37,0 83,7 102,15 20,8 61,15 91,15 30,0 57,4 61,9 3,5 34,13 70,16 36,4 68,11 71,16 3,5 23,9 45,9 22,0 50,5 62,12 12,6 42,15 67,19 25,4 72,15 105,24 33,9 76,20 95,24 19,4 45,13 57,19 12,7 33,12 46,12 14,0 38,7 53,15 16,8 37,15 46,15 9,0 20,5 23,10 3,5 19,10 34,10 15,0 36,7 47,15 10,8 30,15 44,15 14,0 34,7 44,15 11,8 30,15 43,15 13,0 23,4 23,9 0,5 18,11 40,15 22,3 40,11 40,16 0,6 10,10 23,10 12,0 31,7 41,15 11,8 30,15 43,15 13,0 23,5 23,10 0,6 8,10 18,10 10,0 27,7 38,15 10,8 28,15 39,15 11,0 29,7 39,15 11,8 28,15 37,15 10,0 19,3 21,8 5,12 68,42 88,42 10,0 20,4 22,8 4,10 130,72 146,72 7,0 12,4 12,8 0,5 21,18 48,30 26,12 55,27 65,32 40,23 54,31 92,50 22,11 54,29 70,40 17,11 39,24 50,29 11,5 44,25 74,45 29,20 56,36 59,36 3,0 20,11 38,25 18,14 37,25 43,25 5,0 14,6 18,13 9,14 41,35 66,43 9,4 17,10 17,15 0,5 7,9 15,9 8,0 15,3 15,8 0,4 18,18 40,32 22,13 40,28 40,32 0,4 5,8 11,8 12,0 92,59 97,72 2,5 9,8 16,8 7,0 31,18 54,40 22,22 44,40 47,40 6,0 23,13 56,42 10,10 22,18 25,18 3,0 18,12 33,27 15,16 43,39 61,53 18,14 51,42 74,63 22,20 44,37 48,37 4,0 8,7 8,15 0,8 4,15 10,15 8,0 340,325 340,333 0,2 32,36 70,77 39,41 70,78 70,83 0,4 16,23 35,41 19,19 35,36 35,39 0,3 14,21 30,39 16,18 30,36 30,39 0,4 18,27 40,50 22,24 40,47 40,52 0,6 11,20 25,33 14,13 25,28 25,34 0,5 4,10 9,10 5,0 13,10 16,22 4,11 17,31 30,42 12,12 25,31 29,44 4,12 12,22 17,22 5,0 9,7 9,15 0,8 3,15 8,15 4,0 16,17 27,37 11,21 25,42 32,46 7,4 13,13 13,18 0,6 11,25 25,43 14,18 25,36 25,39 0,3 14,26 30,50 17,25 30,50 30,56 0,6 4,11 9,11 5,0 12,11 15,25 4,14 11,25 16,25 6,0 10,9 10,19 0,11 5,23 10,26 6,3 19,26 30,50 11,24 24,47 30,50 5,3 10,15 10,25 0,10 4,20 8,22 10,4 72,126 72,143 0,7 6,18 13,24 8,6 22,35 32,66 11,30 23,55 27,55 4,0 8,6 8,14 0,8 6,27 14,43 8,15 19,42 26,58 7,17 18,43 26,58 8,16 14,36 14,45 0,9 7,26 15,36 8,11 15,30 15,43 0,13 4,23 9,23 5,0 12,18 16,40 4,22 11,40 16,40 5,0 9,11 9,24 0,13 6,37 14,53 17,32 46,128 46,149 0,8 5,14 10,14 6,0 10,15 10,33 1,17 7,43 15,57 8,14 14,42 15,63 0,20 4,37 9,37 5,0 13,25 16,55 4,30 11,55 16,55 5,0 9,19 9,43 1,23 7,53 15,67 8,14 14,48 15,77 0,28 4,54 9,58 5,3 13,41 17,85 3,44 11,83 15,86 5,3 9,35 9,72 0,37 5,83 12,102 20,59 46,867 29,899 -6,10 -11,81 -12,157 -1,89 -6,152 -15,177 -8,22 -14,72 -14,113 0,40 -4,75 -9,78 -4,3 -12,42 -15,86 -4,44 -12,82 -17,85 -5,4 -9,27 -9,53 0,26 -7,60 -15,76 -8,15 -15,48 -15,72 0,23 -4,46 -10,49 -5,3 -12,28 -16,56 -4,27 -11,52 -15,55 -5,3 -9,20 -9,37 -1,18 -7,43 -15,57 -8,14 -14,39 -15,56 0,16 -4,34 -9,40 -5,5 -16,36 -25,69 -10,33 -24,73 -32,88 -8,16 -14,39 -14,52 0,13 -4,26 -9,30 -5,3 -13,20 -17,37 -7,34 -10,42 -37,96 -9,19 -17,42 -17,52 0,10 -4,21 -9,25 -5,3 -13,19 -16,36 -4,17 -18,54 -32,83 -14,28 -31,65 -38,81 -24,58 -67,150 -76,165 -5,8 -12,22 -15,30 -3,8 -10,24 -16,34 -5,10 -29,55 -53,100 -23,45 -52,97 -64,116 -11,19 -24,42 -28,50 -4,8 -39,66 -77,128 -39,62 -75,121 -81,130 -5,10 -20,32 -32,49 -13,17 -23,34 -23,37 0,11 -183,258 -270,364 -30,37 -67,83 -81,102 -46,62 -229,260 -404,439 -253,258 -514,471 -840,687 -141,93 -110,74 -332,200 -98,56 -191,113 -208,126 -28,23 -88,54 -295,150 -171,80 -558,228 -596,228 -46,0 -142,26 -169,45 -42,31 -128,54 -212,57 -58,3 -79,8 -105,28 -26,20 -50,26 -118,32 -47,4 -119,14 -160,23 -41,9 -117,20 -167,24 -51,3 -98,12 -105,19 -7,7 -40,12 -79,12 -51,0 -72,5 -92,20 -24,19 -39,20 -474,18 -246,-2 -531,-4 -632,-5 z"
         sodipodi:nodetypes="cscsscsccscscsccscscscscscsscsscssscscsssccssssccccsssscssssscssscsccssscscsscsssscscsssscssssccsccsscsccssssccccssscsssssccscscccscsssscscccsccssccsccsscscscscscsssssscsscccscssscscccccsccscccccsccccssscsccsscssscscssscscsscsscssscscscscssccscscsssccssscsscscscscscsssscscssscsssscccssscsssscsscsscscscsccsscccscssssscsscscscscsccccsccccscccscsccccsccccscccscccccscccscccscccccccsccscscssccc"
         style="fill:#ffffff;fill-opacity:1" />
    </g>
  </g>
  <g
     id="l6pdTs9Ejj1opnXeLeuDbyB"
     fill="#6ba7c1"
     transform="matrix(0.4336443,0,0,0.4336443,-43.407121,4.908558)"
     style="display:inline"
     inkscape:label="fond bleu">
    <g
       id="g28"
       style="display:inline">
      <path
         id="pCst68WSt"
         d="m 1171,7318 c -17,-17 -31,-37 -31,-43 0,-7 -11,-32 -24,-57 -13,-25 -27,-59 -31,-76 -3,-18 -11,-34 -16,-37 -5,-4 -9,-21 -9,-39 0,-19 -7,-47 -15,-62 -8,-16 -15,-43 -15,-60 0,-16 -4,-34 -9,-40 -5,-5 -14,-49 -21,-99 -19,-145 -26,-188 -38,-218 -7,-16 -12,-48 -12,-72 0,-24 -4,-46 -9,-49 -5,-4 -12,-41 -16,-84 -4,-42 -11,-81 -15,-87 -11,-15 -19,-632 -10,-785 9,-152 26,-277 40,-302 6,-10 10,-41 10,-70 1,-29 7,-64 15,-78 8,-14 14,-46 15,-72 0,-26 4,-49 10,-53 5,-3 12,-33 16,-66 4,-32 11,-62 15,-65 5,-3 9,-20 9,-37 0,-18 7,-53 15,-79 8,-27 22,-69 30,-95 8,-27 15,-56 15,-66 0,-9 4,-25 9,-35 13,-27 41,-118 41,-135 0,-8 7,-28 15,-43 8,-16 15,-37 15,-46 0,-9 5,-20 10,-23 6,-3 10,-16 10,-29 0,-12 7,-31 15,-42 8,-10 15,-27 15,-36 0,-9 6,-29 14,-45 8,-15 25,-53 39,-83 45,-101 67,-145 97,-195 16,-27 36,-64 45,-82 9,-18 23,-37 31,-44 8,-6 14,-16 14,-21 0,-5 10,-24 23,-41 28,-41 42,-64 62,-103 31,-60 56,-75 120,-72 84,4 93,24 94,188 1,90 5,133 16,154 11,20 15,62 15,150 0,80 5,135 15,161 10,29 14,91 15,232 0,117 4,194 10,198 6,3 10,-3 10,-14 0,-11 5,-23 10,-26 7,-4 9,-38 5,-93 -3,-52 1,-152 11,-247 23,-233 40,-809 29,-1017 -6,-108 -6,-108 38,-165 25,-32 55,-67 67,-78 13,-11 53,-60 90,-110 64,-87 225,-267 415,-463 119,-124 229,-202 283,-202 40,0 40,0 47,98 3,53 10,108 15,122 9,25 23,221 21,295 -12,486 -12,525 1,547 7,13 15,55 18,93 4,53 9,70 20,70 12,0 16,-29 23,-170 4,-93 12,-180 17,-193 6,-13 10,-84 10,-158 0,-88 4,-143 12,-157 13,-23 24,-153 36,-429 5,-112 11,-171 20,-180 6,-6 12,-22 12,-35 0,-30 140,-177 235,-248 237,-174 575,-345 850,-429 50,-15 117,-36 150,-47 42,-14 88,-19 156,-19 91,0 97,1 118,27 30,33 42,108 48,287 3,90 0,143 -6,149 -14,14 -15,423 -1,432 6,4 10,55 10,118 1,78 5,120 15,137 10,17 14,58 15,133 0,62 5,118 12,130 7,13 13,92 16,195 3,95 9,175 13,178 5,3 9,33 9,67 0,44 3,58 10,47 5,-8 10,-27 10,-41 0,-15 7,-43 15,-62 8,-20 15,-54 15,-76 0,-22 4,-42 9,-45 20,-13 30,-266 36,-900 4,-443 7,-522 20,-542 8,-13 15,-32 15,-42 0,-27 104,-122 181,-165 36,-20 88,-41 115,-46 118,-23 240,-59 279,-84 14,-9 105,-13 328,-15 267,-3 312,-1 332,12 14,9 33,16 44,16 18,0 80,28 91,41 3,4 15,9 28,13 12,4 22,12 22,17 0,5 5,9 11,9 6,0 25,11 43,25 18,14 37,25 41,25 5,0 17,8 28,18 18,16 55,17 466,17 439,0 542,6 656,37 35,10 131,61 145,78 3,4 30,25 61,48 39,29 66,42 89,42 18,0 48,9 66,21 30,18 34,26 34,63 0,23 6,48 13,55 9,9 12,61 12,191 0,130 -3,182 -12,191 -15,15 -17,111 -3,125 5,5 13,45 18,89 5,44 10,66 11,48 0,-17 6,-44 13,-60 7,-15 15,-84 19,-153 4,-69 15,-177 23,-240 9,-63 19,-134 22,-158 5,-34 14,-49 49,-77 40,-34 45,-35 123,-35 44,0 83,4 86,9 3,4 40,11 81,13 42,3 81,10 88,17 6,6 26,11 45,11 19,0 57,7 86,16 28,9 67,21 86,26 48,14 86,31 228,102 190,95 212,107 212,117 0,5 5,9 11,9 17,0 59,51 65,80 3,14 12,42 20,63 8,20 14,55 14,77 0,21 4,41 9,45 5,3 12,18 16,35 11,52 108,248 140,282 24,27 80,58 104,58 9,0 26,7 37,15 10,8 29,15 42,15 12,0 30,4 40,9 9,4 35,16 57,26 22,9 47,21 55,26 8,5 29,16 47,25 18,9 37,22 44,30 6,8 18,14 26,14 7,0 16,7 19,15 4,8 11,15 17,15 6,0 48,38 94,85 83,85 83,85 83,195 0,110 0,110 40,175 22,36 40,75 40,88 0,12 7,31 15,41 10,13 15,44 15,91 0,39 4,75 9,80 32,35 42,207 24,435 -6,76 -5,114 4,140 7,19 13,83 13,141 0,72 4,111 13,124 23,30 28,4 32,-163 3,-132 7,-166 26,-212 12,-30 25,-77 29,-105 10,-60 29,-133 41,-157 5,-10 9,-51 9,-91 0,-70 1,-74 30,-95 23,-17 43,-22 93,-22 62,0 127,21 127,41 0,5 5,9 11,9 16,0 183,171 215,221 16,24 31,46 34,49 7,7 29,43 37,60 4,8 9,17 12,20 3,3 14,23 25,45 10,22 22,47 27,55 5,8 12,22 15,30 7,19 22,55 38,95 18,41 34,89 57,165 12,36 24,74 29,85 5,11 11,31 13,45 3,14 10,39 15,55 23,64 42,138 42,161 0,12 5,26 10,29 6,3 10,30 10,58 0,30 7,60 15,71 9,12 15,42 15,77 0,32 4,60 9,64 5,3 13,41 17,85 3,44 11,83 15,86 5,3 9,40 9,83 0,47 6,93 15,114 22,53 22,843 0,890 -8,18 -16,73 -19,122 -4,97 -26,239 -38,251 -5,4 -8,28 -8,53 -1,25 -7,57 -15,71 -8,14 -14,44 -15,67 0,23 -4,44 -9,47 -5,4 -12,25 -16,49 -4,23 -11,47 -15,52 -4,6 -10,24 -13,40 -2,17 -10,46 -17,65 -32,88 -43,116 -51,132 -5,10 -9,26 -9,36 0,11 -14,38 -30,60 -30,42 -30,42 -105,42 -75,0 -75,0 -119,-42 -24,-24 -47,-54 -51,-68 -4,-14 -25,-41 -47,-62 -39,-36 -39,-36 -214,-40 -174,-3 -174,-3 -199,-32 -14,-16 -25,-39 -25,-52 0,-13 -4,-25 -9,-29 -6,-3 -13,-26 -17,-50 -3,-25 -10,-48 -15,-51 -5,-3 -9,-56 -9,-117 -1,-79 -5,-117 -14,-130 -13,-17 -16,-16 -40,20 -14,21 -26,41 -26,46 0,18 -75,126 -123,176 -53,55 -117,101 -139,101 -7,0 -26,8 -43,17 -26,16 -61,18 -270,18 -243,0 -305,-7 -346,-42 -8,-7 -26,-13 -38,-13 -45,0 -110,-57 -111,-97 0,-13 -6,-40 -14,-60 -9,-24 -17,-93 -20,-183 -2,-80 -10,-195 -17,-256 -13,-111 -13,-111 -31,-75 -10,19 -18,40 -18,45 0,14 -60,136 -82,169 -17,24 -25,27 -77,27 -55,0 -58,-1 -73,-32 -34,-73 -42,-107 -46,-203 -2,-55 -9,-106 -15,-113 -8,-10 -11,-74 -9,-206 1,-112 -2,-197 -8,-206 -7,-11 -10,-6 -10,20 0,19 -7,48 -15,64 -9,17 -15,55 -15,95 0,37 -3,71 -7,75 -11,11 -33,134 -42,241 -5,50 -14,103 -20,118 -6,16 -11,65 -11,110 0,88 -23,256 -41,297 -6,14 -17,38 -25,53 -8,16 -14,36 -14,46 0,9 -5,22 -11,28 -6,6 -16,21 -23,34 -6,12 -28,36 -49,53 -39,31 -39,31 -246,34 -207,3 -207,3 -219,-22 -6,-13 -35,-42 -64,-64 -47,-35 -74,-51 -140,-83 -12,-6 -28,-1 -54,16 -43,29 -114,35 -114,10 0,-8 6,-15 13,-15 14,0 58,-45 100,-102 54,-74 27,-198 -56,-248 -21,-13 -50,-20 -85,-20 -84,0 -134,35 -165,118 -21,52 -21,91 -2,116 8,11 15,32 15,47 0,15 6,30 13,33 6,3 -7,5 -30,4 -25,-1 -59,7 -90,21 -26,13 -64,30 -83,39 -19,9 -68,48 -108,87 -74,70 -74,70 -248,70 -105,0 -178,-4 -182,-10 -4,-5 -36,-24 -72,-42 -159,-77 -230,-88 -355,-53 -85,23 -154,47 -177,60 -10,6 -26,10 -36,10 -10,0 -24,6 -30,13 -10,9 -100,13 -363,15 -314,3 -356,1 -397,-14 -68,-26 -91,-45 -92,-75 0,-15 -6,-32 -14,-38 -8,-6 -16,-24 -19,-39 -5,-27 -19,-69 -42,-127 -7,-16 -18,-48 -25,-70 -7,-22 -18,-53 -26,-68 -8,-16 -14,-44 -14,-62 0,-19 -4,-37 -10,-40 -14,-9 -13,-189 2,-220 8,-19 9,-28 1,-33 -6,-4 -14,-28 -18,-55 -4,-26 -11,-50 -16,-53 -5,-3 -9,-20 -9,-38 0,-18 -7,-41 -15,-52 -11,-15 -14,-54 -15,-175 0,-85 -4,-159 -9,-165 -6,-5 -13,-90 -18,-189 -8,-180 -8,-180 -14,-7 -4,107 -11,178 -18,185 -6,6 -11,34 -11,63 0,28 -7,68 -15,87 -8,20 -15,59 -15,86 0,27 -4,52 -9,55 -5,3 -12,44 -16,91 -4,47 -11,87 -16,91 -5,3 -9,31 -9,63 0,32 -7,75 -15,94 -8,20 -15,59 -15,86 0,27 -4,53 -10,56 -6,3 -10,18 -10,33 0,15 -7,40 -15,56 -8,15 -15,38 -15,50 0,11 -7,30 -15,40 -8,11 -15,27 -15,36 0,16 -17,59 -41,102 -5,10 -9,26 -9,37 0,10 -7,24 -15,31 -8,7 -15,18 -15,24 0,6 -29,43 -64,81 -63,70 -63,70 -192,68 -71,-1 -203,-6 -294,-10 -136,-7 -170,-11 -192,-27 -16,-10 -28,-22 -28,-27 0,-5 -6,-9 -12,-9 -7,0 -23,-11 -35,-24 -30,-32 -73,-38 -227,-37 -141,2 -167,10 -261,85 -37,30 -43,31 -130,31 -75,0 -97,-4 -135,-24 -82,-43 -266,-66 -298,-38 -9,9 -46,18 -82,22 -63,6 -154,28 -195,46 -35,15 -147,29 -237,29 -73,0 -88,-3 -88,-16 0,-8 -7,-22 -15,-30 -8,-9 -15,-24 -15,-34 0,-10 -4,-22 -10,-25 -5,-3 -10,-21 -10,-38 -1,-18 -7,-43 -15,-57 -9,-16 -14,-56 -15,-115 0,-56 -5,-96 -12,-103 -20,-20 -23,-174 -4,-231 17,-52 22,-196 7,-187 -16,10 -23,56 -59,372 -5,38 -12,76 -17,84 -4,7 -12,43 -16,79 -8,73 -30,165 -42,177 -4,4 -7,17 -7,28 0,12 -7,34 -15,50 -10,18 -15,57 -15,109 0,74 -2,83 -27,109 -27,28 -27,28 -183,28 -156,0 -156,0 -210,55 -53,54 -56,55 -111,55 -50,0 -60,-3 -88,-32 z m 6722,-766 c 52,-50 90,-108 83,-127 -11,-29 -46,-15 -99,40 -46,48 -58,55 -91,55 -30,0 -45,-7 -72,-34 -50,-50 -45,-71 28,-137 73,-66 72,-84 -4,-77 -90,9 -139,89 -117,188 13,56 39,85 104,116 68,31 117,24 168,-24 z m -797,-154 c 65,-70 78,-102 78,-193 0,-112 -42,-186 -131,-225 -47,-21 -118,-27 -127,-11 -3,5 -21,12 -39,15 -62,12 -137,123 -137,204 0,53 38,146 74,181 56,54 94,70 171,70 71,1 71,1 111,-41 z m 323,-435 c 44,-51 97,-152 103,-193 3,-23 0,-25 -37,-25 -39,0 -41,1 -72,65 -54,107 -108,136 -187,102 -49,-22 -76,-61 -76,-111 0,-24 11,-39 50,-72 48,-40 51,-46 48,-83 -3,-40 -4,-41 -37,-38 -75,8 -151,107 -151,194 1,77 49,152 125,191 20,11 57,16 112,17 81,0 81,0 122,-47 z m 584,-272 c 51,-22 104,-83 136,-155 55,-126 -6,-284 -133,-345 -44,-22 -159,-30 -170,-12 -3,4 -19,11 -35,14 -43,9 -110,90 -131,160 -17,55 -17,60 2,135 29,114 88,180 185,206 69,19 95,19 146,-3 z M 6887,5284 c 24,-26 50,-64 58,-84 9,-19 20,-43 25,-52 6,-10 10,-44 10,-77 0,-177 -163,-306 -329,-261 -65,17 -134,90 -157,166 -23,78 -22,127 5,197 26,66 67,112 132,145 39,20 54,23 129,19 85,-5 85,-5 127,-53 z m 1481,-68 c 45,-23 115,-106 145,-171 16,-33 32,-68 37,-77 19,-34 -9,-57 -66,-58 -16,0 -26,11 -38,43 -41,107 -108,177 -169,177 -41,0 -99,-27 -124,-58 -16,-20 -22,-41 -23,-78 0,-50 0,-51 60,-97 48,-37 60,-53 60,-74 0,-46 -13,-56 -58,-48 -25,4 -56,20 -82,43 -128,109 -100,312 53,386 60,29 160,35 205,12 z M 7270,4833 c 89,-100 142,-213 109,-234 -8,-5 -27,-9 -44,-9 -27,0 -34,7 -64,65 -18,36 -48,78 -67,95 -31,27 -42,30 -97,30 -57,0 -66,-3 -95,-31 -29,-28 -32,-37 -32,-89 0,-57 0,-57 61,-110 57,-50 61,-55 55,-88 -3,-19 -7,-36 -9,-39 -3,-2 -26,1 -53,7 -94,21 -164,115 -164,220 0,150 99,239 267,240 81,0 81,0 133,-57 z m 741,-372 c 83,-88 103,-143 97,-265 -3,-66 -9,-92 -30,-127 -33,-56 -81,-101 -136,-130 -38,-19 -53,-21 -118,-16 -41,4 -89,13 -107,20 -116,49 -183,192 -157,336 7,36 23,85 36,108 25,44 108,123 129,123 7,0 26,7 41,16 22,12 47,14 104,10 75,-5 75,-5 141,-75 z m -920,-477 c 94,-93 142,-189 156,-311 14,-129 -84,-295 -216,-365 -44,-25 -62,-28 -138,-28 -97,0 -157,21 -221,75 -86,72 -122,163 -122,304 0,98 2,108 35,177 69,144 195,216 368,210 78,-3 78,-3 138,-62 z m 1320,-32 c 65,-68 149,-204 149,-243 0,-28 -19,-39 -72,-39 -22,0 -32,10 -63,68 -73,134 -141,177 -232,146 -80,-27 -113,-70 -113,-149 0,-40 5,-52 31,-76 17,-16 37,-29 45,-29 7,0 29,-14 49,-31 37,-32 43,-57 25,-103 -11,-29 -49,-36 -69,-12 -6,7 -24,16 -39,19 -37,8 -109,71 -132,118 -15,29 -20,58 -20,119 0,97 18,140 82,195 71,61 103,71 233,74 69,1 69,1 126,-57 z m -824,-578 c 21,-17 62,-60 91,-95 54,-66 142,-227 142,-260 0,-20 -47,-49 -80,-49 -38,0 -54,17 -95,96 -22,43 -61,100 -86,128 -46,50 -47,50 -115,54 -57,3 -79,0 -118,-19 -65,-30 -106,-93 -106,-163 0,-48 2,-52 59,-108 33,-31 75,-64 95,-72 36,-15 36,-16 36,-75 0,-61 0,-61 -58,-61 -174,0 -302,176 -271,372 6,34 17,76 25,93 37,75 149,159 236,175 28,6 54,13 57,16 3,3 38,4 78,2 62,-3 77,-7 110,-34 z" />
      <path
         id="pwAYCwSqK"
         d="m 6922,6337 c -51,-27 -71,-54 -81,-109 -17,-98 32,-168 118,-168 106,0 167,119 112,220 -37,69 -89,89 -149,57 z" />
      <path
         id="pDrchHdaq"
         d="m 7865,5593 c -51,-26 -74,-54 -91,-108 -25,-78 -14,-119 48,-177 56,-54 79,-58 138,-28 57,29 84,73 88,145 3,71 -22,125 -77,162 -40,27 -65,28 -106,6 z" />
      <path
         id="p1H9S23os6"
         d="m 6680,5229 c -58,-23 -100,-92 -100,-164 0,-91 48,-144 140,-152 57,-6 63,-4 92,23 78,74 77,193 -2,273 -34,33 -79,40 -130,20 z" />
      <path
         id="pjPqTpRXo"
         d="m 7765,4395 c -97,-48 -121,-223 -42,-302 32,-32 41,-36 104,-40 64,-5 71,-4 102,23 92,77 93,201 2,297 -32,33 -40,37 -86,37 -27,0 -63,-7 -80,-15 z" />
      <path
         id="pe9ZInzIy"
         d="m 6833,3885 c -42,-18 -112,-91 -119,-124 -3,-14 -10,-36 -15,-49 -25,-62 3,-167 58,-224 50,-51 126,-75 180,-57 51,16 119,82 139,134 11,31 15,65 12,112 -3,60 -8,76 -43,128 -58,87 -132,115 -212,80 z" />
      <path
         id="pvYPmMVeJ"
         d="m 7470,6790 c 0,-19 -3,-20 -15,-10 -11,9 -20,8 -45,-6 -28,-17 -30,-22 -30,-81 0,-81 24,-113 93,-120 41,-5 52,-2 72,17 22,21 25,32 25,92 0,62 -3,72 -26,93 -15,14 -30,25 -35,25 -4,0 -14,3 -23,6 -12,4 -16,0 -16,-16 z"
         style="display:inline" />
    </g>
  </g>
  <g
     id="l780hDvuXxIWMy8nuTlnejB"
     fill="#030303"
     transform="matrix(0.43364425,0,0,0.43364425,-43.407121,4.908558)"
     style="display:inline"
     inkscape:label="fond noir">
    <g
       id="g34"
       style="display:inline">
      <path
         id="p8gWBFCQb"
         d="m 5631,11443 c -102,-2 -189,-7 -195,-12 -6,-5 -64,-12 -129,-16 -64,-4 -120,-11 -123,-16 -3,-5 -37,-9 -75,-9 -39,0 -85,-7 -106,-15 -19,-8 -58,-15 -85,-15 -27,0 -58,-5 -68,-10 -11,-6 -46,-13 -80,-17 -33,-3 -60,-10 -60,-14 0,-5 -21,-9 -47,-9 -27,-1 -59,-7 -73,-15 -14,-8 -44,-14 -67,-15 -24,0 -43,-4 -43,-10 0,-5 -23,-12 -50,-16 -28,-4 -53,-11 -56,-15 -3,-5 -20,-9 -38,-9 -18,0 -41,-7 -52,-15 -10,-8 -35,-15 -54,-15 -19,0 -44,-7 -54,-15 -11,-8 -32,-15 -47,-15 -15,0 -31,-4 -34,-10 -3,-5 -16,-10 -29,-10 -12,0 -31,-7 -42,-15 -10,-8 -30,-15 -44,-15 -14,0 -34,-7 -44,-15 -11,-8 -30,-15 -42,-15 -13,0 -25,-4 -28,-9 -3,-5 -22,-12 -41,-15 -19,-4 -35,-11 -35,-16 0,-6 -12,-10 -27,-10 -16,0 -37,-7 -47,-15 -11,-8 -28,-15 -38,-15 -10,0 -18,-4 -18,-10 0,-5 -10,-10 -22,-10 -13,0 -32,-7 -42,-15 -11,-8 -28,-15 -39,-15 -10,0 -25,-7 -33,-15 -9,-8 -24,-15 -35,-15 -10,0 -19,-4 -19,-10 0,-5 -7,-10 -16,-10 -14,0 -48,-15 -94,-41 -8,-5 -22,-12 -30,-15 -72,-30 -90,-39 -90,-46 0,-4 -8,-8 -19,-8 -10,0 -24,-7 -31,-15 -7,-8 -21,-15 -30,-15 -10,0 -20,-3 -22,-7 -1,-5 -34,-24 -73,-43 -38,-19 -72,-38 -75,-41 -3,-4 -15,-9 -27,-13 -13,-4 -23,-12 -23,-17 0,-5 -9,-9 -20,-9 -11,0 -23,-6 -26,-14 -3,-8 -13,-16 -22,-19 -9,-3 -39,-20 -67,-36 -27,-17 -57,-34 -65,-38 -8,-4 -21,-13 -28,-20 -7,-7 -20,-13 -28,-13 -8,0 -14,-4 -14,-10 0,-5 -6,-10 -14,-10 -8,0 -16,-7 -20,-15 -3,-8 -11,-15 -18,-15 -7,0 -25,-11 -40,-25 -15,-14 -34,-25 -43,-25 -9,0 -18,-7 -21,-15 -4,-8 -12,-15 -19,-15 -7,0 -15,-4 -17,-8 -1,-4 -20,-18 -40,-31 -21,-12 -38,-27 -38,-32 0,-5 -7,-9 -15,-9 -8,0 -15,-3 -15,-8 0,-4 -16,-16 -35,-26 -19,-11 -35,-22 -35,-26 0,-4 -25,-24 -55,-45 -30,-20 -55,-41 -55,-46 0,-5 -4,-9 -10,-9 -5,0 -23,-12 -39,-27 -42,-39 -59,-53 -66,-53 -3,0 -23,-18 -45,-40 -22,-22 -42,-40 -44,-40 -18,0 -496,-477 -496,-495 0,-2 -19,-22 -42,-47 -24,-24 -52,-56 -63,-72 -11,-16 -37,-47 -57,-70 -68,-76 -78,-89 -78,-98 0,-5 -11,-19 -25,-32 -14,-13 -25,-28 -25,-35 0,-6 -3,-11 -7,-11 -5,0 -19,-18 -33,-40 -13,-22 -28,-40 -32,-40 -4,0 -8,-5 -8,-10 0,-6 -18,-35 -40,-65 -22,-30 -40,-59 -40,-64 0,-6 -6,-14 -13,-18 -14,-9 -35,-41 -43,-65 -4,-10 -10,-18 -14,-18 -4,0 -10,-8 -14,-17 -6,-21 -25,-51 -43,-71 -7,-7 -13,-20 -13,-28 0,-8 -4,-14 -9,-14 -5,0 -11,-8 -15,-17 -5,-18 -26,-53 -36,-63 -3,-3 -13,-21 -24,-40 -43,-83 -79,-146 -87,-154 -5,-6 -9,-18 -9,-27 0,-9 -7,-22 -15,-29 -8,-7 -15,-21 -15,-31 0,-11 -4,-19 -8,-19 -5,0 -16,-19 -26,-42 -9,-24 -21,-50 -27,-58 -5,-8 -12,-22 -15,-30 -9,-26 -30,-73 -58,-130 -14,-30 -26,-63 -26,-71 0,-9 -7,-22 -15,-29 -8,-7 -15,-21 -15,-31 0,-19 -2,-26 -33,-87 -9,-19 -17,-44 -17,-57 0,-12 -7,-28 -15,-35 -8,-7 -15,-25 -15,-41 0,-16 -4,-29 -10,-29 -5,0 -10,-10 -10,-22 0,-13 -7,-36 -15,-52 -8,-15 -15,-38 -15,-50 -1,-11 -7,-32 -15,-46 -8,-14 -14,-37 -15,-52 0,-15 -4,-29 -9,-32 -5,-3 -12,-26 -15,-51 -4,-24 -11,-47 -17,-50 -5,-4 -9,-23 -9,-43 -1,-20 -7,-48 -15,-62 -8,-14 -14,-42 -15,-62 0,-20 -4,-39 -9,-42 -5,-3 -12,-33 -16,-66 -4,-33 -11,-63 -16,-66 -5,-3 -9,-28 -9,-55 0,-27 -7,-66 -15,-86 -8,-19 -15,-63 -15,-98 0,-34 -3,-65 -8,-69 -4,-4 -13,-60 -21,-124 -15,-127 -27,-1044 -14,-1072 4,-8 13,-67 20,-130 7,-63 17,-149 22,-190 4,-41 13,-88 20,-103 6,-16 11,-48 11,-71 0,-23 3,-46 7,-50 7,-7 21,-70 41,-186 5,-25 14,-55 20,-67 7,-12 12,-37 12,-57 0,-19 4,-37 9,-41 6,-3 13,-26 17,-50 3,-25 10,-48 15,-51 5,-3 9,-18 9,-33 0,-15 7,-36 15,-47 8,-10 15,-31 15,-45 0,-15 7,-40 15,-55 8,-16 15,-37 15,-46 0,-9 5,-20 10,-23 6,-3 10,-16 10,-29 0,-12 7,-31 15,-42 8,-10 15,-29 15,-41 0,-12 8,-36 17,-55 31,-61 33,-68 33,-87 0,-10 7,-24 15,-31 8,-7 15,-20 15,-29 0,-8 12,-41 26,-71 14,-30 33,-71 41,-90 8,-19 19,-42 24,-50 5,-8 12,-22 15,-30 10,-24 34,-74 44,-90 5,-8 23,-44 40,-80 17,-36 45,-87 61,-115 16,-27 34,-59 39,-70 6,-11 19,-33 30,-50 10,-16 26,-44 35,-62 9,-18 23,-37 31,-44 8,-6 14,-16 14,-21 0,-5 11,-24 25,-42 14,-18 25,-35 25,-39 0,-6 97,-151 134,-200 14,-19 26,-38 26,-44 0,-5 10,-18 21,-29 12,-10 36,-40 53,-66 71,-106 201,-255 390,-447 426,-431 756,-701 1193,-975 197,-123 555,-311 748,-393 77,-33 260,-107 315,-128 110,-42 172,-63 225,-80 33,-10 69,-21 80,-26 37,-14 124,-39 135,-39 7,0 26,-6 43,-14 18,-8 46,-16 62,-19 41,-7 202,-46 245,-60 19,-6 58,-14 85,-18 58,-9 240,-44 336,-65 37,-8 91,-14 121,-14 30,0 68,-4 84,-10 41,-13 271,-31 524,-41 118,-4 244,-12 280,-18 70,-11 508,-4 525,9 6,4 62,10 125,14 63,4 119,11 124,16 6,6 40,10 77,10 37,0 83,7 102,15 20,8 61,15 91,15 30,0 57,4 61,9 3,5 34,13 70,16 36,4 68,11 71,16 3,5 23,9 45,9 22,0 50,5 62,12 12,6 42,15 67,19 25,4 72,15 105,24 33,9 76,20 95,24 19,4 45,13 57,19 12,7 33,12 46,12 14,0 38,7 53,15 16,8 37,15 46,15 9,0 20,5 23,10 3,5 19,10 34,10 15,0 36,7 47,15 10,8 30,15 44,15 14,0 34,7 44,15 11,8 30,15 43,15 13,0 23,4 23,9 0,5 18,11 40,15 22,3 40,11 40,16 0,6 10,10 23,10 12,0 31,7 41,15 11,8 30,15 43,15 13,0 23,5 23,10 0,6 8,10 18,10 10,0 27,7 38,15 10,8 28,15 39,15 11,0 29,7 39,15 11,8 28,15 37,15 10,0 19,3 21,8 5,12 68,42 88,42 10,0 20,4 22,8 4,10 130,72 146,72 7,0 12,4 12,8 0,5 21,18 48,30 26,12 55,27 65,32 40,23 54,31 92,50 22,11 54,29 70,40 17,11 39,24 50,29 11,5 44,25 74,45 29,20 56,36 59,36 3,0 20,11 38,25 18,14 37,25 43,25 5,0 14,6 18,13 9,14 41,35 66,43 9,4 17,10 17,15 0,5 7,9 15,9 8,0 15,3 15,8 0,4 18,18 40,32 22,13 40,28 40,32 0,4 5,8 11,8 12,0 92,59 97,72 2,5 9,8 16,8 7,0 31,18 54,40 22,22 44,40 47,40 6,0 23,13 56,42 10,10 22,18 25,18 3,0 18,12 33,27 15,16 43,39 61,53 18,14 51,42 74,63 22,20 44,37 48,37 4,0 8,7 8,15 0,8 4,15 10,15 8,0 340,325 340,333 0,2 32,36 70,77 39,41 70,78 70,83 0,4 16,23 35,41 19,19 35,36 35,39 0,3 14,21 30,39 16,18 30,36 30,39 0,4 18,27 40,50 22,24 40,47 40,52 0,6 11,20 25,33 14,13 25,28 25,34 0,5 4,10 9,10 5,0 13,10 16,22 4,11 17,31 30,42 12,12 25,31 29,44 4,12 12,22 17,22 5,0 9,7 9,15 0,8 3,15 8,15 4,0 16,17 27,37 11,21 25,42 32,46 7,4 13,13 13,18 0,6 11,25 25,43 14,18 25,36 25,39 0,3 14,26 30,50 17,25 30,50 30,56 0,6 4,11 9,11 5,0 12,11 15,25 4,14 11,25 16,25 6,0 10,9 10,19 0,11 5,23 10,26 6,3 19,26 30,50 11,24 24,47 30,50 5,3 10,15 10,25 0,10 4,20 8,22 10,4 72,126 72,143 0,7 6,18 13,24 8,6 22,35 32,66 11,30 23,55 27,55 4,0 8,6 8,14 0,8 6,27 14,43 8,15 19,42 26,58 7,17 18,43 26,58 8,16 14,36 14,45 0,9 7,26 15,36 8,11 15,30 15,43 0,13 4,23 9,23 5,0 12,18 16,40 4,22 11,40 16,40 5,0 9,11 9,24 0,13 6,37 14,53 17,32 46,128 46,149 0,8 5,14 10,14 6,0 10,15 10,33 1,17 7,43 15,57 8,14 14,42 15,63 0,20 4,37 9,37 5,0 13,25 16,55 4,30 11,55 16,55 5,0 9,19 9,43 1,23 7,53 15,67 8,14 14,48 15,77 0,28 4,54 9,58 5,3 13,41 17,85 3,44 11,83 15,86 5,3 9,35 9,72 0,37 5,83 12,102 20,59 46,867 29,899 -6,10 -11,81 -12,157 -1,89 -6,152 -15,177 -8,22 -14,72 -14,113 0,40 -4,75 -9,78 -4,3 -12,42 -15,86 -4,44 -12,82 -17,85 -5,4 -9,27 -9,53 0,26 -7,60 -15,76 -8,15 -15,48 -15,72 0,23 -4,46 -10,49 -5,3 -12,28 -16,56 -4,27 -11,52 -15,55 -5,3 -9,20 -9,37 -1,18 -7,43 -15,57 -8,14 -14,39 -15,56 0,16 -4,34 -9,40 -5,5 -16,36 -25,69 -10,33 -24,73 -32,88 -8,16 -14,39 -14,52 0,13 -4,26 -9,30 -5,3 -13,20 -17,37 -7,34 -10,42 -37,96 -9,19 -17,42 -17,52 0,10 -4,21 -9,25 -5,3 -13,19 -16,36 -4,17 -18,54 -32,83 -14,28 -31,65 -38,81 -24,58 -67,150 -76,165 -5,8 -12,22 -15,30 -3,8 -10,24 -16,34 -5,10 -29,55 -53,100 -23,45 -52,97 -64,116 -11,19 -24,42 -28,50 -4,8 -39,66 -77,128 -39,62 -75,121 -81,130 -5,10 -20,32 -32,49 -13,17 -23,34 -23,37 0,11 -183,258 -270,364 -30,37 -67,83 -81,102 -46,62 -229,260 -404,439 -253,258 -514,471 -840,687 -141,93 -110,74 -332,200 -98,56 -191,113 -208,126 -28,23 -88,54 -295,150 -171,80 -558,228 -596,228 -46,0 -142,26 -169,45 -42,31 -128,54 -212,57 -58,3 -79,8 -105,28 -26,20 -50,26 -118,32 -47,4 -119,14 -160,23 -41,9 -117,20 -167,24 -51,3 -98,12 -105,19 -7,7 -40,12 -79,12 -51,0 -72,5 -92,20 -24,19 -39,20 -474,18 -246,-2 -531,-4 -632,-5 z m 2387,-763 c 9,-5 51,-14 92,-19 101,-13 183,-31 195,-42 5,-5 30,-9 56,-9 26,0 50,-4 53,-9 4,-5 29,-12 56,-16 27,-4 52,-11 56,-16 3,-5 15,-9 28,-9 12,0 31,-7 42,-15 10,-8 36,-15 56,-15 20,0 39,-4 42,-9 3,-5 23,-12 43,-16 21,-4 44,-11 51,-17 14,-12 17,-68 3,-68 -5,0 -11,-18 -15,-40 -3,-22 -11,-40 -16,-40 -6,0 -10,-16 -10,-35 0,-22 -6,-38 -15,-41 -10,-4 -15,-20 -15,-45 0,-21 -4,-39 -10,-39 -5,0 -10,-11 -10,-24 0,-14 -7,-31 -15,-40 -8,-8 -15,-30 -15,-50 0,-20 -6,-38 -14,-43 -8,-4 -16,-24 -18,-43 -3,-33 -6,-35 -40,-38 -23,-2 -47,3 -60,12 -12,9 -32,16 -45,16 -12,0 -25,5 -28,10 -3,6 -18,10 -33,10 -15,1 -38,7 -52,15 -14,8 -37,14 -51,15 -15,0 -40,7 -55,15 -16,8 -43,15 -61,15 -17,0 -35,5 -38,10 -3,6 -20,10 -36,10 -16,0 -46,7 -66,15 -19,8 -61,15 -92,15 -31,0 -62,5 -68,11 -8,8 -74,14 -181,17 -146,4 -173,2 -193,-12 -14,-9 -43,-16 -71,-16 -27,0 -48,-4 -48,-10 0,-5 -11,-10 -24,-10 -14,0 -31,-7 -40,-15 -8,-8 -26,-15 -41,-15 -14,0 -28,-7 -31,-15 -4,-8 -12,-15 -20,-15 -8,0 -14,-4 -14,-9 0,-5 -11,-12 -25,-15 -14,-4 -25,-11 -25,-16 0,-6 -7,-10 -15,-10 -8,0 -15,-7 -15,-15 0,-8 -6,-15 -13,-15 -8,0 -20,-11 -27,-25 -7,-14 -19,-25 -27,-25 -7,0 -13,-6 -13,-14 0,-8 -7,-16 -15,-20 -8,-3 -15,-15 -15,-26 0,-11 -4,-20 -10,-20 -5,0 -10,-7 -10,-15 0,-8 -7,-15 -15,-15 -9,0 -15,-9 -15,-24 0,-13 -7,-29 -15,-36 -8,-7 -15,-25 -15,-41 0,-16 -4,-29 -10,-29 -5,0 -12,-16 -16,-35 -3,-19 -10,-35 -15,-35 -5,0 -9,-20 -9,-44 0,-26 -6,-48 -15,-56 -12,-10 -15,-37 -15,-125 0,-88 3,-115 15,-125 8,-7 15,-25 15,-41 0,-26 16,-60 58,-124 7,-11 15,-28 18,-37 4,-10 10,-18 15,-18 5,0 9,-7 9,-15 0,-8 7,-15 15,-15 8,0 15,-5 15,-12 0,-16 81,-98 96,-98 7,0 14,-3 16,-8 5,-12 85,-72 96,-72 6,0 32,-11 58,-25 26,-14 54,-25 63,-25 9,0 29,-7 45,-15 41,-22 318,-22 340,0 8,8 29,15 46,15 18,0 33,6 36,15 4,8 18,15 31,15 15,0 36,11 49,25 13,14 32,25 44,25 11,0 20,7 20,15 0,8 9,15 20,15 20,0 80,52 80,70 0,5 6,10 14,10 8,0 16,5 18,12 2,6 18,11 34,11 24,0 42,-12 81,-51 28,-29 56,-52 62,-52 6,0 11,-7 11,-15 0,-8 7,-15 15,-15 8,0 15,-5 15,-11 0,-14 25,-39 39,-39 6,0 11,-7 11,-15 0,-8 4,-15 10,-15 13,0 142,-129 157,-158 10,-19 10,-24 -2,-28 -8,-4 -13,-10 -10,-14 3,-5 -4,-11 -15,-15 -11,-4 -18,-11 -15,-16 4,-5 -1,-9 -9,-9 -8,0 -33,-18 -55,-40 -22,-22 -44,-40 -50,-40 -6,0 -11,-7 -11,-15 0,-8 -7,-15 -15,-15 -8,0 -15,-4 -15,-10 0,-5 -11,-12 -25,-16 -14,-3 -25,-10 -25,-15 0,-5 -7,-9 -15,-9 -8,0 -15,-7 -15,-15 0,-9 -9,-15 -25,-15 -16,0 -25,-6 -25,-15 0,-8 -9,-15 -21,-15 -11,0 -17,-4 -14,-10 4,-6 -5,-10 -20,-10 -14,0 -28,-7 -31,-15 -4,-8 -18,-15 -34,-15 -16,0 -30,-7 -34,-15 -3,-8 -17,-15 -31,-15 -14,0 -25,-4 -25,-9 0,-4 -19,-11 -42,-14 -24,-3 -44,-11 -46,-16 -2,-6 -25,-11 -52,-11 -30,0 -50,-5 -52,-12 -6,-16 -373,-25 -391,-10 -7,5 -43,13 -82,17 -38,4 -74,10 -80,15 -5,4 -23,10 -40,13 -16,2 -46,10 -65,17 -19,7 -39,15 -45,16 -5,2 -17,8 -25,13 -24,15 -87,41 -99,41 -6,0 -11,3 -11,8 0,4 -17,16 -37,27 -53,28 -123,77 -123,87 0,4 -6,8 -13,8 -18,0 -202,182 -259,256 -47,61 -83,117 -94,144 -3,8 -9,22 -14,30 -5,8 -17,31 -25,50 -9,19 -23,48 -31,63 -8,16 -14,38 -14,50 0,12 -7,31 -15,41 -8,11 -15,39 -15,62 0,24 -4,46 -10,49 -12,8 -14,465 -1,465 4,0 11,28 14,62 3,34 10,64 16,66 6,2 11,19 11,39 0,19 7,41 15,49 8,9 15,29 15,45 0,16 5,29 10,29 6,0 10,9 10,19 0,11 7,26 15,35 8,8 15,24 15,35 0,12 5,21 11,21 5,0 7,5 4,10 -3,6 -1,10 4,10 6,0 11,7 11,15 0,8 4,15 9,15 5,0 12,14 16,30 4,17 11,30 16,30 5,0 9,9 9,20 0,11 7,23 15,26 8,4 15,12 15,20 0,8 4,14 9,14 5,0 13,10 17,23 4,12 22,36 40,54 19,17 34,36 34,42 0,6 7,11 15,11 8,0 15,7 15,15 0,8 5,15 11,15 14,0 39,25 39,39 0,6 7,11 15,11 8,0 15,7 15,15 0,8 7,15 15,15 8,0 15,4 15,9 0,5 11,12 25,15 14,4 25,11 25,16 0,6 7,10 15,10 8,0 15,7 15,15 0,9 9,15 25,15 14,0 25,5 25,10 0,6 6,10 14,10 8,0 16,7 20,15 3,8 15,15 26,15 12,0 28,7 36,15 9,8 26,15 40,15 13,0 24,5 24,10 0,6 11,10 24,10 13,0 29,7 36,15 8,9 30,15 57,15 26,0 51,6 59,15 11,10 36,15 80,15 36,0 64,4 64,10 0,13 564,14 588,0 z m -3146,-27 c 6,-7 26,-13 42,-13 17,0 44,-7 60,-15 15,-8 41,-15 57,-15 15,0 31,-4 34,-10 3,-5 13,-10 22,-10 15,0 127,-49 163,-71 8,-5 33,-18 55,-29 50,-25 66,-36 132,-82 29,-21 55,-38 58,-38 3,0 23,-15 43,-34 20,-19 49,-44 64,-56 36,-28 86,-77 96,-95 4,-8 35,-43 70,-78 34,-36 62,-70 62,-76 0,-6 4,-11 8,-11 5,0 19,-20 31,-45 13,-26 27,-42 33,-39 6,4 8,2 5,-3 -4,-6 2,-18 13,-28 11,-10 20,-24 20,-31 0,-11 29,-75 66,-146 8,-14 14,-35 14,-46 0,-12 4,-23 9,-26 5,-4 12,-24 16,-46 4,-22 11,-42 16,-46 5,-3 9,-31 9,-62 1,-34 7,-65 15,-76 12,-16 15,-62 15,-241 0,-179 -3,-225 -15,-241 -8,-11 -14,-41 -15,-71 0,-29 -4,-53 -9,-53 -5,0 -11,-18 -15,-40 -3,-22 -11,-40 -16,-40 -6,0 -10,-13 -10,-29 0,-16 -7,-36 -15,-45 -8,-8 -15,-24 -15,-35 0,-12 -4,-21 -9,-21 -5,0 -12,-13 -16,-30 -4,-16 -10,-30 -15,-30 -4,0 -11,-11 -14,-25 -4,-14 -11,-25 -16,-25 -6,0 -10,-7 -10,-15 0,-8 -4,-15 -10,-15 -5,0 -12,-11 -16,-25 -3,-14 -10,-25 -15,-25 -5,0 -9,-7 -9,-15 0,-8 -7,-15 -15,-15 -8,0 -15,-5 -15,-11 0,-6 -12,-24 -27,-39 -43,-45 -53,-58 -53,-70 0,-5 -7,-10 -15,-10 -8,0 -15,-7 -15,-15 0,-8 -4,-15 -10,-15 -14,0 -50,-32 -45,-41 3,-4 -6,-10 -20,-13 -14,-4 -25,-11 -25,-16 0,-6 -7,-10 -15,-10 -8,0 -15,-7 -15,-15 0,-8 -7,-15 -15,-15 -8,0 -15,-4 -15,-9 0,-5 -11,-12 -25,-15 -14,-4 -25,-11 -25,-16 0,-6 -5,-10 -11,-10 -6,0 -17,-7 -25,-15 -9,-8 -24,-15 -35,-15 -11,0 -17,-4 -14,-10 3,-5 -3,-10 -14,-10 -11,0 -26,-7 -35,-15 -8,-8 -28,-15 -44,-15 -17,0 -32,-6 -36,-15 -3,-10 -19,-15 -46,-15 -23,0 -39,-4 -36,-9 3,-5 -21,-12 -54,-16 -33,-4 -60,-11 -60,-16 0,-13 -427,-12 -435,1 -3,6 -32,10 -64,10 -35,0 -65,6 -77,15 -10,8 -33,15 -50,15 -18,0 -45,7 -60,15 -16,8 -37,15 -46,15 -9,0 -20,5 -23,10 -3,6 -16,10 -29,10 -12,0 -31,7 -42,15 -10,8 -26,15 -35,15 -9,0 -22,7 -29,15 -7,8 -18,15 -26,15 -7,0 -39,18 -70,40 -32,22 -63,40 -70,40 -7,0 -14,3 -16,8 -5,11 -85,72 -95,72 -12,0 -296,284 -302,301 -2,7 -14,22 -26,33 -12,12 -25,28 -28,36 -11,23 -30,52 -54,79 -13,14 -23,33 -23,42 0,9 -7,22 -15,29 -8,7 -15,16 -15,21 0,5 -11,27 -25,49 -14,22 -25,48 -25,59 0,10 -7,24 -15,31 -8,7 -15,25 -15,41 0,15 -4,30 -9,34 -6,3 -13,26 -17,50 -3,25 -10,48 -15,51 -5,3 -9,31 -9,62 -1,34 -7,65 -15,76 -21,28 -21,310 0,346 8,15 14,53 15,93 0,37 4,67 9,67 5,0 11,23 15,50 4,28 11,50 16,50 6,0 10,13 10,29 0,16 7,36 15,45 8,8 15,26 15,40 0,14 4,26 9,26 5,0 12,14 16,30 4,17 11,30 16,30 5,0 9,9 9,20 0,11 7,23 15,26 8,4 15,17 15,30 0,15 6,24 15,24 8,0 15,7 15,15 0,8 5,15 10,15 6,0 10,7 10,15 0,8 7,15 15,15 8,0 14,3 14,8 -4,24 3,42 16,42 8,0 15,5 15,11 0,6 6,17 14,25 8,8 19,14 25,14 6,0 11,7 11,15 0,8 7,15 15,15 8,0 15,5 15,11 0,14 25,39 39,39 6,0 11,7 11,15 0,8 7,15 15,15 8,0 15,7 15,15 0,8 7,15 16,15 8,0 13,4 10,9 -3,5 5,12 19,15 14,4 25,11 25,16 0,6 6,10 14,10 8,0 16,7 20,15 3,8 15,15 26,15 11,0 20,5 20,10 0,6 7,10 15,10 9,0 18,7 21,15 4,9 19,15 36,15 16,0 27,4 24,9 -7,11 17,21 50,21 13,0 24,5 24,10 0,6 11,10 24,10 14,0 31,7 40,15 8,9 33,15 56,15 25,0 48,6 57,16 14,14 51,15 304,12 213,-2 291,-6 301,-15 z M 1340,7265 c 54,-55 54,-55 210,-55 156,0 156,0 183,-28 25,-26 27,-35 27,-109 0,-52 5,-91 15,-109 8,-16 15,-38 15,-50 0,-11 3,-24 7,-28 12,-12 34,-104 42,-177 4,-36 12,-72 16,-79 5,-8 12,-46 17,-84 39,-342 40,-349 66,-378 8,-10 26,-18 39,-18 23,0 23,1 23,111 0,75 -5,126 -16,160 -18,54 -14,153 5,172 6,6 11,52 11,102 1,59 6,99 15,115 8,14 14,39 15,57 0,17 5,35 10,38 6,3 10,15 10,25 0,10 7,25 15,34 8,8 15,22 15,30 0,13 12,16 58,16 64,0 177,-16 207,-29 41,-18 132,-40 195,-46 36,-4 72,-12 80,-19 21,-18 136,-27 190,-15 25,6 63,14 85,18 22,5 60,19 85,32 33,17 61,23 106,23 53,0 67,-5 100,-31 89,-70 124,-83 231,-83 61,0 103,-4 110,-11 9,-9 23,-9 55,-1 24,6 62,14 85,17 26,4 51,16 65,31 13,13 29,24 36,24 6,0 12,4 12,9 0,5 12,17 28,27 27,19 172,31 456,37 99,2 99,2 162,-68 35,-38 64,-75 64,-81 0,-6 7,-17 15,-24 8,-7 15,-21 15,-31 0,-11 4,-27 9,-37 24,-43 41,-86 41,-102 0,-9 7,-25 15,-36 8,-10 15,-29 15,-40 0,-12 7,-35 15,-50 8,-16 15,-41 15,-56 0,-15 4,-30 10,-33 6,-3 10,-29 10,-56 0,-27 7,-66 15,-86 8,-19 15,-62 15,-94 0,-32 4,-60 9,-63 5,-4 12,-44 16,-91 4,-47 11,-88 16,-91 5,-3 9,-28 9,-55 0,-27 7,-66 15,-86 8,-19 15,-59 15,-87 0,-29 5,-57 11,-63 8,-8 14,-74 17,-183 3,-94 9,-173 13,-176 5,-3 9,-21 9,-40 0,-32 2,-35 27,-32 27,3 27,3 29,216 1,144 5,217 13,225 7,7 11,64 11,166 1,121 4,160 15,175 8,11 15,34 15,52 0,18 4,35 9,38 5,4 12,29 16,56 4,28 11,50 17,50 6,0 8,20 4,53 -15,123 -17,190 -7,200 6,6 11,25 11,43 0,18 6,45 14,61 8,15 19,46 26,68 7,22 18,54 25,70 23,58 37,100 42,127 3,15 11,33 19,39 8,6 14,23 14,38 1,30 24,49 92,75 41,15 82,17 367,14 239,-2 323,-6 333,-15 6,-7 20,-13 30,-13 10,0 26,-4 36,-10 23,-13 92,-37 177,-60 96,-27 217,-26 292,1 72,26 186,81 195,94 4,6 67,10 152,10 144,0 144,0 218,-70 40,-39 91,-79 113,-89 22,-11 61,-30 87,-43 71,-34 100,-31 149,20 42,42 43,42 123,45 74,3 84,1 119,-22 38,-26 83,-33 115,-17 67,33 93,48 140,83 29,22 58,51 65,65 11,25 11,25 188,21 177,-3 177,-3 216,-34 21,-17 43,-41 49,-53 7,-13 17,-28 23,-34 6,-6 11,-19 11,-28 0,-10 8,-32 17,-51 29,-59 31,-64 38,-110 11,-74 15,-117 23,-233 4,-60 11,-116 16,-124 5,-8 13,-55 17,-105 9,-106 31,-231 42,-242 4,-4 7,-38 7,-75 0,-40 6,-78 15,-95 10,-20 15,-59 15,-126 0,-53 4,-99 9,-102 4,-3 11,-19 14,-36 13,-62 27,-29 27,63 1,65 5,98 15,112 12,16 15,56 15,213 -1,114 3,198 9,205 5,7 11,57 13,112 4,96 12,130 46,203 20,42 62,45 90,5 23,-34 82,-156 82,-170 0,-5 11,-31 25,-57 14,-26 25,-53 25,-61 0,-15 27,-45 41,-45 5,0 9,33 9,73 0,39 7,117 14,172 8,55 15,157 15,227 1,87 6,138 16,162 8,19 15,46 15,58 1,41 66,98 111,98 12,0 30,6 38,13 40,34 104,42 316,42 180,0 214,-3 240,-18 17,-9 36,-17 43,-17 22,0 86,-46 139,-101 49,-51 123,-158 123,-177 0,-5 14,-28 30,-50 36,-49 69,-55 94,-17 12,19 16,50 16,134 0,60 4,112 9,115 5,3 12,26 15,51 4,24 11,47 17,50 5,4 9,16 9,29 0,13 11,36 25,52 25,29 25,29 199,32 175,4 175,4 214,40 22,21 43,48 47,62 4,14 27,44 51,68 38,37 49,42 89,42 41,0 47,-3 75,-42 16,-22 30,-49 30,-60 0,-10 4,-26 9,-36 8,-16 19,-44 51,-132 7,-19 15,-48 17,-65 3,-16 9,-34 13,-40 4,-5 11,-29 15,-52 4,-24 11,-45 16,-49 5,-3 9,-24 9,-47 1,-23 7,-53 15,-67 8,-14 14,-46 15,-71 0,-25 3,-49 8,-53 12,-12 34,-154 38,-251 3,-49 11,-104 19,-122 22,-47 22,-777 0,-830 -9,-21 -15,-67 -15,-114 0,-43 -4,-80 -9,-83 -4,-3 -12,-42 -15,-86 -4,-44 -12,-82 -17,-85 -5,-4 -9,-32 -9,-64 0,-35 -6,-65 -15,-77 -8,-11 -15,-41 -15,-71 0,-28 -4,-55 -10,-58 -5,-3 -10,-17 -10,-29 0,-23 -19,-97 -42,-161 -5,-16 -12,-41 -15,-55 -2,-14 -8,-34 -13,-45 -5,-11 -17,-49 -29,-85 -23,-76 -39,-124 -57,-165 -16,-40 -31,-76 -38,-95 -3,-8 -10,-22 -15,-30 -5,-8 -17,-33 -27,-55 -11,-22 -22,-42 -25,-45 -3,-3 -8,-12 -12,-20 -8,-17 -30,-53 -37,-60 -3,-3 -18,-25 -34,-49 -32,-50 -199,-221 -215,-221 -6,0 -11,-4 -11,-9 0,-16 -61,-41 -97,-41 -19,0 -47,10 -63,22 -29,21 -30,25 -30,95 0,40 -4,81 -9,91 -12,24 -31,97 -41,157 -4,28 -17,75 -29,105 -18,46 -22,82 -25,212 -2,95 -8,163 -14,171 -7,8 -13,64 -14,132 -3,98 -6,120 -20,129 -9,5 -21,7 -25,2 -4,-4 -11,-69 -16,-144 -15,-271 -24,-378 -35,-412 -8,-25 -8,-70 -1,-160 6,-69 11,-161 12,-205 0,-78 -16,-170 -34,-190 -5,-5 -9,-41 -9,-80 0,-47 -5,-78 -15,-91 -8,-10 -15,-29 -15,-41 0,-13 -18,-52 -40,-88 -40,-65 -40,-65 -40,-175 0,-110 0,-110 -83,-195 -46,-47 -88,-85 -94,-85 -6,0 -13,-7 -17,-15 -3,-8 -12,-15 -19,-15 -8,0 -20,-6 -26,-14 -7,-8 -26,-21 -44,-30 -18,-9 -39,-20 -47,-25 -8,-5 -33,-17 -55,-26 -22,-10 -48,-22 -57,-26 -10,-5 -28,-9 -40,-9 -13,0 -32,-7 -42,-15 -11,-8 -28,-15 -37,-15 -24,0 -80,-31 -104,-58 -32,-34 -129,-230 -140,-282 -4,-17 -11,-32 -16,-35 -5,-4 -9,-24 -9,-45 0,-22 -6,-57 -14,-77 -8,-21 -17,-49 -20,-63 -6,-29 -48,-80 -65,-80 -6,0 -11,-4 -11,-9 0,-10 -22,-22 -212,-117 -142,-71 -180,-88 -228,-102 -19,-5 -58,-17 -86,-26 -29,-9 -67,-16 -86,-16 -19,0 -39,-5 -45,-11 -7,-7 -46,-14 -88,-17 -41,-2 -78,-9 -81,-13 -3,-5 -28,-9 -56,-9 -43,0 -57,5 -93,35 -35,28 -44,43 -49,77 -3,24 -13,95 -22,158 -8,63 -19,171 -23,240 -4,69 -12,138 -19,153 -7,16 -12,47 -12,71 0,51 -33,128 -43,101 -4,-9 -7,-32 -7,-51 0,-19 -4,-34 -9,-34 -4,0 -11,-35 -15,-77 -3,-42 -11,-82 -16,-87 -15,-15 -13,-169 3,-185 17,-17 17,-305 0,-322 -7,-7 -13,-32 -13,-55 0,-37 -4,-45 -34,-63 -18,-12 -48,-21 -66,-21 -23,0 -50,-13 -89,-42 -31,-23 -58,-44 -61,-48 -14,-17 -110,-68 -145,-78 -113,-30 -218,-36 -656,-37 -411,0 -448,-1 -466,-17 -11,-10 -23,-18 -28,-18 -4,0 -23,-11 -41,-25 -18,-14 -37,-25 -43,-25 -6,0 -11,-4 -11,-9 0,-5 -10,-13 -22,-17 -13,-4 -25,-9 -28,-13 -11,-13 -73,-41 -91,-41 -11,0 -30,-7 -44,-16 -20,-13 -62,-15 -302,-12 -199,2 -284,7 -298,15 -39,25 -161,61 -279,84 -27,5 -79,26 -115,46 -77,43 -181,138 -181,165 0,10 -7,29 -15,42 -13,20 -16,97 -18,547 -2,288 -7,533 -11,544 -6,16 -6,17 4,5 9,-12 10,-8 6,20 -4,19 -11,98 -16,175 -6,76 -15,144 -20,149 -6,6 -10,27 -10,47 0,21 -5,50 -11,66 -7,15 -15,46 -20,68 -4,22 -13,60 -20,85 -6,25 -13,51 -15,57 -5,19 -31,5 -38,-20 -3,-12 -6,-59 -6,-104 0,-45 -4,-84 -9,-87 -4,-3 -10,-83 -13,-178 -3,-103 -9,-182 -16,-195 -7,-12 -12,-68 -12,-130 -1,-75 -5,-116 -15,-133 -10,-17 -14,-59 -15,-137 0,-63 -4,-114 -10,-118 -14,-9 -13,-478 1,-492 6,-6 9,-49 6,-119 -7,-154 -20,-226 -48,-257 -20,-24 -30,-27 -88,-27 -38,0 -91,8 -126,19 -33,11 -100,32 -150,47 -275,84 -613,255 -850,429 -95,71 -235,218 -235,248 0,13 -6,29 -12,35 -9,9 -15,68 -20,180 -12,276 -23,406 -36,429 -8,14 -12,69 -12,158 0,75 -4,144 -10,154 -5,10 -12,95 -16,190 -4,94 -11,174 -16,177 -4,3 -8,22 -8,43 0,39 -31,93 -46,78 -4,-4 -9,-32 -12,-62 -2,-31 -8,-58 -13,-61 -5,-3 -9,-32 -9,-65 0,-35 -7,-73 -16,-90 -13,-26 -15,-69 -11,-302 3,-150 5,-276 6,-282 3,-33 -12,-244 -19,-265 -5,-14 -12,-69 -15,-122 -4,-55 -11,-98 -17,-98 -25,0 -171,117 -253,202 -190,196 -351,376 -415,463 -37,50 -77,99 -90,110 -12,11 -42,46 -67,78 -45,58 -45,58 -38,135 12,154 -5,802 -28,1032 -7,80 -12,191 -9,246 2,67 0,104 -7,108 -6,4 -11,17 -11,30 0,20 -35,66 -43,55 -36,-49 -37,-58 -37,-246 -1,-138 -5,-199 -15,-228 -10,-26 -15,-81 -15,-161 0,-88 -4,-130 -15,-150 -11,-21 -15,-64 -16,-154 0,-100 -4,-131 -18,-155 -34,-57 -96,-40 -136,39 -20,39 -34,62 -62,103 -13,17 -23,36 -23,41 0,5 -6,15 -14,21 -8,7 -22,26 -31,44 -9,18 -29,55 -45,82 -30,50 -52,94 -97,195 -14,30 -31,68 -39,83 -8,16 -14,36 -14,45 0,9 -7,26 -15,36 -8,11 -15,30 -15,42 0,13 -4,26 -10,29 -5,3 -10,14 -10,23 0,9 -7,30 -15,46 -8,15 -15,35 -15,43 0,17 -28,108 -41,135 -5,10 -9,26 -9,35 0,10 -7,39 -15,66 -8,26 -22,68 -30,95 -8,26 -15,61 -15,79 0,17 -4,34 -9,37 -4,3 -11,33 -15,65 -4,33 -11,63 -16,66 -6,4 -10,27 -10,53 -1,26 -7,58 -15,72 -8,14 -14,51 -15,82 0,31 -4,59 -9,62 -5,3 -12,39 -16,78 -4,40 -12,82 -18,93 -13,25 -12,842 1,859 5,6 13,46 17,88 4,43 11,80 16,84 5,3 9,25 9,49 0,24 5,56 12,72 12,30 19,73 38,218 7,50 16,94 21,99 5,6 9,24 9,40 0,17 7,44 15,60 8,15 15,43 15,62 0,18 4,35 9,39 5,3 13,19 16,37 4,17 18,51 31,76 13,25 24,50 24,57 0,6 14,26 31,43 47,48 74,43 139,-23 z" />
      <path
         id="pbgg47vOb"
         d="m 4480,10092 c 0,-5 -32,-12 -72,-14 -44,-2 -73,-9 -76,-16 -2,-7 -21,-12 -43,-12 -28,0 -39,-4 -39,-15 0,-9 -9,-15 -25,-15 -14,0 -25,-4 -25,-9 0,-5 -11,-12 -25,-15 -14,-4 -25,-11 -25,-16 0,-6 -7,-10 -15,-10 -8,0 -15,-7 -15,-15 0,-8 -5,-15 -11,-15 -14,0 -69,-55 -69,-69 0,-6 -5,-11 -11,-11 -5,0 -7,-4 -4,-10 3,-5 1,-10 -4,-10 -6,0 -11,-7 -11,-15 0,-8 -7,-15 -15,-15 -9,0 -15,-9 -15,-25 0,-14 -4,-25 -10,-25 -5,0 -10,-11 -10,-25 0,-14 -7,-28 -15,-31 -10,-4 -15,-20 -15,-49 0,-26 -6,-47 -15,-55 -12,-10 -15,-44 -15,-185 0,-141 3,-175 15,-185 8,-7 15,-27 15,-44 0,-17 7,-40 15,-50 8,-11 15,-27 15,-36 0,-26 24,-70 38,-70 7,0 11,-4 8,-9 -3,-4 3,-16 14,-26 11,-10 20,-26 20,-35 0,-9 11,-27 25,-40 14,-13 25,-29 25,-37 0,-7 5,-13 11,-13 14,0 39,-25 39,-39 0,-6 7,-11 15,-11 8,0 15,-5 15,-11 0,-12 54,-69 66,-69 6,0 42,-30 110,-91 12,-10 28,-19 35,-20 8,0 28,-9 44,-20 17,-10 40,-23 52,-28 11,-5 24,-15 28,-20 3,-6 16,-11 28,-11 24,-1 123,-33 134,-44 11,-10 383,-7 383,4 0,5 18,13 40,16 22,4 40,10 40,14 0,4 14,10 31,14 17,3 28,10 24,16 -4,6 5,10 20,10 14,0 28,7 31,15 4,8 10,15 16,15 13,0 38,26 38,39 0,6 7,11 15,11 8,0 15,7 15,15 0,8 6,15 13,15 8,0 22,16 33,35 10,19 22,35 26,35 5,0 8,6 8,14 0,8 7,16 15,20 8,3 15,17 15,31 0,14 5,25 10,25 6,0 10,9 10,20 0,11 7,23 15,26 10,4 15,20 15,44 0,22 5,40 13,42 9,4 13,55 15,200 3,166 1,196 -12,208 -9,7 -16,27 -16,45 0,18 -7,38 -15,45 -8,7 -15,22 -16,34 0,11 -9,35 -20,51 -10,17 -22,37 -26,45 -12,26 -56,83 -110,143 -29,32 -53,62 -53,68 0,5 -6,9 -14,9 -7,0 -20,7 -27,16 -18,22 -147,116 -179,131 -14,6 -54,25 -89,42 -35,17 -75,31 -88,31 -13,0 -31,4 -41,9 -58,30 -322,57 -322,33 z" />
      <path
         id="pfildBYtj"
         d="m 7470,6800 c 0,-5 -8,-10 -17,-10 -10,0 -25,-5 -33,-10 -24,-17 23,-50 71,-50 50,0 57,15 23,51 -29,30 -44,37 -44,19 z" />
    </g>
  </g>
</svg>
