<?xml version="1.0" encoding="UTF-8" standalone="no"?>
<!-- Created with Inkscape (http://www.inkscape.org/) -->

<svg
   version="1.1"
   width="505.00046"
   height="504.99966"
   id="svg2816"
   xml:space="preserve"
   inkscape:version="1.2.1 (9c6d41e410, 2022-07-14)"
   sodipodi:docname="not-safe.svg"
   xmlns:inkscape="http://www.inkscape.org/namespaces/inkscape"
   xmlns:sodipodi="http://sodipodi.sourceforge.net/DTD/sodipodi-0.dtd"
   xmlns="http://www.w3.org/2000/svg"
   xmlns:svg="http://www.w3.org/2000/svg"
   xmlns:rdf="http://www.w3.org/1999/02/22-rdf-syntax-ns#"
   xmlns:cc="http://creativecommons.org/ns#"
   xmlns:dc="http://purl.org/dc/elements/1.1/"><metadata
     id="metadata81"><rdf:RDF><cc:Work
         rdf:about=""><dc:format>image/svg+xml</dc:format><dc:type
           rdf:resource="http://purl.org/dc/dcmitype/StillImage" /></cc:Work></rdf:RDF></metadata><sodipodi:namedview
     pagecolor="#ffffff"
     bordercolor="#666666"
     borderopacity="1"
     objecttolerance="10"
     gridtolerance="10"
     guidetolerance="10"
     inkscape:pageopacity="0"
     inkscape:pageshadow="2"
     inkscape:window-width="3840"
     inkscape:window-height="2066"
     id="namedview79"
     showgrid="false"
     fit-margin-top="2.5"
     fit-margin-left="2.5"
     fit-margin-right="2.5"
     fit-margin-bottom="2.5"
     inkscape:zoom="1"
     inkscape:cx="50"
     inkscape:cy="233"
     inkscape:window-x="3829"
     inkscape:window-y="-11"
     inkscape:window-maximized="1"
     inkscape:current-layer="svg2816"
     inkscape:showpageshadow="2"
     inkscape:pagecheckerboard="0"
     inkscape:deskcolor="#d1d1d1" /><defs
     id="defs2820"><clipPath
       id="clipPath2832"><path
         d="m -0.24,595.138 317.48,0 0,-595.276 -317.48,0 0,595.276 z"
         id="path2834"
         inkscape:connector-curvature="0" /></clipPath><clipPath
       id="clipPath2840"><path
         d="m 0.03,595.32 317.46,0 0,-595.32 -317.46,0 0,595.32 z"
         id="path2842"
         inkscape:connector-curvature="0" /></clipPath><clipPath
       id="clipPath2858"><path
         d="m -0.24,595.138 317.48,0 0,-595.276 -317.48,0 0,595.276 z"
         id="path2860"
         inkscape:connector-curvature="0" /></clipPath><clipPath
       id="clipPath2864"><path
         d="m 0.03,595.32 317.46,0 0,-595.32 -317.46,0 0,595.32 z"
         id="path2866"
         inkscape:connector-curvature="0" /></clipPath><clipPath
       id="clipPath3306"><path
         d="m 199.238,472.977 0,-29.74 29.744,0 0,29.74"
         id="path3308"
         inkscape:connector-curvature="0" /></clipPath><clipPath
       id="clipPath3322"><path
         d="m -0.24,595.138 317.48,0 0,-595.276 -317.48,0 0,595.276 z"
         id="path3324"
         inkscape:connector-curvature="0" /></clipPath><clipPath
       id="clipPath3330"><path
         d="m 0.03,595.32 317.46,0 0,-595.32 -317.46,0 0,595.32 z"
         id="path3332"
         inkscape:connector-curvature="0" /></clipPath><clipPath
       id="clipPath3344"><path
         d="m 88.233,387.221 0,-28.335 32.08,0 0,28.335"
         id="path3346"
         inkscape:connector-curvature="0" /></clipPath><clipPath
       id="clipPath3462"><path
         d="m -0.24,595.138 317.48,0 0,-595.276 -317.48,0 0,595.276 z"
         id="path3464"
         inkscape:connector-curvature="0" /></clipPath><clipPath
       id="clipPath3470"><path
         d="m 0.03,595.32 317.46,0 0,-595.32 -317.46,0 0,595.32 z"
         id="path3472"
         inkscape:connector-curvature="0" /></clipPath><clipPath
       id="clipPath3490"><path
         d="m -0.24,595.138 317.48,0 0,-595.276 -317.48,0 0,595.276 z"
         id="path3492"
         inkscape:connector-curvature="0" /></clipPath><clipPath
       id="clipPath3496"><path
         d="m 0.03,595.32 317.46,0 0,-595.32 -317.46,0 0,595.32 z"
         id="path3498"
         inkscape:connector-curvature="0" /></clipPath><clipPath
       id="clipPath3520"><path
         d="m 254.788,326.215 0,-28.309 28.326,0 0,28.309"
         id="path3522"
         inkscape:connector-curvature="0" /></clipPath><clipPath
       id="clipPath3544"><path
         d="m 145.049,326.142 0,-28.333 28.342,0 0,28.333"
         id="path3546"
         inkscape:connector-curvature="0" /></clipPath><clipPath
       id="clipPath3682"><path
         d="m -0.24,595.138 317.48,0 0,-595.276 -317.48,0 0,595.276 z"
         id="path3684"
         inkscape:connector-curvature="0" /></clipPath><clipPath
       id="clipPath3690"><path
         d="m 0.03,595.32 317.46,0 0,-595.32 -317.46,0 0,595.32 z"
         id="path3692"
         inkscape:connector-curvature="0" /></clipPath><clipPath
       id="clipPath3980"><path
         d="m -0.24,595.138 317.48,0 0,-595.276 -317.48,0 0,595.276 z"
         id="path3982"
         inkscape:connector-curvature="0" /></clipPath><clipPath
       id="clipPath3988"><path
         d="m 0.03,595.32 317.46,0 0,-595.32 -317.46,0 0,595.32 z"
         id="path3990"
         inkscape:connector-curvature="0" /></clipPath><clipPath
       id="clipPath4010"><path
         d="m -0.24,595.138 317.48,0 0,-595.276 -317.48,0 0,595.276 z"
         id="path4012"
         inkscape:connector-curvature="0" /></clipPath><clipPath
       id="clipPath4016"><path
         d="m 0.03,595.32 317.46,0 0,-595.32 -317.46,0 0,595.32 z"
         id="path4018"
         inkscape:connector-curvature="0" /></clipPath><clipPath
       id="clipPath4062"><path
         d="m 200.163,177.773 0,-28.284 28.283,0 0,28.284"
         id="path4064"
         inkscape:connector-curvature="0" /></clipPath><clipPath
       id="clipPath4090"><path
         d="m 34.886,177.515 0,-51.632 30.367,0 0,51.632"
         id="path4092"
         inkscape:connector-curvature="0" /></clipPath><clipPath
       id="clipPath4106"><path
         d="m 34.886,177.515 0,-51.632 30.367,0 0,51.632"
         id="path4108"
         inkscape:connector-curvature="0" /></clipPath><clipPath
       id="clipPath4272"><path
         d="m 34.886,177.515 0,-51.632 30.367,0 0,51.632"
         id="path4274"
         inkscape:connector-curvature="0" /></clipPath><clipPath
       id="clipPath4304"><path
         d="m 254.653,176.442 0,-48.167 28.317,0 0,48.167"
         id="path4306"
         inkscape:connector-curvature="0" /></clipPath><clipPath
       id="clipPath4310"><path
         d="m 253.565,177.983 31.181,0 0,-49.183 -31.181,0 0,49.183 z"
         id="path4312"
         inkscape:connector-curvature="0" /></clipPath><clipPath
       id="clipPath4316"><path
         d="m -0.24,595.138 317.48,0 0,-595.276 -317.48,0 0,595.276 z"
         id="path4318"
         inkscape:connector-curvature="0" /></clipPath><clipPath
       id="clipPath4322"><path
         d="m 0.03,595.32 317.46,0 0,-595.32 -317.46,0 0,595.32 z"
         id="path4324"
         inkscape:connector-curvature="0" /></clipPath><clipPath
       id="clipPath4456"><path
         d="m -0.24,595.138 317.48,0 0,-595.276 -317.48,0 0,595.276 z"
         id="path4458"
         inkscape:connector-curvature="0" /></clipPath><clipPath
       id="clipPath4464"><path
         d="m 0.03,595.32 317.46,0 0,-595.32 -317.46,0 0,595.32 z"
         id="path4466"
         inkscape:connector-curvature="0" /></clipPath></defs><path
     style="fill:currentColor;fill-opacity:1;fill-rule:nonzero;stroke:none"
     d="m 433.84119,454.46548 c 19.50971,0 35.31901,-8.04095 43.34304,-22.06213 8.00126,-14.02118 6.93797,-31.71567 -2.9687,-48.53047 L 293.49975,76.81542 C 283.67657,60.09933 268.72307,50.5346 252.50042,50.5346 c -16.22266,0 -31.17615,9.56473 -40.99932,26.28082 L 30.7853,383.87288 c -9.90667,16.8148 -10.96996,34.50929 -2.9687,48.53047 8.02403,14.02118 23.83333,22.06213 43.34304,22.06213 z M 66.50347,410.27871 C 66.81471,409.25389 251.7261,95.36664 252.50042,94.72137 c 0.77432,0.64527 185.6857,314.53252 185.99694,315.55734 -0.52,0.1251 -371.47388,0.1251 -371.99389,0 z"
     id="path9928"
     inkscape:connector-curvature="0"
     sodipodi:nodetypes="scccscccsscccc" /><path
     inkscape:connector-curvature="0"
     d="m 294.91736,399.46548 -204.416951,0 116.302181,-195 2.34015,7.04862 4.70847,3.52431 4.69438,9.3958 3.51726,7.05567 2.36129,11.73595 2.34013,16.45147 3.51727,18.79161 5.8856,10.57998 3.5243,12.92717 4.69438,15.26026 5.8856,8.21868 3.51021,9.40285 2.36129,15.26731 5.86444,8.23278 7.05567,5.86445 7.04156,7.04862 5.87855,5.87855 7.05567,12.92716 5.87855,9.38876 z"
     style="fill:currentColor;fill-opacity:1;fill-rule:nonzero;stroke:none"
     id="path5889" /><path
     inkscape:connector-curvature="0"
     d="m 326.62908,338.38921 5.29352,-1.7692 5.27941,-1.76216 7.62661,-0.57798 10.57292,1.7692 4.70848,2.92518 5.86445,6.45653 4.11639,7.04862 2.35424,7.04861 -0.59208,11.7571 -1.76216,8.21869 -5.87854,5.87854 -5.27942,1.76216 -22.91506,1.17007 -4.68733,-1.17007 -7.6407,-4.1164 -5.29351,-3.5243 -0.57798,-4.69438 -4.70849,-6.47063 -0.57093,-8.81078 2.93223,-7.6266 2.92517,-4.70143 1.76216,-4.10935 6.47062,-4.70142 z"
     style="fill:currentColor;fill-opacity:1;fill-rule:nonzero;stroke:none"
     id="path5893" /><path
     inkscape:connector-curvature="0"
     d="m 301.36752,361.88226 -9.40286,0 -5.28646,-2.94633 -2.93223,-6.45653 2.93223,-2.93222 0.59913,-4.1164 3.51727,-1.17007 3.5243,-0.59208 4.70143,2.93222 2.93927,4.70848 1.76216,4.70143 -2.35424,5.8715 z"
     style="fillcurrentColor;fill-opacity:1;fill-rule:nonzero;stroke:none"
     id="path5897" /><path
     inkscape:connector-curvature="0"
     d="m 324.86056,325.455 -8.21868,-3.51726 -2.93223,-5.29351 -1.76921,-4.68734 4.10935,-7.05566 4.70142,-4.69437 5.87855,-1.17713 11.15091,1.75511 3.53137,5.28646 1.17006,7.6407 -1.76215,7.05567 -6.45653,2.92518 -9.40286,1.76215 z"
     style="fill:currentColor;fill-opacity:1;fill-rule:nonzero;stroke:none"
     id="path5901" /><path
     inkscape:connector-curvature="0"
     d="m 273.76446,331.92563 -7.6407,-3.51726 -2.3472,-7.05567 1.17712,-6.47063 2.93928,-5.28646 4.1023,-2.92517 8.23278,0.58503 4.10935,3.53136 1.76215,6.44949 -1.76215,4.70142 -2.93928,5.27941 -5.29352,2.36129 -2.34013,2.34719 z"
     style="fill:currentColor;fill-opacity:1;fill-rule:nonzero;stroke:none"
     id="path5905" /><path
     inkscape:connector-curvature="0"
     d="m 273.76446,300.20686 -5.28646,-1.17713 -6.47064,-5.86445 -4.11638,-3.53135 c 0,0 -5.85741,-10.56588 -6.4495,-15.8594 0,0 0.59209,-6.47062 4.10935,-9.3958 l 4.1164,-4.70143 5.86445,-5.27941 4.70142,-2.36129 c 0,0 19.97579,4.11639 22.91506,14.69637 0,0 5.27941,16.45148 0.57798,19.37664 0,0 -8.21868,14.69637 -19.96168,14.09725"
     style="fill:currentColor;fill-opacity:1;fill-rule:nonzero;stroke:none"
     id="path5909" /><path
     inkscape:connector-curvature="0"
     d="m 241.45428,230.30571 c 0,0 12.92716,0 8.81781,7.6407 0,0 -8.81781,15.26026 -14.10428,4.69438 0,0 -3.52431,-5.86445 5.28647,-12.33508"
     style="fill:currentColor;fill-opacity:1;fill-rule:nonzero;stroke:none"
     id="path5913" /><path
     inkscape:connector-curvature="0"
     d="m 236.74585,222.67844 c 0,0 -4.10229,-9.99494 -11.74299,-6.47064 0,0 -7.62661,7.6407 0.59208,11.7571 0,0 9.98085,3.5243 11.15091,-5.28646"
     style="fill:currentColor;fill-opacity:1;fill-rule:nonzero;stroke:none"
     id="path5917" /></svg>
