<svg xmlns="http://www.w3.org/2000/svg" width="14.5pt" height="27.212" preserveAspectRatio="xMidYMid" version="1.0" viewBox="0 0 14.5 20.409"><path fill="#ea4335" stroke="#23272b" stroke-width=".435" d="M8.193 18.669c.616-1.795 1.25-2.828 3.317-5.366.834-1.033 1.722-2.284 1.958-2.755C15.552 6.396 13.504 1.7 9.063.414 8.818.342 7.633.218 7.25.218c-.382 0-1.568.124-1.813.196-4.441 1.287-6.49 5.982-4.405 10.134.236.47 1.124 1.722 1.958 2.755 2.067 2.538 2.701 3.571 3.317 5.366.454 1.36.554 1.52.943 1.523.389.002.49-.164.943-1.523z"/><path fill="#fff" fill-rule="evenodd" d="M3.816 9.2c0-.86 1.717-3.435 3.414-3.435 1.737 0 3.454 2.576 3.454 3.434H7.25ZM7.25 3.19c-2.576 0-6.01 3.434-6.01 6.01h.859c0-2.576 3.434-5.152 5.151-5.152 1.717 0 5.151 2.576 5.151 5.151h.86c0-2.575-3.435-6.01-6.011-6.01z"/></svg>