<?xml version="1.0" encoding="UTF-8" standalone="no"?>
<svg
   width="19.99984pt"
   height="28.150248pt"
   preserveAspectRatio="xMidYMid"
   version="1.0"
   viewBox="0 0 19.99984 28.150248"
   id="svg8"
   sodipodi:docname="pin.svg"
   inkscape:version="1.2.1 (9c6d41e410, 2022-07-14)"
   xmlns:inkscape="http://www.inkscape.org/namespaces/inkscape"
   xmlns:sodipodi="http://sodipodi.sourceforge.net/DTD/sodipodi-0.dtd"
   xmlns="http://www.w3.org/2000/svg"
   xmlns:svg="http://www.w3.org/2000/svg">
  <defs
     id="defs12" />
  <sodipodi:namedview
     id="namedview10"
     pagecolor="#ffffff"
     bordercolor="#000000"
     borderopacity="0.25"
     inkscape:showpageshadow="2"
     inkscape:pageopacity="0.0"
     inkscape:pagecheckerboard="0"
     inkscape:deskcolor="#d1d1d1"
     inkscape:document-units="pt"
     showgrid="false"
     inkscape:zoom="33.329781"
     inkscape:cx="0.99010552"
     inkscape:cy="18.782002"
     inkscape:window-width="3840"
     inkscape:window-height="2066"
     inkscape:window-x="-11"
     inkscape:window-y="-11"
     inkscape:window-maximized="1"
     inkscape:current-layer="svg8" />
  <path
     d="m 11.300208,25.750123 c 0.850069,-2.47531 1.725242,-3.900691 4.575587,-7.401108 1.150347,-1.425241 2.375451,-3.150344 2.700417,-3.800552 2.87545,-5.7257952 0.05007,-12.2016604 -6.075865,-13.9769717 -0.337518,-0.1 -1.973243,-0.27089668 -2.500278,-0.2714484 -0.5271721,0 -2.1627592,0.17131044 -2.5004146,0.27131047 C 1.3737204,2.3465267 -1.4516604,8.82253 1.4237894,14.548326 c 0.3249657,0.650207 1.5502078,2.375448 2.7004151,3.800553 2.8503463,3.500553 3.7255192,4.925795 4.5755885,7.401108 0.6251038,1.87531 0.7637246,2.09738 1.300276,2.100414 0.536414,0.0031 0.675035,-0.224966 1.300139,-2.100278 z"
     style="fill:#ea4335;fill-opacity:1;stroke:#23272b;stroke-width:0.600085;stroke-dasharray:none;stroke-opacity:1"
     id="path2"
     inkscape:label="pin" />
  <path
     d="m 5.8100432,12.2081 c 0,-1.04682 2.0946526,-4.1882921 4.1639707,-4.1872787 2.1179601,0 4.2126131,3.1404587 4.2126131,4.1872787 H 9.998335 Z M 9.998335,4.8793491 c -3.1414723,0 -7.3287507,4.1882918 -7.3287507,7.3287509 H 3.716404 c 0,-3.1414726 4.1882918,-6.2819314 6.281931,-6.2819314 2.093639,0 6.281931,3.1414723 6.281931,6.2819314 h 1.04682 c 0,-3.1414726 -4.188293,-7.3287509 -7.328751,-7.3287509 z"
     style="display:inline;fill:#ffffff;fill-opacity:1;fill-rule:evenodd;stroke:none;stroke-width:1.04695;stroke-opacity:1;enable-background:new"
     id="path4"
     inkscape:label="cave icon" />
</svg>
