<svg width="20pt" height="28.15pt" preserveAspectRatio="xMidYMid" version="1.0" viewBox="0 0 20 28.15" xmlns="http://www.w3.org/2000/svg"><g transform="matrix(-.13793 0 0 -.13793 113.1 158.46)"><path d="m738.02 962.17c-6.1634 17.946-12.508 28.279-33.174 53.658-8.3387 10.333-17.221 22.841-19.578 27.554-20.847 41.512-0.36256 88.463 44.05 101.33 2.4472 0.7252 14.306 1.9638 18.128 1.9682 3.8217 0 15.68-1.2422 18.128-1.9674 44.413-12.871 64.897-59.821 44.05-101.33-2.3566-4.7132-11.239-17.221-19.578-27.554-20.665-25.379-27.01-35.711-33.174-53.658-4.5319-13.596-5.5371-15.206-9.4264-15.228-3.8893-0.022-4.8945 1.6312-9.4264 15.227z" fill="#ea4335" stroke="#23272b" stroke-width="4.3506"/></g><g transform="matrix(1.0821 0 0 1.0821 2.4252 1.5103)" enable-background="new" fill="#fff"><path d="m2.8675 10.116c0-1.0331 2.0663-4.1325 4.1081-4.1324 2.0907-7.2e-5 4.1569 3.0993 4.1569 4.1324h-4.1325zm4.1325-7.2319c-3.0994 0-7.2319 4.1325-7.2319 7.2319h1.0331c0-3.0994 4.1325-6.1988 6.1988-6.1988 2.0663 0 6.1988 3.0994 6.1988 6.1988h1.0331c0-3.0994-4.1325-7.2319-7.2319-7.2319z" fill="#fff" fill-rule="evenodd"/></g></svg>
