<svg xmlns="http://www.w3.org/2000/svg" width="20" height="28.15" preserveAspectRatio="xMidYMid" version="1.0"><path fill="#ea4335" stroke="#23272b" stroke-width=".6" d="M11.3 25.75c.85-2.475 1.725-3.9 4.576-7.401 1.15-1.425 2.375-3.15 2.7-3.8 2.875-5.726.05-12.202-6.076-13.977C12.163.472 10.527.3 10 .3c-.527 0-2.163.171-2.5.271-6.126 1.776-8.952 8.251-6.076 13.977.325.65 1.55 2.376 2.7 3.8C6.974 21.85 7.85 23.276 8.7 25.75c.625 1.875.763 2.097 1.3 2.1.536.003.675-.225 1.3-2.1z"/><path fill="#fff" fill-rule="evenodd" d="M5.81 12.208c0-1.046 2.095-4.188 4.164-4.187 2.118 0 4.213 3.14 4.213 4.187H9.998zM10 4.88c-3.142 0-7.33 4.189-7.33 7.33h1.047c0-3.142 4.189-6.283 6.282-6.283s6.283 3.142 6.283 6.282h1.046c0-3.141-4.188-7.329-7.329-7.329z"/></svg>