<svg xmlns="http://www.w3.org/2000/svg" preserveAspectRatio="xMidYMid" version="1.0" viewBox="0 0 20 28.15"><path fill="currentColor" stroke="#23272b" stroke-width=".6" d="M11.3 25.75c.85-2.475 1.725-3.9 4.576-7.401 1.15-1.425 2.375-3.15 2.7-3.8C21.451 8.822 18.626 2.345 12.5.57 12.163.47 10.527.3 10 .299 9.473.3 7.837.47 7.5.57 1.373 2.346-1.453 8.822 1.423 14.548c.324.65 1.55 2.376 2.7 3.8 2.85 3.501 3.725 4.927 4.576 7.402.625 1.875.763 2.097 1.3 2.1.536.003.675-.225 1.3-2.1z"/><path fill="#fff" d="M9.829 18.527c-.817 0-1.453-.65-1.453-1.452 0-.816.65-1.439 1.453-1.439.816 0 1.438.623 1.438 1.439 0 .802-.609 1.452-1.438 1.452zM13.3 9.993c-.871 1.287-1.701 1.674-2.158 2.504-.11.193-.18.36-.22.677-.07.54-.499.94-1.038.94h-.042a1.043 1.043 0 0 1-1.037-1.133c.042-.374.125-.789.346-1.162.567-1.01 1.632-1.604 2.254-2.49.664-.94.29-2.683-1.576-2.683-.844 0-1.397.443-1.743.968-.263.402-.788.54-1.231.346-.581-.249-.83-.968-.47-1.48.705-1.023 1.88-1.784 3.43-1.784 1.7 0 2.877.775 3.471 1.743.498.843.803 2.393.014 3.554z"/></svg>