<?xml version="1.0" encoding="UTF-8" standalone="no"?>
<svg
   height="48"
   viewBox="0 -960 1152 1152"
   width="48"
   version="1.1"
   id="svg4"
   sodipodi:docname="fees-no.svg"
   inkscape:version="1.2.1 (9c6d41e410, 2022-07-14)"
   xmlns:inkscape="http://www.inkscape.org/namespaces/inkscape"
   xmlns:sodipodi="http://sodipodi.sourceforge.net/DTD/sodipodi-0.dtd"
   xmlns="http://www.w3.org/2000/svg"
   xmlns:svg="http://www.w3.org/2000/svg">
  <defs
     id="defs8" />
  <sodipodi:namedview
     id="namedview6"
     pagecolor="#ffffff"
     bordercolor="#000000"
     borderopacity="0.25"
     inkscape:showpageshadow="2"
     inkscape:pageopacity="0.0"
     inkscape:pagecheckerboard="0"
     inkscape:deskcolor="#d1d1d1"
     showgrid="false"
     inkscape:zoom="31.275"
     inkscape:cx="13.81295"
     inkscape:cy="19.984013"
     inkscape:window-width="3840"
     inkscape:window-height="2066"
     inkscape:window-x="-11"
     inkscape:window-y="-11"
     inkscape:window-maximized="1"
     inkscape:current-layer="svg4" />
  <path
     d="m 744.16684,-683.226 q -23.12333,-34.37413 -57.49746,-53.49192 -34.37413,-19.11778 -79.50039,-19.11778 -39.43853,0 -74.93305,13.8251 -35.49451,13.82348 -60.5688,42.75921 l -57.53793,-57.53632 q 28.77058,-32.42317 68.80978,-51.87286 40.04082,-19.44807 80.97374,-24.34733 v -83.44441 q 0,-17.60073 11.54061,-29.14135 11.54062,-11.54061 29.14297,-11.54061 17.60073,0 29.14135,11.54061 11.54061,11.54062 11.54061,29.14135 v 82.11679 q 51.47782,5.81078 98.51295,33.93698 47.03513,28.1262 78.83496,82.67536 9.21566,14.65406 3.03087,31.05183 -6.18478,16.39778 -23.1638,24.28581 -15.07015,6.22688 -31.36269,0.22829 -16.29416,-5.9986 -26.96372,-21.06875 z M 1081.9257,179.51755 820.22027,-81.522486 q -31.01136,35.53661 -78.29582,56.749453 -47.28447,21.2144608 -96.64618,23.207516 v 81.035259 q 0,17.602352 -11.54061,29.142968 -11.54062,11.54061 -29.14135,11.54061 -17.60235,0 -29.14297,-11.54061 Q 563.91273,97.072094 563.91273,79.469742 V -4.1398125 Q 488.39844,-16.593574 437.10844,-61.574125 385.81843,-106.55468 355.96956,-175.55227 q -6.80812,-14.98596 0.5181,-31.73669 7.32783,-16.74911 24.63876,-23.22533 15.64977,-5.89497 31.09231,1.63848 15.44253,7.53508 23.24799,23.85029 25.40619,57.70469 70.1795,91.01996 44.77331,33.315267 110.57328,33.315267 44.00588,0 82.17831,-15.359962 38.17243,-15.361585 62.54242,-44.753885 L 12.025881,-889.7185 Q 0.31850336,-901.42425 0.00764504,-918.38222 -0.30321328,-935.34019 12.025881,-947.67091 24.354975,-960 41.002086,-960 q 16.645492,0 28.976205,12.32909 L 1139.8781,122.23057 q 6.5588,5.89498 9.3404,13.01395 2.7815,7.11898 2.7815,15.31787 0,8.19889 -2.7815,15.29844 -2.7816,7.09793 -9.3404,13.65672 -11.9146,12.32909 -28.7689,12.32909 -16.8544,0 -29.1835,-12.32909 z"
     id="path2"
     style="stroke-width:1.61905" />
</svg>
