<?xml version="1.0" encoding="UTF-8" standalone="no"?>
<svg
   height="48"
   viewBox="0 -960 1152 1152"
   width="48"
   version="1.1"
   id="svg4"
   sodipodi:docname="fees-yes.svg"
   inkscape:version="1.2.1 (9c6d41e410, 2022-07-14)"
   xmlns:inkscape="http://www.inkscape.org/namespaces/inkscape"
   xmlns:sodipodi="http://sodipodi.sourceforge.net/DTD/sodipodi-0.dtd"
   xmlns="http://www.w3.org/2000/svg"
   xmlns:svg="http://www.w3.org/2000/svg">
  <defs
     id="defs8" />
  <sodipodi:namedview
     id="namedview6"
     pagecolor="#ffffff"
     bordercolor="#000000"
     borderopacity="0.25"
     inkscape:showpageshadow="2"
     inkscape:pageopacity="0.0"
     inkscape:pagecheckerboard="0"
     inkscape:deskcolor="#d1d1d1"
     showgrid="false"
     inkscape:zoom="31.275"
     inkscape:cx="13.81295"
     inkscape:cy="19.984013"
     inkscape:window-width="3840"
     inkscape:window-height="2066"
     inkscape:window-x="-11"
     inkscape:window-y="-11"
     inkscape:window-maximized="1"
     inkscape:current-layer="svg4" />
  <path
     d="m 354.69567,-201.24988 q 28.68336,65.87942 73.6327,103.384696 44.94934,37.505278 109.89351,53.634836 v 42.4831434 q 0,14.6910706 10.98041,25.1652026 10.97889,10.474133 25.28192,10.474133 14.30302,0 24.97118,-10.980408 10.66815,-10.978892 10.66815,-25.2819187 V -41.198761 q 78.54994,-7.539557 134.30385,-51.477862 55.75392,-43.938307 55.75392,-126.452037 0,-70.42528 -41.23717,-117.14355 -41.23716,-46.71676 -148.1203,-88.38137 -94.36875,-35.52414 -127.98754,-62.30366 -33.6203,-26.77952 -33.6203,-74.19657 0,-46.40602 35.19521,-75.47894 35.19369,-29.07292 94.62038,-29.07292 46.09528,0 78.00576,21.20141 31.90897,21.20291 52.66321,58.39745 l 62.96303,-27.82845 q -23.5145,-48.38716 -65.35495,-78.52871 -41.83893,-30.14004 -94.15351,-34.72683 v -38.439 q 0,-14.30303 -10.66816,-24.97119 -10.66815,-10.66815 -24.97118,-10.66815 -14.30302,0 -25.28192,10.66815 -10.9804,10.66816 -10.9804,24.97119 v 38.439 q -78.16038,12.04904 -120.85422,58.28074 -42.69535,46.23171 -42.69535,107.75625 0,69.95993 43.14251,111.58513 43.141,41.62672 137.66437,78.08307 99.5376,39.33333 135.23606,70.67842 35.69845,31.34661 35.69845,81.67853 0,56.39661 -43.21982,85.09968 -43.21982,28.70306 -100.21669,28.70306 -55.5993,0 -99.69373,-31.71495 -44.09443,-31.71494 -65.78241,-89.08166 z M 576.10156,192 Q 457.22394,192 352.2704,146.64746 247.31686,101.29492 169.03068,23.043597 90.744491,-55.207724 45.372246,-160.11427 0,-265.02234 0,-383.89844 0,-503.39754 45.35254,-608.5451 90.705081,-713.69417 168.9564,-791.47408 247.20772,-869.25551 352.11427,-914.62775 457.02234,-960 575.89844,-960 q 119.4991,0 224.64666,45.35254 105.14907,45.35254 182.92898,123.09759 77.78142,77.74656 123.15372,182.84865 45.3722,105.10057 45.3722,224.59966 0,118.87762 -45.3525,223.83116 Q 1061.2949,-55.316861 983.54987,22.969324 905.80331,101.25551 800.70122,146.62775 695.60065,192 576.10156,192 Z M 576,115.8238 q 208.86876,0 354.34552,-145.789016 Q 1075.8238,-175.75272 1075.8238,-384 q 0,-208.86876 -145.47828,-354.34552 Q 784.86876,-883.8238 576,-883.8238 q -208.24728,0 -354.03478,145.47828 Q 76.1762,-592.86876 76.1762,-384 q 0,208.24728 145.78902,354.034784 Q 367.75272,115.8238 576,115.8238 Z M 576,-384 Z"
     id="path2"
     style="stroke-width:1.51579" />
</svg>
