<svg xmlns="http://www.w3.org/2000/svg" width="48" height="48" viewBox="0 -960 1152 1152"><path d="M354.696-201.25q28.683 65.88 73.632 103.385 44.95 37.505 109.894 53.635v42.483q0 14.69 10.98 25.165 10.98 10.474 25.282 10.474 14.303 0 24.971-10.98 10.669-10.98 10.669-25.282V-41.2q78.55-7.54 134.303-51.478 55.754-43.938 55.754-126.452 0-70.425-41.237-117.143-41.237-46.717-148.12-88.382-94.369-35.524-127.988-62.303-33.62-26.78-33.62-74.197 0-46.406 35.195-75.479 35.194-29.073 94.62-29.073 46.096 0 78.006 21.202 31.91 21.203 52.664 58.397l62.963-27.828q-23.515-48.387-65.355-78.529-41.84-30.14-94.154-34.727v-38.439q0-14.303-10.668-24.971t-24.971-10.668q-14.303 0-25.282 10.668-10.98 10.668-10.98 24.971v38.44q-78.16 12.048-120.855 58.28-42.695 46.232-42.695 107.756 0 69.96 43.142 111.585 43.141 41.627 137.665 78.083 99.537 39.334 135.236 70.679 35.698 31.346 35.698 81.678 0 56.397-43.22 85.1-43.22 28.703-100.216 28.703-55.6 0-99.694-31.715t-65.782-89.082zM576.102 192q-118.878 0-223.832-45.353-104.953-45.352-183.24-123.603Q90.745-55.208 45.373-160.114 0-265.022 0-383.898q0-119.5 45.353-224.647 45.352-105.15 123.603-182.93 78.252-77.78 183.158-123.153Q457.022-960 575.898-960q119.5 0 224.647 45.353 105.15 45.352 182.93 123.097 77.78 77.747 123.153 182.849 45.372 105.1 45.372 224.6 0 118.877-45.352 223.83Q1061.294-55.316 983.55 22.97 905.803 101.256 800.7 146.628 695.601 192 576.101 192ZM576 115.824q208.869 0 354.346-145.79Q1075.824-175.752 1075.824-384q0-208.869-145.478-354.346Q784.869-883.824 576-883.824q-208.247 0-354.035 145.478Q76.176-592.869 76.176-384q0 208.247 145.79 354.035Q367.752 115.824 576 115.824ZM576-384Z" style="stroke-width:1.51579"/></svg>