<svg xmlns="http://www.w3.org/2000/svg" width="48" height="48" viewBox="0 -960 1152 1152"><path d="M744.167-683.226q-23.123-34.374-57.498-53.492-34.374-19.118-79.5-19.118-39.439 0-74.933 13.825-35.495 13.824-60.569 42.76l-57.538-57.537q28.77-32.423 68.81-51.873 40.04-19.448 80.974-24.347v-83.444q0-17.601 11.54-29.142 11.541-11.54 29.143-11.54 17.601 0 29.142 11.54 11.54 11.541 11.54 29.142v82.116q51.478 5.811 98.513 33.937 47.035 28.127 78.835 82.676 9.216 14.654 3.031 31.052-6.185 16.397-23.164 24.285-15.07 6.227-31.362.229-16.295-5.999-26.964-21.069zm337.759 862.744L820.22-81.522q-31.011 35.536-78.296 56.749Q694.64-3.559 645.278-1.566V79.47q0 17.602-11.54 29.143-11.541 11.54-29.142 11.54-17.602 0-29.143-11.54-11.54-11.54-11.54-29.143V-4.14q-75.515-12.454-126.805-57.434-51.29-44.98-81.138-113.978-6.809-14.986.518-31.737 7.327-16.75 24.638-23.225 15.65-5.895 31.093 1.638 15.442 7.535 23.248 23.85 25.406 57.705 70.18 91.02Q550.42-80.69 616.22-80.69q44.005 0 82.178-15.36 38.172-15.362 62.542-44.754L12.026-889.718Q.319-901.424.008-918.382q-.311-16.958 12.018-29.289Q24.355-960 41.002-960q16.646 0 28.976 12.33l1069.9 1069.9q6.559 5.896 9.34 13.015 2.782 7.118 2.782 15.317 0 8.2-2.781 15.299-2.782 7.098-9.34 13.657-11.916 12.329-28.77 12.329t-29.183-12.33z" style="stroke-width:1.61905"/></svg>